<svg id="svg" xmlns="http://www.w3.org/2000/svg" xmlns:xlink="http://www.w3.org/1999/xlink" width="400" height="400" viewBox="0, 0, 400,400" version="1.1"><g id="svgg"><path id="path0" d="M194.200 50.000 C 194.064 50.220,193.513 50.400,192.976 50.400 C 192.439 50.400,192.000 50.580,192.000 50.800 C 192.000 51.020,191.640 51.200,191.200 51.200 C 190.760 51.200,190.400 51.380,190.400 51.600 C 190.400 51.820,190.040 52.000,189.600 52.000 C 189.160 52.000,188.800 52.150,188.800 52.332 C 188.800 52.515,188.305 52.919,187.700 53.231 C 186.428 53.884,184.000 56.352,184.000 56.990 C 184.000 57.228,183.640 57.683,183.200 58.000 C 182.760 58.317,182.400 58.886,182.400 59.265 C 182.400 59.643,182.220 60.064,182.000 60.200 C 181.780 60.336,181.600 60.887,181.600 61.424 C 181.600 61.961,181.420 62.400,181.200 62.400 C 180.974 62.400,180.800 63.533,180.800 65.000 C 180.800 67.044,180.672 67.600,180.200 67.600 C 179.870 67.600,179.600 67.780,179.600 68.000 C 179.600 68.220,178.700 68.400,177.600 68.400 C 176.500 68.400,175.600 68.580,175.600 68.800 C 175.600 69.020,174.801 69.200,173.824 69.200 C 172.847 69.200,171.936 69.380,171.800 69.600 C 171.664 69.820,170.944 70.000,170.200 70.000 C 169.456 70.000,168.736 70.180,168.600 70.400 C 168.464 70.620,167.823 70.800,167.176 70.800 C 166.529 70.800,166.000 70.980,166.000 71.200 C 166.000 71.420,165.460 71.600,164.800 71.600 C 164.140 71.600,163.600 71.780,163.600 72.000 C 163.600 72.220,163.161 72.400,162.624 72.400 C 162.087 72.400,161.536 72.580,161.400 72.800 C 161.264 73.020,160.713 73.200,160.176 73.200 C 159.639 73.200,159.200 73.380,159.200 73.600 C 159.200 73.820,158.840 74.000,158.400 74.000 C 157.960 74.000,157.600 74.180,157.600 74.400 C 157.600 74.620,157.060 74.800,156.400 74.800 C 155.740 74.800,155.200 74.980,155.200 75.200 C 155.200 75.420,154.840 75.600,154.400 75.600 C 153.960 75.600,153.600 75.780,153.600 76.000 C 153.600 76.220,153.240 76.400,152.800 76.400 C 152.360 76.400,152.000 76.580,152.000 76.800 C 152.000 77.020,151.712 77.200,151.360 77.200 C 150.495 77.200,148.160 78.304,146.128 79.673 C 145.208 80.293,144.263 80.800,144.028 80.800 C 143.793 80.800,143.600 80.968,143.600 81.173 C 143.600 81.378,143.234 81.662,142.787 81.804 C 142.340 81.946,141.538 82.498,141.005 83.031 C 140.472 83.564,139.847 84.000,139.615 84.000 C 139.383 84.000,138.628 84.540,137.937 85.200 C 137.246 85.860,136.524 86.400,136.332 86.400 C 136.140 86.400,135.008 87.345,133.817 88.500 C 132.626 89.655,130.965 91.256,130.126 92.058 C 127.196 94.856,123.200 99.242,123.200 99.659 C 123.200 99.890,122.660 100.583,122.000 101.200 C 121.340 101.817,120.800 102.569,120.800 102.872 C 120.800 103.175,120.440 103.683,120.000 104.000 C 119.560 104.317,119.200 104.857,119.200 105.200 C 119.200 105.543,118.840 106.083,118.400 106.400 C 117.960 106.717,117.600 107.214,117.600 107.505 C 117.600 107.796,117.240 108.420,116.800 108.892 C 116.360 109.364,116.000 109.987,116.000 110.275 C 116.000 110.564,115.865 110.801,115.700 110.801 C 115.535 110.802,114.950 111.792,114.400 113.000 C 113.850 114.208,113.265 115.198,113.100 115.199 C 112.935 115.199,112.800 115.453,112.800 115.762 C 112.800 116.248,112.393 117.192,110.777 120.451 C 110.600 120.809,110.332 121.756,110.182 122.555 C 110.032 123.355,109.750 124.107,109.555 124.228 C 109.360 124.349,109.200 124.887,109.200 125.424 C 109.200 125.961,109.020 126.400,108.800 126.400 C 108.580 126.400,108.400 126.940,108.400 127.600 C 108.400 128.260,108.220 128.800,108.000 128.800 C 107.780 128.800,107.600 129.340,107.600 130.000 C 107.600 130.660,107.420 131.200,107.200 131.200 C 106.980 131.200,106.800 131.830,106.800 132.600 C 106.800 133.370,106.620 134.000,106.400 134.000 C 106.180 134.000,106.000 134.619,106.000 135.376 C 106.000 136.133,105.820 136.864,105.600 137.000 C 105.380 137.136,105.200 137.957,105.200 138.824 C 105.200 139.691,105.020 140.400,104.800 140.400 C 104.580 140.400,104.400 141.109,104.400 141.976 C 104.400 142.843,104.220 143.664,104.000 143.800 C 103.780 143.936,103.600 144.926,103.600 146.000 C 103.600 147.074,103.420 148.064,103.200 148.200 C 102.980 148.336,102.800 149.596,102.800 151.000 C 102.800 152.404,102.620 153.664,102.400 153.800 C 102.179 153.936,102.000 155.730,102.000 157.800 C 102.000 159.870,101.821 161.664,101.600 161.800 C 101.345 161.957,101.200 167.311,101.200 176.544 C 101.200 185.214,101.047 191.193,100.818 191.422 C 100.608 191.632,100.344 195.043,100.232 199.002 C 99.943 209.177,99.606 214.140,99.173 214.580 C 98.968 214.789,98.800 216.263,98.800 217.856 C 98.800 219.449,98.620 220.864,98.400 221.000 C 98.180 221.136,98.000 222.407,98.000 223.824 C 98.000 225.275,97.825 226.400,97.600 226.400 C 97.380 226.400,97.200 227.264,97.200 228.320 C 97.200 229.376,97.037 230.411,96.839 230.620 C 96.640 230.829,96.376 231.810,96.251 232.800 C 95.756 236.744,95.500 238.015,95.158 238.226 C 94.961 238.348,94.800 238.966,94.800 239.600 C 94.800 240.234,94.638 240.853,94.439 240.976 C 94.241 241.098,93.953 242.279,93.800 243.599 C 93.647 244.920,93.359 246.000,93.161 246.000 C 92.962 246.000,92.800 246.439,92.800 246.976 C 92.800 247.513,92.620 248.064,92.400 248.200 C 92.180 248.336,92.000 248.887,92.000 249.424 C 92.000 249.961,91.820 250.400,91.600 250.400 C 91.380 250.400,91.200 250.940,91.200 251.600 C 91.200 252.260,91.020 252.800,90.800 252.800 C 90.580 252.800,90.400 253.160,90.400 253.600 C 90.400 254.040,90.220 254.400,90.000 254.400 C 89.780 254.400,89.600 254.760,89.600 255.200 C 89.600 255.640,89.420 256.000,89.200 256.000 C 88.980 256.000,88.800 256.253,88.800 256.562 C 88.800 257.116,87.220 260.410,86.768 260.800 C 86.640 260.910,86.281 261.585,85.970 262.300 C 85.659 263.015,85.269 263.600,85.102 263.600 C 84.936 263.600,84.800 263.836,84.800 264.125 C 84.800 264.413,84.440 265.036,84.000 265.508 C 83.560 265.980,83.200 266.562,83.200 266.801 C 83.200 267.041,82.750 267.686,82.200 268.236 C 81.650 268.786,81.200 269.400,81.200 269.600 C 81.200 269.800,80.795 270.378,80.300 270.884 C 79.805 271.391,78.861 272.614,78.202 273.602 C 77.544 274.591,76.497 275.850,75.877 276.400 C 75.256 276.950,73.095 279.021,71.074 281.003 C 69.053 282.985,66.770 285.049,66.000 285.590 C 65.230 286.131,63.939 287.255,63.131 288.087 C 62.324 288.919,61.544 289.600,61.400 289.600 C 61.256 289.600,60.476 290.275,59.669 291.100 C 58.861 291.925,57.733 292.840,57.162 293.134 C 56.592 293.428,55.354 294.373,54.412 295.234 C 53.470 296.095,52.587 296.803,52.449 296.806 C 51.642 296.827,49.600 299.225,49.600 300.153 L 49.600 301.200 200.000 301.200 L 350.400 301.200 350.400 300.154 C 350.400 299.168,347.973 296.400,347.108 296.400 C 346.924 296.400,346.159 295.815,345.408 295.100 C 343.328 293.119,342.886 292.800,342.217 292.800 C 341.878 292.800,341.600 292.648,341.600 292.461 C 341.600 291.944,340.356 290.670,338.800 289.594 C 338.030 289.061,336.770 287.984,336.000 287.200 C 335.230 286.416,333.970 285.331,333.200 284.789 C 331.366 283.499,323.660 275.795,322.408 274.000 C 321.871 273.230,320.929 272.123,320.315 271.540 C 319.702 270.956,319.200 270.231,319.200 269.928 C 319.200 269.625,318.840 269.117,318.400 268.800 C 317.960 268.483,317.600 268.027,317.600 267.787 C 317.600 267.547,317.285 267.002,316.900 266.575 C 316.515 266.149,315.945 265.305,315.632 264.700 C 315.320 264.095,314.915 263.600,314.732 263.600 C 314.550 263.600,314.400 263.240,314.400 262.800 C 314.400 262.360,314.254 262.000,314.075 262.000 C 313.896 262.000,313.502 261.370,313.200 260.600 C 312.898 259.830,312.504 259.200,312.325 259.200 C 312.146 259.200,312.000 258.840,312.000 258.400 C 312.000 257.960,311.820 257.600,311.600 257.600 C 311.380 257.600,311.200 257.240,311.200 256.800 C 311.200 256.360,311.020 256.000,310.800 256.000 C 310.580 256.000,310.400 255.640,310.400 255.200 C 310.400 254.760,310.220 254.400,310.000 254.400 C 309.780 254.400,309.600 254.038,309.600 253.595 C 309.600 253.152,309.431 252.477,309.223 252.095 C 309.016 251.713,308.538 250.320,308.161 249.000 C 307.783 247.680,307.323 246.429,307.137 246.220 C 306.952 246.011,306.800 245.437,306.800 244.944 C 306.800 244.451,306.640 243.948,306.444 243.827 C 306.249 243.706,305.991 243.021,305.873 242.304 C 305.513 240.131,305.158 238.642,304.797 237.800 C 304.442 236.971,304.112 235.353,303.736 232.600 C 303.616 231.720,303.356 230.829,303.159 230.620 C 302.962 230.411,302.800 229.376,302.800 228.320 C 302.800 227.264,302.620 226.400,302.400 226.400 C 302.171 226.400,302.000 225.200,302.000 223.600 C 302.000 222.000,301.829 220.800,301.600 220.800 C 301.369 220.800,301.200 219.541,301.200 217.824 C 301.200 216.187,301.020 214.736,300.800 214.600 C 300.577 214.462,300.400 212.604,300.400 210.400 C 300.400 208.196,300.223 206.338,300.000 206.200 C 299.758 206.050,299.600 203.196,299.600 198.976 C 299.600 194.592,299.451 192.000,299.200 192.000 C 298.940 192.000,298.800 186.741,298.800 177.024 C 298.800 167.471,298.655 161.958,298.400 161.800 C 298.179 161.664,298.000 159.870,298.000 157.800 C 298.000 155.730,297.821 153.936,297.600 153.800 C 297.380 153.664,297.200 152.404,297.200 151.000 C 297.200 149.596,297.020 148.336,296.800 148.200 C 296.580 148.064,296.400 146.973,296.400 145.776 C 296.400 144.579,296.220 143.600,296.000 143.600 C 295.780 143.600,295.600 142.880,295.600 142.000 C 295.600 141.120,295.420 140.400,295.200 140.400 C 294.980 140.400,294.800 139.601,294.800 138.624 C 294.800 137.647,294.620 136.736,294.400 136.600 C 294.180 136.464,294.000 135.834,294.000 135.200 C 294.000 134.566,293.820 133.936,293.600 133.800 C 293.380 133.664,293.200 132.933,293.200 132.176 C 293.200 131.419,293.020 130.800,292.800 130.800 C 292.580 130.800,292.400 130.260,292.400 129.600 C 292.400 128.940,292.220 128.400,292.000 128.400 C 291.780 128.400,291.600 128.094,291.600 127.720 C 291.600 126.638,290.255 122.400,289.911 122.400 C 289.740 122.400,289.600 121.961,289.600 121.424 C 289.600 120.887,289.420 120.336,289.200 120.200 C 288.980 120.064,288.800 119.603,288.800 119.176 C 288.800 118.749,288.620 118.400,288.400 118.400 C 288.180 118.400,288.000 118.040,288.000 117.600 C 288.000 117.160,287.820 116.800,287.600 116.800 C 287.380 116.800,287.200 116.440,287.200 116.000 C 287.200 115.560,287.020 115.200,286.800 115.200 C 286.580 115.200,286.400 114.840,286.400 114.400 C 286.400 113.960,286.220 113.600,286.000 113.600 C 285.780 113.600,285.600 113.240,285.600 112.800 C 285.600 112.360,285.454 112.000,285.275 112.000 C 285.096 112.000,284.702 111.370,284.400 110.600 C 284.098 109.830,283.726 109.200,283.574 109.200 C 283.422 109.200,283.073 108.660,282.800 108.000 C 282.527 107.340,282.145 106.800,281.951 106.800 C 281.758 106.800,281.600 106.480,281.600 106.088 C 281.600 105.697,281.240 105.117,280.800 104.800 C 280.360 104.483,280.000 104.020,280.000 103.771 C 280.000 103.522,279.460 102.754,278.800 102.063 C 278.140 101.372,277.600 100.661,277.600 100.482 C 277.600 100.303,276.970 99.469,276.200 98.628 C 275.430 97.787,274.800 96.975,274.800 96.823 C 274.800 96.361,267.233 88.800,266.770 88.800 C 266.532 88.800,265.646 88.080,264.800 87.200 C 263.954 86.320,263.095 85.600,262.891 85.600 C 262.686 85.600,261.954 85.060,261.263 84.400 C 260.572 83.740,259.779 83.200,259.500 83.200 C 259.221 83.200,258.768 82.840,258.493 82.400 C 258.218 81.960,257.747 81.600,257.446 81.600 C 257.144 81.600,256.681 81.339,256.416 81.019 C 255.969 80.481,254.245 79.501,250.800 77.828 C 250.030 77.454,249.087 76.980,248.705 76.774 C 248.323 76.568,247.648 76.400,247.205 76.400 C 246.762 76.400,246.400 76.220,246.400 76.000 C 246.400 75.780,246.040 75.600,245.600 75.600 C 245.160 75.600,244.800 75.420,244.800 75.200 C 244.800 74.980,244.440 74.800,244.000 74.800 C 243.560 74.800,243.200 74.620,243.200 74.400 C 243.200 74.180,242.750 74.000,242.200 74.000 C 241.650 74.000,241.200 73.820,241.200 73.600 C 241.200 73.380,240.750 73.200,240.200 73.200 C 239.650 73.200,239.200 73.020,239.200 72.800 C 239.200 72.580,238.761 72.400,238.224 72.400 C 237.687 72.400,237.136 72.220,237.000 72.000 C 236.864 71.780,236.324 71.600,235.800 71.600 C 235.276 71.600,234.736 71.420,234.600 71.200 C 234.464 70.980,233.733 70.800,232.976 70.800 C 232.219 70.800,231.600 70.620,231.600 70.400 C 231.600 70.180,230.880 70.000,230.000 70.000 C 229.120 70.000,228.400 69.820,228.400 69.600 C 228.400 69.380,227.691 69.200,226.824 69.200 C 225.957 69.200,225.136 69.020,225.000 68.800 C 224.864 68.580,223.899 68.400,222.856 68.400 C 220.689 68.400,220.000 67.904,220.000 66.344 C 220.000 65.741,219.820 65.136,219.600 65.000 C 219.380 64.864,219.200 64.169,219.200 63.456 C 219.200 62.097,218.414 60.008,217.900 60.003 C 217.735 60.001,217.600 59.640,217.600 59.200 C 217.600 58.760,217.420 58.400,217.200 58.400 C 216.980 58.400,216.800 58.126,216.800 57.791 C 216.800 57.018,212.610 52.800,211.842 52.800 C 211.526 52.800,211.207 52.665,211.133 52.500 C 210.912 52.001,207.578 50.400,206.762 50.400 C 206.343 50.400,206.000 50.220,206.000 50.000 C 206.000 49.752,203.808 49.600,200.224 49.600 C 196.804 49.600,194.346 49.763,194.200 50.000 M159.200 317.600 C 159.200 318.480,159.354 319.200,159.543 319.200 C 159.732 319.200,159.995 320.235,160.128 321.500 C 160.353 323.629,160.907 325.172,162.749 328.800 C 163.979 331.221,164.578 332.171,165.300 332.843 C 165.685 333.201,166.000 333.705,166.000 333.962 C 166.000 334.220,167.611 335.999,169.579 337.915 C 173.922 342.144,174.226 342.400,174.895 342.400 C 175.186 342.400,175.683 342.760,176.000 343.200 C 176.317 343.640,176.807 344.000,177.088 344.000 C 177.370 344.000,177.600 344.180,177.600 344.400 C 177.600 344.620,177.855 344.800,178.167 344.800 C 178.478 344.800,178.793 344.935,178.867 345.100 C 179.088 345.599,182.422 347.200,183.238 347.200 C 183.657 347.200,184.000 347.380,184.000 347.600 C 184.000 347.820,184.349 348.000,184.776 348.000 C 185.203 348.000,185.664 348.180,185.800 348.400 C 185.936 348.620,186.566 348.800,187.200 348.800 C 187.834 348.800,188.464 348.980,188.600 349.200 C 188.736 349.420,189.557 349.600,190.424 349.600 C 191.291 349.600,192.000 349.780,192.000 350.000 C 192.000 350.254,194.992 350.400,200.176 350.400 C 205.196 350.400,208.448 350.246,208.600 350.000 C 208.736 349.780,209.557 349.600,210.424 349.600 C 211.291 349.600,212.000 349.420,212.000 349.200 C 212.000 348.980,212.540 348.800,213.200 348.800 C 213.860 348.800,214.400 348.620,214.400 348.400 C 214.400 348.180,214.940 348.000,215.600 348.000 C 216.260 348.000,216.800 347.820,216.800 347.600 C 216.800 347.380,217.160 347.200,217.600 347.200 C 218.040 347.200,218.400 347.020,218.400 346.800 C 218.400 346.580,218.760 346.400,219.200 346.400 C 219.640 346.400,220.000 346.220,220.000 346.000 C 220.000 345.780,220.360 345.600,220.800 345.600 C 221.240 345.600,221.600 345.420,221.600 345.200 C 221.600 344.980,221.870 344.800,222.200 344.800 C 222.530 344.800,222.800 344.620,222.800 344.400 C 222.800 344.180,223.070 344.000,223.400 344.000 C 223.730 344.000,224.000 343.820,224.000 343.600 C 224.000 343.380,224.204 343.200,224.453 343.200 C 224.702 343.200,225.197 342.880,225.553 342.490 C 225.909 342.099,226.736 341.438,227.390 341.021 C 228.978 340.010,232.400 336.789,232.400 336.306 C 232.400 336.094,232.895 335.444,233.500 334.860 C 234.105 334.277,234.855 333.305,235.168 332.700 C 235.480 332.095,235.885 331.600,236.068 331.600 C 236.250 331.600,236.400 331.240,236.400 330.800 C 236.400 330.360,236.548 330.000,236.729 330.000 C 237.090 330.000,238.800 326.427,238.800 325.672 C 238.800 325.412,238.980 325.200,239.200 325.200 C 239.420 325.200,239.600 324.838,239.600 324.395 C 239.600 323.952,239.758 323.277,239.951 322.895 C 240.683 321.446,241.200 319.283,241.200 317.672 L 241.200 316.000 200.200 316.000 L 159.200 316.000 159.200 317.600 " stroke="none" fill="#040404" fill-rule="evenodd"></path><path id="path1" d="" stroke="none" fill="#080404" fill-rule="evenodd"></path></g></svg>