<svg id="svg" xmlns="http://www.w3.org/2000/svg" xmlns:xlink="http://www.w3.org/1999/xlink" width="400" height="400" viewBox="0, 0, 400,400" version="1.1"><g id="svgg"><path id="path0" d="M197.200 48.400 C 197.200 48.620,196.390 48.800,195.400 48.800 C 194.410 48.800,193.600 48.980,193.600 49.200 C 193.600 49.420,193.060 49.600,192.400 49.600 C 191.740 49.600,191.200 49.780,191.200 50.000 C 191.200 50.220,190.912 50.400,190.560 50.400 C 190.209 50.400,189.417 50.940,188.800 51.600 C 188.183 52.260,187.477 52.800,187.229 52.800 C 186.602 52.800,183.200 56.263,183.200 56.901 C 183.200 57.188,182.840 57.683,182.400 58.000 C 181.960 58.317,181.600 58.897,181.600 59.288 C 181.600 59.680,181.420 60.000,181.200 60.000 C 180.980 60.000,180.800 60.450,180.800 61.000 C 180.800 61.550,180.620 62.000,180.400 62.000 C 180.180 62.000,180.000 62.818,180.000 63.818 C 180.000 66.255,178.726 67.600,176.418 67.600 C 175.528 67.600,174.800 67.780,174.800 68.000 C 174.800 68.220,173.900 68.400,172.800 68.400 C 171.700 68.400,170.800 68.580,170.800 68.800 C 170.800 69.020,170.260 69.200,169.600 69.200 C 168.940 69.200,168.400 69.380,168.400 69.600 C 168.400 69.820,167.680 70.000,166.800 70.000 C 165.920 70.000,165.200 70.180,165.200 70.400 C 165.200 70.620,164.660 70.800,164.000 70.800 C 163.340 70.800,162.800 70.980,162.800 71.200 C 162.800 71.420,162.260 71.600,161.600 71.600 C 160.940 71.600,160.400 71.780,160.400 72.000 C 160.400 72.220,160.130 72.400,159.800 72.400 C 159.470 72.400,159.200 72.580,159.200 72.800 C 159.200 73.020,158.660 73.200,158.000 73.200 C 157.340 73.200,156.800 73.380,156.800 73.600 C 156.800 73.820,156.440 74.000,156.000 74.000 C 155.560 74.000,155.200 74.180,155.200 74.400 C 155.200 74.620,154.840 74.800,154.400 74.800 C 153.960 74.800,153.600 74.980,153.600 75.200 C 153.600 75.420,153.240 75.600,152.800 75.600 C 152.360 75.600,152.000 75.780,152.000 76.000 C 152.000 76.220,151.640 76.400,151.200 76.400 C 150.760 76.400,150.400 76.564,150.400 76.765 C 150.400 76.966,149.680 77.251,148.800 77.400 C 147.920 77.549,147.200 77.834,147.200 78.035 C 147.200 78.236,146.964 78.400,146.675 78.400 C 146.387 78.400,145.764 78.760,145.292 79.200 C 144.820 79.640,144.246 80.000,144.017 80.000 C 143.788 80.000,143.600 80.180,143.600 80.400 C 143.600 80.620,143.312 80.800,142.960 80.800 C 142.609 80.800,141.817 81.340,141.200 82.000 C 140.583 82.660,139.863 83.200,139.600 83.200 C 139.337 83.200,138.617 83.740,138.000 84.400 C 137.383 85.060,136.680 85.600,136.436 85.600 C 135.854 85.600,122.400 99.050,122.400 99.632 C 122.400 99.878,121.860 100.583,121.200 101.200 C 120.540 101.817,120.000 102.569,120.000 102.872 C 120.000 103.175,119.640 103.683,119.200 104.000 C 118.760 104.317,118.400 104.857,118.400 105.200 C 118.400 105.543,118.040 106.083,117.600 106.400 C 117.160 106.717,116.800 107.257,116.800 107.600 C 116.800 107.943,116.440 108.483,116.000 108.800 C 115.560 109.117,115.200 109.607,115.200 109.888 C 115.200 110.170,115.020 110.400,114.800 110.400 C 114.580 110.400,114.400 110.760,114.400 111.200 C 114.400 111.640,114.220 112.000,114.000 112.000 C 113.780 112.000,113.600 112.360,113.600 112.800 C 113.600 113.240,113.420 113.600,113.200 113.600 C 112.980 113.600,112.800 113.960,112.800 114.400 C 112.800 114.840,112.620 115.200,112.400 115.200 C 112.180 115.200,112.000 115.560,112.000 116.000 C 112.000 116.440,111.820 116.800,111.600 116.800 C 111.380 116.800,111.200 117.160,111.200 117.600 C 111.200 118.040,111.026 118.400,110.814 118.400 C 110.601 118.400,110.308 119.300,110.162 120.400 C 110.016 121.500,109.740 122.400,109.548 122.400 C 109.357 122.400,109.200 122.760,109.200 123.200 C 109.200 123.640,109.020 124.000,108.800 124.000 C 108.580 124.000,108.400 124.540,108.400 125.200 C 108.400 125.860,108.220 126.400,108.000 126.400 C 107.780 126.400,107.600 126.850,107.600 127.400 C 107.600 127.950,107.420 128.400,107.200 128.400 C 106.980 128.400,106.800 128.940,106.800 129.600 C 106.800 130.260,106.620 130.800,106.400 130.800 C 106.180 130.800,106.000 131.340,106.000 132.000 C 106.000 132.660,105.820 133.200,105.600 133.200 C 105.380 133.200,105.200 133.920,105.200 134.800 C 105.200 135.680,105.020 136.400,104.800 136.400 C 104.580 136.400,104.400 137.120,104.400 138.000 C 104.400 138.880,104.220 139.600,104.000 139.600 C 103.780 139.600,103.600 140.320,103.600 141.200 C 103.600 142.080,103.420 142.800,103.200 142.800 C 102.980 142.800,102.800 143.790,102.800 145.000 C 102.800 146.210,102.620 147.200,102.400 147.200 C 102.171 147.200,102.000 148.400,102.000 150.000 C 102.000 151.600,101.829 152.800,101.600 152.800 C 101.363 152.800,101.200 154.267,101.200 156.400 C 101.200 158.533,101.037 160.000,100.800 160.000 C 100.544 160.000,100.400 163.600,100.400 170.000 C 100.400 176.400,100.256 180.000,100.000 180.000 C 99.743 180.000,99.600 184.067,99.600 191.400 C 99.600 198.733,99.457 202.800,99.200 202.800 C 98.955 202.800,98.800 204.733,98.800 207.800 C 98.800 210.867,98.645 212.800,98.400 212.800 C 98.167 212.800,98.000 214.133,98.000 216.000 C 98.000 217.867,97.833 219.200,97.600 219.200 C 97.371 219.200,97.200 220.400,97.200 222.000 C 97.200 223.600,97.029 224.800,96.800 224.800 C 96.580 224.800,96.400 225.790,96.400 227.000 C 96.400 228.210,96.220 229.200,96.000 229.200 C 95.780 229.200,95.600 230.100,95.600 231.200 C 95.600 232.300,95.420 233.200,95.200 233.200 C 94.980 233.200,94.800 234.100,94.800 235.200 C 94.800 236.300,94.643 237.200,94.452 237.200 C 94.260 237.200,93.979 238.460,93.827 240.000 C 93.676 241.540,93.382 242.800,93.176 242.800 C 92.969 242.800,92.800 243.430,92.800 244.200 C 92.800 244.970,92.620 245.600,92.400 245.600 C 92.180 245.600,92.000 246.140,92.000 246.800 C 92.000 247.460,91.820 248.000,91.600 248.000 C 91.380 248.000,91.200 248.540,91.200 249.200 C 91.200 249.860,91.020 250.400,90.800 250.400 C 90.580 250.400,90.400 250.760,90.400 251.200 C 90.400 251.640,90.220 252.000,90.000 252.000 C 89.780 252.000,89.600 252.540,89.600 253.200 C 89.600 253.860,89.420 254.400,89.200 254.400 C 88.980 254.400,88.800 254.760,88.800 255.200 C 88.800 255.640,88.620 256.000,88.400 256.000 C 88.180 256.000,88.000 256.360,88.000 256.800 C 88.000 257.240,87.820 257.600,87.600 257.600 C 87.380 257.600,87.200 257.960,87.200 258.400 C 87.200 258.840,87.020 259.200,86.800 259.200 C 86.580 259.200,86.400 259.470,86.400 259.800 C 86.400 260.130,86.220 260.400,86.000 260.400 C 85.780 260.400,85.600 260.760,85.600 261.200 C 85.600 261.640,85.420 262.000,85.200 262.000 C 84.980 262.000,84.800 262.320,84.800 262.712 C 84.800 263.103,84.440 263.683,84.000 264.000 C 83.560 264.317,83.200 264.897,83.200 265.288 C 83.200 265.680,83.020 266.000,82.800 266.000 C 82.580 266.000,82.400 266.288,82.400 266.640 C 82.400 266.991,81.860 267.783,81.200 268.400 C 80.540 269.017,80.000 269.737,80.000 270.000 C 80.000 270.263,79.460 270.983,78.800 271.600 C 78.140 272.217,77.600 273.005,77.600 273.351 C 77.600 273.698,76.788 274.751,75.796 275.691 C 74.804 276.631,72.286 279.065,70.201 281.100 C 68.116 283.135,66.216 284.800,65.979 284.800 C 65.742 284.800,64.671 285.700,63.600 286.800 C 62.529 287.900,61.370 288.800,61.026 288.800 C 60.682 288.800,60.400 288.965,60.400 289.167 C 60.400 289.702,57.343 292.800,56.814 292.800 C 56.348 292.800,55.823 293.182,54.199 294.700 C 53.670 295.195,53.043 295.600,52.808 295.600 C 52.249 295.600,48.800 299.049,48.800 299.608 C 48.800 299.843,49.242 300.478,49.782 301.018 L 50.764 302.000 200.000 302.000 L 349.236 302.000 350.218 301.018 C 350.758 300.478,351.200 299.843,351.200 299.608 C 351.200 299.049,347.751 295.600,347.192 295.600 C 346.957 295.600,346.324 295.195,345.786 294.700 C 345.249 294.205,344.363 293.395,343.819 292.900 C 343.274 292.405,342.552 292.000,342.214 292.000 C 341.876 292.000,341.600 291.839,341.600 291.642 C 341.600 291.103,339.346 288.800,338.817 288.800 C 338.563 288.800,337.296 287.720,336.000 286.400 C 334.704 285.080,333.452 284.000,333.216 284.000 C 332.866 284.000,330.822 282.112,325.514 276.886 C 324.067 275.462,323.200 274.375,323.200 273.987 C 323.200 273.740,322.480 272.846,321.600 272.000 C 320.720 271.154,320.000 270.218,320.000 269.920 C 320.000 269.621,319.640 269.117,319.200 268.800 C 318.760 268.483,318.400 267.943,318.400 267.600 C 318.400 267.257,318.040 266.717,317.600 266.400 C 317.160 266.083,316.800 265.503,316.800 265.112 C 316.800 264.720,316.620 264.400,316.400 264.400 C 316.180 264.400,316.000 264.080,316.000 263.688 C 316.000 263.297,315.640 262.717,315.200 262.400 C 314.760 262.083,314.400 261.503,314.400 261.112 C 314.400 260.720,314.220 260.400,314.000 260.400 C 313.780 260.400,313.600 260.130,313.600 259.800 C 313.600 259.470,313.420 259.200,313.200 259.200 C 312.980 259.200,312.800 258.840,312.800 258.400 C 312.800 257.960,312.620 257.600,312.400 257.600 C 312.180 257.600,312.000 257.240,312.000 256.800 C 312.000 256.360,311.820 256.000,311.600 256.000 C 311.380 256.000,311.200 255.460,311.200 254.800 C 311.200 254.140,311.020 253.600,310.800 253.600 C 310.580 253.600,310.400 253.240,310.400 252.800 C 310.400 252.360,310.220 252.000,310.000 252.000 C 309.780 252.000,309.600 251.460,309.600 250.800 C 309.600 250.140,309.431 249.600,309.225 249.600 C 309.018 249.600,308.727 248.788,308.578 247.795 C 308.429 246.802,308.148 245.892,307.954 245.771 C 307.759 245.651,307.600 244.933,307.600 244.176 C 307.600 243.419,307.420 242.800,307.200 242.800 C 306.980 242.800,306.800 242.260,306.800 241.600 C 306.800 240.940,306.620 240.400,306.400 240.400 C 306.180 240.400,306.000 239.680,306.000 238.800 C 306.000 237.920,305.820 237.200,305.600 237.200 C 305.380 237.200,305.200 236.300,305.200 235.200 C 305.200 234.100,305.020 233.200,304.800 233.200 C 304.580 233.200,304.400 232.300,304.400 231.200 C 304.400 230.100,304.220 229.200,304.000 229.200 C 303.780 229.200,303.600 228.210,303.600 227.000 C 303.600 225.790,303.420 224.800,303.200 224.800 C 302.971 224.800,302.800 223.600,302.800 222.000 C 302.800 220.400,302.629 219.200,302.400 219.200 C 302.167 219.200,302.000 217.867,302.000 216.000 C 302.000 214.133,301.833 212.800,301.600 212.800 C 301.355 212.800,301.200 210.867,301.200 207.800 C 301.200 204.733,301.045 202.800,300.800 202.800 C 300.544 202.800,300.400 199.133,300.400 192.600 C 300.400 186.067,300.256 182.400,300.000 182.400 C 299.743 182.400,299.600 178.400,299.600 171.200 C 299.600 164.000,299.457 160.000,299.200 160.000 C 298.960 160.000,298.800 158.400,298.800 156.000 C 298.800 153.600,298.640 152.000,298.400 152.000 C 298.178 152.000,298.000 150.933,298.000 149.600 C 298.000 148.267,297.822 147.200,297.600 147.200 C 297.380 147.200,297.200 146.210,297.200 145.000 C 297.200 143.790,297.020 142.800,296.800 142.800 C 296.580 142.800,296.400 142.080,296.400 141.200 C 296.400 140.320,296.220 139.600,296.000 139.600 C 295.780 139.600,295.600 138.880,295.600 138.000 C 295.600 137.120,295.420 136.400,295.200 136.400 C 294.980 136.400,294.800 135.680,294.800 134.800 C 294.800 133.920,294.620 133.200,294.400 133.200 C 294.180 133.200,294.000 132.660,294.000 132.000 C 294.000 131.340,293.820 130.800,293.600 130.800 C 293.380 130.800,293.200 130.080,293.200 129.200 C 293.200 128.320,293.020 127.600,292.800 127.600 C 292.580 127.600,292.400 127.330,292.400 127.000 C 292.400 126.670,292.238 126.400,292.039 126.400 C 291.841 126.400,291.553 125.320,291.400 124.000 C 291.247 122.680,290.959 121.600,290.761 121.600 C 290.562 121.600,290.400 121.240,290.400 120.800 C 290.400 120.360,290.220 120.000,290.000 120.000 C 289.780 120.000,289.600 119.640,289.600 119.200 C 289.600 118.760,289.420 118.400,289.200 118.400 C 288.980 118.400,288.800 117.860,288.800 117.200 C 288.800 116.540,288.620 116.000,288.400 116.000 C 288.180 116.000,288.000 115.640,288.000 115.200 C 288.000 114.760,287.820 114.400,287.600 114.400 C 287.380 114.400,287.200 114.080,287.200 113.688 C 287.200 113.297,286.840 112.717,286.400 112.400 C 285.960 112.083,285.600 111.503,285.600 111.112 C 285.600 110.720,285.420 110.400,285.200 110.400 C 284.980 110.400,284.800 110.130,284.800 109.800 C 284.800 109.470,284.620 109.200,284.400 109.200 C 284.180 109.200,284.000 108.880,284.000 108.488 C 284.000 108.097,283.640 107.517,283.200 107.200 C 282.760 106.883,282.400 106.343,282.400 106.000 C 282.400 105.657,282.040 105.117,281.600 104.800 C 281.160 104.483,280.800 103.975,280.800 103.672 C 280.800 103.369,280.260 102.617,279.600 102.000 C 278.940 101.383,278.400 100.677,278.400 100.429 C 278.400 100.181,277.590 99.169,276.600 98.179 C 275.610 97.189,274.800 96.173,274.800 95.921 C 274.800 95.357,267.324 88.000,266.751 88.000 C 266.523 88.000,265.646 87.280,264.800 86.400 C 263.954 85.520,263.051 84.800,262.792 84.800 C 262.533 84.800,261.817 84.260,261.200 83.600 C 260.583 82.940,259.803 82.400,259.466 82.400 C 259.130 82.400,258.740 82.040,258.600 81.600 C 258.460 81.160,258.038 80.800,257.661 80.800 C 257.285 80.800,256.717 80.440,256.400 80.000 C 256.083 79.560,255.503 79.200,255.112 79.200 C 254.720 79.200,254.400 79.020,254.400 78.800 C 254.400 78.580,254.117 78.400,253.771 78.400 C 253.426 78.400,252.873 78.130,252.543 77.800 C 252.213 77.470,251.596 77.200,251.171 77.200 C 250.747 77.200,250.400 77.020,250.400 76.800 C 250.400 76.580,250.040 76.400,249.600 76.400 C 249.160 76.400,248.800 76.220,248.800 76.000 C 248.800 75.780,248.440 75.600,248.000 75.600 C 247.560 75.600,247.200 75.420,247.200 75.200 C 247.200 74.980,246.840 74.800,246.400 74.800 C 245.960 74.800,245.600 74.620,245.600 74.400 C 245.600 74.180,245.060 74.000,244.400 74.000 C 243.740 74.000,243.200 73.820,243.200 73.600 C 243.200 73.380,242.840 73.200,242.400 73.200 C 241.960 73.200,241.600 73.020,241.600 72.800 C 241.600 72.580,241.150 72.400,240.600 72.400 C 240.050 72.400,239.600 72.220,239.600 72.000 C 239.600 71.780,239.060 71.600,238.400 71.600 C 237.740 71.600,237.200 71.420,237.200 71.200 C 237.200 70.980,236.660 70.800,236.000 70.800 C 235.340 70.800,234.800 70.620,234.800 70.400 C 234.800 70.180,234.260 70.000,233.600 70.000 C 232.940 70.000,232.400 69.820,232.400 69.600 C 232.400 69.380,231.680 69.200,230.800 69.200 C 229.920 69.200,229.200 69.020,229.200 68.800 C 229.200 68.580,228.480 68.400,227.600 68.400 C 226.720 68.400,226.000 68.220,226.000 68.000 C 226.000 67.780,225.087 67.600,223.971 67.600 C 221.547 67.600,220.800 66.994,220.800 65.029 C 220.800 64.243,220.620 63.600,220.400 63.600 C 220.180 63.600,220.000 63.060,220.000 62.400 C 220.000 61.740,219.820 61.200,219.600 61.200 C 219.380 61.200,219.200 60.790,219.200 60.288 C 219.200 59.787,218.840 59.117,218.400 58.800 C 217.960 58.483,217.600 57.990,217.600 57.704 C 217.600 57.028,212.572 52.000,211.896 52.000 C 211.610 52.000,211.117 51.640,210.800 51.200 C 210.483 50.760,209.903 50.400,209.512 50.400 C 209.120 50.400,208.800 50.220,208.800 50.000 C 208.800 49.780,208.350 49.600,207.800 49.600 C 207.250 49.600,206.800 49.420,206.800 49.200 C 206.800 48.980,206.080 48.800,205.200 48.800 C 204.320 48.800,203.600 48.620,203.600 48.400 C 203.600 48.167,202.267 48.000,200.400 48.000 C 198.533 48.000,197.200 48.167,197.200 48.400 M159.300 315.410 C 158.359 316.415,157.968 320.000,158.800 320.000 C 159.020 320.000,159.200 320.720,159.200 321.600 C 159.200 322.480,159.360 323.200,159.555 323.200 C 159.750 323.200,160.031 324.010,160.179 325.000 C 160.328 325.990,160.618 326.800,160.825 326.800 C 161.031 326.800,161.200 327.160,161.200 327.600 C 161.200 328.040,161.380 328.400,161.600 328.400 C 161.820 328.400,162.000 328.760,162.000 329.200 C 162.000 329.640,162.180 330.000,162.400 330.000 C 162.620 330.000,162.800 330.288,162.800 330.640 C 162.800 330.991,163.340 331.783,164.000 332.400 C 164.660 333.017,165.200 333.726,165.200 333.976 C 165.200 334.226,166.817 335.999,168.794 337.915 C 173.785 342.754,174.300 343.200,174.897 343.200 C 175.187 343.200,175.683 343.560,176.000 344.000 C 176.317 344.440,176.767 344.800,177.000 344.800 C 177.233 344.800,177.683 345.160,178.000 345.600 C 178.317 346.040,178.897 346.400,179.288 346.400 C 179.680 346.400,180.000 346.580,180.000 346.800 C 180.000 347.020,180.360 347.200,180.800 347.200 C 181.240 347.200,181.600 347.380,181.600 347.600 C 181.600 347.820,181.960 348.000,182.400 348.000 C 182.840 348.000,183.200 348.180,183.200 348.400 C 183.200 348.620,183.740 348.800,184.400 348.800 C 185.060 348.800,185.600 348.980,185.600 349.200 C 185.600 349.420,186.140 349.600,186.800 349.600 C 187.460 349.600,188.000 349.780,188.000 350.000 C 188.000 350.220,188.720 350.400,189.600 350.400 C 190.480 350.400,191.200 350.580,191.200 350.800 C 191.200 351.020,192.190 351.200,193.400 351.200 C 194.610 351.200,195.600 351.380,195.600 351.600 C 195.600 351.842,197.333 352.000,200.000 352.000 C 202.667 352.000,204.400 351.842,204.400 351.600 C 204.400 351.374,205.533 351.200,207.000 351.200 C 208.467 351.200,209.600 351.026,209.600 350.800 C 209.600 350.580,210.320 350.400,211.200 350.400 C 212.080 350.400,212.800 350.220,212.800 350.000 C 212.800 349.780,213.340 349.600,214.000 349.600 C 214.660 349.600,215.200 349.420,215.200 349.200 C 215.200 348.980,215.560 348.800,216.000 348.800 C 216.440 348.800,216.800 348.620,216.800 348.400 C 216.800 348.180,217.160 348.000,217.600 348.000 C 218.040 348.000,218.400 347.820,218.400 347.600 C 218.400 347.380,218.760 347.200,219.200 347.200 C 219.640 347.200,220.000 347.020,220.000 346.800 C 220.000 346.580,220.360 346.400,220.800 346.400 C 221.240 346.400,221.600 346.220,221.600 346.000 C 221.600 345.780,221.920 345.600,222.312 345.600 C 222.703 345.600,223.283 345.240,223.600 344.800 C 223.917 344.360,224.323 344.000,224.502 344.000 C 224.680 344.000,225.457 343.370,226.227 342.600 C 226.997 341.830,227.895 341.200,228.222 341.200 C 228.906 341.200,233.200 337.040,233.200 336.377 C 233.200 336.135,233.920 335.246,234.800 334.400 C 235.680 333.554,236.400 332.579,236.400 332.231 C 236.400 331.884,236.580 331.600,236.800 331.600 C 237.020 331.600,237.200 331.280,237.200 330.888 C 237.200 330.497,237.560 329.917,238.000 329.600 C 238.440 329.283,238.800 328.703,238.800 328.312 C 238.800 327.920,238.980 327.600,239.200 327.600 C 239.420 327.600,239.600 327.240,239.600 326.800 C 239.600 326.360,239.780 326.000,240.000 326.000 C 240.220 326.000,240.400 325.586,240.400 325.080 C 240.400 324.574,240.588 323.972,240.818 323.742 C 241.048 323.512,241.344 322.036,241.476 320.462 C 241.608 318.888,241.870 317.600,242.058 317.600 C 242.246 317.600,242.400 317.240,242.400 316.800 C 242.400 316.360,242.232 316.000,242.027 316.000 C 241.822 316.000,241.540 315.640,241.400 315.200 C 241.148 314.407,240.806 314.400,200.673 314.424 L 160.200 314.449 159.300 315.410 " stroke="none" fill="#1ca4f4" fill-rule="evenodd"></path><path id="path1" d="" stroke="none" fill="#20a4f4" fill-rule="evenodd"></path></g></svg>