<svg id="svg" xmlns="http://www.w3.org/2000/svg" xmlns:xlink="http://www.w3.org/1999/xlink" width="400" height="400" viewBox="0, 0, 400,400" version="1.1"><g id="svgg"><path id="path0" d="M130.626 91.558 C 130.504 91.755,130.659 92.014,130.969 92.133 C 131.280 92.252,131.633 92.091,131.754 91.775 C 131.994 91.150,130.996 90.959,130.626 91.558 M129.249 92.761 C 128.946 92.953,128.822 93.312,128.974 93.558 C 129.170 93.875,129.419 93.838,129.826 93.432 C 130.786 92.471,130.406 92.028,129.249 92.761 M78.000 273.524 C 78.000 273.739,78.285 274.024,78.633 274.157 C 79.023 274.307,79.206 274.218,79.108 273.925 C 78.909 273.327,78.000 272.998,78.000 273.524 M331.886 284.807 C 332.000 285.243,332.342 285.600,332.647 285.600 C 333.449 285.600,333.325 284.895,332.439 284.421 C 331.792 284.075,331.710 284.132,331.886 284.807 M49.682 300.332 C 49.838 301.139,51.000 301.233,51.000 300.438 C 51.000 300.129,50.675 299.829,50.277 299.770 C 49.788 299.698,49.595 299.880,49.682 300.332 M349.600 299.950 C 349.270 300.088,348.955 300.425,348.900 300.700 C 348.756 301.422,349.980 301.317,350.262 300.583 C 350.558 299.811,350.369 299.630,349.600 299.950 M227.443 340.167 C 227.576 340.515,227.861 340.800,228.076 340.800 C 228.602 340.800,228.273 339.891,227.675 339.692 C 227.382 339.594,227.293 339.777,227.443 340.167 " stroke="none" fill="#fcfcfc" fill-rule="evenodd"></path><path id="path1" d="" stroke="none" fill="#100fcfc" fill-rule="evenodd"></path></g></svg>