<svg id="svg" xmlns="http://www.w3.org/2000/svg" xmlns:xlink="http://www.w3.org/1999/xlink" width="400" height="400" viewBox="0, 0, 400,400" version="1.1"><g id="svgg"><path id="path0" d="M328.299 12.634 C 328.143 12.791,328.399 13.252,328.868 13.659 C 329.338 14.067,329.596 14.400,329.441 14.400 C 329.286 14.400,329.644 14.850,330.238 15.400 C 330.831 15.950,331.471 16.400,331.658 16.400 C 331.846 16.400,332.000 16.648,332.000 16.951 C 332.000 17.710,332.929 18.415,333.480 18.074 C 333.983 17.763,331.771 15.105,330.652 14.675 C 330.293 14.538,330.000 14.149,330.000 13.813 C 330.000 13.476,329.745 13.200,329.433 13.200 C 329.122 13.200,328.803 13.009,328.725 12.775 C 328.647 12.541,328.455 12.478,328.299 12.634 M70.432 13.500 C 70.208 13.885,70.019 14.070,70.012 13.912 C 69.995 13.499,66.000 17.658,66.000 18.089 C 66.000 18.286,65.792 18.319,65.538 18.162 C 65.262 17.991,65.185 18.051,65.345 18.311 C 65.493 18.550,65.216 19.023,64.731 19.363 C 64.245 19.703,63.971 20.105,64.122 20.255 C 64.272 20.405,64.729 20.143,65.138 19.671 C 65.547 19.200,65.998 18.931,66.141 19.074 C 66.283 19.217,66.400 19.033,66.400 18.667 C 66.400 18.300,66.582 18.000,66.804 18.000 C 67.473 18.000,69.600 15.761,69.600 15.057 C 69.600 14.452,70.076 14.210,70.949 14.369 C 71.141 14.404,71.184 14.135,71.045 13.772 C 70.861 13.294,70.958 13.175,71.395 13.343 C 71.728 13.471,72.000 13.401,72.000 13.187 C 72.000 12.532,70.864 12.759,70.432 13.500 M333.896 18.795 C 334.566 19.547,335.467 19.638,335.467 18.955 C 335.467 18.650,335.317 18.400,335.133 18.400 C 334.950 18.400,334.800 18.602,334.800 18.849 C 334.800 19.150,334.570 19.124,334.100 18.768 C 333.506 18.319,333.475 18.323,333.896 18.795 M336.823 22.628 C 337.080 22.938,337.462 23.085,337.672 22.956 C 338.138 22.668,337.792 22.275,336.966 22.154 C 336.484 22.083,336.454 22.183,336.823 22.628 M312.000 35.425 C 312.000 35.891,313.155 36.797,313.349 36.483 C 313.458 36.305,313.200 35.943,312.774 35.677 C 312.348 35.411,312.000 35.298,312.000 35.425 M208.800 241.551 C 208.800 242.053,209.974 242.960,210.257 242.676 C 210.388 242.545,210.217 242.160,209.876 241.819 C 209.181 241.124,208.800 241.029,208.800 241.551 M189.685 242.658 C 189.181 243.233,188.857 243.791,188.965 243.898 C 189.197 244.130,191.546 242.334,191.578 241.900 C 191.626 241.242,190.548 241.674,189.685 242.658 M210.151 243.679 C 210.000 243.924,210.040 244.023,210.240 243.899 C 210.439 243.776,211.132 244.378,211.778 245.237 C 212.425 246.097,213.144 246.797,213.377 246.794 C 213.610 246.791,213.556 246.633,213.257 246.444 C 212.883 246.207,212.851 246.016,213.153 245.829 C 213.745 245.463,212.789 244.429,212.102 244.693 C 211.826 244.799,211.600 244.616,211.600 244.286 C 211.600 243.534,210.520 243.082,210.151 243.679 M187.720 244.524 C 187.544 244.812,186.964 245.346,186.431 245.710 C 185.608 246.272,185.561 246.410,186.116 246.623 C 186.532 246.783,187.119 246.497,187.731 245.837 C 188.259 245.267,188.941 244.797,189.246 244.794 C 189.687 244.789,189.678 244.709,189.200 244.400 C 188.393 243.879,188.099 243.903,187.720 244.524 M214.110 247.169 C 214.160 247.701,214.470 248.210,214.800 248.299 C 215.278 248.428,215.291 248.385,214.866 248.086 C 214.572 247.879,214.361 247.591,214.396 247.445 C 214.431 247.299,214.361 246.960,214.240 246.690 C 214.120 246.421,214.061 246.636,214.110 247.169 M185.013 247.444 C 184.133 248.324,184.541 248.627,185.604 247.883 C 186.080 247.549,186.283 247.175,186.062 247.038 C 185.843 246.903,185.371 247.086,185.013 247.444 M183.534 249.069 C 183.168 249.166,182.776 249.485,182.664 249.777 C 182.400 250.465,183.790 250.135,184.436 249.357 C 184.902 248.795,184.751 248.747,183.534 249.069 M175.618 256.766 C 175.309 257.344,175.303 257.600,175.598 257.600 C 176.083 257.600,176.612 256.478,176.282 256.148 C 176.162 256.029,175.864 256.307,175.618 256.766 M224.269 257.365 C 224.126 257.737,224.172 257.941,224.370 257.818 C 224.569 257.695,224.812 257.821,224.911 258.098 C 225.010 258.374,225.203 258.497,225.341 258.371 C 225.479 258.245,225.353 257.814,225.060 257.415 C 224.569 256.743,224.509 256.739,224.269 257.365 M226.000 258.629 C 226.000 258.754,226.270 259.127,226.600 259.457 C 227.251 260.108,227.333 260.011,226.957 259.033 C 226.729 258.438,226.000 258.130,226.000 258.629 M171.482 261.000 C 170.666 261.770,169.815 262.400,169.590 262.400 C 169.366 262.400,168.982 262.842,168.736 263.381 C 168.490 263.921,168.048 264.416,167.755 264.481 C 167.441 264.551,167.348 264.803,167.529 265.091 C 167.858 265.617,172.444 261.505,172.924 260.255 C 173.269 259.355,173.175 259.404,171.482 261.000 M227.800 260.800 C 228.240 260.989,228.458 261.156,228.284 261.172 C 227.929 261.204,228.470 261.915,230.133 263.601 C 230.881 264.359,231.492 264.660,231.933 264.487 C 232.541 264.247,232.538 264.211,231.895 264.082 C 231.507 264.003,231.292 263.775,231.416 263.574 C 231.540 263.373,231.407 263.291,231.121 263.391 C 230.834 263.491,230.107 262.859,229.504 261.986 C 228.898 261.109,228.093 260.413,227.704 260.428 C 227.098 260.452,227.111 260.504,227.800 260.800 M231.600 265.112 C 231.600 265.456,234.056 266.478,234.299 266.235 C 234.431 266.103,232.106 264.800,231.739 264.800 C 231.662 264.800,231.600 264.941,231.600 265.112 M166.023 266.373 C 165.486 267.022,164.902 267.463,164.724 267.353 C 164.546 267.243,164.400 267.450,164.400 267.814 C 164.400 268.177,164.052 268.566,163.628 268.677 C 163.168 268.797,162.943 269.106,163.070 269.439 C 163.288 270.006,164.085 270.256,163.900 269.700 C 163.845 269.535,163.895 269.400,164.011 269.400 C 164.463 269.400,167.266 265.998,167.136 265.607 C 167.060 265.379,166.559 265.724,166.023 266.373 M234.600 267.411 C 235.040 267.754,235.400 268.252,235.400 268.517 C 235.400 268.783,235.850 269.033,236.400 269.074 C 236.978 269.117,237.104 269.062,236.700 268.945 C 236.315 268.833,236.000 268.513,236.000 268.235 C 236.000 267.956,235.505 267.517,234.900 267.258 C 233.863 266.814,233.846 266.823,234.600 267.411 M161.870 270.161 C 161.599 270.869,161.920 271.206,162.614 270.939 C 162.908 270.826,163.052 270.479,162.932 270.167 C 162.654 269.443,162.147 269.440,161.870 270.161 M196.323 275.093 C 196.031 275.482,194.796 276.720,193.578 277.845 C 192.360 278.970,191.441 280.124,191.536 280.409 C 191.650 280.749,191.486 280.842,191.059 280.678 C 190.702 280.541,190.452 280.590,190.505 280.786 C 190.557 280.983,190.240 281.414,189.800 281.745 C 189.159 282.227,189.099 282.447,189.500 282.853 C 189.903 283.261,190.000 283.223,190.000 282.656 C 190.000 282.269,190.180 282.064,190.400 282.200 C 190.620 282.336,190.800 282.137,190.800 281.757 C 190.800 281.377,190.909 281.176,191.043 281.309 C 191.349 281.616,192.375 280.697,192.147 280.320 C 192.054 280.166,192.343 279.845,192.789 279.606 C 193.235 279.367,193.600 278.908,193.600 278.586 C 193.600 278.264,193.825 278.045,194.100 278.100 C 194.375 278.155,194.555 277.975,194.500 277.700 C 194.445 277.425,194.625 277.195,194.900 277.189 C 195.646 277.172,197.720 274.921,197.254 274.633 C 197.034 274.498,196.616 274.705,196.323 275.093 M155.700 276.419 C 154.398 277.900,153.826 279.362,154.958 278.316 C 155.265 278.032,155.434 277.665,155.334 277.500 C 155.235 277.335,155.444 277.200,155.800 277.200 C 156.156 277.200,156.336 277.020,156.200 276.800 C 156.064 276.580,156.211 276.400,156.527 276.400 C 157.365 276.400,158.173 275.346,157.510 275.117 C 157.230 275.021,156.415 275.607,155.700 276.419 M203.296 275.133 C 202.937 275.360,203.253 275.838,204.396 276.797 C 205.278 277.537,206.000 278.391,206.000 278.695 C 206.000 278.999,206.180 279.136,206.400 279.000 C 206.620 278.864,206.800 279.033,206.800 279.376 C 206.800 279.719,207.070 280.000,207.400 280.000 C 207.730 280.000,208.000 279.853,208.000 279.674 C 208.000 279.240,205.230 276.800,204.738 276.800 C 204.526 276.800,204.448 276.647,204.564 276.459 C 204.914 275.892,203.852 274.782,203.296 275.133 M242.000 275.453 C 242.000 275.906,243.707 277.200,244.304 277.200 C 244.648 277.200,244.795 277.437,244.663 277.780 C 244.507 278.188,244.633 278.286,245.090 278.110 C 245.576 277.924,245.674 278.029,245.482 278.531 C 245.341 278.899,245.399 279.200,245.613 279.200 C 245.826 279.200,246.000 279.003,246.000 278.763 C 246.000 278.117,244.548 276.386,244.253 276.680 C 244.114 276.819,244.000 276.623,244.000 276.243 C 244.000 275.863,243.832 275.656,243.628 275.783 C 243.423 275.909,243.142 275.830,243.004 275.607 C 242.728 275.161,242.000 275.049,242.000 275.453 M152.800 279.182 C 152.800 279.392,152.340 280.023,151.778 280.585 C 151.217 281.147,150.882 281.808,151.034 282.055 C 151.217 282.351,151.450 282.254,151.724 281.765 C 151.951 281.359,152.556 280.608,153.068 280.095 C 154.159 279.004,154.212 278.800,153.400 278.800 C 153.070 278.800,152.800 278.972,152.800 279.182 M207.800 280.400 C 207.664 280.620,207.793 280.800,208.087 280.800 C 208.381 280.800,209.073 281.295,209.623 281.900 C 210.174 282.505,211.069 283.356,211.612 283.791 C 212.248 284.301,212.134 284.078,211.293 283.165 C 210.574 282.385,210.109 281.624,210.260 281.474 C 210.410 281.323,210.253 281.200,209.909 281.200 C 209.566 281.200,209.182 280.930,209.055 280.600 C 208.792 279.913,208.163 279.813,207.800 280.400 M248.800 282.587 C 248.800 282.944,249.035 283.085,249.398 282.946 C 249.726 282.819,249.896 282.555,249.774 282.358 C 249.425 281.793,248.800 281.940,248.800 282.587 M150.242 282.868 C 150.444 283.195,150.300 283.248,149.766 283.044 C 149.182 282.822,149.110 282.864,149.465 283.221 C 149.721 283.479,150.126 283.569,150.365 283.422 C 150.922 283.077,150.929 282.400,150.376 282.400 C 150.143 282.400,150.083 282.611,150.242 282.868 M187.469 284.328 C 186.875 284.948,186.521 285.587,186.682 285.749 C 186.844 285.910,186.676 285.927,186.310 285.787 C 185.812 285.596,185.660 285.741,185.707 286.366 C 185.782 287.359,185.875 287.383,186.654 286.603 C 186.982 286.275,187.139 285.825,187.002 285.603 C 186.865 285.381,187.044 285.200,187.400 285.200 C 187.756 285.200,187.936 285.020,187.800 284.800 C 187.664 284.580,187.814 284.400,188.134 284.400 C 188.453 284.400,188.818 284.130,188.945 283.800 C 189.305 282.860,188.651 283.094,187.469 284.328 M249.622 283.500 C 249.681 284.292,251.916 285.595,252.154 284.975 C 252.284 284.636,252.245 284.449,252.067 284.559 C 251.889 284.669,251.442 284.408,251.075 283.980 C 250.411 283.203,249.580 282.929,249.622 283.500 M148.272 284.197 C 147.876 284.486,147.700 284.815,147.880 284.926 C 148.061 285.038,148.533 284.892,148.928 284.603 C 149.324 284.314,149.500 283.985,149.320 283.874 C 149.139 283.762,148.667 283.908,148.272 284.197 M252.976 285.813 C 253.404 286.136,253.933 286.400,254.153 286.400 C 254.373 286.400,254.204 286.136,253.776 285.813 C 253.349 285.490,252.820 285.225,252.600 285.225 C 252.380 285.225,252.549 285.490,252.976 285.813 M214.083 286.384 C 214.420 286.923,214.662 287.023,214.860 286.703 C 215.229 286.106,214.914 285.600,214.173 285.600 C 213.697 285.600,213.681 285.741,214.083 286.384 M145.602 286.796 C 145.368 287.234,145.046 287.573,144.888 287.549 C 144.105 287.431,143.864 287.654,144.400 288.000 C 144.909 288.329,144.890 288.389,144.276 288.394 C 143.878 288.397,143.664 288.580,143.800 288.800 C 143.936 289.020,143.800 289.200,143.497 289.200 C 143.195 289.200,142.389 289.830,141.708 290.600 C 141.026 291.370,140.695 292.000,140.972 292.000 C 141.595 292.000,142.800 290.712,142.800 290.045 C 142.800 289.774,142.964 289.654,143.164 289.777 C 143.363 289.901,143.973 289.472,144.519 288.823 C 145.065 288.175,145.612 287.746,145.736 287.870 C 146.093 288.226,147.279 286.851,147.002 286.403 C 146.613 285.773,146.068 285.926,145.602 286.796 M184.400 287.424 C 184.400 287.767,184.264 287.963,184.098 287.860 C 183.931 287.758,183.291 288.375,182.674 289.233 C 181.952 290.239,181.775 290.708,182.177 290.554 C 182.519 290.422,182.800 290.169,182.800 289.991 C 182.800 289.813,183.340 289.158,184.000 288.535 C 185.236 287.368,185.498 286.800,184.800 286.800 C 184.580 286.800,184.400 287.081,184.400 287.424 M254.413 287.100 C 254.436 287.642,255.479 288.800,255.944 288.800 C 256.717 288.800,256.447 287.937,255.604 287.717 C 255.167 287.603,254.908 287.350,255.028 287.155 C 255.149 286.960,255.057 286.800,254.824 286.800 C 254.591 286.800,254.406 286.935,254.413 287.100 M215.999 288.198 C 216.514 288.748,217.025 289.109,217.132 289.001 C 217.398 288.735,215.979 287.200,215.468 287.200 C 215.244 287.200,215.483 287.649,215.999 288.198 M218.281 290.563 C 218.677 291.093,219.059 291.364,219.132 291.167 C 219.205 290.969,218.993 290.536,218.661 290.204 C 217.723 289.265,217.483 289.493,218.281 290.563 M176.495 294.865 C 176.223 295.137,176.000 295.605,176.000 295.904 C 176.000 296.203,175.840 296.349,175.645 296.228 C 175.200 295.953,174.189 297.123,174.556 297.489 C 174.930 297.864,177.332 295.395,177.143 294.829 C 177.031 294.493,176.857 294.503,176.495 294.865 M136.647 295.851 C 136.515 296.267,136.012 296.786,135.530 297.004 C 134.585 297.430,134.055 298.400,134.767 298.400 C 135.005 298.400,135.200 298.111,135.200 297.757 C 135.200 297.381,135.425 297.201,135.741 297.322 C 136.456 297.596,137.598 296.244,137.198 295.596 C 136.971 295.230,136.822 295.299,136.647 295.851 M225.027 297.630 C 225.411 298.054,225.996 298.400,226.329 298.400 C 226.661 298.400,226.822 298.511,226.686 298.648 C 226.394 298.939,227.369 300.000,227.929 300.000 C 228.141 300.000,228.418 300.270,228.545 300.600 C 228.806 301.280,230.000 301.425,230.000 300.776 C 230.000 300.543,229.820 300.464,229.600 300.600 C 229.380 300.736,229.200 300.567,229.200 300.224 C 229.200 299.867,228.858 299.600,228.400 299.600 C 227.675 299.600,227.406 299.173,227.563 298.270 C 227.594 298.089,227.450 298.046,227.242 298.174 C 227.034 298.302,226.555 298.098,226.176 297.719 C 225.163 296.706,224.118 296.625,225.027 297.630 M266.000 298.092 C 266.000 299.315,267.829 302.000,268.662 302.000 C 269.322 302.000,270.823 303.443,270.500 303.767 C 270.372 303.895,270.477 304.000,270.733 304.000 C 271.862 304.000,271.019 302.724,269.234 301.730 C 268.482 301.311,267.672 300.618,267.434 300.189 C 266.625 298.735,266.000 297.821,266.000 298.092 M172.258 299.393 C 172.128 299.731,171.765 299.885,171.415 299.750 C 171.077 299.621,170.800 299.714,170.800 299.957 C 170.800 300.637,172.283 300.483,172.554 299.775 C 172.686 299.431,172.976 299.261,173.197 299.398 C 173.419 299.535,173.600 299.457,173.600 299.224 C 173.600 298.581,172.517 298.717,172.258 299.393 M229.827 301.581 C 229.255 301.789,229.186 301.944,229.561 302.176 C 229.841 302.349,230.267 302.293,230.508 302.052 C 231.098 301.462,230.774 301.237,229.827 301.581 M169.300 302.446 C 168.585 302.904,168.000 303.452,168.000 303.663 C 168.000 303.874,167.820 303.936,167.600 303.800 C 167.380 303.664,167.200 303.923,167.200 304.376 C 167.200 305.163,167.233 305.168,167.927 304.500 C 171.298 301.256,171.402 301.100,169.300 302.446 M129.664 302.541 C 128.838 303.579,129.745 304.330,130.675 303.377 C 131.511 302.519,131.516 302.471,130.789 302.281 C 130.371 302.172,129.865 302.289,129.664 302.541 M230.800 302.575 C 230.800 302.672,231.340 303.342,232.000 304.064 C 233.354 305.547,233.644 305.072,232.371 303.454 C 231.646 302.532,230.800 302.059,230.800 302.575 M128.073 304.227 C 127.783 304.555,127.627 305.134,127.727 305.512 C 127.890 306.133,127.912 306.130,127.954 305.476 C 127.979 305.078,128.180 304.864,128.400 305.000 C 128.620 305.136,128.800 304.877,128.800 304.424 C 128.800 303.455,128.764 303.445,128.073 304.227 M165.327 305.383 C 164.285 306.498,164.003 307.648,164.713 307.896 C 164.994 307.994,165.174 307.891,165.113 307.666 C 165.051 307.441,165.347 306.998,165.770 306.682 C 166.194 306.366,166.569 305.724,166.603 305.254 C 166.682 304.181,166.426 304.207,165.327 305.383 M272.400 304.981 C 272.400 305.841,273.397 307.099,273.919 306.899 C 274.373 306.725,274.471 306.839,274.284 307.326 C 274.144 307.691,274.179 307.948,274.362 307.895 C 274.544 307.843,275.088 308.250,275.568 308.800 L 276.442 309.800 276.170 308.822 C 275.861 307.716,274.499 306.436,273.600 306.407 C 273.067 306.390,273.067 306.345,273.600 306.000 C 274.109 305.671,274.090 305.611,273.476 305.606 C 273.078 305.603,272.864 305.420,273.000 305.200 C 273.136 304.980,273.057 304.800,272.824 304.800 C 272.591 304.800,272.400 304.882,272.400 304.981 M126.243 306.233 C 125.921 307.072,125.935 307.200,126.353 307.200 C 126.548 307.200,126.801 306.840,126.916 306.400 C 127.163 305.455,126.595 305.314,126.243 306.233 M125.049 307.383 C 125.198 307.772,124.928 308.053,124.236 308.227 C 123.666 308.370,123.200 308.619,123.200 308.781 C 123.200 308.943,122.757 309.591,122.216 310.221 C 120.596 312.106,121.454 311.865,123.484 309.864 C 124.524 308.839,125.509 308.000,125.675 308.000 C 125.840 308.000,125.871 307.730,125.745 307.400 C 125.618 307.070,125.359 306.800,125.170 306.800 C 124.980 306.800,124.926 307.062,125.049 307.383 M235.675 307.145 C 235.277 307.398,235.509 307.879,236.631 309.128 C 237.445 310.036,238.267 310.682,238.456 310.565 C 239.092 310.172,238.808 309.600,237.976 309.600 C 237.523 309.600,237.258 309.429,237.388 309.220 C 237.517 309.011,237.243 308.637,236.780 308.389 C 236.296 308.130,236.031 307.697,236.156 307.369 C 236.409 306.711,236.381 306.698,235.675 307.145 M163.362 308.338 C 163.533 308.615,163.387 308.800,163.000 308.800 C 162.644 308.800,162.456 308.966,162.581 309.170 C 162.707 309.373,162.493 309.602,162.105 309.679 C 161.661 309.767,161.564 309.922,161.842 310.097 C 162.085 310.250,162.683 309.950,163.172 309.430 C 163.826 308.734,163.930 308.404,163.568 308.180 C 163.253 307.985,163.179 308.042,163.362 308.338 M277.704 310.294 C 277.335 310.420,277.367 310.624,277.829 311.086 C 278.333 311.590,278.542 311.611,278.926 311.196 C 279.281 310.811,279.282 310.749,278.930 310.946 C 278.672 311.091,278.402 310.965,278.330 310.666 C 278.259 310.367,277.977 310.200,277.704 310.294 M155.919 315.014 C 155.596 315.337,155.965 316.400,156.400 316.400 C 156.573 316.400,156.822 316.121,156.953 315.779 C 157.084 315.438,157.028 315.259,156.830 315.382 C 156.631 315.505,156.404 315.413,156.326 315.177 C 156.247 314.942,156.064 314.869,155.919 315.014 M116.105 316.115 C 115.833 316.382,115.248 316.946,114.805 317.370 C 114.362 317.793,114.012 318.423,114.027 318.770 C 114.046 319.216,114.175 319.151,114.468 318.546 C 114.695 318.076,115.313 317.461,115.841 317.178 C 116.368 316.896,116.800 316.425,116.800 316.132 C 116.800 315.492,116.742 315.491,116.105 316.115 M155.016 316.427 C 155.161 316.661,154.947 317.106,154.540 317.414 C 154.133 317.722,153.989 317.980,154.220 317.987 C 154.797 318.005,155.600 317.151,155.600 316.520 C 155.600 316.234,155.409 316.000,155.176 316.000 C 154.943 316.000,154.871 316.192,155.016 316.427 M283.600 316.572 C 283.600 317.101,285.905 319.562,286.160 319.306 C 286.290 319.177,286.867 319.595,287.443 320.235 L 288.491 321.400 287.745 320.055 C 287.335 319.316,286.730 318.614,286.400 318.497 C 286.070 318.379,285.305 317.825,284.700 317.267 C 284.095 316.708,283.600 316.395,283.600 316.572 M246.251 318.317 C 246.142 318.495,246.400 318.857,246.826 319.123 C 247.735 319.691,247.845 319.388,247.026 318.568 C 246.710 318.252,246.361 318.139,246.251 318.317 M112.646 319.825 C 112.509 320.181,112.202 320.325,111.935 320.160 C 111.617 319.963,111.547 320.085,111.719 320.534 C 111.904 321.016,111.758 321.200,111.187 321.200 C 110.429 321.200,110.222 321.594,110.379 322.740 C 110.420 323.037,110.261 323.162,110.027 323.017 C 109.792 322.871,109.600 322.943,109.600 323.176 C 109.600 323.409,109.774 323.600,109.986 323.600 C 110.525 323.600,111.233 322.173,110.886 321.788 C 110.729 321.614,110.800 321.586,111.044 321.725 C 111.427 321.943,113.600 319.970,113.600 319.403 C 113.600 318.928,112.865 319.252,112.646 319.825 M248.107 319.962 C 248.140 320.392,248.264 320.736,248.383 320.725 C 249.196 320.651,249.545 320.878,249.360 321.360 C 249.242 321.667,249.317 322.025,249.527 322.155 C 250.498 322.755,250.169 320.921,249.157 320.090 C 248.106 319.227,248.051 319.220,248.107 319.962 M150.300 320.676 C 149.915 320.776,149.600 321.103,149.600 321.402 C 149.600 321.701,149.240 322.060,148.800 322.200 C 148.360 322.340,148.000 322.684,148.000 322.965 C 148.000 323.246,147.640 323.802,147.200 324.200 C 146.760 324.598,146.400 325.179,146.400 325.491 C 146.400 325.964,146.498 325.959,147.000 325.457 C 147.330 325.127,147.600 324.670,147.600 324.441 C 147.600 324.212,147.900 324.140,148.266 324.281 C 148.694 324.445,148.834 324.379,148.659 324.096 C 148.509 323.853,148.573 323.540,148.800 323.400 C 149.027 323.260,149.092 322.949,148.945 322.711 C 148.790 322.461,148.861 322.391,149.112 322.546 C 149.352 322.694,150.010 322.354,150.574 321.789 C 151.979 320.384,151.945 320.246,150.300 320.676 M250.400 322.102 C 250.400 322.377,251.386 323.637,252.591 324.902 C 253.796 326.166,254.651 327.213,254.491 327.228 C 254.010 327.275,255.753 327.943,256.400 327.960 C 256.807 327.971,256.743 327.829,256.200 327.520 C 255.258 326.983,254.000 325.622,254.000 325.139 C 254.000 324.952,253.730 324.800,253.400 324.800 C 253.070 324.800,252.800 324.446,252.800 324.013 C 252.800 323.519,252.600 323.302,252.264 323.431 C 251.610 323.682,250.631 322.597,250.989 322.018 C 251.131 321.788,251.057 321.600,250.824 321.600 C 250.591 321.600,250.400 321.826,250.400 322.102 M290.293 323.634 C 290.558 324.649,291.490 325.070,292.107 324.453 C 292.444 324.116,292.383 324.000,291.867 324.000 C 291.487 324.000,291.071 323.730,290.945 323.400 C 290.594 322.487,290.045 322.684,290.293 323.634 M106.594 325.620 C 106.457 326.049,106.178 326.400,105.973 326.400 C 105.768 326.400,105.600 326.590,105.600 326.823 C 105.600 327.056,106.138 326.928,106.800 326.536 C 108.133 325.749,108.283 325.394,107.420 325.063 C 107.070 324.929,106.743 325.149,106.594 325.620 M293.200 326.498 C 293.970 327.199,294.561 327.894,294.514 328.043 C 294.467 328.192,294.782 328.407,295.214 328.520 C 296.123 328.757,296.205 328.557,295.500 327.820 C 295.225 327.533,294.742 326.926,294.427 326.470 C 294.112 326.015,293.720 325.726,293.555 325.828 C 293.390 325.930,293.142 325.830,293.004 325.607 C 292.866 325.383,292.538 325.205,292.276 325.212 C 292.014 325.218,292.430 325.797,293.200 326.498 M143.775 327.640 C 143.349 328.277,142.865 328.798,142.700 328.799 C 142.535 328.799,142.400 329.081,142.400 329.424 C 142.400 329.767,142.240 329.949,142.045 329.828 C 141.614 329.562,140.583 330.717,140.937 331.070 C 141.075 331.208,142.155 330.313,143.338 329.082 C 144.571 327.799,145.289 326.766,145.020 326.663 C 144.762 326.564,144.202 327.004,143.775 327.640 M104.052 327.737 C 103.807 328.032,103.725 328.392,103.870 328.537 C 104.015 328.682,103.833 328.800,103.467 328.800 C 103.100 328.800,102.800 329.070,102.800 329.400 C 102.800 330.166,103.010 330.155,103.960 329.341 C 104.410 328.956,104.630 328.416,104.490 328.041 C 104.281 327.483,104.338 327.472,104.934 327.957 C 105.532 328.443,105.587 328.430,105.366 327.857 C 105.061 327.060,104.646 327.022,104.052 327.737 M256.000 328.869 C 256.000 329.124,256.120 329.213,256.268 329.066 C 256.415 328.919,256.851 329.084,257.237 329.434 C 257.882 330.017,257.931 330.012,257.837 329.369 C 257.723 328.597,256.000 328.127,256.000 328.869 M297.200 330.151 C 297.200 330.743,298.396 331.931,298.406 331.349 C 298.409 331.157,298.603 331.270,298.837 331.600 C 299.214 332.133,299.243 332.133,299.097 331.600 C 299.007 331.270,298.678 330.996,298.367 330.990 C 298.055 330.985,297.825 330.670,297.856 330.290 C 297.886 329.911,297.751 329.600,297.556 329.600 C 297.360 329.600,297.200 329.848,297.200 330.151 M258.261 330.272 C 257.974 330.559,259.926 332.800,260.462 332.800 C 260.934 332.800,260.368 331.493,259.553 330.700 C 258.749 329.918,258.649 329.885,258.261 330.272 M101.677 330.830 C 101.756 331.067,101.991 331.260,102.200 331.260 C 102.409 331.260,102.644 331.067,102.723 330.830 C 102.802 330.594,102.567 330.400,102.200 330.400 C 101.833 330.400,101.598 330.594,101.677 330.830 M139.298 331.866 C 138.744 332.089,139.011 332.800,139.647 332.800 C 139.867 332.800,139.944 332.634,139.819 332.430 C 139.693 332.227,139.907 331.978,140.295 331.877 C 140.762 331.755,140.798 331.688,140.400 331.678 C 140.070 331.670,139.574 331.754,139.298 331.866 M134.878 336.678 C 134.372 337.224,134.042 337.880,134.147 338.135 C 134.281 338.465,134.346 338.454,134.368 338.100 C 134.386 337.825,134.670 337.600,135.000 337.600 C 135.330 337.600,135.600 337.433,135.600 337.229 C 135.600 337.024,135.883 336.574,136.229 336.229 C 136.690 335.767,136.717 335.611,136.329 335.642 C 136.038 335.665,135.385 336.131,134.878 336.678 M93.926 338.593 C 93.335 339.102,92.949 339.616,93.069 339.735 C 93.188 339.855,93.753 339.520,94.324 338.990 C 95.676 337.737,95.326 337.388,93.926 338.593 M266.000 337.914 C 266.000 338.113,266.386 338.619,266.858 339.038 C 267.710 339.795,267.713 339.794,267.256 338.922 C 266.746 337.950,266.000 337.351,266.000 337.914 M131.630 339.973 C 130.654 340.856,130.002 341.761,130.123 342.065 C 130.270 342.432,130.347 342.384,130.368 341.913 C 130.390 341.441,130.609 341.305,131.066 341.481 C 131.513 341.652,131.636 341.583,131.442 341.268 C 131.267 340.984,131.408 340.800,131.800 340.800 C 132.156 340.800,132.336 340.620,132.200 340.400 C 132.064 340.180,132.214 340.000,132.534 340.000 C 133.063 340.000,133.804 338.870,133.484 338.551 C 133.410 338.477,132.576 339.117,131.630 339.973 M307.051 340.211 C 306.918 340.558,306.967 340.744,307.160 340.625 C 307.353 340.505,307.999 341.048,308.596 341.830 C 309.193 342.612,309.778 343.155,309.897 343.036 C 310.017 342.917,309.886 342.545,309.608 342.210 C 309.330 341.874,309.227 341.600,309.380 341.600 C 309.668 341.600,309.069 340.970,307.945 340.090 C 307.406 339.668,307.252 339.689,307.051 340.211 M91.385 340.945 C 90.937 341.458,90.307 341.972,89.985 342.088 C 89.569 342.239,89.522 342.431,89.823 342.753 C 90.132 343.084,90.555 342.882,91.397 342.003 C 92.031 341.341,92.381 340.797,92.175 340.794 C 91.969 340.791,92.070 340.613,92.400 340.400 C 92.730 340.187,92.820 340.013,92.600 340.013 C 92.380 340.014,91.833 340.433,91.385 340.945 M269.396 341.996 C 270.026 342.654,270.640 343.094,270.759 342.974 C 270.879 342.854,270.712 342.589,270.388 342.384 C 269.990 342.132,269.961 342.010,270.300 342.006 C 270.575 342.003,270.800 341.830,270.800 341.623 C 270.800 341.416,270.440 341.315,270.000 341.400 C 269.560 341.485,269.200 341.384,269.200 341.177 C 269.200 340.970,268.986 340.800,268.725 340.800 C 268.464 340.800,268.766 341.338,269.396 341.996 M128.946 342.545 C 129.143 343.102,129.057 343.231,128.605 343.057 C 128.228 342.912,128.000 343.055,128.000 343.436 C 128.000 343.812,127.807 343.936,127.500 343.759 C 127.225 343.601,127.136 343.622,127.303 343.806 C 127.470 343.989,127.138 344.447,126.565 344.823 C 125.921 345.245,125.691 345.609,125.962 345.777 C 126.203 345.925,126.400 345.827,126.400 345.557 C 126.400 345.287,126.493 345.160,126.607 345.274 C 126.721 345.388,127.466 344.867,128.262 344.115 C 129.422 343.022,129.608 342.655,129.196 342.275 C 128.788 341.897,128.736 341.953,128.946 342.545 M88.517 343.407 C 88.136 343.819,88.174 344.044,88.694 344.465 C 89.247 344.913,89.300 344.912,89.026 344.455 C 88.829 344.129,88.895 343.788,89.191 343.605 C 89.463 343.437,89.531 343.206,89.343 343.092 C 89.154 342.978,88.783 343.119,88.517 343.407 M272.006 344.100 C 272.014 344.745,272.589 345.650,273.045 345.734 C 273.240 345.770,273.348 345.957,273.284 346.149 C 273.220 346.341,273.435 346.395,273.763 346.269 C 274.154 346.120,274.287 346.228,274.151 346.584 C 274.030 346.900,274.290 347.238,274.771 347.391 C 275.227 347.536,275.600 347.822,275.600 348.027 C 275.600 348.232,275.881 348.400,276.224 348.400 C 276.567 348.400,276.736 348.580,276.600 348.800 C 276.464 349.020,276.644 349.200,277.000 349.200 C 277.356 349.200,277.536 349.380,277.400 349.600 C 277.264 349.820,277.403 350.000,277.710 350.000 C 278.016 350.000,278.267 349.740,278.267 349.422 C 278.267 349.104,278.072 348.879,277.833 348.922 C 277.595 348.965,277.449 348.762,277.510 348.470 C 277.570 348.179,277.440 348.052,277.220 348.188 C 276.776 348.462,272.941 344.523,273.100 343.957 C 273.155 343.761,272.930 343.600,272.600 343.600 C 272.270 343.600,272.003 343.825,272.006 344.100 M311.705 344.276 C 312.077 344.648,312.515 344.818,312.679 344.654 C 312.843 344.491,312.712 344.189,312.388 343.984 C 311.415 343.369,310.982 343.553,311.705 344.276 M87.400 344.800 C 87.536 345.020,87.356 345.200,87.000 345.200 C 86.644 345.200,86.451 345.360,86.572 345.555 C 86.693 345.750,86.523 346.132,86.196 346.404 C 85.868 346.676,85.600 347.188,85.600 347.542 C 85.600 347.909,86.038 347.540,86.621 346.683 C 87.183 345.856,87.811 345.283,88.017 345.410 C 88.223 345.538,88.284 345.362,88.153 345.021 C 88.022 344.679,87.743 344.400,87.534 344.400 C 87.324 344.400,87.264 344.580,87.400 344.800 M123.859 347.608 C 123.472 348.264,122.895 348.800,122.577 348.800 C 122.260 348.800,122.045 349.025,122.100 349.300 C 122.155 349.575,121.986 349.759,121.724 349.708 C 121.463 349.658,121.134 349.977,120.994 350.419 C 120.854 350.860,120.305 351.506,119.773 351.854 C 119.242 352.203,118.916 352.663,119.048 352.878 C 119.181 353.093,119.945 352.561,120.745 351.697 C 121.545 350.832,122.515 350.013,122.900 349.875 C 123.285 349.738,123.600 349.339,123.600 348.989 C 123.600 348.639,123.744 348.442,123.920 348.551 C 124.387 348.839,125.176 347.408,124.845 346.872 C 124.666 346.583,124.306 346.852,123.859 347.608 M313.200 346.787 C 313.200 347.001,313.472 347.071,313.805 346.943 C 314.216 346.785,314.338 346.895,314.187 347.289 C 314.055 347.633,314.206 347.867,314.561 347.867 C 315.015 347.867,315.063 347.692,314.764 347.133 C 314.355 346.369,313.200 346.113,313.200 346.787 M112.626 358.900 C 109.996 361.949,109.449 363.061,111.586 361.014 C 112.238 360.389,112.707 359.770,112.628 359.639 C 112.417 359.289,113.471 358.405,113.757 358.691 C 113.891 358.824,114.000 358.713,114.000 358.443 C 114.000 358.173,114.180 358.064,114.400 358.200 C 114.620 358.336,114.800 358.167,114.800 357.824 C 114.800 356.796,114.175 357.106,112.626 358.900 M286.000 358.053 C 286.000 358.668,287.501 360.100,287.979 359.940 C 288.221 359.860,287.874 359.317,287.209 358.733 C 286.544 358.150,286.000 357.843,286.000 358.053 M109.208 362.295 C 108.513 362.568,102.800 368.454,102.800 368.898 C 102.800 369.388,103.047 369.261,104.349 368.100 C 105.028 367.495,105.861 366.764,106.200 366.476 C 106.540 366.188,106.713 365.783,106.585 365.576 C 106.457 365.369,106.568 365.200,106.831 365.200 C 107.272 365.200,108.188 364.349,109.549 362.675 C 110.135 361.954,110.120 361.937,109.208 362.295 M290.906 362.454 C 290.422 362.938,291.135 364.000,291.942 364.000 C 292.162 364.000,292.424 364.315,292.524 364.700 C 292.693 365.346,292.711 365.347,292.754 364.714 C 292.779 364.337,292.447 363.839,292.015 363.608 C 291.553 363.361,291.324 362.943,291.458 362.594 C 291.730 361.884,291.527 361.833,290.906 362.454 M293.200 365.400 C 293.200 365.730,293.401 365.955,293.647 365.900 C 293.893 365.845,294.146 366.111,294.210 366.492 C 294.342 367.276,295.351 368.400,295.922 368.400 C 296.131 368.400,296.530 368.674,296.808 369.010 C 297.086 369.345,297.414 369.519,297.536 369.397 C 297.658 369.275,297.986 369.586,298.265 370.087 C 298.596 370.684,298.777 370.788,298.786 370.389 C 298.804 369.590,296.444 367.526,295.898 367.863 C 295.666 368.006,295.591 367.939,295.730 367.713 C 295.870 367.487,295.446 366.739,294.789 366.051 C 293.442 364.641,293.200 364.542,293.200 365.400 M100.983 370.019 C 100.428 370.632,100.369 370.929,100.729 371.289 C 101.090 371.650,101.200 371.601,101.200 371.080 C 101.200 370.706,101.470 370.400,101.800 370.400 C 102.451 370.400,102.614 369.779,102.053 369.433 C 101.863 369.315,101.381 369.579,100.983 370.019 M94.012 377.184 C 93.688 377.389,93.541 377.675,93.686 377.819 C 93.830 377.963,94.360 377.793,94.863 377.441 C 95.849 376.750,95.070 376.515,94.012 377.184 M306.000 378.400 C 306.000 378.620,306.270 378.800,306.600 378.800 C 306.930 378.800,307.155 379.025,307.100 379.300 C 307.045 379.575,307.238 379.751,307.530 379.690 C 307.821 379.630,307.965 379.733,307.850 379.919 C 307.735 380.105,307.992 380.558,308.420 380.925 C 309.300 381.678,309.397 381.516,308.770 380.343 C 307.862 378.647,306.000 377.341,306.000 378.400 M92.634 379.057 C 92.435 379.575,92.496 379.618,92.928 379.260 C 93.228 379.011,93.592 378.925,93.737 379.070 C 93.882 379.215,94.000 379.123,94.000 378.867 C 94.000 378.159,92.921 378.309,92.634 379.057 M91.324 379.687 C 91.456 380.065,91.393 380.481,91.183 380.611 C 90.972 380.741,90.800 380.627,90.800 380.357 C 90.800 380.087,90.706 379.961,90.591 380.076 C 90.475 380.191,90.498 380.589,90.640 380.961 C 90.871 381.563,90.964 381.544,91.496 380.784 C 91.975 380.101,91.993 379.841,91.587 379.466 C 91.192 379.101,91.135 379.150,91.324 379.687 M89.781 381.048 C 89.960 381.293,87.280 384.293,85.050 386.343 C 84.418 386.924,83.317 387.979,82.604 388.687 C 81.890 389.394,81.164 389.844,80.989 389.687 C 80.815 389.529,80.801 389.625,80.959 389.900 C 81.118 390.176,81.043 390.400,80.790 390.400 C 80.539 390.400,80.398 390.594,80.477 390.830 C 80.673 391.418,81.396 391.318,81.418 390.700 C 81.428 390.425,81.667 390.249,81.948 390.310 C 82.229 390.370,82.345 390.235,82.206 390.010 C 82.067 389.784,82.208 389.600,82.520 389.600 C 82.833 389.600,83.426 389.150,83.839 388.600 C 84.252 388.050,84.796 387.600,85.048 387.600 C 85.300 387.600,85.601 387.241,85.715 386.802 C 85.830 386.363,86.241 385.882,86.629 385.734 C 87.546 385.382,89.573 383.150,89.588 382.476 C 89.595 382.188,89.764 382.054,89.965 382.178 C 90.383 382.437,90.301 381.333,89.878 381.012 C 89.725 380.895,89.682 380.912,89.781 381.048 M311.673 384.203 C 312.996 385.458,314.000 385.968,314.000 385.387 C 314.000 384.869,311.506 382.800,310.886 382.803 C 310.387 382.806,310.601 383.187,311.673 384.203 M316.910 389.200 C 316.943 389.640,317.185 390.000,317.448 390.000 C 317.728 390.000,317.839 389.670,317.716 389.200 C 317.601 388.760,317.359 388.400,317.178 388.400 C 316.998 388.400,316.877 388.760,316.910 389.200 M318.084 390.242 C 317.659 390.702,317.681 390.800,318.208 390.800 C 318.606 390.800,318.739 390.989,318.559 391.300 C 318.401 391.575,318.414 391.671,318.589 391.514 C 318.763 391.356,319.249 391.663,319.668 392.195 C 320.123 392.774,320.673 393.070,321.034 392.932 C 321.484 392.759,321.273 392.452,320.209 391.728 C 319.423 391.194,318.877 390.599,318.996 390.406 C 319.374 389.795,318.622 389.660,318.084 390.242 " stroke="none" fill="#fcfcfc" fill-rule="evenodd"></path><path id="path1" d="" stroke="none" fill="#100fcfc" fill-rule="evenodd"></path></g></svg>