<svg id="svg" xmlns="http://www.w3.org/2000/svg" xmlns:xlink="http://www.w3.org/1999/xlink" width="400" height="400" viewBox="0, 0, 400,400" version="1.1"><g id="svgg"><path id="path0" d="M88.400 5.791 C 88.400 6.325,88.178 6.431,87.442 6.246 C 86.770 6.078,86.409 6.199,86.235 6.654 C 86.046 7.147,85.651 7.248,84.593 7.076 C 83.544 6.906,83.200 6.992,83.200 7.425 C 83.200 7.741,82.840 8.000,82.400 8.000 C 81.960 8.000,81.600 8.180,81.600 8.400 C 81.600 8.620,81.060 8.800,80.400 8.800 C 79.740 8.800,79.200 9.001,79.200 9.247 C 79.200 9.496,78.847 9.601,78.400 9.484 C 77.960 9.369,77.600 9.451,77.600 9.666 C 77.600 10.363,76.396 11.284,75.790 11.051 C 75.465 10.927,75.200 11.012,75.200 11.241 C 75.200 11.958,74.006 12.888,73.390 12.651 C 73.065 12.527,72.800 12.594,72.800 12.801 C 72.800 13.008,70.910 15.040,68.600 17.317 C 66.290 19.594,64.400 21.681,64.400 21.957 C 64.400 22.563,63.417 23.600,62.841 23.600 C 62.612 23.600,62.527 23.865,62.651 24.190 C 62.928 24.911,61.921 25.989,60.929 26.032 C 60.508 26.050,60.412 26.149,60.700 26.265 C 61.367 26.534,61.342 27.600,60.669 27.600 C 60.307 27.600,60.194 27.981,60.315 28.800 C 60.444 29.684,60.331 30.000,59.883 30.000 C 59.472 30.000,59.343 30.259,59.484 30.800 C 59.630 31.358,59.496 31.600,59.042 31.600 C 58.506 31.600,58.436 31.884,58.646 33.200 C 58.858 34.523,58.788 34.800,58.244 34.800 C 57.741 34.800,57.644 35.037,57.836 35.800 C 58.011 36.499,57.923 36.800,57.543 36.800 C 56.714 36.800,56.732 385.990,57.561 386.639 C 57.870 386.881,57.994 387.286,57.838 387.539 C 57.666 387.817,57.819 388.000,58.223 388.000 C 58.696 388.000,58.832 388.235,58.684 388.800 C 58.569 389.240,58.643 389.600,58.848 389.600 C 59.334 389.600,62.800 393.066,62.800 393.552 C 62.800 393.757,63.160 393.831,63.600 393.716 C 64.152 393.572,64.400 393.704,64.400 394.141 C 64.400 394.539,64.622 394.690,64.997 394.546 C 65.325 394.420,65.688 394.563,65.803 394.863 C 66.099 395.634,74.000 395.657,74.000 394.886 C 74.000 394.509,74.377 394.435,75.361 394.619 C 76.534 394.839,76.762 394.750,77.007 393.979 C 77.315 393.008,198.472 271.600,199.132 271.600 C 199.353 271.600,199.638 271.825,199.767 272.100 C 199.953 272.500,200.047 272.500,200.233 272.100 C 200.362 271.825,200.661 271.600,200.898 271.600 C 201.583 271.600,322.659 392.900,322.972 393.900 C 323.137 394.426,323.575 394.800,324.027 394.800 C 324.452 394.800,324.800 394.949,324.800 395.131 C 324.800 395.314,326.869 395.449,329.398 395.431 C 332.792 395.408,333.997 395.269,333.998 394.900 C 333.999 394.625,334.360 394.400,334.800 394.400 C 335.240 394.400,335.600 394.220,335.600 394.000 C 335.600 393.780,335.888 393.600,336.240 393.600 C 336.591 393.600,337.761 392.700,338.838 391.600 C 339.915 390.500,340.960 389.600,341.161 389.600 C 341.361 389.600,341.431 389.240,341.316 388.800 C 341.174 388.259,341.304 388.000,341.716 388.000 C 342.128 388.000,342.257 387.741,342.116 387.200 C 341.982 386.688,342.104 386.400,342.453 386.400 C 342.915 386.400,343.000 359.129,343.000 211.600 C 343.000 64.587,342.914 36.800,342.457 36.800 C 342.083 36.800,341.988 36.501,342.154 35.842 C 342.322 35.173,342.201 34.809,341.753 34.637 C 341.259 34.448,341.172 34.072,341.374 32.996 C 341.588 31.856,341.514 31.600,340.971 31.600 C 340.504 31.600,340.369 31.363,340.516 30.800 C 340.657 30.259,340.528 30.000,340.117 30.000 C 339.669 30.000,339.556 29.684,339.685 28.800 C 339.806 27.981,339.693 27.600,339.331 27.600 C 338.658 27.600,338.633 26.534,339.300 26.265 C 339.588 26.149,339.492 26.050,339.071 26.032 C 337.696 25.972,336.634 24.295,337.700 23.865 C 337.988 23.749,337.892 23.650,337.471 23.632 C 336.614 23.594,335.604 22.680,335.591 21.929 C 335.585 21.638,333.695 19.532,331.391 17.248 C 329.086 14.964,327.200 12.945,327.200 12.760 C 327.200 12.576,326.935 12.527,326.610 12.651 C 325.994 12.888,324.800 11.958,324.800 11.241 C 324.800 11.012,324.525 10.931,324.188 11.060 C 323.835 11.196,323.265 10.937,322.841 10.447 C 322.437 9.981,321.812 9.600,321.453 9.600 C 321.094 9.600,320.800 9.420,320.800 9.200 C 320.800 8.980,320.260 8.800,319.600 8.800 C 318.940 8.800,318.400 8.620,318.400 8.400 C 318.400 8.180,318.040 8.000,317.600 8.000 C 317.160 8.000,316.800 7.741,316.800 7.425 C 316.800 6.992,316.456 6.906,315.400 7.077 C 314.257 7.263,314.000 7.179,314.000 6.621 C 314.000 6.069,313.768 5.987,312.800 6.200 C 311.832 6.413,311.600 6.331,311.600 5.779 C 311.600 5.194,311.384 5.145,310.100 5.444 C 308.134 5.901,91.866 5.901,89.900 5.444 C 88.608 5.144,88.400 5.192,88.400 5.791 M308.000 32.447 C 308.000 32.709,308.418 32.813,309.013 32.700 C 309.745 32.560,310.228 32.764,310.760 33.439 C 311.163 33.953,311.610 34.257,311.751 34.116 C 312.074 33.793,314.400 35.985,314.400 36.613 C 314.400 36.868,314.773 37.414,315.230 37.827 C 315.749 38.297,315.996 38.911,315.889 39.469 C 315.791 39.982,315.948 40.448,316.259 40.567 C 316.938 40.828,317.082 349.779,316.403 350.198 C 316.185 350.333,291.344 325.774,261.201 295.622 C 231.058 265.470,206.127 240.800,205.798 240.800 C 205.469 240.800,205.200 240.620,205.200 240.400 C 205.200 240.180,204.840 240.000,204.400 240.000 C 203.960 240.000,203.600 239.775,203.600 239.500 C 203.600 239.137,202.613 239.000,200.000 239.000 C 197.387 239.000,196.400 239.137,196.400 239.500 C 196.400 239.775,196.040 240.000,195.600 240.000 C 195.160 240.000,194.800 240.180,194.800 240.400 C 194.800 240.620,194.533 240.800,194.206 240.800 C 193.879 240.800,168.943 265.484,138.792 295.653 C 108.641 325.822,83.887 350.421,83.783 350.317 C 83.381 349.915,83.596 40.601,83.998 40.467 C 84.218 40.394,84.299 39.936,84.177 39.449 C 84.029 38.859,84.228 38.317,84.777 37.821 C 85.230 37.411,85.600 36.889,85.600 36.660 C 85.600 36.083,87.646 34.000,88.213 34.000 C 88.468 34.000,88.999 33.643,89.394 33.206 C 89.889 32.659,90.405 32.486,91.056 32.650 C 91.623 32.792,92.000 32.710,92.000 32.443 C 92.000 32.120,121.225 32.000,200.000 32.000 C 279.251 32.000,308.000 32.119,308.000 32.447 " stroke="none" fill="#040404" fill-rule="evenodd"></path><path id="path1" d="M90.400 4.953 C 90.400 5.975,91.888 5.989,200.000 5.989 C 308.112 5.989,309.600 5.975,309.600 4.953 C 309.600 4.484,293.049 4.400,200.000 4.400 C 106.951 4.400,90.400 4.484,90.400 4.953 M87.200 5.800 C 87.200 6.130,87.470 6.400,87.800 6.400 C 88.130 6.400,88.400 6.130,88.400 5.800 C 88.400 5.470,88.130 5.200,87.800 5.200 C 87.470 5.200,87.200 5.470,87.200 5.800 M311.600 5.800 C 311.600 6.130,311.870 6.400,312.200 6.400 C 312.530 6.400,312.800 6.130,312.800 5.800 C 312.800 5.470,312.530 5.200,312.200 5.200 C 311.870 5.200,311.600 5.470,311.600 5.800 M84.000 6.627 C 84.000 7.071,84.311 7.216,85.069 7.127 C 86.626 6.942,86.764 6.000,85.233 6.000 C 84.380 6.000,84.000 6.193,84.000 6.627 M314.000 6.600 C 314.000 6.973,314.378 7.200,315.000 7.200 C 315.622 7.200,316.000 6.973,316.000 6.600 C 316.000 6.227,315.622 6.000,315.000 6.000 C 314.378 6.000,314.000 6.227,314.000 6.600 M81.600 7.200 C 81.600 7.420,81.060 7.600,80.400 7.600 C 79.740 7.600,79.200 7.780,79.200 8.000 C 79.200 8.220,78.840 8.400,78.400 8.400 C 77.960 8.400,77.600 8.586,77.600 8.813 C 77.600 9.422,78.925 9.825,79.109 9.272 C 79.196 9.012,79.792 8.800,80.433 8.800 C 81.075 8.800,81.600 8.620,81.600 8.400 C 81.600 8.180,81.960 8.000,82.400 8.000 C 82.844 8.000,83.200 7.733,83.200 7.400 C 83.200 7.067,82.844 6.800,82.400 6.800 C 81.960 6.800,81.600 6.980,81.600 7.200 M316.800 7.400 C 316.800 7.733,317.156 8.000,317.600 8.000 C 318.040 8.000,318.400 8.180,318.400 8.400 C 318.400 8.620,318.940 8.800,319.600 8.800 C 320.260 8.800,320.800 8.980,320.800 9.200 C 320.800 9.420,321.094 9.600,321.453 9.600 C 321.812 9.600,322.437 9.981,322.841 10.447 C 323.265 10.937,323.835 11.196,324.188 11.060 C 324.525 10.931,324.800 11.012,324.800 11.241 C 324.800 11.958,325.994 12.888,326.610 12.651 C 326.935 12.527,327.200 12.576,327.200 12.760 C 327.200 12.945,329.086 14.964,331.391 17.248 C 333.695 19.532,335.585 21.638,335.591 21.929 C 335.613 23.175,338.000 24.297,338.000 23.061 C 338.000 22.765,337.640 22.107,337.200 21.600 C 336.760 21.093,336.400 20.468,336.400 20.212 C 336.400 19.577,329.056 12.499,327.805 11.929 C 327.252 11.678,326.800 11.332,326.800 11.162 C 326.800 10.991,326.170 10.624,325.400 10.346 C 324.630 10.067,324.000 9.695,324.000 9.520 C 324.000 9.344,323.640 9.200,323.200 9.200 C 322.760 9.200,322.400 9.020,322.400 8.800 C 322.400 8.580,322.040 8.400,321.600 8.400 C 321.160 8.400,320.800 8.220,320.800 8.000 C 320.800 7.780,320.260 7.600,319.600 7.600 C 318.940 7.600,318.400 7.420,318.400 7.200 C 318.400 6.980,318.040 6.800,317.600 6.800 C 317.156 6.800,316.800 7.067,316.800 7.400 M76.400 9.600 C 76.400 9.820,76.108 10.000,75.752 10.000 C 74.028 10.000,64.882 17.695,63.404 20.389 C 63.099 20.945,62.458 22.165,61.981 23.100 C 61.503 24.035,60.952 24.800,60.756 24.800 C 60.560 24.800,60.400 25.070,60.400 25.400 C 60.400 25.730,60.683 26.000,61.029 26.000 C 61.922 26.000,62.919 24.888,62.651 24.190 C 62.527 23.865,62.612 23.600,62.841 23.600 C 63.417 23.600,64.400 22.563,64.400 21.957 C 64.400 21.681,66.290 19.594,68.600 17.317 C 70.910 15.040,72.800 13.008,72.800 12.801 C 72.800 12.594,73.065 12.527,73.390 12.651 C 74.006 12.888,75.200 11.958,75.200 11.241 C 75.200 11.012,75.465 10.927,75.790 11.051 C 76.412 11.290,77.600 10.356,77.600 9.629 C 77.600 9.393,77.330 9.200,77.000 9.200 C 76.670 9.200,76.400 9.380,76.400 9.600 M337.200 24.429 C 337.200 25.066,338.253 26.000,338.971 26.000 C 339.755 26.000,339.782 25.325,339.029 24.571 C 338.358 23.901,337.200 23.811,337.200 24.429 M60.000 27.000 C 60.000 27.330,60.270 27.600,60.600 27.600 C 60.930 27.600,61.200 27.330,61.200 27.000 C 61.200 26.670,60.930 26.400,60.600 26.400 C 60.270 26.400,60.000 26.670,60.000 27.000 M338.800 27.000 C 338.800 27.330,339.039 27.600,339.331 27.600 C 339.693 27.600,339.806 27.981,339.685 28.800 C 339.556 29.684,339.669 30.000,340.117 30.000 C 340.528 30.000,340.657 30.259,340.516 30.800 C 340.366 31.372,340.504 31.600,340.998 31.600 C 341.764 31.600,341.614 29.679,340.678 27.500 C 340.180 26.342,338.800 25.974,338.800 27.000 M59.200 28.767 C 59.200 29.620,59.393 30.000,59.827 30.000 C 60.271 30.000,60.416 29.689,60.327 28.931 C 60.142 27.374,59.200 27.236,59.200 28.767 M58.400 30.767 C 58.400 31.258,58.658 31.600,59.029 31.600 C 59.402 31.600,59.606 31.328,59.529 30.933 C 59.335 29.930,58.400 29.792,58.400 30.767 M92.000 32.443 C 92.000 32.710,91.623 32.792,91.056 32.650 C 90.405 32.486,89.889 32.659,89.394 33.206 C 88.999 33.643,88.468 34.000,88.213 34.000 C 87.646 34.000,85.600 36.083,85.600 36.660 C 85.600 36.889,85.230 37.411,84.777 37.821 C 84.228 38.317,84.029 38.859,84.177 39.449 C 84.299 39.936,84.218 40.394,83.998 40.467 C 83.596 40.601,83.381 349.915,83.783 350.317 C 83.887 350.421,108.641 325.822,138.792 295.653 C 168.943 265.484,193.879 240.800,194.206 240.800 C 194.533 240.800,194.800 240.620,194.800 240.400 C 194.800 240.180,195.160 240.000,195.600 240.000 C 196.044 240.000,196.400 239.733,196.400 239.400 C 196.400 239.027,196.022 238.800,195.400 238.800 C 194.850 238.800,194.400 238.980,194.400 239.200 C 194.400 239.420,194.040 239.600,193.600 239.600 C 193.160 239.600,192.800 239.780,192.800 240.000 C 192.800 240.220,192.517 240.400,192.171 240.400 C 191.825 240.400,189.307 242.695,186.577 245.500 C 180.979 251.251,181.015 251.214,169.100 262.958 C 164.315 267.674,160.400 271.709,160.400 271.924 C 160.400 272.505,158.156 274.800,157.588 274.800 C 156.932 274.800,140.400 291.446,140.400 292.107 C 140.400 292.391,140.021 292.888,139.558 293.212 C 137.347 294.757,134.808 297.149,127.711 304.373 C 123.482 308.678,119.293 312.920,118.402 313.800 C 116.889 315.293,100.632 331.556,97.300 334.910 C 96.475 335.740,93.370 338.786,90.400 341.678 L 85.000 346.936 84.899 193.992 C 84.844 109.873,84.944 40.947,85.120 40.824 C 85.297 40.701,85.736 39.970,86.096 39.200 C 86.901 37.475,89.360 35.096,91.100 34.357 C 91.815 34.053,92.400 33.669,92.400 33.502 C 92.400 33.336,140.820 33.200,200.000 33.200 C 271.467 33.200,307.600 33.334,307.600 33.600 C 307.600 33.820,307.960 34.000,308.400 34.000 C 308.840 34.000,309.200 34.180,309.200 34.400 C 309.200 34.620,309.491 34.800,309.846 34.800 C 310.673 34.800,313.056 37.383,313.904 39.200 C 314.264 39.970,314.703 40.701,314.880 40.824 C 315.056 40.947,315.156 109.863,315.101 193.971 L 315.000 346.894 309.649 341.747 C 306.706 338.916,302.926 335.184,301.249 333.454 C 299.572 331.723,294.780 326.911,290.600 322.760 C 281.260 313.483,281.002 313.225,271.501 303.590 C 267.266 299.295,263.196 295.335,262.457 294.790 C 260.529 293.369,258.400 291.245,258.400 290.744 C 258.400 290.062,242.915 274.800,242.223 274.800 C 241.880 274.800,241.600 274.642,241.600 274.450 C 241.600 273.704,234.718 266.607,220.939 253.142 C 218.992 251.241,215.420 247.606,213.000 245.064 C 210.580 242.523,208.285 240.434,207.900 240.422 C 207.515 240.410,207.199 240.265,207.197 240.100 C 207.193 239.694,205.214 238.800,204.320 238.800 C 203.924 238.800,203.600 239.070,203.600 239.400 C 203.600 239.733,203.956 240.000,204.400 240.000 C 204.840 240.000,205.200 240.180,205.200 240.400 C 205.200 240.620,205.469 240.800,205.798 240.800 C 206.127 240.800,231.058 265.470,261.201 295.622 C 291.344 325.774,316.185 350.333,316.403 350.198 C 317.082 349.779,316.938 40.828,316.259 40.567 C 315.948 40.448,315.791 39.982,315.889 39.469 C 315.996 38.911,315.749 38.297,315.230 37.827 C 314.773 37.414,314.400 36.868,314.400 36.613 C 314.400 35.985,312.074 33.793,311.751 34.116 C 311.610 34.257,311.163 33.953,310.760 33.439 C 310.228 32.764,309.745 32.560,309.013 32.700 C 308.418 32.813,308.000 32.709,308.000 32.447 C 308.000 32.119,279.251 32.000,200.000 32.000 C 121.225 32.000,92.000 32.120,92.000 32.443 M57.600 33.567 C 57.600 34.420,57.793 34.800,58.227 34.800 C 58.671 34.800,58.816 34.489,58.727 33.731 C 58.542 32.174,57.600 32.036,57.600 33.567 M341.345 33.000 C 341.059 33.746,341.435 34.800,341.987 34.800 C 342.214 34.800,342.400 34.260,342.400 33.600 C 342.400 32.344,341.740 31.969,341.345 33.000 M56.800 36.200 C 56.800 36.530,57.070 36.800,57.400 36.800 C 57.730 36.800,58.000 36.530,58.000 36.200 C 58.000 35.870,57.730 35.600,57.400 35.600 C 57.070 35.600,56.800 35.870,56.800 36.200 M342.000 36.200 C 342.000 36.530,342.270 36.800,342.600 36.800 C 342.930 36.800,343.200 36.530,343.200 36.200 C 343.200 35.870,342.930 35.600,342.600 35.600 C 342.270 35.600,342.000 35.870,342.000 36.200 M56.000 211.833 C 56.000 350.082,56.101 384.833,56.500 384.700 C 57.326 384.425,57.426 38.800,56.600 38.800 C 56.067 38.800,56.000 58.234,56.000 211.833 M342.800 212.200 C 342.800 366.067,342.868 385.600,343.400 385.600 C 343.932 385.600,344.000 366.067,344.000 212.200 C 344.000 58.333,343.932 38.800,343.400 38.800 C 342.868 38.800,342.800 58.333,342.800 212.200 M196.998 238.403 C 196.610 239.031,197.662 239.252,200.410 239.121 C 201.984 239.045,202.999 238.811,203.102 238.500 C 203.307 237.877,197.382 237.782,196.998 238.403 M137.900 332.409 C 104.515 365.830,77.200 393.360,77.200 393.587 C 77.200 393.814,77.583 394.000,78.051 394.000 C 78.987 394.000,95.600 377.616,95.600 376.693 C 95.600 376.409,95.974 375.912,96.431 375.588 C 98.716 373.971,100.420 372.368,107.897 364.800 C 112.354 360.290,116.675 355.925,117.500 355.101 C 118.325 354.277,123.050 349.556,128.000 344.611 C 132.950 339.666,137.540 335.069,138.200 334.396 C 138.860 333.722,143.277 329.352,148.016 324.685 C 155.915 316.907,157.475 315.251,159.188 312.831 C 159.512 312.374,160.017 312.000,160.312 312.000 C 160.955 312.000,177.600 295.459,177.600 294.820 C 177.600 294.234,180.242 291.600,180.829 291.600 C 181.819 291.600,199.600 273.226,199.600 272.203 C 199.600 270.746,195.494 274.753,137.900 332.409 M200.400 272.136 C 200.400 273.125,218.303 291.600,219.261 291.600 C 219.769 291.600,223.200 295.089,223.200 295.606 C 223.200 296.148,239.074 312.000,239.617 312.000 C 240.132 312.000,243.600 315.451,243.600 315.964 C 243.600 316.318,252.447 325.294,261.043 333.662 C 262.999 335.566,267.765 340.336,271.633 344.262 C 275.502 348.188,280.092 352.773,281.833 354.450 C 283.575 356.128,287.619 360.178,290.820 363.450 C 296.182 368.931,300.265 372.838,304.355 376.400 C 305.240 377.170,305.971 378.032,305.982 378.315 C 306.044 380.063,322.800 395.240,322.800 393.548 C 322.800 392.948,201.464 271.600,200.865 271.600 C 200.609 271.600,200.400 271.841,200.400 272.136 M56.800 387.200 C 56.800 387.716,57.003 387.999,57.300 387.900 C 57.575 387.808,57.800 387.493,57.800 387.200 C 57.800 386.907,57.575 386.592,57.300 386.500 C 57.003 386.401,56.800 386.684,56.800 387.200 M342.071 387.067 C 342.265 388.070,343.200 388.208,343.200 387.233 C 343.200 386.742,342.942 386.400,342.571 386.400 C 342.198 386.400,341.994 386.672,342.071 387.067 M57.600 388.833 C 57.600 389.808,58.535 389.670,58.729 388.667 C 58.806 388.272,58.602 388.000,58.229 388.000 C 57.858 388.000,57.600 388.342,57.600 388.833 M341.271 388.667 C 341.465 389.670,342.400 389.808,342.400 388.833 C 342.400 388.342,342.142 388.000,341.771 388.000 C 341.398 388.000,341.194 388.272,341.271 388.667 M58.400 390.373 C 58.400 390.798,58.760 391.260,59.200 391.400 C 59.640 391.540,60.000 391.794,60.000 391.966 C 60.000 392.575,61.504 394.000,62.147 394.000 C 63.216 394.000,62.904 393.283,61.011 391.389 C 59.060 389.439,58.400 389.182,58.400 390.373 M338.800 391.614 C 337.810 392.687,336.685 393.573,336.300 393.583 C 335.915 393.592,335.600 393.780,335.600 394.000 C 335.600 394.220,335.240 394.400,334.800 394.400 C 334.356 394.400,334.000 394.667,334.000 395.000 C 334.000 395.333,334.356 395.600,334.800 395.600 C 335.240 395.600,335.600 395.420,335.600 395.200 C 335.600 394.980,335.960 394.800,336.400 394.800 C 336.840 394.800,337.200 394.620,337.200 394.400 C 337.200 394.180,337.470 394.000,337.800 394.000 C 338.614 394.000,341.600 391.052,341.600 390.247 C 341.600 389.134,340.667 389.590,338.800 391.614 M63.067 393.867 C 62.560 394.374,62.803 394.800,63.600 394.800 C 64.044 394.800,64.400 394.533,64.400 394.200 C 64.400 393.591,63.554 393.379,63.067 393.867 M64.675 394.658 C 64.153 395.180,64.402 395.600,65.233 395.600 C 65.699 395.600,65.997 395.390,65.908 395.125 C 65.713 394.540,65.046 394.288,64.675 394.658 M74.000 395.000 C 74.000 395.330,74.270 395.600,74.600 395.600 C 74.930 395.600,75.200 395.330,75.200 395.000 C 75.200 394.670,74.930 394.400,74.600 394.400 C 74.270 394.400,74.000 394.670,74.000 395.000 M67.885 395.449 C 67.189 396.144,67.767 396.400,70.033 396.400 C 71.801 396.400,72.422 396.263,72.302 395.900 C 72.123 395.358,68.360 394.973,67.885 395.449 M327.200 395.800 C 327.200 396.280,327.800 396.400,330.200 396.400 C 332.600 396.400,333.200 396.280,333.200 395.800 C 333.200 395.320,332.600 395.200,330.200 395.200 C 327.800 395.200,327.200 395.320,327.200 395.800 " stroke="none" fill="#080404" fill-rule="evenodd"></path></g></svg>