<svg id="svg" xmlns="http://www.w3.org/2000/svg" xmlns:xlink="http://www.w3.org/1999/xlink" width="400" height="400" viewBox="0, 0, 400,400" version="1.1"><g id="svgg"><path id="path0" d="M45.600 55.860 C 45.600 56.443,45.182 56.490,42.000 56.264 C 39.721 56.102,38.400 56.154,38.400 56.404 C 38.400 56.622,37.680 56.800,36.800 56.800 C 35.636 56.800,35.200 56.965,35.200 57.408 C 35.200 57.856,34.938 57.949,34.200 57.764 C 33.444 57.574,33.200 57.670,33.200 58.157 C 33.200 58.533,32.868 58.800,32.400 58.800 C 31.960 58.800,31.600 58.980,31.600 59.200 C 31.600 59.420,31.060 59.600,30.400 59.600 C 29.740 59.600,29.200 59.801,29.200 60.047 C 29.200 60.296,28.847 60.401,28.400 60.284 C 27.859 60.143,27.600 60.272,27.600 60.684 C 27.600 61.096,27.341 61.226,26.800 61.084 C 26.360 60.969,26.000 61.051,26.000 61.266 C 26.000 61.963,24.796 62.884,24.190 62.651 C 23.865 62.527,23.600 62.598,23.600 62.810 C 23.600 63.391,21.922 65.200,21.382 65.200 C 20.747 65.200,13.600 72.372,13.600 73.009 C 13.600 73.285,13.062 73.935,12.404 74.455 C 11.746 74.975,11.206 75.672,11.204 76.004 C 11.202 76.336,10.840 76.832,10.400 77.107 C 9.960 77.382,9.600 77.965,9.600 78.403 C 9.600 78.842,9.420 79.200,9.200 79.200 C 8.980 79.200,8.800 79.560,8.800 80.000 C 8.800 80.440,8.620 80.800,8.400 80.800 C 8.180 80.800,8.000 81.160,8.000 81.600 C 8.000 82.040,7.820 82.400,7.600 82.400 C 7.380 82.400,7.200 82.839,7.200 83.376 C 7.200 83.913,7.020 84.464,6.800 84.600 C 6.580 84.736,6.400 85.377,6.400 86.024 C 6.400 86.671,6.206 87.200,5.968 87.200 C 5.694 87.200,5.635 87.649,5.806 88.428 C 6.025 89.424,5.935 89.692,5.325 89.851 C 4.676 90.021,4.593 90.370,4.713 92.424 C 4.801 93.924,4.695 94.800,4.426 94.800 C 3.830 94.800,3.823 302.644,4.419 303.012 C 4.660 303.161,4.771 304.176,4.681 305.405 C 4.549 307.201,4.638 307.569,5.243 307.727 C 5.763 307.863,5.912 308.193,5.781 308.915 C 5.664 309.559,5.811 309.995,6.193 310.142 C 6.611 310.303,6.717 310.713,6.553 311.536 C 6.419 312.205,6.507 312.819,6.760 312.975 C 7.002 313.125,7.200 313.685,7.200 314.220 C 7.200 314.760,7.556 315.416,8.000 315.693 C 8.440 315.968,8.800 316.509,8.800 316.896 C 8.800 317.283,8.980 317.600,9.200 317.600 C 9.420 317.600,9.600 317.960,9.600 318.400 C 9.600 318.840,9.780 319.200,10.000 319.200 C 10.220 319.200,10.400 319.520,10.400 319.912 C 10.400 320.303,10.760 320.883,11.200 321.200 C 11.640 321.517,12.000 322.019,12.000 322.314 C 12.000 322.610,12.900 323.729,14.000 324.800 C 15.100 325.871,16.000 326.976,16.000 327.255 C 16.000 328.030,18.429 330.364,19.005 330.143 C 19.285 330.035,20.298 330.908,21.257 332.082 C 22.390 333.469,23.245 334.168,23.700 334.079 C 24.085 334.003,24.400 334.135,24.400 334.371 C 24.400 334.607,24.683 334.800,25.029 334.800 C 25.741 334.800,26.800 335.732,26.800 336.359 C 26.800 336.588,27.068 336.672,27.397 336.546 C 27.732 336.417,28.097 336.587,28.230 336.933 C 28.360 337.272,28.720 337.452,29.030 337.333 C 29.340 337.214,29.704 337.405,29.839 337.756 C 29.973 338.108,30.239 338.299,30.429 338.182 C 30.619 338.065,30.984 338.306,31.242 338.718 C 31.566 339.238,32.020 339.409,32.721 339.275 C 33.517 339.123,33.680 339.215,33.489 339.712 C 33.281 340.254,33.419 340.282,34.476 339.914 C 35.502 339.556,35.766 339.597,36.083 340.163 C 36.386 340.705,36.804 340.788,38.174 340.583 C 39.574 340.373,39.934 340.452,40.150 341.014 C 40.376 341.603,40.759 341.663,42.812 341.430 C 44.779 341.208,45.252 341.271,45.448 341.780 C 45.805 342.710,354.187 342.732,354.544 341.802 C 354.734 341.307,355.364 341.248,358.187 341.457 C 361.185 341.680,361.600 341.631,361.600 341.055 C 361.600 340.308,361.675 340.297,363.648 340.756 C 364.957 341.060,365.078 341.019,364.897 340.329 C 364.700 339.573,366.046 339.487,367.173 340.184 C 367.386 340.315,367.763 340.042,368.012 339.577 C 368.261 339.112,368.567 338.834,368.693 338.960 C 368.818 339.085,369.153 338.875,369.436 338.494 C 369.869 337.911,370.082 337.880,370.770 338.300 C 371.835 338.950,371.922 338.934,371.856 338.100 C 371.819 337.640,372.040 337.440,372.500 337.518 C 372.885 337.582,373.200 337.447,373.200 337.218 C 373.200 336.988,373.489 336.800,373.842 336.800 C 374.196 336.800,374.847 336.339,375.291 335.776 C 375.734 335.212,376.345 334.847,376.648 334.963 C 376.952 335.080,377.200 334.988,377.200 334.759 C 377.200 334.196,378.232 333.200,378.815 333.200 C 379.385 333.200,388.000 324.517,388.000 323.942 C 388.000 323.720,388.675 322.870,389.500 322.054 C 391.164 320.407,392.000 319.121,392.000 318.205 C 392.000 317.872,392.135 317.599,392.300 317.597 C 392.639 317.593,393.600 315.674,393.600 315.000 C 393.600 314.326,394.561 312.407,394.900 312.403 C 395.065 312.401,395.200 311.860,395.200 311.200 C 395.200 310.540,395.380 310.000,395.600 310.000 C 395.820 310.000,396.000 309.280,396.000 308.400 C 396.000 307.510,396.194 306.800,396.437 306.800 C 396.712 306.800,396.842 305.947,396.789 304.500 C 396.676 301.436,396.714 301.200,397.316 301.200 C 398.049 301.200,398.013 95.938,397.280 95.693 C 396.979 95.593,396.800 94.652,396.800 93.167 C 396.800 91.856,396.622 90.800,396.400 90.800 C 396.180 90.800,396.000 90.181,396.000 89.424 C 396.000 88.667,395.820 87.936,395.600 87.800 C 395.380 87.664,395.200 87.113,395.200 86.576 C 395.200 86.039,395.020 85.600,394.800 85.600 C 394.580 85.600,394.400 85.060,394.400 84.400 C 394.400 83.740,394.220 83.200,394.000 83.200 C 393.780 83.200,393.600 82.840,393.600 82.400 C 393.600 81.960,393.420 81.600,393.200 81.600 C 392.980 81.600,392.800 81.240,392.800 80.800 C 392.800 80.360,392.620 80.000,392.400 80.000 C 392.180 80.000,392.000 79.640,392.000 79.200 C 392.000 78.760,391.820 78.400,391.600 78.400 C 391.380 78.400,391.200 78.080,391.200 77.688 C 391.200 77.297,390.840 76.717,390.400 76.400 C 389.960 76.083,389.600 75.575,389.600 75.272 C 389.600 74.969,389.060 74.217,388.400 73.600 C 387.740 72.983,387.200 72.306,387.200 72.095 C 387.200 71.396,383.484 67.600,382.800 67.600 C 382.431 67.600,381.312 66.700,380.314 65.600 C 379.317 64.500,378.285 63.600,378.021 63.600 C 377.445 63.600,376.400 62.612,376.400 62.066 C 376.400 61.851,376.040 61.769,375.600 61.884 C 375.153 62.001,374.800 61.896,374.800 61.647 C 374.800 61.401,374.440 61.200,374.000 61.200 C 373.560 61.200,373.200 61.020,373.200 60.800 C 373.200 60.580,372.840 60.400,372.400 60.400 C 371.960 60.400,371.600 60.220,371.600 60.000 C 371.600 59.780,371.339 59.600,371.020 59.600 C 370.701 59.600,370.296 59.375,370.120 59.100 C 369.944 58.825,369.530 58.600,369.200 58.600 C 368.870 58.600,368.639 58.394,368.686 58.143 C 368.737 57.867,368.260 57.708,367.486 57.743 C 366.605 57.782,366.235 57.632,366.311 57.267 C 366.391 56.881,366.007 56.771,364.911 56.867 C 363.924 56.954,363.430 56.840,363.488 56.537 C 363.551 56.204,362.624 56.128,360.188 56.264 C 357.298 56.426,356.800 56.362,356.800 55.827 C 356.800 55.259,342.217 55.200,201.200 55.200 C 56.878 55.200,45.600 55.248,45.600 55.860 M360.400 76.418 C 360.400 77.277,358.744 79.200,358.005 79.200 C 357.767 79.200,356.566 80.280,355.336 81.600 C 354.105 82.920,352.801 84.000,352.438 84.000 C 352.075 84.000,350.820 85.089,349.648 86.420 C 348.477 87.751,347.316 88.772,347.068 88.689 C 346.821 88.607,345.589 89.588,344.332 90.870 C 343.074 92.151,341.855 93.200,341.623 93.200 C 341.392 93.200,340.335 94.100,339.275 95.200 C 338.215 96.300,337.173 97.200,336.961 97.200 C 336.749 97.200,335.506 98.280,334.200 99.600 C 332.894 100.920,331.597 102.000,331.318 102.000 C 331.039 102.000,329.374 103.476,327.618 105.280 C 325.862 107.083,324.303 108.437,324.153 108.287 C 324.004 108.137,323.593 108.346,323.241 108.751 C 320.287 112.144,319.620 112.800,319.120 112.800 C 318.806 112.800,317.570 113.874,316.374 115.186 C 315.179 116.498,313.907 117.578,313.548 117.586 C 313.190 117.594,312.077 118.500,311.076 119.600 C 310.075 120.700,309.012 121.600,308.714 121.600 C 308.416 121.600,307.195 122.590,306.000 123.800 C 304.805 125.010,303.621 126.000,303.368 126.000 C 303.116 126.000,302.068 126.900,301.039 128.000 C 300.010 129.100,298.937 130.000,298.655 130.000 C 298.372 130.000,296.772 131.440,295.098 133.200 C 293.424 134.960,291.794 136.400,291.476 136.400 C 291.159 136.400,289.970 137.407,288.835 138.637 C 287.700 139.868,286.491 140.916,286.147 140.967 C 285.803 141.017,284.749 141.900,283.804 142.929 C 282.860 143.958,281.856 144.800,281.573 144.800 C 281.291 144.800,280.029 145.880,278.769 147.200 C 277.509 148.520,276.229 149.600,275.924 149.600 C 275.619 149.600,274.567 150.496,273.585 151.591 C 272.603 152.687,271.533 153.587,271.207 153.591 C 270.880 153.596,269.685 154.590,268.549 155.800 C 267.414 157.010,266.261 158.000,265.986 158.000 C 265.712 158.000,264.087 159.440,262.376 161.200 C 260.665 162.960,259.024 164.400,258.730 164.400 C 258.436 164.400,257.237 165.480,256.066 166.800 C 254.894 168.120,253.673 169.200,253.351 169.200 C 253.029 169.200,251.814 170.190,250.651 171.400 C 249.489 172.610,248.291 173.600,247.989 173.600 C 247.687 173.600,246.596 174.500,245.563 175.600 C 244.530 176.700,243.467 177.600,243.200 177.600 C 242.933 177.600,241.850 178.521,240.794 179.646 C 239.738 180.771,238.632 181.607,238.337 181.504 C 238.042 181.401,237.618 181.642,237.397 182.039 C 236.675 183.328,231.892 188.031,231.451 187.884 C 231.215 187.805,229.811 188.969,228.331 190.470 C 226.850 191.972,225.427 193.200,225.169 193.200 C 224.911 193.200,223.883 194.100,222.886 195.200 C 221.888 196.300,220.740 197.200,220.336 197.200 C 219.931 197.200,219.597 197.335,219.593 197.500 C 219.579 198.104,215.660 202.000,215.066 202.000 C 214.730 202.000,213.607 202.895,212.571 203.989 C 211.536 205.083,210.524 205.877,210.323 205.752 C 210.122 205.628,209.631 205.903,209.232 206.363 C 208.833 206.823,208.212 207.200,207.853 207.200 C 207.494 207.200,207.200 207.380,207.200 207.600 C 207.200 207.820,206.870 208.000,206.467 208.000 C 206.063 208.000,205.629 208.104,205.502 208.231 C 205.154 208.579,195.199 208.646,195.200 208.300 C 195.200 208.135,194.840 208.000,194.400 208.000 C 193.960 208.000,193.600 207.812,193.600 207.582 C 193.600 207.353,193.359 207.218,193.064 207.282 C 192.769 207.347,191.532 206.365,190.315 205.100 C 189.099 203.835,187.848 202.800,187.537 202.800 C 187.225 202.800,186.083 201.900,185.000 200.800 C 183.917 199.700,182.708 198.800,182.315 198.800 C 181.922 198.800,181.597 198.665,181.593 198.500 C 181.581 197.987,177.704 194.000,177.217 194.000 C 176.963 194.000,175.726 192.951,174.468 191.670 C 173.211 190.388,172.006 189.398,171.791 189.469 C 171.576 189.541,170.702 188.879,169.848 188.000 C 168.995 187.120,168.079 186.400,167.812 186.400 C 167.546 186.400,165.954 184.960,164.273 183.200 C 162.593 181.440,161.016 180.000,160.768 180.000 C 160.521 180.000,159.119 178.740,157.654 177.200 C 156.188 175.660,154.751 174.400,154.460 174.400 C 154.169 174.400,152.980 173.410,151.817 172.200 C 150.654 170.990,149.484 170.000,149.215 170.000 C 148.947 170.000,147.860 169.100,146.800 168.000 C 145.740 166.900,144.631 165.994,144.336 165.986 C 144.041 165.978,142.821 164.898,141.626 163.586 C 140.430 162.274,139.197 161.200,138.887 161.200 C 138.576 161.200,137.291 160.120,136.031 158.800 C 134.771 157.480,133.500 156.400,133.207 156.400 C 132.675 156.400,130.033 153.754,128.137 151.324 C 127.536 150.554,126.912 150.136,126.562 150.270 C 126.202 150.408,125.282 149.719,124.127 148.446 C 123.106 147.321,122.013 146.400,121.696 146.400 C 121.380 146.400,120.124 145.320,118.904 144.000 C 117.684 142.680,116.432 141.600,116.123 141.600 C 115.813 141.600,114.646 140.610,113.530 139.400 C 112.414 138.190,111.234 137.200,110.908 137.200 C 110.582 137.200,109.470 136.300,108.437 135.200 C 107.404 134.100,106.321 133.200,106.030 133.200 C 105.738 133.200,104.683 132.300,103.686 131.200 C 102.688 130.100,101.616 129.200,101.304 129.200 C 100.747 129.200,99.575 128.078,96.000 124.119 C 95.010 123.022,94.004 122.193,93.764 122.275 C 93.524 122.357,92.254 121.282,90.941 119.886 C 89.628 118.491,88.379 117.407,88.166 117.478 C 87.952 117.549,86.889 116.706,85.804 115.604 C 84.718 114.502,83.508 113.600,83.115 113.600 C 82.722 113.600,82.398 113.465,82.396 113.300 C 82.389 112.821,78.434 108.800,77.969 108.800 C 77.738 108.800,76.702 107.931,75.667 106.869 C 74.633 105.807,73.603 104.999,73.380 105.073 C 73.156 105.148,71.580 103.767,69.878 102.004 C 68.176 100.242,66.564 98.800,66.297 98.800 C 66.029 98.800,64.612 97.540,63.146 96.000 C 61.681 94.460,60.265 93.200,60.001 93.200 C 59.737 93.200,58.712 92.345,57.724 91.300 C 56.736 90.255,55.696 89.397,55.413 89.394 C 55.129 89.391,54.057 88.536,53.030 87.494 C 52.003 86.452,50.911 85.600,50.604 85.600 C 50.296 85.600,49.269 84.700,48.322 83.600 C 47.375 82.500,46.336 81.600,46.014 81.600 C 45.379 81.600,40.400 76.620,40.400 75.986 C 40.400 75.739,97.983 75.600,200.400 75.600 L 360.400 75.600 360.400 76.418 M28.847 92.061 C 29.203 92.467,29.716 92.800,29.988 92.800 C 30.259 92.800,31.595 93.970,32.957 95.400 C 34.318 96.830,35.685 98.000,35.994 98.000 C 36.590 98.000,41.600 103.026,41.600 103.624 C 41.600 103.817,41.873 103.870,42.207 103.742 C 42.608 103.588,43.588 104.342,45.086 105.954 C 46.336 107.299,47.608 108.400,47.914 108.400 C 48.219 108.400,49.465 109.435,50.683 110.700 C 51.900 111.965,53.116 112.954,53.383 112.897 C 53.651 112.841,54.630 113.696,55.559 114.797 C 56.488 115.899,57.508 116.800,57.826 116.800 C 58.144 116.800,59.285 117.700,60.362 118.800 C 61.439 119.900,62.533 120.800,62.792 120.800 C 63.222 120.800,64.154 121.695,67.334 125.163 C 67.958 125.843,68.726 126.400,69.041 126.400 C 69.356 126.400,70.715 127.570,72.060 129.000 C 73.405 130.430,74.712 131.600,74.965 131.600 C 75.218 131.600,76.494 132.680,77.800 134.000 C 79.106 135.320,80.378 136.400,80.627 136.400 C 80.875 136.400,82.138 137.480,83.433 138.800 C 84.728 140.120,86.060 141.213,86.394 141.229 C 86.727 141.245,87.720 142.132,88.600 143.200 C 89.480 144.268,90.489 145.155,90.843 145.171 C 91.197 145.187,92.457 146.250,93.643 147.534 C 94.829 148.817,96.028 149.791,96.306 149.698 C 96.585 149.605,97.361 150.130,98.031 150.865 C 98.702 151.599,99.704 152.695,100.259 153.300 C 100.814 153.905,101.573 154.400,101.946 154.400 C 102.318 154.400,102.888 154.774,103.212 155.231 C 104.289 156.754,107.549 160.000,108.000 160.000 C 108.244 160.000,109.474 161.049,110.732 162.330 C 111.989 163.612,113.202 164.599,113.427 164.524 C 113.651 164.450,114.907 165.470,116.217 166.791 C 117.528 168.112,118.915 169.195,119.300 169.197 C 119.685 169.198,120.005 169.335,120.012 169.500 C 120.031 170.013,123.943 174.000,124.427 174.000 C 124.679 174.000,125.730 174.900,126.763 176.000 C 127.796 177.100,128.884 178.000,129.181 178.000 C 129.478 178.000,130.695 178.990,131.886 180.200 C 133.077 181.410,134.282 182.400,134.564 182.400 C 134.846 182.400,136.439 183.840,138.103 185.600 C 139.767 187.360,141.342 188.800,141.603 188.800 C 141.864 188.800,143.109 189.880,144.369 191.200 C 145.629 192.520,146.885 193.600,147.161 193.600 C 147.437 193.600,148.325 194.289,149.135 195.132 C 149.944 195.975,150.813 196.596,151.064 196.512 C 151.316 196.428,151.812 196.942,152.167 197.654 C 152.877 199.078,153.094 198.698,149.289 202.701 C 148.787 203.228,148.161 203.587,147.896 203.499 C 147.631 203.410,146.367 204.432,145.086 205.769 C 143.806 207.106,142.578 208.152,142.357 208.093 C 141.946 207.983,137.228 212.757,137.210 213.300 C 137.204 213.465,136.874 213.600,136.476 213.600 C 136.078 213.600,135.133 214.316,134.376 215.191 C 133.619 216.066,132.724 216.786,132.387 216.791 C 132.051 216.796,130.715 217.871,129.419 219.181 C 128.123 220.491,126.908 221.467,126.719 221.350 C 126.375 221.138,121.609 225.935,121.603 226.500 C 121.601 226.665,121.270 226.800,120.867 226.800 C 120.464 226.800,118.954 228.060,117.511 229.600 C 116.068 231.140,114.652 232.400,114.364 232.400 C 114.076 232.400,112.980 233.316,111.929 234.436 C 110.878 235.556,109.805 236.402,109.544 236.315 C 109.284 236.228,108.335 236.973,107.436 237.971 C 104.854 240.834,104.817 240.868,104.178 240.962 C 103.845 241.011,102.588 242.075,101.386 243.326 C 100.184 244.576,98.960 245.600,98.665 245.600 C 98.370 245.600,97.312 246.500,96.314 247.600 C 95.317 248.700,94.220 249.600,93.877 249.600 C 93.535 249.600,91.948 251.040,90.351 252.800 C 88.754 254.560,87.188 256.000,86.872 256.000 C 86.556 256.000,85.346 256.990,84.183 258.200 C 83.020 259.410,81.864 260.400,81.612 260.400 C 81.361 260.400,80.096 261.480,78.800 262.800 C 77.504 264.120,76.235 265.200,75.979 265.200 C 75.724 265.200,74.670 266.100,73.637 267.200 C 72.604 268.300,71.531 269.200,71.252 269.200 C 70.973 269.200,69.969 270.010,69.021 271.000 C 68.072 271.990,67.086 272.800,66.829 272.800 C 66.572 272.800,65.119 274.060,63.600 275.600 C 62.081 277.140,60.632 278.400,60.379 278.400 C 60.125 278.400,58.719 279.660,57.254 281.200 C 55.788 282.740,54.339 284.000,54.033 284.000 C 53.727 284.000,52.492 285.088,51.289 286.417 C 50.086 287.746,48.902 288.767,48.658 288.686 C 48.414 288.605,47.367 289.407,46.333 290.469 C 45.298 291.531,44.249 292.400,44.000 292.400 C 43.751 292.400,42.671 293.300,41.600 294.400 C 40.529 295.500,39.388 296.400,39.066 296.400 C 38.743 296.400,37.544 297.480,36.400 298.800 C 35.256 300.120,34.096 301.200,33.822 301.200 C 33.548 301.200,32.317 302.190,31.088 303.400 C 29.858 304.610,28.570 305.600,28.226 305.600 C 27.882 305.600,27.600 305.780,27.600 306.000 C 27.600 306.842,25.696 306.408,25.403 305.500 C 24.856 303.803,24.889 92.800,25.437 92.800 C 25.723 92.800,25.841 92.479,25.723 92.026 C 25.446 90.968,27.915 90.996,28.847 92.061 M375.852 92.440 C 375.680 93.301,375.772 93.600,376.210 93.600 C 376.729 93.600,376.800 106.324,376.800 198.600 C 376.800 293.035,376.738 303.600,376.182 303.600 C 375.692 303.600,375.618 303.891,375.826 305.000 C 376.141 306.677,373.695 307.182,372.732 305.640 C 372.471 305.222,372.045 304.962,371.784 305.061 C 371.524 305.161,369.981 303.795,368.356 302.025 C 366.730 300.255,365.130 298.804,364.800 298.801 C 364.470 298.797,363.210 297.717,362.000 296.400 C 360.790 295.083,359.556 294.004,359.257 294.003 C 358.959 294.001,357.740 292.965,356.549 291.700 C 355.358 290.435,354.145 289.447,353.852 289.504 C 353.560 289.561,352.349 288.529,351.161 287.212 C 349.972 285.894,348.729 284.813,348.399 284.808 C 348.068 284.804,346.988 283.900,346.000 282.800 C 345.012 281.700,343.960 280.800,343.662 280.800 C 343.365 280.800,342.091 279.720,340.831 278.400 C 339.571 277.080,338.313 276.000,338.035 276.000 C 337.538 276.000,332.022 270.451,332.007 269.937 C 332.003 269.793,331.672 269.761,331.272 269.865 C 330.756 270.000,329.926 269.348,328.424 267.628 C 327.258 266.293,326.033 265.200,325.702 265.200 C 325.371 265.200,324.283 264.300,323.286 263.200 C 322.288 262.100,321.219 261.200,320.910 261.200 C 320.601 261.200,319.499 260.345,318.461 259.300 C 317.423 258.255,316.341 257.351,316.057 257.290 C 315.773 257.230,314.632 256.195,313.521 254.990 C 312.410 253.786,311.208 252.794,310.851 252.786 C 310.493 252.778,309.221 251.698,308.026 250.386 C 306.830 249.074,305.599 248.000,305.290 248.000 C 304.981 248.000,303.367 246.560,301.703 244.800 C 300.039 243.040,298.411 241.600,298.085 241.600 C 297.760 241.600,297.203 241.265,296.847 240.857 C 294.006 237.592,293.349 236.947,292.989 237.069 C 292.762 237.145,291.689 236.306,290.604 235.204 C 289.518 234.102,288.411 233.200,288.143 233.200 C 287.876 233.200,286.627 232.120,285.367 230.800 C 284.108 229.480,282.791 228.398,282.439 228.396 C 282.088 228.394,281.410 227.899,280.934 227.296 C 279.102 224.977,278.429 224.335,278.066 224.559 C 277.859 224.687,276.147 223.173,274.261 221.196 C 272.375 219.218,270.593 217.600,270.301 217.600 C 270.009 217.600,268.883 216.700,267.800 215.600 C 266.717 214.500,265.613 213.600,265.347 213.600 C 265.081 213.600,263.906 212.520,262.734 211.200 C 261.563 209.880,260.367 208.800,260.077 208.800 C 259.786 208.800,258.680 207.909,257.620 206.821 C 256.560 205.732,255.576 204.957,255.435 205.098 C 255.294 205.240,254.058 204.265,252.689 202.933 C 251.320 201.601,249.885 200.401,249.500 200.268 C 247.859 199.699,249.115 196.429,250.861 196.725 C 251.268 196.794,251.600 196.671,251.600 196.452 C 251.600 195.859,255.466 192.000,256.061 192.000 C 256.343 192.000,257.957 190.560,259.648 188.800 C 261.338 187.040,262.928 185.600,263.182 185.600 C 263.435 185.600,264.648 184.513,265.878 183.186 C 267.107 181.858,268.295 180.832,268.517 180.906 C 268.740 180.980,269.786 180.176,270.842 179.120 C 271.898 178.064,273.130 177.200,273.581 177.200 C 274.031 177.200,274.400 177.040,274.400 176.845 C 274.400 176.256,278.201 172.400,278.782 172.400 C 279.080 172.400,280.301 171.320,281.495 170.000 C 282.690 168.680,283.882 167.600,284.145 167.600 C 284.408 167.600,285.783 166.430,287.200 165.000 C 288.617 163.570,290.018 162.400,290.313 162.400 C 290.608 162.400,291.893 161.320,293.169 160.000 C 294.444 158.680,295.717 157.600,295.997 157.600 C 296.277 157.600,296.797 157.265,297.153 156.857 C 300.116 153.452,300.781 152.800,301.293 152.800 C 301.615 152.800,302.916 151.712,304.185 150.382 C 305.453 149.052,306.694 148.031,306.942 148.114 C 307.190 148.197,308.056 147.575,308.865 146.732 C 309.675 145.889,310.549 145.200,310.808 145.200 C 311.280 145.200,312.145 144.359,314.854 141.262 C 315.654 140.348,316.565 139.600,316.877 139.600 C 317.190 139.600,318.810 138.160,320.478 136.400 C 322.146 134.640,323.776 133.200,324.101 133.200 C 324.425 133.200,325.532 132.300,326.561 131.200 C 327.590 130.100,328.668 129.200,328.956 129.200 C 329.245 129.200,330.387 128.210,331.495 127.000 C 332.604 125.790,333.758 124.800,334.061 124.800 C 334.363 124.800,335.471 123.900,336.522 122.800 C 337.573 121.700,338.670 120.800,338.959 120.800 C 339.249 120.800,340.484 119.720,341.704 118.400 C 342.924 117.080,344.187 116.000,344.511 116.000 C 344.836 116.000,346.014 115.010,347.130 113.800 C 348.322 112.508,349.498 111.600,349.980 111.600 C 350.431 111.600,350.800 111.461,350.800 111.291 C 350.800 110.780,357.084 104.400,357.587 104.400 C 357.843 104.400,358.929 103.500,360.000 102.400 C 361.071 101.300,362.202 100.400,362.511 100.400 C 362.821 100.400,363.837 99.495,364.770 98.390 C 365.702 97.284,366.698 96.429,366.984 96.490 C 367.270 96.550,368.500 95.565,369.717 94.300 C 370.935 93.035,372.216 92.000,372.565 92.000 C 372.914 92.000,373.200 91.838,373.200 91.640 C 373.200 91.442,373.849 91.280,374.642 91.280 C 376.020 91.280,376.074 91.332,375.852 92.440 M168.945 212.678 C 169.098 212.831,169.483 212.995,169.801 213.041 C 170.119 213.088,171.132 213.953,172.051 214.963 C 172.971 215.973,173.976 216.800,174.284 216.800 C 174.593 216.800,175.708 217.700,176.763 218.800 C 177.817 219.900,178.908 220.800,179.186 220.800 C 179.464 220.800,180.322 221.520,181.094 222.400 C 181.865 223.280,182.743 224.000,183.045 224.000 C 183.346 224.000,183.818 224.360,184.093 224.800 C 184.368 225.240,184.915 225.600,185.309 225.600 C 185.703 225.600,186.124 225.859,186.246 226.175 C 186.367 226.491,186.716 226.654,187.022 226.536 C 187.638 226.300,190.000 227.221,190.000 227.698 C 190.000 227.864,190.540 228.000,191.200 228.000 C 191.942 228.000,192.400 228.207,192.400 228.541 C 192.400 228.950,192.891 229.035,194.400 228.890 C 195.731 228.763,196.400 228.849,196.400 229.149 C 196.400 229.454,197.699 229.600,200.400 229.600 C 203.101 229.600,204.400 229.454,204.400 229.149 C 204.400 228.849,205.069 228.763,206.400 228.890 C 207.974 229.042,208.400 228.958,208.400 228.499 C 208.400 228.060,208.795 227.954,210.000 228.069 C 211.111 228.174,211.600 228.065,211.600 227.711 C 211.600 227.430,211.945 227.200,212.367 227.200 C 212.788 227.200,213.193 227.058,213.267 226.885 C 213.340 226.712,214.416 226.078,215.659 225.476 C 216.901 224.874,218.138 224.116,218.408 223.791 C 218.677 223.466,219.130 223.200,219.413 223.200 C 219.697 223.200,220.383 222.660,220.939 222.000 C 221.494 221.340,222.211 220.800,222.533 220.800 C 222.855 220.800,224.657 219.168,226.539 217.173 C 229.509 214.025,230.148 213.536,231.378 213.473 C 232.206 213.430,232.797 213.192,232.798 212.900 C 232.799 212.625,233.250 212.400,233.800 212.400 C 234.350 212.400,234.800 212.574,234.800 212.787 C 234.800 213.001,235.046 213.081,235.346 212.965 C 235.652 212.848,236.378 213.337,236.997 214.078 C 239.739 217.359,241.867 219.444,242.320 219.293 C 242.873 219.109,246.257 222.520,246.604 223.612 C 246.745 224.056,247.097 224.247,247.553 224.128 C 248.030 224.003,248.826 224.497,249.877 225.569 C 250.756 226.466,251.707 227.200,251.991 227.200 C 252.274 227.200,252.797 227.535,253.153 227.944 C 256.047 231.275,257.655 232.813,258.011 232.593 C 258.416 232.343,261.200 235.030,261.200 235.671 C 261.200 235.843,261.674 236.104,262.253 236.249 C 262.833 236.395,264.150 237.388,265.180 238.457 C 266.210 239.526,267.289 240.400,267.577 240.400 C 267.864 240.400,268.933 241.325,269.950 242.456 C 273.583 246.493,274.794 247.651,275.153 247.429 C 275.354 247.305,276.559 248.328,277.832 249.702 C 279.104 251.076,280.357 252.153,280.614 252.096 C 280.872 252.039,281.926 252.894,282.957 253.996 C 283.988 255.098,285.063 256.000,285.346 256.000 C 285.865 256.000,286.251 256.340,288.415 258.700 C 289.071 259.415,289.836 260.000,290.117 260.000 C 290.397 260.000,291.602 261.060,292.794 262.357 C 293.985 263.653,295.191 264.625,295.472 264.517 C 295.754 264.409,296.819 265.238,297.840 266.360 C 298.861 267.482,299.969 268.400,300.301 268.400 C 300.634 268.400,301.197 268.735,301.553 269.143 C 304.501 272.531,305.174 273.200,305.635 273.200 C 305.924 273.200,307.727 274.820,309.643 276.800 C 311.558 278.780,313.334 280.400,313.590 280.400 C 313.846 280.400,314.888 281.210,315.907 282.200 C 316.925 283.190,317.954 284.000,318.192 284.000 C 318.430 284.000,319.462 284.900,320.484 286.000 C 321.507 287.100,322.546 288.000,322.794 288.000 C 323.042 288.000,324.304 289.080,325.600 290.400 C 326.896 291.720,328.161 292.800,328.412 292.800 C 328.664 292.800,329.865 293.835,331.083 295.100 C 332.300 296.365,333.526 297.351,333.807 297.292 C 334.088 297.232,335.299 298.267,336.497 299.592 C 337.696 300.916,338.913 302.000,339.201 302.000 C 339.489 302.000,340.941 303.260,342.427 304.800 C 343.913 306.340,345.337 307.600,345.590 307.600 C 346.134 307.600,350.000 311.481,350.000 312.027 C 350.000 312.232,350.405 312.404,350.900 312.410 C 351.476 312.416,352.510 313.207,353.773 314.610 C 354.859 315.814,355.988 316.800,356.284 316.800 C 356.579 316.800,357.642 317.620,358.644 318.623 C 360.684 320.663,360.800 321.838,358.909 321.310 C 357.440 320.899,43.836 320.908,41.900 321.318 C 40.552 321.604,40.400 321.553,40.400 320.818 C 40.400 320.291,40.661 320.000,41.136 320.000 C 41.540 320.000,42.690 319.098,43.690 317.995 C 44.942 316.615,45.710 316.067,46.154 316.238 C 46.509 316.374,46.800 316.321,46.800 316.119 C 46.800 315.553,50.738 311.600,51.301 311.601 C 51.576 311.601,53.358 309.981,55.261 308.001 C 57.165 306.020,58.939 304.400,59.204 304.400 C 59.469 304.400,60.530 303.500,61.563 302.400 C 62.596 301.300,63.711 300.400,64.042 300.400 C 64.372 300.400,65.515 299.410,66.582 298.200 C 67.649 296.990,68.800 296.000,69.140 296.000 C 69.481 296.000,70.604 295.100,71.637 294.000 C 72.670 292.900,73.731 292.000,73.996 292.000 C 74.261 292.000,75.509 290.920,76.769 289.600 C 78.029 288.280,79.267 287.200,79.521 287.200 C 79.775 287.200,81.367 285.755,83.059 283.989 C 84.751 282.223,86.319 280.840,86.543 280.914 C 86.767 280.989,87.799 280.184,88.836 279.125 C 89.872 278.066,90.938 277.200,91.203 277.200 C 91.468 277.200,92.530 276.300,93.563 275.200 C 94.596 274.100,95.657 273.200,95.922 273.200 C 96.186 273.200,97.596 271.940,99.056 270.400 C 100.515 268.860,101.911 267.600,102.158 267.600 C 102.604 267.600,103.731 266.612,105.541 264.632 C 106.058 264.066,106.643 263.703,106.842 263.826 C 107.040 263.948,108.256 262.958,109.545 261.624 C 110.834 260.291,112.162 259.200,112.497 259.200 C 112.831 259.200,113.565 258.615,114.128 257.900 C 116.132 255.354,118.722 252.800,119.302 252.800 C 119.626 252.800,120.741 251.890,121.781 250.779 C 122.821 249.667,123.870 248.823,124.113 248.904 C 124.356 248.985,125.621 247.917,126.924 246.531 C 128.228 245.145,129.448 244.106,129.634 244.221 C 129.928 244.403,131.096 243.275,133.647 240.343 C 134.003 239.934,134.558 239.600,134.880 239.600 C 135.446 239.600,136.245 238.876,138.749 236.100 C 139.393 235.385,140.179 234.800,140.494 234.800 C 140.809 234.800,142.259 233.540,143.717 232.000 C 145.174 230.460,146.574 229.200,146.828 229.200 C 147.082 229.200,148.426 228.030,149.815 226.600 C 151.203 225.170,152.588 224.000,152.893 224.000 C 153.198 224.000,154.067 223.284,154.824 222.409 C 155.581 221.534,156.475 220.814,156.811 220.809 C 157.147 220.804,158.448 219.720,159.702 218.400 C 160.957 217.080,162.224 216.000,162.517 216.000 C 162.811 216.000,163.760 215.203,164.626 214.230 C 166.144 212.523,168.090 211.824,168.945 212.678 " stroke="none" fill="#1ca4f4" fill-rule="evenodd"></path><path id="path1" d="M45.400 54.800 C 45.264 55.020,43.824 55.200,42.200 55.200 C 39.000 55.200,37.904 55.747,40.308 56.145 C 43.144 56.613,45.600 56.453,45.600 55.800 C 45.600 55.268,63.156 55.200,201.200 55.200 C 344.142 55.200,356.800 55.253,356.800 55.846 C 356.800 56.400,357.209 56.461,359.700 56.276 C 361.905 56.113,362.754 56.200,363.242 56.640 C 363.595 56.959,364.180 57.106,364.542 56.967 C 365.568 56.573,365.314 55.885,364.220 56.094 C 363.621 56.209,363.159 56.071,363.033 55.741 C 362.884 55.353,361.978 55.200,359.836 55.200 C 358.192 55.200,356.736 55.020,356.600 54.800 C 356.436 54.534,304.137 54.400,201.000 54.400 C 97.863 54.400,45.564 54.534,45.400 54.800 M35.800 56.400 C 35.653 56.638,36.129 56.800,36.976 56.800 C 37.759 56.800,38.400 56.620,38.400 56.400 C 38.400 56.180,37.871 56.000,37.224 56.000 C 36.577 56.000,35.936 56.180,35.800 56.400 M32.200 57.200 C 32.064 57.420,31.592 57.600,31.151 57.600 C 30.352 57.600,25.180 59.905,24.800 60.430 C 24.690 60.583,23.906 61.096,23.058 61.571 C 20.796 62.837,16.448 66.449,14.516 68.667 C 13.590 69.730,12.279 71.217,11.601 71.972 C 10.924 72.726,10.068 73.986,9.700 74.772 C 9.332 75.557,8.797 76.439,8.513 76.731 C 7.449 77.822,6.018 81.116,6.006 82.500 C 6.003 82.885,5.820 83.200,5.600 83.200 C 5.380 83.200,5.200 83.639,5.200 84.176 C 5.200 84.713,5.020 85.264,4.800 85.400 C 4.580 85.536,4.400 86.459,4.400 87.452 C 4.400 88.478,4.155 89.502,3.832 89.825 C 2.792 90.865,2.758 94.827,2.880 201.018 C 2.993 300.815,3.039 306.694,3.700 307.704 C 4.085 308.291,4.400 309.498,4.400 310.386 C 4.400 311.274,4.580 312.000,4.800 312.000 C 5.020 312.000,5.200 312.439,5.200 312.976 C 5.200 313.513,5.380 314.064,5.600 314.200 C 5.820 314.336,6.000 314.799,6.000 315.229 C 6.000 315.659,6.165 316.323,6.366 316.705 C 6.568 317.087,7.015 318.050,7.359 318.845 C 7.703 319.640,8.259 320.517,8.593 320.794 C 8.927 321.071,9.200 321.546,9.200 321.849 C 9.200 322.152,9.360 322.400,9.557 322.400 C 9.753 322.400,10.016 322.805,10.141 323.300 C 10.370 324.203,17.123 331.604,17.716 331.601 C 17.890 331.601,18.700 332.281,19.516 333.113 C 22.315 335.965,31.997 340.943,33.246 340.172 C 33.973 339.722,33.566 339.113,32.655 339.287 C 32.025 339.408,31.554 339.218,31.242 338.718 C 30.984 338.306,30.619 338.065,30.429 338.182 C 30.239 338.299,29.973 338.108,29.839 337.756 C 29.704 337.405,29.340 337.214,29.030 337.333 C 28.720 337.452,28.360 337.272,28.230 336.933 C 28.097 336.587,27.732 336.417,27.397 336.546 C 27.068 336.672,26.800 336.588,26.800 336.359 C 26.800 335.732,25.741 334.800,25.029 334.800 C 24.683 334.800,24.400 334.607,24.400 334.371 C 24.400 334.135,24.085 334.003,23.700 334.079 C 23.245 334.168,22.390 333.469,21.257 332.082 C 20.298 330.908,19.285 330.035,19.005 330.143 C 18.429 330.364,16.000 328.030,16.000 327.255 C 16.000 326.976,15.100 325.871,14.000 324.800 C 12.900 323.729,12.000 322.610,12.000 322.314 C 12.000 322.019,11.640 321.517,11.200 321.200 C 10.760 320.883,10.400 320.303,10.400 319.912 C 10.400 319.520,10.220 319.200,10.000 319.200 C 9.780 319.200,9.600 318.840,9.600 318.400 C 9.600 317.960,9.420 317.600,9.200 317.600 C 8.980 317.600,8.800 317.283,8.800 316.896 C 8.800 316.509,8.440 315.968,8.000 315.693 C 7.556 315.416,7.200 314.760,7.200 314.220 C 7.200 313.685,7.002 313.125,6.760 312.975 C 6.507 312.819,6.419 312.205,6.553 311.536 C 6.717 310.713,6.611 310.303,6.193 310.142 C 5.811 309.995,5.664 309.559,5.781 308.915 C 5.912 308.193,5.763 307.863,5.243 307.727 C 4.638 307.569,4.549 307.201,4.681 305.405 C 4.771 304.176,4.660 303.161,4.419 303.012 C 3.823 302.644,3.830 94.800,4.426 94.800 C 4.695 94.800,4.801 93.924,4.713 92.424 C 4.593 90.370,4.676 90.021,5.325 89.851 C 5.935 89.692,6.025 89.424,5.806 88.428 C 5.635 87.649,5.694 87.200,5.968 87.200 C 6.206 87.200,6.400 86.671,6.400 86.024 C 6.400 85.377,6.580 84.736,6.800 84.600 C 7.020 84.464,7.200 83.913,7.200 83.376 C 7.200 82.839,7.380 82.400,7.600 82.400 C 7.820 82.400,8.000 82.040,8.000 81.600 C 8.000 81.160,8.180 80.800,8.400 80.800 C 8.620 80.800,8.800 80.440,8.800 80.000 C 8.800 79.560,8.980 79.200,9.200 79.200 C 9.420 79.200,9.600 78.842,9.600 78.403 C 9.600 77.965,9.960 77.382,10.400 77.107 C 10.840 76.832,11.202 76.336,11.204 76.004 C 11.206 75.672,11.746 74.975,12.404 74.455 C 13.062 73.935,13.600 73.285,13.600 73.009 C 13.600 72.372,20.747 65.200,21.382 65.200 C 21.922 65.200,23.600 63.391,23.600 62.810 C 23.600 62.598,23.865 62.527,24.190 62.651 C 24.796 62.884,26.000 61.963,26.000 61.266 C 26.000 61.051,26.360 60.969,26.800 61.084 C 27.341 61.226,27.600 61.096,27.600 60.684 C 27.600 60.272,27.859 60.143,28.400 60.284 C 28.847 60.401,29.200 60.296,29.200 60.047 C 29.200 59.801,29.740 59.600,30.400 59.600 C 31.060 59.600,31.600 59.420,31.600 59.200 C 31.600 58.980,31.960 58.800,32.400 58.800 C 32.868 58.800,33.200 58.533,33.200 58.157 C 33.200 57.670,33.444 57.574,34.200 57.764 C 34.938 57.949,35.200 57.856,35.200 57.408 C 35.200 56.708,32.614 56.529,32.200 57.200 M366.217 57.172 C 365.862 57.746,366.736 58.103,367.826 57.829 C 368.502 57.659,368.774 57.741,368.703 58.092 C 368.646 58.371,368.870 58.600,369.200 58.600 C 369.530 58.600,369.944 58.825,370.120 59.100 C 370.296 59.375,370.701 59.600,371.020 59.600 C 371.339 59.600,371.600 59.780,371.600 60.000 C 371.600 60.220,371.960 60.400,372.400 60.400 C 372.840 60.400,373.200 60.580,373.200 60.800 C 373.200 61.020,373.560 61.200,374.000 61.200 C 374.440 61.200,374.800 61.401,374.800 61.647 C 374.800 61.896,375.153 62.001,375.600 61.884 C 376.040 61.769,376.400 61.851,376.400 62.066 C 376.400 62.612,377.445 63.600,378.021 63.600 C 378.285 63.600,379.317 64.500,380.314 65.600 C 381.312 66.700,382.431 67.600,382.800 67.600 C 383.484 67.600,387.200 71.396,387.200 72.095 C 387.200 72.306,387.740 72.983,388.400 73.600 C 389.060 74.217,389.600 74.969,389.600 75.272 C 389.600 75.575,389.960 76.083,390.400 76.400 C 390.840 76.717,391.200 77.297,391.200 77.688 C 391.200 78.080,391.380 78.400,391.600 78.400 C 391.820 78.400,392.000 78.760,392.000 79.200 C 392.000 79.640,392.180 80.000,392.400 80.000 C 392.620 80.000,392.800 80.360,392.800 80.800 C 392.800 81.240,392.980 81.600,393.200 81.600 C 393.420 81.600,393.600 81.960,393.600 82.400 C 393.600 82.840,393.780 83.200,394.000 83.200 C 394.220 83.200,394.400 83.740,394.400 84.400 C 394.400 85.060,394.580 85.600,394.800 85.600 C 395.020 85.600,395.200 86.039,395.200 86.576 C 395.200 87.113,395.380 87.664,395.600 87.800 C 395.820 87.936,396.000 88.667,396.000 89.424 C 396.000 90.181,396.180 90.800,396.400 90.800 C 396.622 90.800,396.800 91.856,396.800 93.167 C 396.800 94.652,396.979 95.593,397.280 95.693 C 398.013 95.938,398.049 301.200,397.316 301.200 C 396.714 301.200,396.676 301.436,396.789 304.500 C 396.842 305.947,396.712 306.800,396.437 306.800 C 396.194 306.800,396.000 307.510,396.000 308.400 C 396.000 309.280,395.820 310.000,395.600 310.000 C 395.380 310.000,395.200 310.540,395.200 311.200 C 395.200 311.860,395.065 312.401,394.900 312.403 C 394.561 312.407,393.600 314.326,393.600 315.000 C 393.600 315.674,392.639 317.593,392.300 317.597 C 392.135 317.599,392.000 317.872,392.000 318.205 C 392.000 319.121,391.164 320.407,389.500 322.054 C 388.675 322.870,388.000 323.720,388.000 323.942 C 388.000 324.517,379.385 333.200,378.815 333.200 C 378.232 333.200,377.200 334.196,377.200 334.759 C 377.200 334.988,376.952 335.080,376.648 334.963 C 376.345 334.847,375.734 335.212,375.291 335.776 C 374.847 336.339,374.196 336.800,373.842 336.800 C 373.489 336.800,373.200 336.988,373.200 337.218 C 373.200 337.447,372.885 337.582,372.500 337.518 C 372.040 337.440,371.819 337.640,371.856 338.100 C 371.922 338.934,371.835 338.950,370.770 338.300 C 370.082 337.880,369.869 337.911,369.436 338.494 C 369.153 338.875,368.818 339.085,368.693 338.960 C 368.567 338.834,368.261 339.112,368.012 339.577 C 367.763 340.042,367.386 340.315,367.173 340.184 C 366.046 339.487,364.700 339.573,364.897 340.329 C 365.078 341.019,364.957 341.060,363.648 340.756 C 361.675 340.297,361.600 340.308,361.600 341.055 C 361.600 341.631,361.185 341.680,358.187 341.457 C 355.364 341.248,354.734 341.307,354.544 341.802 C 354.187 342.732,45.805 342.710,45.448 341.780 C 45.252 341.271,44.779 341.208,42.812 341.430 C 40.759 341.663,40.376 341.603,40.150 341.014 C 39.934 340.452,39.574 340.373,38.174 340.583 C 36.830 340.785,36.384 340.701,36.101 340.195 C 35.740 339.550,33.600 339.708,33.600 340.379 C 33.600 340.878,35.573 341.600,36.939 341.600 C 37.654 341.600,38.411 341.765,38.620 341.968 C 39.497 342.816,51.571 342.885,200.400 342.882 C 349.497 342.880,361.712 342.811,362.580 341.969 C 362.789 341.766,363.390 341.600,363.916 341.600 C 364.907 341.600,371.444 339.476,373.200 338.584 C 373.750 338.304,375.228 337.583,376.484 336.980 C 377.741 336.378,379.167 335.461,379.654 334.943 C 380.141 334.424,380.715 334.000,380.930 334.000 C 381.145 334.000,382.250 333.055,383.387 331.900 C 384.523 330.745,385.908 329.440,386.465 329.000 C 387.022 328.560,388.059 327.390,388.768 326.400 C 389.477 325.410,390.303 324.463,390.602 324.295 C 390.901 324.128,391.399 323.498,391.708 322.895 C 392.017 322.293,392.659 321.120,393.135 320.288 C 393.611 319.456,394.000 318.457,394.000 318.068 C 394.000 317.679,394.163 317.189,394.362 316.980 C 395.103 316.203,396.400 313.550,396.400 312.811 C 396.400 312.391,396.580 311.936,396.800 311.800 C 397.020 311.664,397.200 310.944,397.200 310.200 C 397.200 309.456,397.356 308.751,397.547 308.633 C 398.433 308.085,398.545 295.625,398.540 198.600 C 398.536 98.508,398.472 92.265,397.403 87.400 C 397.151 86.253,397.024 85.880,396.103 83.600 C 395.881 83.050,395.501 82.105,395.258 81.500 C 395.016 80.895,394.633 80.400,394.409 80.400 C 394.184 80.400,394.000 79.961,394.000 79.424 C 394.000 78.887,393.820 78.336,393.600 78.200 C 393.380 78.064,393.200 77.686,393.200 77.360 C 393.200 77.033,392.840 76.380,392.400 75.908 C 391.960 75.436,391.600 74.736,391.600 74.354 C 391.600 73.971,391.191 73.330,390.692 72.929 C 390.192 72.528,389.089 71.363,388.241 70.340 C 387.392 69.317,386.271 68.252,385.749 67.973 C 385.227 67.693,384.800 67.297,384.800 67.093 C 384.800 65.551,372.541 57.600,370.163 57.600 C 369.659 57.600,369.136 57.420,369.000 57.200 C 368.688 56.695,366.525 56.674,366.217 57.172 M40.400 75.986 C 40.400 76.620,45.379 81.600,46.014 81.600 C 46.336 81.600,47.375 82.500,48.322 83.600 C 49.269 84.700,50.296 85.600,50.604 85.600 C 50.911 85.600,52.003 86.452,53.030 87.494 C 54.057 88.536,55.129 89.391,55.413 89.394 C 55.696 89.397,56.736 90.255,57.724 91.300 C 58.712 92.345,59.737 93.200,60.001 93.200 C 60.265 93.200,61.681 94.460,63.146 96.000 C 64.612 97.540,66.029 98.800,66.297 98.800 C 66.564 98.800,68.176 100.242,69.878 102.004 C 71.580 103.767,73.156 105.148,73.380 105.073 C 73.603 104.999,74.633 105.807,75.667 106.869 C 76.702 107.931,77.738 108.800,77.969 108.800 C 78.434 108.800,82.389 112.821,82.396 113.300 C 82.398 113.465,82.722 113.600,83.115 113.600 C 83.508 113.600,84.718 114.502,85.804 115.604 C 86.889 116.706,87.952 117.549,88.166 117.478 C 88.379 117.407,89.628 118.491,90.941 119.886 C 92.254 121.282,93.524 122.357,93.764 122.275 C 94.004 122.193,95.010 123.022,96.000 124.119 C 99.575 128.078,100.747 129.200,101.304 129.200 C 101.616 129.200,102.688 130.100,103.686 131.200 C 104.683 132.300,105.738 133.200,106.030 133.200 C 106.321 133.200,107.404 134.100,108.437 135.200 C 109.470 136.300,110.582 137.200,110.908 137.200 C 111.234 137.200,112.414 138.190,113.530 139.400 C 114.646 140.610,115.813 141.600,116.123 141.600 C 116.432 141.600,117.684 142.680,118.904 144.000 C 120.124 145.320,121.380 146.400,121.696 146.400 C 122.013 146.400,123.106 147.321,124.127 148.446 C 125.282 149.719,126.202 150.408,126.562 150.270 C 126.912 150.136,127.536 150.554,128.137 151.324 C 130.033 153.754,132.675 156.400,133.207 156.400 C 133.500 156.400,134.771 157.480,136.031 158.800 C 137.291 160.120,138.576 161.200,138.887 161.200 C 139.197 161.200,140.430 162.274,141.626 163.586 C 142.821 164.898,144.041 165.978,144.336 165.986 C 144.631 165.994,145.740 166.900,146.800 168.000 C 147.860 169.100,148.947 170.000,149.215 170.000 C 149.484 170.000,150.654 170.990,151.817 172.200 C 152.980 173.410,154.169 174.400,154.460 174.400 C 154.751 174.400,156.188 175.660,157.654 177.200 C 159.119 178.740,160.521 180.000,160.768 180.000 C 161.016 180.000,162.593 181.440,164.273 183.200 C 165.954 184.960,167.546 186.400,167.812 186.400 C 168.079 186.400,168.995 187.120,169.848 188.000 C 170.702 188.879,171.576 189.541,171.791 189.469 C 172.006 189.398,173.211 190.388,174.468 191.670 C 175.726 192.951,176.963 194.000,177.217 194.000 C 177.704 194.000,181.581 197.987,181.593 198.500 C 181.597 198.665,181.922 198.800,182.315 198.800 C 182.708 198.800,183.917 199.700,185.000 200.800 C 186.083 201.900,187.225 202.800,187.537 202.800 C 187.848 202.800,189.099 203.835,190.315 205.100 C 191.532 206.365,192.769 207.347,193.064 207.282 C 193.359 207.218,193.600 207.353,193.600 207.582 C 193.600 207.812,193.945 208.000,194.367 208.000 C 194.788 208.000,195.198 208.195,195.278 208.434 C 195.376 208.729,195.868 208.753,196.805 208.511 L 198.188 208.152 196.832 207.476 C 196.087 207.104,195.145 206.800,194.739 206.800 C 194.332 206.800,194.000 206.524,194.000 206.187 C 194.000 205.851,193.685 205.462,193.300 205.324 C 192.915 205.185,192.060 204.499,191.400 203.799 C 190.128 202.448,187.688 200.306,184.795 198.000 C 182.098 195.849,180.265 194.277,179.553 193.503 C 179.197 193.116,178.747 192.799,178.553 192.798 C 178.359 192.796,176.940 191.614,175.400 190.170 C 173.860 188.726,171.899 186.972,171.043 186.273 C 170.186 185.573,167.974 183.660,166.128 182.022 C 164.281 180.384,162.119 178.584,161.323 178.022 C 160.528 177.460,158.438 175.605,156.680 173.900 C 154.922 172.195,153.318 170.800,153.116 170.800 C 152.914 170.800,152.294 170.260,151.739 169.600 C 151.183 168.940,150.602 168.400,150.447 168.400 C 150.291 168.400,149.190 167.500,148.000 166.400 C 146.810 165.300,145.668 164.400,145.463 164.400 C 145.258 164.400,144.552 163.770,143.894 163.000 C 143.236 162.230,142.521 161.600,142.305 161.600 C 142.089 161.600,141.152 160.835,140.224 159.900 C 139.296 158.965,137.942 157.750,137.215 157.200 C 136.488 156.650,135.135 155.480,134.207 154.600 C 133.280 153.720,131.583 152.280,130.435 151.400 C 129.287 150.520,127.390 148.900,126.220 147.800 C 123.542 145.283,122.471 144.400,122.093 144.400 C 121.929 144.400,121.240 143.815,120.561 143.100 C 119.314 141.785,117.714 140.400,117.443 140.400 C 117.361 140.400,116.238 139.365,114.947 138.100 C 113.656 136.835,112.105 135.545,111.500 135.232 C 110.895 134.920,110.399 134.470,110.397 134.232 C 110.396 133.995,109.800 133.395,109.073 132.900 C 108.346 132.406,107.323 131.596,106.799 131.100 C 106.276 130.605,105.322 129.807,104.681 129.326 C 104.039 128.845,102.647 127.630,101.586 126.626 C 100.526 125.622,99.558 124.800,99.437 124.800 C 99.315 124.800,98.087 123.721,96.708 122.402 C 95.329 121.083,94.059 120.003,93.887 120.002 C 93.714 120.001,92.963 119.389,92.216 118.643 C 91.470 117.897,90.176 116.772,89.342 116.143 C 88.507 115.514,87.305 114.415,86.671 113.700 C 86.036 112.985,85.296 112.400,85.025 112.400 C 84.754 112.400,84.081 111.905,83.529 111.300 C 82.422 110.087,80.495 108.400,80.216 108.400 C 80.118 108.400,79.138 107.500,78.038 106.400 C 76.938 105.300,75.852 104.400,75.625 104.400 C 75.398 104.400,74.440 103.635,73.496 102.700 C 72.553 101.765,70.480 99.920,68.890 98.600 C 67.299 97.280,65.020 95.255,63.825 94.100 C 62.630 92.945,61.415 91.996,61.126 91.991 C 60.837 91.986,59.981 91.266,59.224 90.391 C 58.467 89.516,57.687 88.800,57.490 88.800 C 57.294 88.800,56.144 87.855,54.935 86.700 C 53.726 85.545,52.429 84.420,52.053 84.200 C 51.676 83.980,50.655 83.135,49.784 82.323 C 48.913 81.510,47.163 79.935,45.896 78.823 L 43.592 76.800 200.673 76.800 L 357.754 76.800 356.386 77.900 C 355.633 78.505,353.725 80.170,352.145 81.600 C 350.565 83.030,348.672 84.687,347.936 85.283 C 347.201 85.879,345.437 87.454,344.015 88.783 C 342.594 90.112,341.244 91.204,341.015 91.209 C 340.787 91.214,339.630 92.204,338.445 93.409 C 337.260 94.614,336.180 95.601,336.045 95.602 C 335.910 95.603,334.900 96.429,333.800 97.439 C 332.700 98.448,331.170 99.750,330.400 100.331 C 329.630 100.912,328.325 102.065,327.500 102.894 C 326.676 103.722,325.809 104.400,325.574 104.400 C 325.340 104.400,324.271 105.300,323.200 106.400 C 322.129 107.500,321.125 108.400,320.970 108.400 C 320.814 108.400,319.900 109.210,318.938 110.200 C 317.976 111.190,316.995 112.000,316.758 112.000 C 316.521 112.000,315.477 112.855,314.438 113.900 C 313.399 114.945,311.434 116.700,310.071 117.800 C 308.709 118.900,306.404 120.925,304.951 122.300 C 303.497 123.675,302.142 124.800,301.940 124.800 C 301.738 124.800,300.973 125.385,300.239 126.100 C 297.920 128.359,294.238 131.447,293.208 131.997 C 291.977 132.654,291.200 133.413,291.200 133.959 C 291.200 134.188,290.255 135.078,289.100 135.938 C 287.945 136.798,286.564 137.974,286.030 138.551 C 285.497 139.128,284.867 139.601,284.630 139.602 C 284.250 139.604,281.369 142.130,277.230 146.089 C 276.477 146.810,275.444 147.684,274.934 148.032 C 274.425 148.380,273.421 149.194,272.704 149.841 C 271.987 150.489,270.770 151.450,270.000 151.977 C 269.230 152.505,267.880 153.634,267.000 154.487 C 262.508 158.840,260.322 160.800,259.961 160.800 C 259.742 160.800,258.806 161.522,257.881 162.404 C 254.508 165.622,251.320 168.400,251.000 168.400 C 250.820 168.400,249.638 169.345,248.373 170.500 C 247.109 171.655,245.518 173.019,244.837 173.530 C 244.157 174.042,243.600 174.640,243.600 174.859 C 243.600 175.393,242.566 176.400,242.018 176.400 C 241.776 176.400,240.998 176.926,240.289 177.570 C 238.823 178.900,238.033 179.566,234.439 182.506 C 233.031 183.658,230.931 185.545,229.773 186.700 C 228.616 187.855,227.518 188.802,227.334 188.803 C 227.150 188.805,226.100 189.698,225.000 190.787 C 223.900 191.875,222.836 192.774,222.636 192.783 C 222.436 192.792,221.176 193.791,219.836 195.003 C 216.713 197.826,216.161 198.301,213.339 200.589 C 212.052 201.632,210.733 202.916,210.407 203.443 C 210.081 203.969,209.620 204.400,209.383 204.400 C 209.145 204.400,208.602 204.715,208.175 205.100 C 207.749 205.485,206.905 206.055,206.300 206.368 C 205.695 206.680,205.200 207.085,205.200 207.268 C 205.200 207.450,204.840 207.600,204.400 207.600 C 203.960 207.600,203.600 207.761,203.600 207.957 C 203.600 208.528,204.894 208.866,205.347 208.413 C 205.574 208.186,206.084 208.000,206.480 208.000 C 206.876 208.000,207.200 207.820,207.200 207.600 C 207.200 207.380,207.494 207.200,207.853 207.200 C 208.212 207.200,208.833 206.823,209.232 206.363 C 209.631 205.903,210.122 205.628,210.323 205.752 C 210.524 205.877,211.536 205.083,212.571 203.989 C 213.607 202.895,214.730 202.000,215.066 202.000 C 215.660 202.000,219.579 198.104,219.593 197.500 C 219.597 197.335,219.931 197.200,220.336 197.200 C 220.740 197.200,221.888 196.300,222.886 195.200 C 223.883 194.100,224.911 193.200,225.169 193.200 C 225.427 193.200,226.850 191.972,228.331 190.470 C 229.811 188.969,231.215 187.805,231.451 187.884 C 231.892 188.031,236.675 183.328,237.397 182.039 C 237.618 181.642,238.042 181.401,238.337 181.504 C 238.632 181.607,239.738 180.771,240.794 179.646 C 241.850 178.521,242.933 177.600,243.200 177.600 C 243.467 177.600,244.530 176.700,245.563 175.600 C 246.596 174.500,247.687 173.600,247.989 173.600 C 248.291 173.600,249.489 172.610,250.651 171.400 C 251.814 170.190,253.029 169.200,253.351 169.200 C 253.673 169.200,254.894 168.120,256.066 166.800 C 257.237 165.480,258.436 164.400,258.730 164.400 C 259.024 164.400,260.665 162.960,262.376 161.200 C 264.087 159.440,265.712 158.000,265.986 158.000 C 266.261 158.000,267.414 157.010,268.549 155.800 C 269.685 154.590,270.880 153.596,271.207 153.591 C 271.533 153.587,272.603 152.687,273.585 151.591 C 274.567 150.496,275.619 149.600,275.924 149.600 C 276.229 149.600,277.509 148.520,278.769 147.200 C 280.029 145.880,281.291 144.800,281.573 144.800 C 281.856 144.800,282.860 143.958,283.804 142.929 C 284.749 141.900,285.803 141.017,286.147 140.967 C 286.491 140.916,287.700 139.868,288.835 138.637 C 289.970 137.407,291.159 136.400,291.476 136.400 C 291.794 136.400,293.424 134.960,295.098 133.200 C 296.772 131.440,298.372 130.000,298.655 130.000 C 298.937 130.000,300.010 129.100,301.039 128.000 C 302.068 126.900,303.116 126.000,303.368 126.000 C 303.621 126.000,304.805 125.010,306.000 123.800 C 307.195 122.590,308.416 121.600,308.714 121.600 C 309.012 121.600,310.075 120.700,311.076 119.600 C 312.077 118.500,313.190 117.594,313.548 117.586 C 313.907 117.578,315.179 116.498,316.374 115.186 C 317.570 113.874,318.806 112.800,319.120 112.800 C 319.620 112.800,320.287 112.144,323.241 108.751 C 323.593 108.346,324.004 108.137,324.153 108.287 C 324.303 108.437,325.862 107.083,327.618 105.280 C 329.374 103.476,331.039 102.000,331.318 102.000 C 331.597 102.000,332.894 100.920,334.200 99.600 C 335.506 98.280,336.749 97.200,336.961 97.200 C 337.173 97.200,338.215 96.300,339.275 95.200 C 340.335 94.100,341.392 93.200,341.623 93.200 C 341.855 93.200,343.074 92.151,344.332 90.870 C 345.589 89.588,346.821 88.607,347.068 88.689 C 347.316 88.772,348.477 87.751,349.648 86.420 C 350.820 85.089,352.075 84.000,352.438 84.000 C 352.801 84.000,354.105 82.920,355.336 81.600 C 356.566 80.280,357.767 79.200,358.005 79.200 C 358.744 79.200,360.400 77.277,360.400 76.418 L 360.400 75.600 200.400 75.600 C 97.983 75.600,40.400 75.739,40.400 75.986 M25.723 92.026 C 25.841 92.479,25.723 92.800,25.437 92.800 C 24.889 92.800,24.856 303.803,25.403 305.500 C 25.696 306.408,27.600 306.842,27.600 306.000 C 27.600 305.780,27.882 305.600,28.226 305.600 C 28.570 305.600,29.858 304.610,31.088 303.400 C 32.317 302.190,33.548 301.200,33.822 301.200 C 34.096 301.200,35.256 300.120,36.400 298.800 C 37.544 297.480,38.743 296.400,39.066 296.400 C 39.388 296.400,40.529 295.500,41.600 294.400 C 42.671 293.300,43.751 292.400,44.000 292.400 C 44.249 292.400,45.298 291.531,46.333 290.469 C 47.367 289.407,48.414 288.605,48.658 288.686 C 48.902 288.767,50.086 287.746,51.289 286.417 C 52.492 285.088,53.727 284.000,54.033 284.000 C 54.339 284.000,55.788 282.740,57.254 281.200 C 58.719 279.660,60.125 278.400,60.379 278.400 C 60.632 278.400,62.081 277.140,63.600 275.600 C 65.119 274.060,66.572 272.800,66.829 272.800 C 67.086 272.800,68.072 271.990,69.021 271.000 C 69.969 270.010,70.973 269.200,71.252 269.200 C 71.531 269.200,72.604 268.300,73.637 267.200 C 74.670 266.100,75.724 265.200,75.979 265.200 C 76.235 265.200,77.504 264.120,78.800 262.800 C 80.096 261.480,81.361 260.400,81.612 260.400 C 81.864 260.400,83.020 259.410,84.183 258.200 C 85.346 256.990,86.556 256.000,86.872 256.000 C 87.188 256.000,88.754 254.560,90.351 252.800 C 91.948 251.040,93.535 249.600,93.877 249.600 C 94.220 249.600,95.317 248.700,96.314 247.600 C 97.312 246.500,98.370 245.600,98.665 245.600 C 98.960 245.600,100.184 244.576,101.386 243.326 C 102.588 242.075,103.845 241.011,104.178 240.962 C 104.817 240.868,104.854 240.834,107.436 237.971 C 108.335 236.973,109.284 236.228,109.544 236.315 C 109.805 236.402,110.878 235.556,111.929 234.436 C 112.980 233.316,114.076 232.400,114.364 232.400 C 114.652 232.400,116.068 231.140,117.511 229.600 C 118.954 228.060,120.464 226.800,120.867 226.800 C 121.270 226.800,121.601 226.665,121.603 226.500 C 121.609 225.935,126.375 221.138,126.719 221.350 C 126.908 221.467,128.123 220.491,129.419 219.181 C 130.715 217.871,132.051 216.796,132.387 216.791 C 132.724 216.786,133.619 216.066,134.376 215.191 C 135.133 214.316,136.078 213.600,136.476 213.600 C 136.874 213.600,137.204 213.465,137.210 213.300 C 137.228 212.757,141.946 207.983,142.357 208.093 C 142.578 208.152,143.806 207.106,145.086 205.769 C 146.367 204.432,147.631 203.410,147.896 203.499 C 148.161 203.587,148.787 203.228,149.289 202.701 C 153.094 198.698,152.877 199.078,152.167 197.654 C 151.812 196.942,151.316 196.428,151.064 196.512 C 150.813 196.596,149.944 195.975,149.135 195.132 C 148.325 194.289,147.437 193.600,147.161 193.600 C 146.885 193.600,145.629 192.520,144.369 191.200 C 143.109 189.880,141.864 188.800,141.603 188.800 C 141.342 188.800,139.767 187.360,138.103 185.600 C 136.439 183.840,134.846 182.400,134.564 182.400 C 134.282 182.400,133.077 181.410,131.886 180.200 C 130.695 178.990,129.478 178.000,129.181 178.000 C 128.884 178.000,127.796 177.100,126.763 176.000 C 125.730 174.900,124.679 174.000,124.427 174.000 C 123.943 174.000,120.031 170.013,120.012 169.500 C 120.005 169.335,119.685 169.198,119.300 169.197 C 118.915 169.195,117.528 168.112,116.217 166.791 C 114.907 165.470,113.651 164.450,113.427 164.524 C 113.202 164.599,111.989 163.612,110.732 162.330 C 109.474 161.049,108.244 160.000,108.000 160.000 C 107.549 160.000,104.289 156.754,103.212 155.231 C 102.888 154.774,102.318 154.400,101.946 154.400 C 101.573 154.400,100.814 153.905,100.259 153.300 C 99.704 152.695,98.702 151.599,98.031 150.865 C 97.361 150.130,96.585 149.605,96.306 149.698 C 96.028 149.791,94.829 148.817,93.643 147.534 C 92.457 146.250,91.197 145.187,90.843 145.171 C 90.489 145.155,89.480 144.268,88.600 143.200 C 87.720 142.132,86.727 141.245,86.394 141.229 C 86.060 141.213,84.728 140.120,83.433 138.800 C 82.138 137.480,80.875 136.400,80.627 136.400 C 80.378 136.400,79.106 135.320,77.800 134.000 C 76.494 132.680,75.218 131.600,74.965 131.600 C 74.712 131.600,73.405 130.430,72.060 129.000 C 70.715 127.570,69.356 126.400,69.041 126.400 C 68.726 126.400,67.958 125.843,67.334 125.163 C 64.154 121.695,63.222 120.800,62.792 120.800 C 62.533 120.800,61.439 119.900,60.362 118.800 C 59.285 117.700,58.144 116.800,57.826 116.800 C 57.508 116.800,56.488 115.899,55.559 114.797 C 54.630 113.696,53.651 112.841,53.383 112.897 C 53.116 112.954,51.900 111.965,50.683 110.700 C 49.465 109.435,48.219 108.400,47.914 108.400 C 47.608 108.400,46.336 107.299,45.086 105.954 C 43.588 104.342,42.608 103.588,42.207 103.742 C 41.873 103.870,41.600 103.817,41.600 103.624 C 41.600 103.026,36.590 98.000,35.994 98.000 C 35.685 98.000,34.318 96.830,32.957 95.400 C 31.595 93.970,30.259 92.800,29.988 92.800 C 29.716 92.800,29.203 92.467,28.847 92.061 C 27.915 90.996,25.446 90.968,25.723 92.026 M373.200 91.640 C 373.200 91.838,372.914 92.000,372.565 92.000 C 372.216 92.000,370.935 93.035,369.717 94.300 C 368.500 95.565,367.270 96.550,366.984 96.490 C 366.698 96.429,365.702 97.284,364.770 98.390 C 363.837 99.495,362.821 100.400,362.511 100.400 C 362.202 100.400,361.071 101.300,360.000 102.400 C 358.929 103.500,357.843 104.400,357.587 104.400 C 357.084 104.400,350.800 110.780,350.800 111.291 C 350.800 111.461,350.431 111.600,349.980 111.600 C 349.498 111.600,348.322 112.508,347.130 113.800 C 346.014 115.010,344.836 116.000,344.511 116.000 C 344.187 116.000,342.924 117.080,341.704 118.400 C 340.484 119.720,339.249 120.800,338.959 120.800 C 338.670 120.800,337.573 121.700,336.522 122.800 C 335.471 123.900,334.363 124.800,334.061 124.800 C 333.758 124.800,332.604 125.790,331.495 127.000 C 330.387 128.210,329.245 129.200,328.956 129.200 C 328.668 129.200,327.590 130.100,326.561 131.200 C 325.532 132.300,324.425 133.200,324.101 133.200 C 323.776 133.200,322.146 134.640,320.478 136.400 C 318.810 138.160,317.190 139.600,316.877 139.600 C 316.565 139.600,315.654 140.348,314.854 141.262 C 312.145 144.359,311.280 145.200,310.808 145.200 C 310.549 145.200,309.675 145.889,308.865 146.732 C 308.056 147.575,307.190 148.197,306.942 148.114 C 306.694 148.031,305.453 149.052,304.185 150.382 C 302.916 151.712,301.615 152.800,301.293 152.800 C 300.781 152.800,300.116 153.452,297.153 156.857 C 296.797 157.265,296.277 157.600,295.997 157.600 C 295.717 157.600,294.444 158.680,293.169 160.000 C 291.893 161.320,290.608 162.400,290.313 162.400 C 290.018 162.400,288.617 163.570,287.200 165.000 C 285.783 166.430,284.408 167.600,284.145 167.600 C 283.882 167.600,282.690 168.680,281.495 170.000 C 280.301 171.320,279.080 172.400,278.782 172.400 C 278.201 172.400,274.400 176.256,274.400 176.845 C 274.400 177.040,274.031 177.200,273.581 177.200 C 273.130 177.200,271.898 178.064,270.842 179.120 C 269.786 180.176,268.740 180.980,268.517 180.906 C 268.295 180.832,267.107 181.858,265.878 183.186 C 264.648 184.513,263.435 185.600,263.182 185.600 C 262.928 185.600,261.338 187.040,259.648 188.800 C 257.957 190.560,256.343 192.000,256.061 192.000 C 255.466 192.000,251.600 195.859,251.600 196.452 C 251.600 196.671,251.268 196.794,250.861 196.725 C 249.115 196.429,247.859 199.699,249.500 200.268 C 249.885 200.401,251.320 201.601,252.689 202.933 C 254.058 204.265,255.294 205.240,255.435 205.098 C 255.576 204.957,256.560 205.732,257.620 206.821 C 258.680 207.909,259.786 208.800,260.077 208.800 C 260.367 208.800,261.563 209.880,262.734 211.200 C 263.906 212.520,265.081 213.600,265.347 213.600 C 265.613 213.600,266.717 214.500,267.800 215.600 C 268.883 216.700,270.009 217.600,270.301 217.600 C 270.593 217.600,272.375 219.218,274.261 221.196 C 276.147 223.173,277.859 224.687,278.066 224.559 C 278.429 224.335,279.102 224.977,280.934 227.296 C 281.410 227.899,282.088 228.394,282.439 228.396 C 282.791 228.398,284.108 229.480,285.367 230.800 C 286.627 232.120,287.876 233.200,288.143 233.200 C 288.411 233.200,289.518 234.102,290.604 235.204 C 291.689 236.306,292.762 237.145,292.989 237.069 C 293.349 236.947,294.006 237.592,296.847 240.857 C 297.203 241.265,297.760 241.600,298.085 241.600 C 298.411 241.600,300.039 243.040,301.703 244.800 C 303.367 246.560,304.981 248.000,305.290 248.000 C 305.599 248.000,306.830 249.074,308.026 250.386 C 309.221 251.698,310.493 252.778,310.851 252.786 C 311.208 252.794,312.410 253.786,313.521 254.990 C 314.632 256.195,315.773 257.230,316.057 257.290 C 316.341 257.351,317.423 258.255,318.461 259.300 C 319.499 260.345,320.601 261.200,320.910 261.200 C 321.219 261.200,322.288 262.100,323.286 263.200 C 324.283 264.300,325.371 265.200,325.702 265.200 C 326.033 265.200,327.258 266.293,328.424 267.628 C 329.926 269.348,330.756 270.000,331.272 269.865 C 331.672 269.761,332.003 269.793,332.007 269.937 C 332.022 270.451,337.538 276.000,338.035 276.000 C 338.313 276.000,339.571 277.080,340.831 278.400 C 342.091 279.720,343.365 280.800,343.662 280.800 C 343.960 280.800,345.012 281.700,346.000 282.800 C 346.988 283.900,348.068 284.804,348.399 284.808 C 348.729 284.813,349.972 285.894,351.161 287.212 C 352.349 288.529,353.560 289.561,353.852 289.504 C 354.145 289.447,355.358 290.435,356.549 291.700 C 357.740 292.965,358.959 294.001,359.257 294.003 C 359.556 294.004,360.790 295.083,362.000 296.400 C 363.210 297.717,364.470 298.797,364.800 298.801 C 365.130 298.804,366.730 300.255,368.356 302.025 C 369.981 303.795,371.524 305.161,371.784 305.061 C 372.045 304.962,372.471 305.222,372.732 305.640 C 373.695 307.182,376.141 306.677,375.826 305.000 C 375.618 303.891,375.692 303.600,376.182 303.600 C 376.738 303.600,376.800 293.035,376.800 198.600 C 376.800 106.324,376.729 93.600,376.210 93.600 C 375.772 93.600,375.680 93.301,375.852 92.440 C 376.074 91.332,376.020 91.280,374.642 91.280 C 373.849 91.280,373.200 91.442,373.200 91.640 M29.576 95.177 C 30.717 96.265,32.179 97.389,32.825 97.675 C 33.471 97.961,34.000 98.416,34.000 98.685 C 34.000 98.954,34.945 99.877,36.100 100.735 C 38.040 102.177,40.592 104.409,43.299 107.033 C 43.903 107.618,45.163 108.585,46.099 109.181 C 47.034 109.777,48.383 110.984,49.095 111.862 C 49.807 112.740,50.865 113.714,51.446 114.025 C 52.028 114.336,53.222 115.268,54.101 116.095 C 54.980 116.923,55.904 117.600,56.154 117.600 C 56.405 117.600,56.968 118.081,57.405 118.669 C 58.373 119.972,60.085 121.600,60.485 121.600 C 60.647 121.600,61.589 122.410,62.579 123.400 C 63.569 124.390,64.667 125.200,65.018 125.200 C 65.768 125.200,66.396 125.804,67.131 127.232 C 67.424 127.800,68.215 128.591,68.891 128.990 C 70.173 129.747,73.326 132.412,76.400 135.336 C 77.390 136.277,78.830 137.433,79.600 137.905 C 80.370 138.376,81.503 139.401,82.117 140.181 C 82.731 140.961,83.496 141.600,83.817 141.600 C 84.138 141.600,84.400 141.780,84.400 142.000 C 84.400 142.220,84.594 142.400,84.831 142.400 C 85.069 142.400,85.954 143.120,86.800 144.000 C 87.646 144.880,88.544 145.600,88.797 145.600 C 89.375 145.600,90.400 146.603,90.400 147.169 C 90.400 147.403,91.165 148.147,92.100 148.823 C 93.035 149.498,94.834 150.984,96.098 152.125 C 98.631 154.412,100.669 156.159,102.800 157.871 C 103.570 158.490,104.861 159.672,105.669 160.498 C 106.476 161.324,107.376 162.004,107.669 162.009 C 107.961 162.014,108.819 162.734,109.576 163.609 C 110.333 164.484,111.174 165.200,111.445 165.200 C 111.716 165.200,112.717 166.072,113.669 167.138 C 114.621 168.204,116.234 169.638,117.254 170.326 C 118.274 171.013,119.563 172.116,120.120 172.778 C 120.677 173.439,121.777 174.288,122.566 174.664 C 123.355 175.040,124.000 175.581,124.000 175.865 C 124.000 176.149,124.495 176.698,125.100 177.086 C 125.705 177.473,126.410 177.972,126.668 178.195 C 128.534 179.812,132.046 183.045,133.263 184.265 C 134.068 185.072,135.087 185.928,135.528 186.166 C 135.969 186.405,136.931 187.144,137.665 187.809 C 138.399 188.474,139.622 189.458,140.381 189.994 C 141.668 190.903,142.842 191.947,147.479 196.300 C 148.475 197.235,149.449 198.000,149.645 198.000 C 150.424 198.000,149.904 198.812,147.939 200.661 C 146.805 201.727,145.292 203.150,144.576 203.822 C 143.861 204.494,142.269 205.821,141.038 206.771 C 139.807 207.720,138.792 208.610,138.783 208.749 C 138.774 208.887,137.762 209.720,136.534 210.600 C 135.307 211.480,133.649 212.844,132.851 213.632 C 130.516 215.936,125.724 220.000,125.341 220.000 C 125.148 220.000,124.632 220.480,124.195 221.066 C 123.758 221.652,122.680 222.655,121.800 223.294 C 119.663 224.848,116.706 227.378,114.317 229.700 C 113.242 230.745,112.189 231.600,111.977 231.600 C 111.465 231.600,109.200 233.782,109.200 234.276 C 109.200 234.490,108.705 234.918,108.100 235.227 C 107.495 235.535,106.114 236.646,105.032 237.694 C 103.950 238.742,102.854 239.600,102.596 239.600 C 102.339 239.600,101.335 240.457,100.364 241.505 C 98.790 243.205,96.922 244.769,92.609 248.000 C 91.875 248.550,90.990 249.473,90.643 250.052 C 90.296 250.630,89.424 251.385,88.706 251.730 C 87.988 252.074,86.633 253.176,85.696 254.178 C 84.759 255.180,83.769 256.001,83.496 256.001 C 83.223 256.002,82.640 256.542,82.200 257.201 C 81.760 257.861,80.814 258.679,80.097 259.020 C 79.381 259.361,77.716 260.666,76.399 261.920 C 72.671 265.469,69.893 267.940,68.800 268.679 C 67.612 269.482,66.400 270.787,66.400 271.261 C 66.400 271.448,66.076 271.600,65.679 271.600 C 64.962 271.600,61.600 274.618,61.600 275.262 C 61.600 275.448,61.339 275.600,61.020 275.600 C 60.701 275.600,59.583 276.410,58.535 277.400 C 57.487 278.390,56.467 279.200,56.268 279.200 C 55.813 279.200,52.000 283.174,52.000 283.648 C 52.000 283.842,51.701 284.000,51.336 284.000 C 50.724 284.000,48.306 286.019,44.137 290.009 C 43.223 290.884,42.264 291.600,42.006 291.600 C 41.748 291.600,40.503 292.635,39.239 293.900 C 37.975 295.165,35.897 297.010,34.619 298.000 C 33.342 298.990,31.211 300.835,29.884 302.100 C 26.947 304.901,26.971 304.899,26.659 302.300 C 26.328 299.544,26.323 97.470,26.654 95.056 C 26.970 92.752,27.037 92.755,29.576 95.177 M374.786 94.374 C 375.413 95.545,375.359 299.650,374.731 302.369 C 374.158 304.853,374.223 304.852,371.786 302.409 C 370.694 301.313,369.626 300.413,369.413 300.409 C 369.200 300.404,368.660 299.990,368.213 299.489 C 367.766 298.988,366.590 297.954,365.600 297.192 C 364.610 296.430,362.957 294.950,361.926 293.903 C 360.895 292.857,359.893 292.000,359.700 292.000 C 359.506 292.000,358.808 291.415,358.149 290.700 C 357.490 289.985,356.512 289.053,355.975 288.629 C 355.439 288.205,353.996 286.990,352.769 285.929 C 351.542 284.868,350.327 284.000,350.069 284.000 C 349.811 284.000,349.600 283.840,349.600 283.645 C 349.600 283.450,347.514 281.530,344.965 279.379 C 342.416 277.228,339.412 274.598,338.291 273.534 C 337.170 272.470,336.094 271.600,335.900 271.600 C 335.705 271.600,334.956 271.015,334.235 270.300 C 332.524 268.603,329.701 266.105,327.793 264.600 C 326.956 263.940,325.713 262.860,325.030 262.200 C 324.347 261.540,323.089 260.460,322.235 259.800 C 321.380 259.140,320.351 258.255,319.948 257.833 C 319.546 257.412,318.772 256.775,318.228 256.418 C 317.684 256.062,316.344 254.922,315.249 253.885 C 314.154 252.848,313.094 252.000,312.893 252.000 C 312.693 252.000,311.891 251.325,311.111 250.500 C 310.332 249.675,308.998 248.421,308.147 247.713 C 307.296 247.005,305.886 245.835,305.014 245.113 C 304.142 244.391,302.457 242.855,301.270 241.700 C 300.083 240.545,298.951 239.600,298.754 239.600 C 298.558 239.600,297.543 238.791,296.499 237.802 C 295.454 236.813,294.480 236.003,294.333 236.002 C 294.186 236.001,293.166 235.145,292.066 234.100 C 289.223 231.398,285.701 228.288,285.107 227.955 C 284.828 227.799,283.726 226.845,282.658 225.835 C 281.590 224.826,280.474 224.000,280.178 224.000 C 279.883 224.000,279.177 223.391,278.609 222.648 C 278.042 221.904,275.935 219.969,273.927 218.348 C 271.919 216.726,269.467 214.545,268.478 213.500 C 267.490 212.455,266.446 211.600,266.159 211.600 C 265.873 211.600,264.738 210.700,263.638 209.600 C 262.538 208.500,261.452 207.600,261.225 207.600 C 260.998 207.600,260.022 206.835,259.056 205.900 C 253.653 200.669,252.025 199.200,251.634 199.200 C 251.395 199.200,251.200 198.930,251.200 198.600 C 251.200 198.270,251.434 198.000,251.720 198.000 C 252.006 198.000,253.418 196.875,254.857 195.500 C 259.269 191.285,261.185 189.600,261.568 189.600 C 262.093 189.600,265.200 186.547,265.200 186.031 C 265.200 185.794,265.488 185.600,265.841 185.600 C 266.496 185.600,269.241 183.364,272.962 179.800 C 274.110 178.700,275.530 177.546,276.118 177.236 C 276.706 176.926,277.292 176.341,277.420 175.936 C 277.549 175.531,277.794 175.200,277.966 175.200 C 278.137 175.200,278.710 174.854,279.239 174.431 C 281.968 172.247,285.493 169.219,286.986 167.775 C 287.910 166.881,289.281 165.717,290.033 165.188 C 290.785 164.659,292.033 163.574,292.807 162.777 C 293.580 161.981,294.422 161.255,294.677 161.164 C 294.932 161.074,296.009 160.178,297.071 159.172 C 298.132 158.167,299.298 157.177,299.662 156.972 C 300.027 156.768,301.784 155.265,303.568 153.634 C 305.352 152.002,307.214 150.398,307.706 150.068 C 308.198 149.739,309.456 148.599,310.501 147.535 C 311.547 146.471,312.564 145.600,312.761 145.600 C 312.958 145.600,314.038 144.700,315.161 143.600 C 316.285 142.500,317.368 141.600,317.568 141.600 C 317.769 141.600,318.623 140.863,319.466 139.963 C 320.310 139.063,321.805 137.767,322.788 137.083 C 323.772 136.399,325.392 135.046,326.388 134.076 C 327.385 133.106,329.100 131.567,330.200 130.656 C 331.300 129.745,332.260 128.865,332.333 128.700 C 332.407 128.535,332.630 128.400,332.829 128.400 C 333.317 128.400,334.800 127.108,334.800 126.683 C 334.800 126.193,335.864 125.200,336.388 125.200 C 336.633 125.200,337.231 124.822,337.717 124.359 C 338.203 123.897,339.230 123.050,340.000 122.477 C 340.770 121.904,342.256 120.573,343.301 119.518 C 344.347 118.463,345.376 117.600,345.587 117.600 C 345.799 117.600,346.165 117.240,346.400 116.800 C 346.635 116.360,347.020 116.000,347.254 116.000 C 347.488 116.000,348.183 115.460,348.800 114.800 C 349.417 114.140,350.013 113.600,350.126 113.600 C 350.239 113.600,350.942 113.015,351.689 112.300 C 352.435 111.585,353.666 110.550,354.423 110.000 C 355.180 109.450,356.639 108.219,357.665 107.265 C 360.768 104.376,361.380 103.841,363.226 102.400 C 364.202 101.639,365.875 100.157,366.943 99.108 C 368.012 98.059,369.002 97.200,369.143 97.200 C 369.285 97.199,369.875 96.794,370.457 96.300 C 373.970 93.309,374.169 93.220,374.786 94.374 M164.626 214.230 C 163.760 215.203,162.811 216.000,162.517 216.000 C 162.224 216.000,160.957 217.080,159.702 218.400 C 158.448 219.720,157.147 220.804,156.811 220.809 C 156.475 220.814,155.581 221.534,154.824 222.409 C 154.067 223.284,153.198 224.000,152.893 224.000 C 152.588 224.000,151.203 225.170,149.815 226.600 C 148.426 228.030,147.082 229.200,146.828 229.200 C 146.574 229.200,145.174 230.460,143.717 232.000 C 142.259 233.540,140.809 234.800,140.494 234.800 C 140.179 234.800,139.393 235.385,138.749 236.100 C 136.245 238.876,135.446 239.600,134.880 239.600 C 134.558 239.600,134.003 239.934,133.647 240.343 C 131.096 243.275,129.928 244.403,129.634 244.221 C 129.448 244.106,128.228 245.145,126.924 246.531 C 125.621 247.917,124.356 248.985,124.113 248.904 C 123.870 248.823,122.821 249.667,121.781 250.779 C 120.741 251.890,119.626 252.800,119.302 252.800 C 118.722 252.800,116.132 255.354,114.128 257.900 C 113.565 258.615,112.831 259.200,112.497 259.200 C 112.162 259.200,110.834 260.291,109.545 261.624 C 108.256 262.958,107.040 263.948,106.842 263.826 C 106.643 263.703,106.058 264.066,105.541 264.632 C 103.731 266.612,102.604 267.600,102.158 267.600 C 101.911 267.600,100.515 268.860,99.056 270.400 C 97.596 271.940,96.186 273.200,95.922 273.200 C 95.657 273.200,94.596 274.100,93.563 275.200 C 92.530 276.300,91.468 277.200,91.203 277.200 C 90.938 277.200,89.872 278.066,88.836 279.125 C 87.799 280.184,86.767 280.989,86.543 280.914 C 86.319 280.840,84.751 282.223,83.059 283.989 C 81.367 285.755,79.775 287.200,79.521 287.200 C 79.267 287.200,78.029 288.280,76.769 289.600 C 75.509 290.920,74.261 292.000,73.996 292.000 C 73.731 292.000,72.670 292.900,71.637 294.000 C 70.604 295.100,69.481 296.000,69.140 296.000 C 68.800 296.000,67.649 296.990,66.582 298.200 C 65.515 299.410,64.372 300.400,64.042 300.400 C 63.711 300.400,62.596 301.300,61.563 302.400 C 60.530 303.500,59.469 304.400,59.204 304.400 C 58.939 304.400,57.165 306.020,55.261 308.001 C 53.358 309.981,51.576 311.601,51.301 311.601 C 50.738 311.600,46.800 315.553,46.800 316.119 C 46.800 316.321,46.509 316.374,46.154 316.238 C 45.710 316.067,44.942 316.615,43.690 317.995 C 42.690 319.098,41.540 320.000,41.136 320.000 C 40.661 320.000,40.400 320.291,40.400 320.818 C 40.400 321.553,40.552 321.604,41.900 321.318 C 43.836 320.908,357.440 320.899,358.909 321.310 C 360.800 321.838,360.684 320.663,358.644 318.623 C 357.642 317.620,356.579 316.800,356.284 316.800 C 355.988 316.800,354.859 315.814,353.773 314.610 C 352.510 313.207,351.476 312.416,350.900 312.410 C 350.405 312.404,350.000 312.232,350.000 312.027 C 350.000 311.481,346.134 307.600,345.590 307.600 C 345.337 307.600,343.913 306.340,342.427 304.800 C 340.941 303.260,339.489 302.000,339.201 302.000 C 338.913 302.000,337.696 300.916,336.497 299.592 C 335.299 298.267,334.088 297.232,333.807 297.292 C 333.526 297.351,332.300 296.365,331.083 295.100 C 329.865 293.835,328.664 292.800,328.412 292.800 C 328.161 292.800,326.896 291.720,325.600 290.400 C 324.304 289.080,323.042 288.000,322.794 288.000 C 322.546 288.000,321.507 287.100,320.484 286.000 C 319.462 284.900,318.430 284.000,318.192 284.000 C 317.954 284.000,316.925 283.190,315.907 282.200 C 314.888 281.210,313.846 280.400,313.590 280.400 C 313.334 280.400,311.558 278.780,309.643 276.800 C 307.727 274.820,305.924 273.200,305.635 273.200 C 305.174 273.200,304.501 272.531,301.553 269.143 C 301.197 268.735,300.634 268.400,300.301 268.400 C 299.969 268.400,298.861 267.482,297.840 266.360 C 296.819 265.238,295.754 264.409,295.472 264.517 C 295.191 264.625,293.985 263.653,292.794 262.357 C 291.602 261.060,290.397 260.000,290.117 260.000 C 289.836 260.000,289.071 259.415,288.415 258.700 C 286.251 256.340,285.865 256.000,285.346 256.000 C 285.063 256.000,283.988 255.098,282.957 253.996 C 281.926 252.894,280.872 252.039,280.614 252.096 C 280.357 252.153,279.104 251.076,277.832 249.702 C 276.559 248.328,275.354 247.305,275.153 247.429 C 274.794 247.651,273.583 246.493,269.950 242.456 C 268.933 241.325,267.864 240.400,267.577 240.400 C 267.289 240.400,266.210 239.526,265.180 238.457 C 264.150 237.388,262.833 236.395,262.253 236.249 C 261.674 236.104,261.200 235.843,261.200 235.671 C 261.200 235.030,258.416 232.343,258.011 232.593 C 257.655 232.813,256.047 231.275,253.153 227.944 C 252.797 227.535,252.274 227.200,251.991 227.200 C 251.707 227.200,250.756 226.466,249.877 225.569 C 248.826 224.497,248.030 224.003,247.553 224.128 C 247.097 224.247,246.745 224.056,246.604 223.612 C 246.257 222.520,242.873 219.109,242.320 219.293 C 241.867 219.444,239.739 217.359,236.997 214.078 C 236.378 213.337,235.652 212.848,235.346 212.965 C 235.046 213.081,234.800 213.001,234.800 212.787 C 234.800 212.574,234.350 212.400,233.800 212.400 C 233.250 212.400,232.799 212.625,232.798 212.900 C 232.797 213.192,232.206 213.430,231.378 213.473 C 230.148 213.536,229.509 214.025,226.539 217.173 C 224.657 219.168,222.855 220.800,222.533 220.800 C 222.211 220.800,221.494 221.340,220.939 222.000 C 220.383 222.660,219.697 223.200,219.413 223.200 C 219.130 223.200,218.677 223.466,218.408 223.791 C 218.138 224.116,216.901 224.874,215.659 225.476 C 214.416 226.078,213.340 226.712,213.267 226.885 C 213.193 227.058,212.788 227.200,212.367 227.200 C 211.945 227.200,211.600 227.430,211.600 227.711 C 211.600 228.065,211.111 228.174,210.000 228.069 C 208.795 227.954,208.400 228.060,208.400 228.499 C 208.400 228.958,207.974 229.042,206.400 228.890 C 205.069 228.763,204.400 228.849,204.400 229.149 C 204.400 229.454,203.101 229.600,200.400 229.600 C 197.699 229.600,196.400 229.454,196.400 229.149 C 196.400 228.849,195.731 228.763,194.400 228.890 C 192.891 229.035,192.400 228.950,192.400 228.541 C 192.400 228.207,191.942 228.000,191.200 228.000 C 190.540 228.000,190.000 227.864,190.000 227.698 C 190.000 227.221,187.638 226.300,187.022 226.536 C 186.716 226.654,186.367 226.491,186.246 226.175 C 186.124 225.859,185.703 225.600,185.309 225.600 C 184.915 225.600,184.368 225.240,184.093 224.800 C 183.818 224.360,183.346 224.000,183.045 224.000 C 182.743 224.000,181.865 223.280,181.094 222.400 C 180.322 221.520,179.464 220.800,179.186 220.800 C 178.908 220.800,177.817 219.900,176.763 218.800 C 175.708 217.700,174.593 216.800,174.284 216.800 C 173.976 216.800,172.971 215.973,172.051 214.963 C 171.132 213.953,170.119 213.088,169.801 213.041 C 169.483 212.995,169.098 212.831,168.945 212.678 C 168.090 211.824,166.144 212.523,164.626 214.230 M171.432 216.885 C 172.222 217.718,173.045 218.400,173.263 218.400 C 173.480 218.400,174.538 219.233,175.613 220.251 C 176.688 221.269,177.980 222.383,178.484 222.726 C 178.988 223.069,180.107 223.946,180.972 224.675 C 181.837 225.404,182.782 226.000,183.072 226.000 C 183.362 226.000,183.600 226.180,183.600 226.400 C 183.600 226.620,183.915 226.804,184.300 226.809 C 184.685 226.814,185.450 227.170,186.000 227.600 C 186.550 228.030,187.394 228.386,187.876 228.391 C 188.358 228.396,188.864 228.580,189.000 228.800 C 189.136 229.020,189.676 229.200,190.200 229.200 C 190.724 229.200,191.264 229.380,191.400 229.600 C 191.536 229.820,192.231 230.000,192.944 230.000 C 193.657 230.000,194.434 230.194,194.672 230.432 C 195.446 231.206,208.857 230.431,209.780 229.559 C 209.989 229.362,210.653 229.200,211.256 229.200 C 211.859 229.200,212.464 229.020,212.600 228.800 C 212.736 228.580,213.287 228.400,213.824 228.400 C 214.361 228.400,214.800 228.264,214.800 228.098 C 214.800 227.931,215.385 227.540,216.100 227.228 C 216.815 226.916,217.691 226.332,218.047 225.930 C 218.403 225.529,218.943 225.200,219.247 225.200 C 219.551 225.199,220.340 224.728,221.000 224.153 C 221.660 223.577,222.863 222.683,223.674 222.165 C 224.484 221.647,225.654 220.588,226.274 219.812 C 226.893 219.035,227.602 218.400,227.850 218.400 C 228.097 218.400,229.423 217.397,230.797 216.171 L 233.295 213.942 234.348 214.902 C 234.926 215.430,236.346 216.539,237.502 217.367 C 238.659 218.195,239.829 219.187,240.102 219.572 C 240.376 219.958,241.008 220.490,241.508 220.755 C 242.007 221.020,243.204 221.993,244.167 222.918 C 247.909 226.510,250.947 229.200,251.264 229.200 C 251.447 229.200,252.515 230.100,253.639 231.200 C 254.762 232.300,255.840 233.200,256.035 233.200 C 256.230 233.200,257.294 234.100,258.400 235.200 C 259.506 236.300,260.561 237.200,260.744 237.200 C 260.928 237.200,262.057 238.145,263.253 239.300 C 264.449 240.455,266.411 242.250,267.614 243.289 C 268.816 244.328,270.939 246.166,272.331 247.372 C 273.724 248.579,275.180 249.667,275.567 249.790 C 275.955 249.913,276.499 250.437,276.776 250.956 C 277.054 251.474,277.960 252.280,278.790 252.746 C 279.620 253.213,280.964 254.406,281.776 255.397 C 282.589 256.389,283.472 257.200,283.739 257.200 C 284.006 257.200,285.169 258.100,286.322 259.200 C 287.475 260.300,288.575 261.200,288.766 261.200 C 288.957 261.200,290.018 262.100,291.124 263.200 C 292.229 264.300,293.304 265.200,293.511 265.200 C 293.718 265.200,294.498 265.927,295.244 266.816 C 295.990 267.705,297.230 268.820,298.000 269.295 C 298.770 269.770,299.918 270.752,300.551 271.479 C 301.184 272.206,301.920 272.800,302.187 272.800 C 302.453 272.800,303.488 273.700,304.486 274.800 C 305.483 275.900,306.495 276.800,306.733 276.800 C 306.971 276.800,308.233 277.880,309.536 279.200 C 310.840 280.520,312.093 281.600,312.320 281.600 C 312.547 281.600,313.399 282.303,314.213 283.162 C 315.027 284.021,316.290 285.046,317.020 285.439 C 317.750 285.832,318.550 286.532,318.798 286.995 C 319.045 287.458,320.303 288.549,321.591 289.419 C 322.880 290.288,324.229 291.495,324.590 292.100 C 324.950 292.705,325.437 293.200,325.672 293.200 C 325.906 293.200,327.253 294.280,328.664 295.600 C 330.075 296.920,331.395 298.000,331.598 298.000 C 331.800 298.000,332.933 298.945,334.115 300.100 C 336.708 302.635,340.095 305.597,340.940 306.070 C 341.278 306.260,342.462 307.312,343.569 308.407 C 344.677 309.503,345.812 310.402,346.091 310.404 C 346.371 310.406,347.025 310.946,347.545 311.604 C 348.065 312.262,348.674 312.800,348.899 312.800 C 349.123 312.800,350.419 313.940,351.779 315.333 C 353.138 316.726,354.824 318.205,355.525 318.619 C 356.226 319.034,356.800 319.514,356.800 319.686 C 356.800 319.859,286.600 320.000,200.800 320.000 C 115.000 320.000,44.800 319.892,44.800 319.760 C 44.800 319.390,47.173 317.261,48.384 316.546 C 48.982 316.193,49.902 315.206,50.430 314.352 C 50.982 313.458,51.701 312.800,52.126 312.800 C 52.531 312.800,53.554 312.080,54.400 311.200 C 55.246 310.320,56.128 309.600,56.361 309.600 C 56.594 309.600,57.733 308.704,58.892 307.609 C 63.237 303.506,65.884 301.200,66.248 301.200 C 66.454 301.200,67.557 300.208,68.699 298.995 C 69.840 297.782,71.224 296.619,71.774 296.410 C 72.323 296.201,73.184 295.396,73.686 294.620 C 74.189 293.844,74.899 293.208,75.264 293.205 C 75.630 293.202,76.350 292.703,76.864 292.095 C 77.379 291.488,78.897 290.149,80.238 289.120 C 81.579 288.091,82.978 286.788,83.347 286.224 C 83.716 285.661,84.262 285.200,84.559 285.200 C 84.857 285.200,85.900 284.435,86.877 283.500 C 87.855 282.565,89.280 281.324,90.044 280.743 C 90.809 280.161,92.057 279.072,92.817 278.322 C 93.578 277.571,94.580 276.697,95.044 276.379 C 95.507 276.060,96.691 275.080,97.674 274.200 C 98.656 273.320,100.527 271.700,101.830 270.601 C 103.134 269.501,104.989 267.836,105.953 266.901 C 106.917 265.965,107.843 265.200,108.012 265.200 C 108.181 265.200,109.238 264.300,110.361 263.200 C 111.485 262.100,112.574 261.200,112.782 261.200 C 112.990 261.200,113.304 260.951,113.480 260.647 C 113.656 260.343,115.060 259.097,116.600 257.877 C 119.782 255.356,122.726 252.801,124.638 250.900 C 125.358 250.185,126.128 249.600,126.350 249.600 C 126.573 249.600,126.990 249.280,127.277 248.889 C 127.565 248.497,128.784 247.372,129.987 246.389 C 131.190 245.405,132.871 243.970,133.722 243.200 C 134.574 242.430,135.569 241.642,135.935 241.448 C 136.301 241.254,136.870 240.791,137.200 240.419 C 137.530 240.046,138.956 238.765,140.370 237.571 C 141.783 236.377,144.023 234.365,145.348 233.100 C 146.672 231.835,147.899 230.800,148.074 230.800 C 148.492 230.800,149.629 229.855,152.287 227.300 C 153.488 226.145,154.707 225.065,154.996 224.900 C 155.635 224.535,158.396 222.130,161.424 219.300 C 162.660 218.145,163.820 217.200,164.002 217.200 C 164.183 217.200,165.110 216.495,166.062 215.634 C 168.062 213.823,168.664 213.964,171.432 216.885 " stroke="none" fill="#24a4ec" fill-rule="evenodd"></path></g></svg>