<svg id="svg" xmlns="http://www.w3.org/2000/svg" xmlns:xlink="http://www.w3.org/1999/xlink" width="400" height="400" viewBox="0, 0, 400,400" version="1.1"><g id="svgg"><path id="path0" d="M37.183 57.534 C 31.218 58.813,26.570 60.963,20.761 65.130 C 18.644 66.648,16.626 67.714,16.277 67.498 C 15.928 67.283,15.823 67.576,16.044 68.151 C 16.264 68.725,15.429 70.238,14.188 71.512 C 11.343 74.432,7.340 81.901,5.824 87.116 C 3.972 93.485,4.518 308.336,6.397 312.891 C 12.124 326.773,22.893 336.208,37.184 339.863 C 45.133 341.896,353.078 342.300,362.560 340.290 C 367.986 339.140,376.943 335.425,378.910 333.509 C 381.017 331.456,384.932 328.945,385.440 329.320 C 385.714 329.522,385.776 329.467,385.578 329.198 C 385.380 328.929,386.808 326.481,388.751 323.759 C 390.781 320.913,393.264 315.994,394.592 312.186 L 396.902 305.564 396.678 197.118 L 396.454 88.672 394.506 83.984 C 388.687 69.978,377.490 60.334,363.672 57.427 C 355.423 55.692,45.301 55.794,37.183 57.534 M360.938 76.076 C 360.937 76.996,352.040 83.498,351.359 83.077 C 350.908 82.799,350.760 82.927,351.029 83.362 C 351.490 84.108,345.743 89.292,321.228 110.242 C 311.127 118.874,308.473 120.841,309.778 118.731 C 310.187 118.068,310.087 117.919,309.483 118.293 C 308.980 118.604,308.752 119.155,308.976 119.518 C 309.532 120.417,299.833 128.993,298.730 128.579 C 298.246 128.397,297.895 128.677,297.949 129.200 C 298.003 129.724,294.883 132.820,291.016 136.081 C 287.148 139.342,283.031 142.899,281.867 143.986 C 280.702 145.073,278.973 146.506,278.024 147.171 C 277.074 147.835,274.863 149.729,273.110 151.379 C 271.356 153.029,265.352 158.202,259.766 162.876 C 254.180 167.549,247.623 173.156,245.196 175.335 C 242.768 177.514,239.506 180.352,237.946 181.641 C 236.386 182.930,234.287 184.716,233.281 185.611 C 232.275 186.506,226.924 191.072,221.390 195.758 C 215.856 200.444,210.977 204.691,210.547 205.196 C 204.913 211.817,195.437 210.551,187.023 202.055 C 186.116 201.140,183.567 198.864,181.357 196.999 C 179.148 195.134,177.571 193.234,177.853 192.777 C 178.154 192.290,177.996 192.175,177.471 192.500 C 176.664 192.998,167.133 185.612,164.053 182.101 C 163.403 181.360,162.295 180.426,161.590 180.026 C 160.885 179.625,158.292 177.539,155.827 175.391 C 139.507 161.163,130.817 153.687,123.047 147.190 C 116.466 141.688,115.509 140.664,116.080 139.740 C 116.273 139.427,116.020 138.916,115.517 138.605 C 114.946 138.252,114.812 138.378,115.160 138.942 C 116.145 140.537,114.390 139.903,112.629 138.028 C 111.691 137.029,111.190 135.918,111.516 135.559 C 111.842 135.200,111.663 135.163,111.117 135.477 C 110.259 135.972,101.229 128.982,92.969 121.427 C 91.895 120.445,89.176 117.992,86.927 115.975 C 84.678 113.959,83.026 112.005,83.256 111.633 C 83.487 111.260,83.209 111.134,82.640 111.353 C 81.501 111.790,74.480 105.630,74.824 104.497 C 74.942 104.108,74.705 103.996,74.298 104.248 C 73.709 104.612,65.671 98.254,59.741 92.735 C 59.187 92.219,57.214 90.566,55.357 89.063 C 53.501 87.559,50.217 84.724,48.061 82.764 C 45.905 80.803,43.126 78.430,41.887 77.490 L 39.633 75.781 200.285 75.781 C 288.644 75.781,360.938 75.914,360.938 76.076 M376.378 200.282 C 376.265 258.493,375.911 306.380,375.593 306.699 C 374.639 307.652,358.349 293.216,359.067 292.054 C 359.281 291.707,358.974 291.609,358.384 291.835 C 357.795 292.062,356.069 291.091,354.550 289.678 C 353.030 288.265,346.375 282.547,339.761 276.972 C 324.027 263.709,320.232 260.137,320.836 259.159 C 321.134 258.678,320.951 258.590,320.384 258.940 C 319.220 259.659,316.245 257.143,316.936 256.025 C 317.210 255.581,317.046 255.464,316.567 255.760 C 315.164 256.627,297.300 241.053,298.139 239.695 C 298.348 239.357,298.007 239.277,297.382 239.517 C 296.123 240.000,283.838 229.251,284.199 227.982 C 284.317 227.567,284.104 227.419,283.725 227.653 C 283.135 228.018,268.634 216.414,264.480 212.251 C 263.700 211.469,262.215 210.275,261.179 209.596 C 260.144 208.918,259.475 207.899,259.692 207.331 C 259.910 206.764,259.697 206.059,259.220 205.764 C 258.695 205.439,258.572 205.583,258.910 206.129 C 259.883 207.704,257.882 207.101,256.071 205.273 C 255.113 204.307,253.009 202.406,251.397 201.050 L 248.465 198.584 255.287 192.869 C 259.039 189.726,264.453 185.113,267.317 182.618 C 270.181 180.122,272.993 178.179,273.567 178.298 C 274.158 178.421,274.519 177.962,274.400 177.237 C 274.191 175.959,275.916 174.755,278.125 174.635 C 278.771 174.601,279.198 173.985,279.077 173.264 C 278.956 172.545,279.631 171.542,280.577 171.036 C 281.524 170.529,284.084 168.402,286.266 166.308 C 288.449 164.215,290.484 162.501,290.790 162.501 C 291.095 162.500,291.974 161.847,292.743 161.049 C 293.512 160.251,296.777 157.370,300.000 154.648 C 303.223 151.926,306.738 148.842,307.813 147.796 C 308.887 146.750,310.996 144.972,312.500 143.846 C 314.004 142.720,316.156 140.903,317.282 139.810 C 318.408 138.717,324.560 133.412,330.954 128.023 C 346.172 115.194,346.529 114.890,349.873 111.864 C 351.447 110.441,353.262 108.842,353.906 108.311 C 354.551 107.780,357.607 105.133,360.697 102.427 C 363.788 99.722,366.697 97.744,367.162 98.031 C 367.627 98.318,367.911 98.172,367.793 97.706 C 367.675 97.240,369.336 95.313,371.484 93.425 L 375.391 89.992 375.988 92.218 C 376.316 93.442,376.492 142.071,376.378 200.282 M36.022 98.509 C 41.173 102.845,46.211 107.152,47.220 108.079 C 48.228 109.007,50.559 110.996,52.398 112.500 C 54.238 114.004,56.305 115.762,56.992 116.406 C 57.679 117.051,62.099 120.877,66.816 124.909 C 71.532 128.942,77.500 134.075,80.078 136.318 C 90.861 145.697,93.095 147.615,101.657 154.854 C 106.593 159.028,111.344 163.071,112.213 163.839 C 113.083 164.606,115.956 167.126,118.599 169.438 C 121.241 171.750,123.181 174.002,122.909 174.442 C 122.637 174.882,122.791 175.009,123.251 174.725 C 124.254 174.105,124.530 174.326,146.027 192.969 C 148.752 195.332,151.376 197.526,151.858 197.843 C 152.852 198.499,150.981 200.364,140.041 209.620 C 136.072 212.978,132.462 215.501,132.018 215.226 C 131.575 214.952,131.308 215.157,131.426 215.683 C 131.717 216.977,106.125 239.084,104.842 238.646 C 104.283 238.455,104.010 238.598,104.236 238.964 C 104.728 239.759,101.476 242.805,87.500 254.641 C 76.545 263.918,75.378 264.921,71.484 268.402 C 70.195 269.554,67.559 271.774,65.625 273.335 C 63.691 274.895,61.758 276.555,61.328 277.023 C 57.945 280.706,44.356 291.390,43.627 290.940 C 43.111 290.621,42.938 290.725,43.222 291.184 C 43.697 291.953,41.401 294.241,31.631 302.734 C 26.144 307.504,26.095 307.525,25.501 305.305 C 24.880 302.986,24.871 94.700,25.492 92.383 C 26.127 90.014,25.499 89.648,36.022 98.509 M170.187 213.608 C 191.755 233.216,206.467 234.262,226.474 217.610 C 230.490 214.267,233.999 211.873,234.271 212.289 C 234.543 212.706,238.457 216.135,242.969 219.909 C 247.480 223.683,251.523 227.180,251.953 227.679 C 252.383 228.179,253.585 229.173,254.625 229.890 C 255.664 230.606,257.949 232.541,259.703 234.189 C 261.456 235.838,267.637 241.184,273.438 246.071 C 286.743 257.279,289.884 260.240,289.363 261.084 C 289.134 261.454,289.236 261.707,289.590 261.646 C 291.043 261.393,291.986 261.806,293.777 263.477 C 296.022 265.571,323.814 289.389,326.433 291.462 C 327.506 292.312,328.019 293.290,327.679 293.839 C 327.314 294.430,327.435 294.567,328.009 294.213 C 328.744 293.758,347.058 308.707,357.805 318.534 C 358.874 319.512,360.017 320.313,360.344 320.313 C 360.670 320.313,360.938 320.580,360.938 320.907 C 360.938 321.235,288.867 321.498,200.781 321.493 C 112.695 321.488,40.713 321.241,40.820 320.943 C 40.979 320.502,49.135 313.506,69.789 296.094 C 70.554 295.449,72.169 294.043,73.377 292.969 C 76.202 290.459,78.681 288.329,90.838 277.966 C 96.606 273.049,101.189 269.691,101.701 270.007 C 102.207 270.320,102.371 270.207,102.084 269.742 C 101.808 269.296,103.563 267.220,105.985 265.129 C 108.406 263.039,110.950 260.751,111.639 260.045 C 112.327 259.339,114.473 257.478,116.406 255.908 C 119.666 253.262,123.690 249.807,130.469 243.833 C 131.973 242.507,133.661 241.591,134.220 241.796 C 134.780 242.002,135.054 241.873,134.830 241.511 C 134.269 240.603,137.987 237.226,138.916 237.800 C 139.329 238.056,139.619 237.796,139.560 237.223 C 139.501 236.649,145.605 230.945,153.125 224.547 C 160.645 218.148,166.914 212.644,167.057 212.316 C 167.466 211.379,167.961 211.584,170.187 213.608 " stroke="none" fill="#000000" fill-rule="evenodd"></path></g></svg>