<svg id="svg" xmlns="http://www.w3.org/2000/svg" xmlns:xlink="http://www.w3.org/1999/xlink" width="400" height="400" viewBox="0, 0, 400,400" version="1.1"><g id="svgg"><path id="path0" d="M156.000 52.400 C 156.000 52.620,155.726 52.800,155.391 52.800 C 154.599 52.800,150.400 56.999,150.400 57.791 C 150.400 58.126,150.220 58.400,150.000 58.400 C 149.780 58.400,149.600 58.760,149.600 59.200 C 149.600 59.640,149.420 60.000,149.200 60.000 C 148.980 60.000,148.800 60.810,148.800 61.800 C 148.800 62.790,148.620 63.600,148.400 63.600 C 148.178 63.600,148.000 64.667,148.000 66.000 C 148.000 67.333,147.822 68.400,147.600 68.400 C 147.371 68.400,147.200 69.600,147.200 71.200 C 147.200 72.800,147.029 74.000,146.800 74.000 C 146.580 74.000,146.400 74.979,146.400 76.176 C 146.400 77.373,146.220 78.464,146.000 78.600 C 145.780 78.736,145.600 80.007,145.600 81.424 C 145.600 82.875,145.425 84.000,145.200 84.000 C 144.978 84.000,144.800 85.067,144.800 86.400 C 144.800 87.720,144.642 88.800,144.448 88.800 C 144.255 88.800,143.966 91.050,143.808 93.800 C 143.649 96.550,143.358 98.800,143.160 98.800 C 142.962 98.800,142.800 100.060,142.800 101.600 C 142.800 103.200,142.629 104.400,142.400 104.400 C 142.178 104.400,142.000 105.467,142.000 106.800 C 142.000 108.133,141.822 109.200,141.600 109.200 C 141.374 109.200,141.200 110.333,141.200 111.800 C 141.200 113.267,141.026 114.400,140.800 114.400 C 140.580 114.400,140.400 114.940,140.400 115.600 L 140.400 116.800 100.233 116.800 C 68.474 116.800,60.024 116.905,59.865 117.300 C 59.704 117.700,59.657 117.700,59.632 117.300 C 59.594 116.711,58.400 116.614,58.400 117.200 C 58.400 117.420,58.080 117.600,57.688 117.600 C 57.297 117.600,56.717 117.960,56.400 118.400 C 56.083 118.840,55.588 119.200,55.301 119.200 C 54.573 119.200,51.200 122.645,51.200 123.389 C 51.200 123.725,51.020 124.000,50.800 124.000 C 50.580 124.000,50.400 124.360,50.400 124.800 C 50.400 125.240,50.220 125.600,50.000 125.600 C 49.780 125.600,49.600 126.050,49.600 126.600 C 49.600 127.150,49.420 127.600,49.200 127.600 C 48.335 127.600,48.709 136.958,49.600 137.600 C 50.040 137.917,50.400 138.457,50.400 138.800 C 50.400 139.143,50.760 139.683,51.200 140.000 C 51.640 140.317,52.000 140.807,52.000 141.088 C 52.000 141.370,52.360 141.600,52.800 141.600 C 53.333 141.600,53.600 141.867,53.600 142.400 C 53.600 142.900,53.867 143.200,54.312 143.200 C 54.703 143.200,55.283 143.560,55.600 144.000 C 55.917 144.440,56.497 144.800,56.888 144.800 C 57.333 144.800,57.600 145.100,57.600 145.600 C 57.600 146.222,57.867 146.400,58.800 146.400 C 59.460 146.400,60.000 146.580,60.000 146.800 C 60.000 147.064,72.867 147.200,97.800 147.200 L 135.600 147.200 135.600 148.400 C 135.600 149.060,135.420 149.600,135.200 149.600 C 134.971 149.600,134.800 150.800,134.800 152.400 C 134.800 154.000,134.629 155.200,134.400 155.200 C 134.174 155.200,134.000 156.333,134.000 157.800 C 134.000 159.267,133.826 160.400,133.600 160.400 C 133.378 160.400,133.200 161.467,133.200 162.800 C 133.200 164.133,133.022 165.200,132.800 165.200 C 132.571 165.200,132.400 166.400,132.400 168.000 C 132.400 169.600,132.229 170.800,132.000 170.800 C 131.778 170.800,131.600 171.867,131.600 173.200 C 131.600 174.533,131.422 175.600,131.200 175.600 C 130.974 175.600,130.800 176.733,130.800 178.200 C 130.800 179.667,130.626 180.800,130.400 180.800 C 130.178 180.800,130.000 181.867,130.000 183.200 C 130.000 184.533,129.822 185.600,129.600 185.600 C 129.371 185.600,129.200 186.800,129.200 188.400 C 129.200 190.000,129.029 191.200,128.800 191.200 C 128.580 191.200,128.400 192.179,128.400 193.376 C 128.400 194.573,128.242 195.651,128.048 195.770 C 127.855 195.890,127.567 198.240,127.408 200.994 C 127.249 203.747,126.958 206.000,126.760 206.000 C 126.562 206.000,126.400 207.170,126.400 208.600 C 126.400 210.067,126.226 211.200,126.000 211.200 C 125.778 211.200,125.600 212.267,125.600 213.600 C 125.600 214.933,125.422 216.000,125.200 216.000 C 124.971 216.000,124.800 217.200,124.800 218.800 C 124.800 220.400,124.629 221.600,124.400 221.600 C 124.178 221.600,124.000 222.667,124.000 224.000 C 124.000 225.333,123.822 226.400,123.600 226.400 C 123.374 226.400,123.200 227.533,123.200 229.000 C 123.200 230.467,123.026 231.600,122.800 231.600 C 122.578 231.600,122.400 232.667,122.400 234.000 C 122.400 235.333,122.222 236.400,122.000 236.400 C 121.778 236.400,121.600 237.467,121.600 238.800 L 121.600 241.200 86.088 241.200 C 51.035 241.200,50.569 241.210,50.000 242.000 C 49.683 242.440,49.186 242.800,48.895 242.800 C 48.296 242.800,47.919 243.096,45.399 245.553 C 44.409 246.517,43.600 247.602,43.600 247.964 C 43.600 248.327,43.240 248.883,42.800 249.200 C 41.821 249.906,41.552 259.353,42.500 259.735 C 42.900 259.896,42.900 259.943,42.500 259.968 C 41.733 260.017,41.906 260.956,42.800 261.600 C 43.240 261.917,43.600 262.487,43.600 262.866 C 43.600 263.678,48.113 268.400,48.890 268.400 C 49.183 268.400,49.683 268.760,50.000 269.200 C 50.569 269.989,51.035 270.000,83.688 270.000 L 116.800 270.000 116.800 271.200 C 116.800 271.860,116.620 272.400,116.400 272.400 C 116.174 272.400,116.000 273.533,116.000 275.000 C 116.000 276.467,115.826 277.600,115.600 277.600 C 115.378 277.600,115.200 278.667,115.200 280.000 C 115.200 281.333,115.022 282.400,114.800 282.400 C 114.571 282.400,114.400 283.600,114.400 285.200 C 114.400 286.800,114.229 288.000,114.000 288.000 C 113.778 288.000,113.600 289.067,113.600 290.400 C 113.600 291.733,113.422 292.800,113.200 292.800 C 112.974 292.800,112.800 293.933,112.800 295.400 C 112.800 296.867,112.626 298.000,112.400 298.000 C 112.178 298.000,112.000 299.067,112.000 300.400 C 112.000 301.733,111.822 302.800,111.600 302.800 C 111.372 302.800,111.200 303.989,111.200 305.567 C 111.200 307.088,111.032 308.393,110.827 308.467 C 110.622 308.540,110.327 310.805,110.171 313.500 C 110.014 316.195,109.732 318.400,109.543 318.400 C 109.355 318.400,109.200 319.480,109.200 320.800 C 109.200 322.133,109.022 323.200,108.800 323.200 C 108.574 323.200,108.400 324.333,108.400 325.800 C 108.400 327.267,108.226 328.400,108.000 328.400 C 107.763 328.400,107.600 329.867,107.600 332.000 C 107.600 334.133,107.763 335.600,108.000 335.600 C 108.220 335.600,108.400 335.878,108.400 336.218 C 108.400 336.558,108.856 337.323,109.413 337.918 C 112.328 341.032,113.046 341.596,114.100 341.598 C 114.705 341.599,115.200 341.780,115.200 342.000 C 115.200 342.220,115.920 342.400,116.800 342.400 C 117.680 342.400,118.400 342.580,118.400 342.800 C 118.400 343.035,119.800 343.200,121.800 343.200 C 123.800 343.200,125.200 343.035,125.200 342.800 C 125.200 342.580,125.478 342.400,125.817 342.400 C 126.480 342.400,126.779 342.183,129.213 339.931 C 130.086 339.124,130.800 338.179,130.800 337.831 C 130.800 337.484,130.980 337.200,131.200 337.200 C 131.420 337.200,131.600 336.840,131.600 336.400 C 131.600 335.960,131.780 335.600,132.000 335.600 C 132.220 335.600,132.400 334.700,132.400 333.600 C 132.400 332.500,132.580 331.600,132.800 331.600 C 133.022 331.600,133.200 330.533,133.200 329.200 C 133.200 327.867,133.378 326.800,133.600 326.800 C 133.826 326.800,134.000 325.667,134.000 324.200 C 134.000 322.733,134.174 321.600,134.400 321.600 C 134.622 321.600,134.800 320.533,134.800 319.200 C 134.800 317.867,134.978 316.800,135.200 316.800 C 135.429 316.800,135.600 315.600,135.600 314.000 C 135.600 312.400,135.771 311.200,136.000 311.200 C 136.220 311.200,136.400 310.210,136.400 309.000 C 136.400 307.790,136.580 306.800,136.800 306.800 C 137.029 306.800,137.200 305.600,137.200 304.000 C 137.200 302.400,137.371 301.200,137.600 301.200 C 137.822 301.200,138.000 300.133,138.000 298.800 C 138.000 297.467,138.178 296.400,138.400 296.400 C 138.626 296.400,138.800 295.267,138.800 293.800 C 138.800 292.333,138.974 291.200,139.200 291.200 C 139.422 291.200,139.600 290.133,139.600 288.800 C 139.600 287.467,139.778 286.400,140.000 286.400 C 140.229 286.400,140.400 285.200,140.400 283.600 C 140.400 282.060,140.560 280.800,140.756 280.800 C 140.951 280.800,141.243 278.605,141.405 275.923 C 141.593 272.794,141.885 270.858,142.220 270.523 C 142.645 270.098,151.775 270.000,190.771 270.000 L 238.800 270.000 238.800 272.400 C 238.800 273.733,238.622 274.800,238.400 274.800 C 238.180 274.800,238.000 275.790,238.000 277.000 C 238.000 278.210,237.820 279.200,237.600 279.200 C 237.378 279.200,237.200 280.267,237.200 281.600 C 237.200 282.933,237.022 284.000,236.800 284.000 C 236.571 284.000,236.400 285.200,236.400 286.800 C 236.400 288.400,236.229 289.600,236.000 289.600 C 235.780 289.600,235.600 290.590,235.600 291.800 C 235.600 293.010,235.420 294.000,235.200 294.000 C 234.971 294.000,234.800 295.200,234.800 296.800 C 234.800 298.400,234.629 299.600,234.400 299.600 C 234.178 299.600,234.000 300.667,234.000 302.000 C 234.000 303.333,233.822 304.400,233.600 304.400 C 233.371 304.400,233.200 305.600,233.200 307.200 C 233.200 308.800,233.029 310.000,232.800 310.000 C 232.580 310.000,232.400 310.990,232.400 312.200 C 232.400 313.410,232.220 314.400,232.000 314.400 C 231.778 314.400,231.600 315.467,231.600 316.800 C 231.600 318.133,231.422 319.200,231.200 319.200 C 230.971 319.200,230.800 320.400,230.800 322.000 C 230.800 323.600,230.629 324.800,230.400 324.800 C 230.180 324.800,230.000 325.790,230.000 327.000 C 230.000 328.210,229.820 329.200,229.600 329.200 C 229.378 329.200,229.200 330.267,229.200 331.600 C 229.200 332.933,229.378 334.000,229.600 334.000 C 229.820 334.000,230.000 334.338,230.000 334.751 C 230.000 335.164,230.251 335.711,230.559 335.966 C 230.866 336.221,231.030 336.765,230.922 337.176 C 230.789 337.685,230.993 338.007,231.563 338.188 C 232.056 338.345,232.400 338.793,232.400 339.280 C 232.400 340.225,233.807 341.600,234.773 341.600 C 235.131 341.600,235.683 341.960,236.000 342.400 C 236.339 342.870,237.035 343.200,237.688 343.200 C 238.300 343.200,238.800 343.380,238.800 343.600 C 238.800 343.822,239.867 344.000,241.200 344.000 C 242.533 344.000,243.600 344.178,243.600 344.400 C 243.600 344.620,244.590 344.800,245.800 344.800 C 247.010 344.800,248.000 344.620,248.000 344.400 C 248.000 344.180,248.540 344.000,249.200 344.000 C 249.860 344.000,250.400 343.820,250.400 343.600 C 250.400 343.380,250.748 343.200,251.173 343.200 C 251.598 343.200,252.060 342.840,252.200 342.400 C 252.340 341.960,252.700 341.600,253.000 341.600 C 254.496 341.600,257.600 337.704,257.600 335.826 C 257.600 334.822,257.762 334.000,257.960 334.000 C 258.158 334.000,258.449 331.750,258.608 329.000 C 258.766 326.250,259.055 324.000,259.248 324.000 C 259.442 324.000,259.600 322.920,259.600 321.600 C 259.600 320.267,259.778 319.200,260.000 319.200 C 260.229 319.200,260.400 318.000,260.400 316.400 C 260.400 314.800,260.571 313.600,260.800 313.600 C 261.022 313.600,261.200 312.533,261.200 311.200 C 261.200 309.867,261.378 308.800,261.600 308.800 C 261.826 308.800,262.000 307.667,262.000 306.200 C 262.000 304.733,262.174 303.600,262.400 303.600 C 262.622 303.600,262.800 302.533,262.800 301.200 C 262.800 299.867,262.978 298.800,263.200 298.800 C 263.422 298.800,263.600 297.733,263.600 296.400 C 263.600 295.067,263.778 294.000,264.000 294.000 C 264.226 294.000,264.400 292.867,264.400 291.400 C 264.400 289.933,264.574 288.800,264.800 288.800 C 265.022 288.800,265.200 287.733,265.200 286.400 C 265.200 285.067,265.378 284.000,265.600 284.000 C 265.829 284.000,266.000 282.800,266.000 281.200 C 266.000 279.600,266.171 278.400,266.400 278.400 C 266.620 278.400,266.800 277.410,266.800 276.200 C 266.800 274.990,266.980 274.000,267.200 274.000 C 267.420 274.000,267.600 273.100,267.600 272.000 L 267.600 270.000 303.600 270.000 C 327.333 270.000,339.600 269.864,339.600 269.600 C 339.600 269.380,340.050 269.200,340.600 269.200 C 341.150 269.200,341.600 269.020,341.600 268.800 C 341.600 268.580,341.873 268.400,342.207 268.400 C 342.541 268.400,343.981 267.233,345.407 265.807 C 346.833 264.381,348.000 262.941,348.000 262.607 C 348.000 262.273,348.180 262.000,348.400 262.000 C 348.620 262.000,348.800 261.460,348.800 260.800 C 348.800 260.140,348.980 259.600,349.200 259.600 C 349.420 259.600,349.600 259.330,349.600 259.000 C 349.600 258.670,349.780 258.400,350.000 258.400 C 350.229 258.400,350.400 257.200,350.400 255.600 C 350.400 254.000,350.229 252.800,350.000 252.800 C 349.780 252.800,349.600 252.120,349.600 251.288 C 349.600 250.235,349.357 249.602,348.800 249.200 C 348.360 248.883,348.000 248.381,348.000 248.086 C 348.000 247.790,347.107 246.705,346.015 245.674 C 343.218 243.033,342.911 242.800,342.217 242.800 C 341.878 242.800,341.600 242.620,341.600 242.400 C 341.600 242.180,341.150 242.000,340.600 242.000 C 340.050 242.000,339.600 241.820,339.600 241.600 C 339.600 241.337,328.133 241.200,306.000 241.200 L 272.400 241.200 272.400 240.000 C 272.400 239.340,272.580 238.800,272.800 238.800 C 273.029 238.800,273.200 237.600,273.200 236.000 C 273.200 234.400,273.371 233.200,273.600 233.200 C 273.822 233.200,274.000 232.144,274.000 230.833 C 274.000 229.532,274.168 228.407,274.373 228.333 C 274.578 228.260,274.873 225.995,275.029 223.300 C 275.186 220.605,275.468 218.400,275.657 218.400 C 275.845 218.400,276.000 217.320,276.000 216.000 C 276.000 214.667,276.178 213.600,276.400 213.600 C 276.626 213.600,276.800 212.467,276.800 211.000 C 276.800 209.533,276.974 208.400,277.200 208.400 C 277.422 208.400,277.600 207.333,277.600 206.000 C 277.600 204.667,277.778 203.600,278.000 203.600 C 278.229 203.600,278.400 202.400,278.400 200.800 C 278.400 199.200,278.571 198.000,278.800 198.000 C 279.022 198.000,279.200 196.933,279.200 195.600 C 279.200 194.267,279.378 193.200,279.600 193.200 C 279.820 193.200,280.000 192.210,280.000 191.000 C 280.000 189.790,280.180 188.800,280.400 188.800 C 280.629 188.800,280.800 187.600,280.800 186.000 C 280.800 184.400,280.971 183.200,281.200 183.200 C 281.422 183.200,281.600 182.133,281.600 180.800 C 281.600 179.467,281.778 178.400,282.000 178.400 C 282.226 178.400,282.400 177.267,282.400 175.800 C 282.400 174.333,282.574 173.200,282.800 173.200 C 283.022 173.200,283.200 172.133,283.200 170.800 C 283.200 169.467,283.378 168.400,283.600 168.400 C 283.829 168.400,284.000 167.200,284.000 165.600 C 284.000 164.000,284.171 162.800,284.400 162.800 C 284.620 162.800,284.800 161.810,284.800 160.600 C 284.800 159.390,284.980 158.400,285.200 158.400 C 285.422 158.400,285.600 157.333,285.600 156.000 C 285.600 154.667,285.778 153.600,286.000 153.600 C 286.226 153.600,286.400 152.457,286.400 150.971 C 286.400 146.852,283.966 147.200,312.771 147.200 C 329.324 147.200,338.000 147.062,338.000 146.800 C 338.000 146.580,338.320 146.400,338.712 146.400 C 339.103 146.400,339.683 146.040,340.000 145.600 C 340.317 145.160,340.722 144.800,340.899 144.800 C 341.371 144.800,344.800 141.293,344.800 140.811 C 344.800 140.585,344.980 140.400,345.200 140.400 C 345.420 140.400,345.600 140.040,345.600 139.600 C 345.600 139.160,345.780 138.800,346.000 138.800 C 346.220 138.800,346.400 138.260,346.400 137.600 C 346.400 136.940,346.580 136.400,346.800 136.400 C 347.663 136.400,347.290 127.441,346.400 126.800 C 345.960 126.483,345.600 125.943,345.600 125.600 C 345.600 125.257,345.240 124.717,344.800 124.400 C 344.360 124.083,344.000 123.503,344.000 123.112 C 344.000 122.667,343.700 122.400,343.200 122.400 C 342.667 122.400,342.400 122.133,342.400 121.600 C 342.400 121.160,342.170 120.800,341.888 120.800 C 341.607 120.800,341.117 120.440,340.800 120.000 C 340.483 119.560,339.830 119.200,339.349 119.200 C 338.672 119.200,338.522 119.020,338.684 118.400 C 338.860 117.726,338.696 117.600,337.647 117.600 C 336.961 117.600,336.400 117.420,336.400 117.200 C 336.400 116.938,328.667 116.800,314.000 116.800 L 291.600 116.800 291.600 114.800 C 291.600 113.700,291.780 112.800,292.000 112.800 C 292.220 112.800,292.400 111.810,292.400 110.600 C 292.400 109.390,292.580 108.400,292.800 108.400 C 293.029 108.400,293.200 107.200,293.200 105.600 C 293.200 104.000,293.371 102.800,293.600 102.800 C 293.822 102.800,294.000 101.733,294.000 100.400 C 294.000 99.067,294.178 98.000,294.400 98.000 C 294.629 98.000,294.800 96.800,294.800 95.200 C 294.800 93.600,294.971 92.400,295.200 92.400 C 295.420 92.400,295.600 91.410,295.600 90.200 C 295.600 88.990,295.780 88.000,296.000 88.000 C 296.222 88.000,296.400 86.933,296.400 85.600 C 296.400 84.267,296.578 83.200,296.800 83.200 C 297.029 83.200,297.200 82.000,297.200 80.400 C 297.200 78.800,297.371 77.600,297.600 77.600 C 297.820 77.600,298.000 76.610,298.000 75.400 C 298.000 74.190,298.180 73.200,298.400 73.200 C 298.622 73.200,298.800 72.133,298.800 70.800 C 298.800 69.467,298.622 68.400,298.400 68.400 C 298.180 68.400,298.000 67.961,298.000 67.424 C 298.000 66.887,297.820 66.336,297.600 66.200 C 297.380 66.064,297.200 65.647,297.200 65.273 C 297.200 64.899,296.840 64.368,296.400 64.093 C 295.960 63.818,295.600 63.317,295.600 62.978 C 295.600 62.147,293.698 60.292,293.175 60.615 C 292.946 60.757,292.431 60.497,292.032 60.037 C 291.633 59.577,290.922 59.200,290.453 59.200 C 289.984 59.200,289.600 59.020,289.600 58.800 C 289.600 58.578,288.533 58.400,287.200 58.400 C 285.867 58.400,284.800 58.222,284.800 58.000 C 284.800 57.771,283.600 57.600,282.000 57.600 C 280.400 57.600,279.200 57.771,279.200 58.000 C 279.200 58.220,278.840 58.400,278.400 58.400 C 277.960 58.400,277.600 58.580,277.600 58.800 C 277.600 59.020,277.414 59.200,277.186 59.200 C 275.558 59.200,270.800 64.695,270.800 66.574 C 270.800 67.578,270.620 68.400,270.400 68.400 C 270.178 68.400,270.000 69.467,270.000 70.800 C 270.000 72.133,269.822 73.200,269.600 73.200 C 269.374 73.200,269.200 74.333,269.200 75.800 C 269.200 77.267,269.026 78.400,268.800 78.400 C 268.578 78.400,268.400 79.467,268.400 80.800 C 268.400 82.133,268.222 83.200,268.000 83.200 C 267.771 83.200,267.600 84.400,267.600 86.000 C 267.600 87.600,267.429 88.800,267.200 88.800 C 266.978 88.800,266.800 89.867,266.800 91.200 C 266.800 92.533,266.622 93.600,266.400 93.600 C 266.174 93.600,266.000 94.733,266.000 96.200 C 266.000 97.667,265.826 98.800,265.600 98.800 C 265.378 98.800,265.200 99.867,265.200 101.200 C 265.200 102.533,265.022 103.600,264.800 103.600 C 264.578 103.600,264.400 104.667,264.400 106.000 C 264.400 107.333,264.222 108.400,264.000 108.400 C 263.774 108.400,263.600 109.533,263.600 111.000 C 263.600 112.467,263.426 113.600,263.200 113.600 C 262.980 113.600,262.800 114.320,262.800 115.200 L 262.800 116.800 214.400 116.800 L 166.000 116.800 166.000 114.800 C 166.000 113.700,166.180 112.800,166.400 112.800 C 166.626 112.800,166.800 111.667,166.800 110.200 C 166.800 108.733,166.974 107.600,167.200 107.600 C 167.422 107.600,167.600 106.533,167.600 105.200 C 167.600 103.867,167.778 102.800,168.000 102.800 C 168.229 102.800,168.400 101.600,168.400 100.000 C 168.400 98.400,168.571 97.200,168.800 97.200 C 169.022 97.200,169.200 96.133,169.200 94.800 C 169.200 93.467,169.378 92.400,169.600 92.400 C 169.826 92.400,170.000 91.267,170.000 89.800 C 170.000 88.333,170.174 87.200,170.400 87.200 C 170.622 87.200,170.800 86.133,170.800 84.800 C 170.800 83.467,170.978 82.400,171.200 82.400 C 171.429 82.400,171.600 81.200,171.600 79.600 C 171.600 78.000,171.771 76.800,172.000 76.800 C 172.220 76.800,172.400 75.810,172.400 74.600 C 172.400 73.390,172.580 72.400,172.800 72.400 C 173.029 72.400,173.200 71.200,173.200 69.600 C 173.200 68.000,173.371 66.800,173.600 66.800 C 173.835 66.800,174.000 65.400,174.000 63.400 C 174.000 61.400,173.835 60.000,173.600 60.000 C 173.380 60.000,173.200 59.727,173.200 59.393 C 173.200 58.334,168.139 53.600,167.007 53.600 C 166.453 53.600,166.000 53.420,166.000 53.200 C 166.000 52.980,165.280 52.800,164.400 52.800 C 163.520 52.800,162.800 52.620,162.800 52.400 C 162.800 52.165,161.400 52.000,159.400 52.000 C 157.400 52.000,156.000 52.165,156.000 52.400 M258.400 148.000 C 258.400 148.440,258.220 148.800,258.000 148.800 C 257.778 148.800,257.600 149.867,257.600 151.200 C 257.600 152.533,257.422 153.600,257.200 153.600 C 256.971 153.600,256.800 154.800,256.800 156.400 C 256.800 158.000,256.629 159.200,256.400 159.200 C 256.180 159.200,256.000 160.190,256.000 161.400 C 256.000 162.610,255.820 163.600,255.600 163.600 C 255.371 163.600,255.200 164.800,255.200 166.400 C 255.200 168.000,255.029 169.200,254.800 169.200 C 254.578 169.200,254.400 170.267,254.400 171.600 C 254.400 172.933,254.222 174.000,254.000 174.000 C 253.780 174.000,253.600 174.990,253.600 176.200 C 253.600 177.410,253.420 178.400,253.200 178.400 C 252.971 178.400,252.800 179.600,252.800 181.200 C 252.800 182.800,252.629 184.000,252.400 184.000 C 252.178 184.000,252.000 185.067,252.000 186.400 C 252.000 187.733,251.822 188.800,251.600 188.800 C 251.374 188.800,251.200 189.933,251.200 191.400 C 251.200 192.867,251.026 194.000,250.800 194.000 C 250.578 194.000,250.400 195.067,250.400 196.400 C 250.400 197.733,250.222 198.800,250.000 198.800 C 249.771 198.800,249.600 200.000,249.600 201.600 C 249.600 203.200,249.429 204.400,249.200 204.400 C 248.978 204.400,248.800 205.467,248.800 206.800 C 248.800 208.133,248.622 209.200,248.400 209.200 C 248.180 209.200,248.000 210.190,248.000 211.400 C 248.000 212.610,247.820 213.600,247.600 213.600 C 247.371 213.600,247.200 214.800,247.200 216.400 C 247.200 218.000,247.029 219.200,246.800 219.200 C 246.578 219.200,246.400 220.267,246.400 221.600 C 246.400 222.933,246.222 224.000,246.000 224.000 C 245.774 224.000,245.600 225.133,245.600 226.600 C 245.600 228.067,245.426 229.200,245.200 229.200 C 244.978 229.200,244.800 230.267,244.800 231.600 C 244.800 232.933,244.622 234.000,244.400 234.000 C 244.179 234.000,244.000 235.050,244.000 236.350 C 244.000 237.642,243.888 239.262,243.750 239.950 L 243.500 241.200 194.950 241.200 C 162.850 241.200,146.400 241.064,146.400 240.800 C 146.400 240.580,146.580 240.400,146.800 240.400 C 147.029 240.400,147.200 239.200,147.200 237.600 C 147.200 236.000,147.371 234.800,147.600 234.800 C 147.822 234.800,148.000 233.733,148.000 232.400 C 148.000 231.067,148.178 230.000,148.400 230.000 C 148.626 230.000,148.800 228.867,148.800 227.400 C 148.800 225.933,148.974 224.800,149.200 224.800 C 149.422 224.800,149.600 223.733,149.600 222.400 C 149.600 221.067,149.778 220.000,150.000 220.000 C 150.229 220.000,150.400 218.800,150.400 217.200 C 150.400 215.600,150.571 214.400,150.800 214.400 C 151.022 214.400,151.200 213.333,151.200 212.000 C 151.200 210.667,151.378 209.600,151.600 209.600 C 151.826 209.600,152.000 208.467,152.000 207.000 C 152.000 205.533,152.174 204.400,152.400 204.400 C 152.622 204.400,152.800 203.333,152.800 202.000 C 152.800 200.667,152.978 199.600,153.200 199.600 C 153.429 199.600,153.600 198.400,153.600 196.800 C 153.600 195.200,153.771 194.000,154.000 194.000 C 154.220 194.000,154.400 193.010,154.400 191.800 C 154.400 190.590,154.580 189.600,154.800 189.600 C 155.029 189.600,155.200 188.400,155.200 186.800 C 155.200 185.200,155.371 184.000,155.600 184.000 C 155.822 184.000,156.000 182.933,156.000 181.600 C 156.000 180.267,156.178 179.200,156.400 179.200 C 156.625 179.200,156.800 178.075,156.800 176.624 C 156.800 175.207,156.980 173.936,157.200 173.800 C 157.420 173.664,157.600 172.573,157.600 171.376 C 157.600 170.179,157.757 169.200,157.949 169.200 C 158.140 169.200,158.427 166.860,158.585 164.000 C 158.743 161.140,159.036 158.800,159.236 158.800 C 159.436 158.800,159.600 157.630,159.600 156.200 C 159.600 154.733,159.774 153.600,160.000 153.600 C 160.222 153.600,160.400 152.533,160.400 151.200 C 160.400 149.867,160.578 148.800,160.800 148.800 C 161.020 148.800,161.200 148.440,161.200 148.000 C 161.200 147.204,161.467 147.200,209.800 147.200 C 258.133 147.200,258.400 147.204,258.400 148.000 " stroke="none" fill="#fcfcfc" fill-rule="evenodd"></path><path id="path1" d="" stroke="none" fill="#ececec" fill-rule="evenodd"></path></g></svg>