<svg id="svg" xmlns="http://www.w3.org/2000/svg" xmlns:xlink="http://www.w3.org/1999/xlink" width="400" height="400" viewBox="0, 0, 400,400" version="1.1"><g id="svgg"><path id="path0" d="M156.000 52.400 C 156.000 52.620,155.738 52.800,155.418 52.800 C 154.634 52.800,152.723 54.752,153.027 55.243 C 153.408 55.861,152.397 56.800,151.351 56.800 C 150.828 56.800,150.400 56.980,150.400 57.200 C 150.400 57.420,150.685 57.600,151.033 57.600 C 151.382 57.600,151.590 57.825,151.496 58.100 C 151.402 58.375,150.937 58.544,150.463 58.475 C 149.817 58.381,149.600 58.558,149.600 59.175 C 149.600 59.629,149.420 60.000,149.200 60.000 C 148.980 60.000,148.800 60.911,148.800 62.024 C 148.800 63.271,148.647 63.952,148.400 63.800 C 148.150 63.646,148.000 64.463,148.000 65.976 C 148.000 67.325,147.823 68.400,147.600 68.400 C 147.372 68.400,147.200 69.589,147.200 71.167 C 147.200 72.688,147.034 73.993,146.832 74.067 C 146.629 74.140,146.334 76.360,146.176 79.000 C 146.018 81.640,145.700 83.921,145.470 84.070 C 145.239 84.218,145.098 85.337,145.155 86.570 C 145.233 88.254,145.122 88.800,144.703 88.800 C 144.272 88.800,144.188 89.341,144.325 91.230 C 144.433 92.727,144.328 93.832,144.050 94.110 C 143.803 94.357,143.600 95.514,143.600 96.680 C 143.600 97.846,143.420 98.800,143.200 98.800 C 142.971 98.800,142.800 100.000,142.800 101.600 C 142.800 103.200,142.629 104.400,142.400 104.400 C 142.178 104.400,142.000 105.467,142.000 106.800 C 142.000 108.133,141.822 109.200,141.600 109.200 C 141.374 109.200,141.200 110.333,141.200 111.800 C 141.200 113.267,141.026 114.400,140.800 114.400 C 140.580 114.400,140.400 114.940,140.400 115.600 L 140.400 116.800 100.233 116.800 C 68.474 116.800,60.024 116.905,59.865 117.300 C 59.704 117.700,59.657 117.700,59.632 117.300 C 59.594 116.711,58.400 116.614,58.400 117.200 C 58.400 117.420,58.117 117.600,57.771 117.600 C 56.885 117.600,55.880 118.710,56.144 119.397 C 56.476 120.264,55.713 120.523,55.225 119.708 C 54.752 118.920,53.811 119.898,53.791 121.200 C 53.785 121.548,53.487 121.750,53.082 121.680 C 51.954 121.488,50.860 122.778,51.736 123.268 C 52.624 123.765,52.231 124.385,51.200 124.116 C 50.305 123.882,50.034 124.986,50.900 125.335 C 51.175 125.446,50.995 125.551,50.500 125.568 C 49.770 125.594,49.600 125.831,49.600 126.824 C 49.600 127.537,49.433 127.944,49.200 127.800 C 48.330 127.262,48.712 136.555,49.600 137.508 C 50.040 137.980,50.400 138.663,50.400 139.026 C 50.400 139.465,50.613 139.604,51.036 139.442 C 51.888 139.114,53.575 140.166,54.794 141.783 C 55.341 142.509,56.002 143.021,56.264 142.920 C 56.525 142.820,56.939 143.112,57.183 143.569 C 57.457 144.081,58.025 144.400,58.661 144.400 C 59.518 144.400,59.655 144.545,59.470 145.252 C 58.944 147.266,57.635 147.200,97.971 147.200 L 135.600 147.200 135.600 148.400 C 135.600 149.060,135.420 149.600,135.200 149.600 C 134.971 149.600,134.800 150.800,134.800 152.400 C 134.800 154.000,134.629 155.200,134.400 155.200 C 134.175 155.200,134.000 156.325,134.000 157.776 C 134.000 159.193,133.820 160.464,133.600 160.600 C 133.380 160.736,133.200 161.816,133.200 163.000 C 133.200 164.184,133.020 165.264,132.800 165.400 C 132.580 165.536,132.400 166.796,132.400 168.200 C 132.400 169.604,132.220 170.864,132.000 171.000 C 131.780 171.136,131.600 172.191,131.600 173.344 C 131.600 174.497,131.435 175.611,131.234 175.820 C 131.032 176.029,130.766 177.280,130.642 178.600 C 130.106 184.297,129.905 185.600,129.563 185.600 C 129.363 185.600,129.200 186.860,129.200 188.400 C 129.200 189.940,129.065 191.200,128.900 191.199 C 128.735 191.199,128.662 192.188,128.737 193.398 C 128.835 194.969,128.721 195.655,128.337 195.802 C 127.944 195.952,127.836 196.702,127.934 198.603 C 128.021 200.286,127.915 201.200,127.634 201.200 C 127.370 201.200,127.200 202.141,127.200 203.600 C 127.200 204.933,127.022 206.000,126.800 206.000 C 126.571 206.000,126.400 207.208,126.400 208.824 C 126.400 210.604,126.252 211.556,126.000 211.400 C 125.750 211.246,125.600 212.063,125.600 213.576 C 125.600 214.925,125.423 216.000,125.200 216.000 C 124.971 216.000,124.800 217.200,124.800 218.800 C 124.800 220.400,124.629 221.600,124.400 221.600 C 124.178 221.600,124.000 222.667,124.000 224.000 C 124.000 225.333,123.822 226.400,123.600 226.400 C 123.375 226.400,123.200 227.525,123.200 228.976 C 123.200 230.393,123.020 231.664,122.800 231.800 C 122.580 231.936,122.400 233.027,122.400 234.224 C 122.400 235.421,122.220 236.400,122.000 236.400 C 121.778 236.400,121.600 237.467,121.600 238.800 L 121.600 241.200 86.088 241.200 C 51.035 241.200,50.569 241.210,50.000 242.000 C 49.683 242.440,49.185 242.800,48.893 242.800 C 48.094 242.800,46.418 244.782,46.668 245.432 C 46.816 245.819,46.599 246.000,45.990 246.000 C 45.082 246.000,43.600 247.347,43.600 248.173 C 43.600 248.421,43.240 248.883,42.800 249.200 C 41.821 249.906,41.552 259.353,42.500 259.735 C 42.900 259.896,42.900 259.943,42.500 259.968 C 41.733 260.017,41.906 260.956,42.800 261.600 C 43.240 261.917,43.600 262.490,43.600 262.873 C 43.600 263.925,45.213 265.250,46.136 264.957 C 46.788 264.750,46.879 264.856,46.684 265.599 C 46.425 266.590,47.908 268.400,48.978 268.400 C 49.317 268.400,49.818 268.760,50.093 269.200 C 50.586 269.990,51.026 270.000,83.696 270.000 L 116.800 270.000 116.800 271.176 C 116.800 271.823,116.620 272.464,116.400 272.600 C 116.180 272.736,116.000 274.017,116.000 275.447 C 116.000 277.079,115.851 277.955,115.600 277.800 C 115.350 277.646,115.200 278.455,115.200 279.953 C 115.200 281.273,115.020 282.464,114.800 282.600 C 114.580 282.736,114.400 284.007,114.400 285.424 C 114.400 286.875,114.225 288.000,114.000 288.000 C 113.778 288.000,113.600 289.059,113.600 290.376 C 113.600 291.683,113.420 292.864,113.200 293.000 C 112.980 293.136,112.800 294.317,112.800 295.624 C 112.800 296.931,112.665 298.000,112.500 297.999 C 112.335 297.999,112.263 299.012,112.340 300.251 C 112.434 301.771,112.315 302.605,111.972 302.817 C 111.628 303.030,111.495 303.979,111.560 305.766 C 111.631 307.728,111.521 308.400,111.128 308.400 C 110.741 308.400,110.638 308.946,110.741 310.439 C 110.821 311.586,110.689 312.671,110.441 312.919 C 110.199 313.161,110.000 314.494,110.000 315.880 C 110.000 317.293,109.824 318.400,109.600 318.400 C 109.378 318.400,109.200 319.467,109.200 320.800 C 109.200 322.133,109.022 323.200,108.800 323.200 C 108.574 323.200,108.400 324.333,108.400 325.800 C 108.400 327.267,108.226 328.400,108.000 328.400 C 107.763 328.400,107.600 329.867,107.600 332.000 C 107.600 334.133,107.763 335.600,108.000 335.600 C 108.220 335.600,108.400 335.941,108.400 336.357 C 108.400 337.081,109.405 337.818,110.155 337.645 C 110.812 337.494,112.400 339.331,112.400 340.243 C 112.400 341.272,113.820 341.940,114.520 341.240 C 115.219 340.541,115.677 340.728,115.400 341.600 C 115.174 342.310,115.328 342.400,116.773 342.400 C 117.668 342.400,118.400 342.580,118.400 342.800 C 118.400 343.035,119.800 343.200,121.800 343.200 C 123.800 343.200,125.200 343.035,125.200 342.800 C 125.200 342.580,125.469 342.400,125.797 342.400 C 126.598 342.400,128.431 340.774,128.147 340.315 C 127.763 339.693,129.267 338.367,130.067 338.621 C 130.565 338.779,130.800 338.653,130.800 338.227 C 130.800 337.882,130.530 337.600,130.200 337.600 C 129.870 337.600,129.600 337.400,129.600 337.157 C 129.600 336.883,129.984 336.810,130.600 336.964 C 131.419 337.170,131.600 337.069,131.600 336.408 C 131.600 335.963,131.780 335.600,132.000 335.600 C 132.220 335.600,132.400 334.711,132.400 333.624 C 132.400 332.537,132.580 331.536,132.800 331.400 C 133.020 331.264,133.200 330.173,133.200 328.976 C 133.200 327.779,133.380 326.800,133.600 326.800 C 133.826 326.800,134.000 325.667,134.000 324.200 C 134.000 322.733,134.174 321.600,134.400 321.600 C 134.622 321.600,134.800 320.533,134.800 319.200 C 134.800 317.867,134.978 316.800,135.200 316.800 C 135.429 316.800,135.600 315.600,135.600 314.000 C 135.600 312.400,135.771 311.200,136.000 311.200 C 136.223 311.200,136.400 310.125,136.400 308.776 C 136.400 307.263,136.550 306.446,136.800 306.600 C 137.052 306.756,137.200 305.804,137.200 304.024 C 137.200 302.408,137.371 301.200,137.600 301.200 C 137.822 301.200,138.000 300.133,138.000 298.800 C 138.000 297.480,138.165 296.400,138.367 296.400 C 138.569 296.400,138.834 295.185,138.955 293.700 C 139.367 288.678,139.673 286.400,139.937 286.401 C 140.082 286.401,140.140 285.141,140.067 283.601 C 139.963 281.407,140.055 280.800,140.493 280.800 C 140.928 280.800,141.013 280.270,140.877 278.400 C 140.761 276.792,140.852 276.000,141.152 276.000 C 141.433 276.000,141.600 275.098,141.600 273.571 C 141.600 269.625,136.441 270.000,190.771 270.000 L 238.800 270.000 238.800 272.400 C 238.800 273.733,238.622 274.800,238.400 274.800 C 238.180 274.800,238.000 275.790,238.000 277.000 C 238.000 278.210,237.820 279.200,237.600 279.200 C 237.378 279.200,237.200 280.267,237.200 281.600 C 237.200 282.933,237.022 284.000,236.800 284.000 C 236.571 284.000,236.400 285.200,236.400 286.800 C 236.400 288.400,236.229 289.600,236.000 289.600 C 235.780 289.600,235.600 290.579,235.600 291.776 C 235.600 292.973,235.420 294.064,235.200 294.200 C 234.980 294.336,234.800 295.607,234.800 297.024 C 234.800 298.475,234.625 299.600,234.400 299.600 C 234.178 299.600,234.000 300.667,234.000 302.000 C 234.000 303.333,233.822 304.400,233.600 304.400 C 233.371 304.400,233.200 305.600,233.200 307.200 C 233.200 308.800,233.029 310.000,232.800 310.000 C 232.580 310.000,232.400 310.979,232.400 312.176 C 232.400 313.373,232.220 314.464,232.000 314.600 C 231.780 314.736,231.600 315.827,231.600 317.024 C 231.600 318.221,231.420 319.200,231.200 319.200 C 230.972 319.200,230.800 320.392,230.800 321.976 C 230.800 323.503,230.620 324.864,230.400 325.000 C 230.180 325.136,230.000 326.126,230.000 327.200 C 230.000 328.274,229.820 329.264,229.600 329.400 C 228.587 330.026,229.138 334.102,230.200 333.836 C 231.264 333.569,231.630 334.260,230.627 334.645 C 229.605 335.037,230.037 336.282,231.124 336.074 C 231.958 335.915,232.052 336.006,231.817 336.745 C 231.626 337.349,231.716 337.600,232.124 337.600 C 233.171 337.600,233.873 338.816,233.081 339.259 C 232.706 339.468,232.400 339.841,232.400 340.087 C 232.400 340.332,232.505 340.428,232.633 340.300 C 232.762 340.172,233.224 340.424,233.660 340.860 C 234.310 341.510,234.563 341.563,235.057 341.152 C 235.743 340.584,236.383 341.229,236.394 342.500 C 236.398 343.010,236.726 343.200,237.600 343.200 C 238.260 343.200,238.800 343.380,238.800 343.600 C 238.800 343.822,239.867 344.000,241.200 344.000 C 242.533 344.000,243.600 344.178,243.600 344.400 C 243.600 344.620,244.590 344.800,245.800 344.800 C 247.010 344.800,248.000 344.620,248.000 344.400 C 248.000 344.180,248.540 344.000,249.200 344.000 C 249.860 344.000,250.400 343.820,250.400 343.600 C 250.400 343.380,250.781 343.200,251.247 343.200 C 251.884 343.200,252.044 343.011,251.893 342.434 C 251.637 341.454,254.071 338.988,254.959 339.329 C 256.000 339.729,257.534 337.360,257.310 335.698 C 257.190 334.808,257.308 334.180,257.635 333.979 C 257.976 333.768,258.114 332.912,258.045 331.430 C 257.981 330.045,258.105 329.200,258.371 329.200 C 258.636 329.200,258.800 328.119,258.800 326.376 C 258.800 324.596,258.948 323.644,259.200 323.800 C 259.450 323.954,259.600 323.137,259.600 321.624 C 259.600 320.275,259.777 319.200,260.000 319.200 C 260.229 319.200,260.400 318.000,260.400 316.400 C 260.400 314.800,260.571 313.600,260.800 313.600 C 261.022 313.600,261.200 312.533,261.200 311.200 C 261.200 309.867,261.378 308.800,261.600 308.800 C 261.825 308.800,262.000 307.675,262.000 306.224 C 262.000 304.807,262.180 303.536,262.400 303.400 C 262.620 303.264,262.800 302.173,262.800 300.976 C 262.800 299.779,262.980 298.800,263.200 298.800 C 263.422 298.800,263.600 297.733,263.600 296.400 C 263.600 295.067,263.778 294.000,264.000 294.000 C 264.226 294.000,264.400 292.867,264.400 291.400 C 264.400 289.933,264.574 288.800,264.800 288.800 C 265.022 288.800,265.200 287.733,265.200 286.400 C 265.200 285.067,265.378 284.000,265.600 284.000 C 265.829 284.000,266.000 282.800,266.000 281.200 C 266.000 279.600,266.171 278.400,266.400 278.400 C 266.620 278.400,266.800 277.421,266.800 276.224 C 266.800 275.027,266.980 273.936,267.200 273.800 C 267.420 273.664,267.600 272.753,267.600 271.776 L 267.600 270.000 303.624 270.000 C 327.537 270.000,339.564 269.866,339.400 269.600 C 339.256 269.367,339.663 269.200,340.376 269.200 C 341.049 269.200,341.600 269.020,341.600 268.800 C 341.600 268.580,341.878 268.400,342.218 268.400 C 343.115 268.400,344.855 266.521,344.718 265.701 C 344.637 265.223,344.840 265.021,345.354 265.065 C 346.238 265.140,348.000 263.511,348.000 262.618 C 348.000 262.278,348.180 262.000,348.400 262.000 C 348.620 262.000,348.800 261.460,348.800 260.800 C 348.800 260.140,348.935 259.599,349.100 259.597 C 349.265 259.595,349.625 259.109,349.900 258.517 C 350.495 257.236,350.573 252.800,350.000 252.800 C 349.780 252.800,349.600 252.120,349.600 251.288 C 349.600 250.235,349.357 249.602,348.800 249.200 C 348.360 248.883,348.000 248.385,348.000 248.094 C 348.000 247.110,346.152 245.635,345.223 245.878 C 344.464 246.077,344.390 245.981,344.613 245.090 C 344.815 244.288,344.693 244.020,344.034 243.811 C 343.575 243.665,343.200 243.378,343.200 243.173 C 343.200 242.968,342.840 242.800,342.400 242.800 C 341.960 242.800,341.600 242.620,341.600 242.400 C 341.600 242.180,341.150 242.000,340.600 242.000 C 340.050 242.000,339.600 241.820,339.600 241.600 C 339.600 241.337,328.133 241.200,306.000 241.200 L 272.400 241.200 272.400 240.067 C 272.400 239.443,272.521 238.812,272.670 238.664 C 272.818 238.516,272.894 237.290,272.839 235.940 C 272.772 234.301,272.906 233.381,273.244 233.173 C 273.575 232.968,273.713 232.093,273.645 230.630 C 273.567 228.933,273.676 228.400,274.104 228.400 C 274.540 228.400,274.625 227.909,274.483 226.200 C 274.361 224.730,274.450 224.000,274.750 224.000 C 275.040 224.000,275.200 223.006,275.200 221.200 C 275.200 219.600,275.371 218.400,275.600 218.400 C 275.822 218.400,276.000 217.333,276.000 216.000 C 276.000 214.667,276.178 213.600,276.400 213.600 C 276.629 213.600,276.800 212.392,276.800 210.776 C 276.800 208.996,276.948 208.044,277.200 208.200 C 277.450 208.354,277.600 207.537,277.600 206.024 C 277.600 204.675,277.777 203.600,278.000 203.600 C 278.229 203.600,278.400 202.400,278.400 200.800 C 278.400 199.200,278.571 198.000,278.800 198.000 C 279.022 198.000,279.200 196.933,279.200 195.600 C 279.200 194.267,279.378 193.200,279.600 193.200 C 279.820 193.200,280.000 192.210,280.000 191.000 C 280.000 189.790,280.180 188.800,280.400 188.800 C 280.628 188.800,280.800 187.608,280.800 186.024 C 280.800 184.497,280.980 183.136,281.200 183.000 C 281.420 182.864,281.600 181.773,281.600 180.576 C 281.600 179.379,281.780 178.400,282.000 178.400 C 282.225 178.400,282.400 177.275,282.400 175.824 C 282.400 174.407,282.580 173.136,282.800 173.000 C 283.020 172.864,283.200 171.784,283.200 170.600 C 283.200 169.416,283.380 168.336,283.600 168.200 C 283.820 168.064,284.000 166.793,284.000 165.376 C 284.000 163.925,284.175 162.800,284.400 162.800 C 284.620 162.800,284.800 161.821,284.800 160.624 C 284.800 159.427,284.980 158.336,285.200 158.200 C 285.420 158.064,285.600 156.984,285.600 155.800 C 285.600 154.616,285.780 153.536,286.000 153.400 C 286.220 153.264,286.400 152.015,286.400 150.625 C 286.400 146.934,284.264 147.213,312.735 147.194 C 328.817 147.184,338.000 147.036,338.000 146.789 C 338.000 146.575,338.283 146.400,338.629 146.400 C 339.626 146.400,340.372 145.394,340.147 144.352 C 339.950 143.444,339.969 143.435,340.550 144.149 C 341.239 144.995,342.400 144.292,342.400 143.029 C 342.400 142.683,342.683 142.400,343.029 142.400 C 344.239 142.400,345.005 141.238,344.188 140.641 C 343.727 140.304,343.631 140.028,343.912 139.855 C 344.150 139.707,344.458 139.770,344.596 139.993 C 344.734 140.217,345.017 140.400,345.224 140.400 C 345.784 140.400,345.679 138.903,345.100 138.637 C 344.825 138.511,345.005 138.508,345.500 138.631 C 346.283 138.825,346.400 138.698,346.400 137.651 C 346.400 136.989,346.580 136.336,346.800 136.200 C 347.640 135.681,347.290 127.441,346.400 126.800 C 345.960 126.483,345.600 125.903,345.600 125.512 C 345.600 125.029,345.294 124.800,344.650 124.800 C 344.050 124.800,343.059 124.138,341.956 123.000 C 340.997 122.010,339.979 121.200,339.693 121.200 C 339.408 121.200,339.071 120.930,338.945 120.600 C 338.818 120.270,338.294 120.000,337.781 120.000 C 336.625 120.000,336.176 119.352,336.805 118.594 C 338.240 116.864,337.416 116.800,313.829 116.800 L 291.600 116.800 291.600 114.800 C 291.600 113.700,291.780 112.800,292.000 112.800 C 292.223 112.800,292.400 111.725,292.400 110.376 C 292.400 108.863,292.550 108.046,292.800 108.200 C 293.052 108.356,293.200 107.404,293.200 105.624 C 293.200 104.008,293.371 102.800,293.600 102.800 C 293.822 102.800,294.000 101.733,294.000 100.400 C 294.000 99.067,294.178 98.000,294.400 98.000 C 294.629 98.000,294.800 96.800,294.800 95.200 C 294.800 93.600,294.971 92.400,295.200 92.400 C 295.420 92.400,295.600 91.410,295.600 90.200 C 295.600 88.990,295.780 88.000,296.000 88.000 C 296.222 88.000,296.400 86.933,296.400 85.600 C 296.400 84.267,296.578 83.200,296.800 83.200 C 297.029 83.200,297.200 82.000,297.200 80.400 C 297.200 78.800,297.371 77.600,297.600 77.600 C 297.820 77.600,298.000 76.621,298.000 75.424 C 298.000 74.227,298.180 73.136,298.400 73.000 C 299.412 72.374,298.862 68.369,297.800 68.636 C 297.184 68.790,296.800 68.717,296.800 68.443 C 296.800 68.200,297.070 68.000,297.400 68.000 C 297.733 68.000,298.000 67.644,298.000 67.200 C 298.000 66.613,297.733 66.400,297.000 66.400 C 295.908 66.400,295.734 66.026,296.480 65.280 C 296.853 64.907,296.775 64.800,296.129 64.800 C 294.786 64.800,294.112 63.699,295.040 63.020 C 295.775 62.483,295.769 62.440,294.838 61.633 C 293.734 60.675,293.334 60.598,293.101 61.296 C 292.830 62.111,291.600 60.721,291.600 59.600 C 291.600 59.380,291.161 59.200,290.624 59.200 C 290.087 59.200,289.536 59.020,289.400 58.800 C 289.264 58.580,288.173 58.400,286.976 58.400 C 285.779 58.400,284.800 58.220,284.800 58.000 C 284.800 57.771,283.600 57.600,282.000 57.600 C 280.400 57.600,279.200 57.771,279.200 58.000 C 279.200 58.220,278.857 58.400,278.437 58.400 C 277.864 58.400,277.716 58.623,277.842 59.300 C 277.934 59.795,277.902 59.975,277.771 59.700 C 277.415 58.951,276.401 59.098,276.394 59.900 C 276.384 61.003,274.129 63.335,273.359 63.040 C 272.299 62.633,270.897 64.604,270.870 66.540 C 270.858 67.444,270.657 68.248,270.424 68.325 C 270.189 68.404,270.000 69.523,270.000 70.833 C 270.000 72.144,269.822 73.200,269.600 73.200 C 269.375 73.200,269.200 74.325,269.200 75.776 C 269.200 77.193,269.020 78.464,268.800 78.600 C 268.580 78.736,268.400 79.816,268.400 81.000 C 268.400 82.184,268.220 83.264,268.000 83.400 C 267.780 83.536,267.600 84.807,267.600 86.224 C 267.600 87.675,267.425 88.800,267.200 88.800 C 266.978 88.800,266.800 89.867,266.800 91.200 C 266.800 92.533,266.622 93.600,266.400 93.600 C 266.175 93.600,266.000 94.725,266.000 96.176 C 266.000 97.593,265.820 98.864,265.600 99.000 C 265.380 99.136,265.200 100.227,265.200 101.424 C 265.200 102.621,265.020 103.600,264.800 103.600 C 264.578 103.600,264.400 104.659,264.400 105.976 C 264.400 107.283,264.220 108.464,264.000 108.600 C 263.780 108.736,263.600 109.906,263.600 111.200 C 263.600 112.494,263.420 113.664,263.200 113.800 C 262.980 113.936,262.800 114.667,262.800 115.424 L 262.800 116.800 214.400 116.800 L 166.000 116.800 166.000 114.800 C 166.000 113.700,166.180 112.800,166.400 112.800 C 166.625 112.800,166.800 111.675,166.800 110.224 C 166.800 108.807,166.980 107.536,167.200 107.400 C 167.420 107.264,167.600 106.173,167.600 104.976 C 167.600 103.779,167.780 102.800,168.000 102.800 C 168.228 102.800,168.400 101.608,168.400 100.024 C 168.400 98.497,168.580 97.136,168.800 97.000 C 169.020 96.864,169.200 95.773,169.200 94.576 C 169.200 93.379,169.380 92.400,169.600 92.400 C 169.825 92.400,170.000 91.275,170.000 89.824 C 170.000 88.407,170.180 87.136,170.400 87.000 C 170.620 86.864,170.800 85.773,170.800 84.576 C 170.800 83.379,170.980 82.400,171.200 82.400 C 171.428 82.400,171.600 81.208,171.600 79.624 C 171.600 78.097,171.780 76.736,172.000 76.600 C 172.220 76.464,172.400 75.493,172.400 74.443 C 172.400 73.393,172.521 72.412,172.670 72.264 C 172.818 72.116,172.894 70.890,172.839 69.540 C 172.776 68.001,172.913 66.978,173.205 66.797 C 173.918 66.356,173.963 60.000,173.253 60.000 C 172.919 60.000,172.782 59.714,172.900 59.263 C 173.097 58.508,172.096 57.600,171.067 57.600 C 170.286 57.600,168.734 56.160,168.838 55.532 C 168.994 54.591,168.336 53.600,167.557 53.600 C 167.141 53.600,166.800 53.780,166.800 54.000 C 166.800 54.220,166.550 54.400,166.244 54.400 C 165.939 54.400,165.714 54.085,165.744 53.700 C 165.787 53.167,165.441 52.970,164.300 52.876 C 163.475 52.808,162.800 52.583,162.800 52.376 C 162.800 52.169,161.270 52.000,159.400 52.000 C 157.400 52.000,156.000 52.165,156.000 52.400 M258.400 148.000 C 258.400 148.440,258.220 148.800,258.000 148.800 C 257.778 148.800,257.600 149.867,257.600 151.200 C 257.600 152.533,257.422 153.600,257.200 153.600 C 256.971 153.600,256.800 154.800,256.800 156.400 C 256.800 158.000,256.629 159.200,256.400 159.200 C 256.180 159.200,256.000 160.190,256.000 161.400 C 256.000 162.610,255.820 163.600,255.600 163.600 C 255.371 163.600,255.200 164.800,255.200 166.400 C 255.200 168.000,255.029 169.200,254.800 169.200 C 254.578 169.200,254.400 170.267,254.400 171.600 C 254.400 172.933,254.222 174.000,254.000 174.000 C 253.780 174.000,253.600 174.979,253.600 176.176 C 253.600 177.373,253.420 178.464,253.200 178.600 C 252.980 178.736,252.800 180.007,252.800 181.424 C 252.800 182.875,252.625 184.000,252.400 184.000 C 252.178 184.000,252.000 185.067,252.000 186.400 C 252.000 187.733,251.822 188.800,251.600 188.800 C 251.375 188.800,251.200 189.925,251.200 191.376 C 251.200 192.793,251.020 194.064,250.800 194.200 C 250.580 194.336,250.400 195.416,250.400 196.600 C 250.400 197.784,250.220 198.864,250.000 199.000 C 249.780 199.136,249.600 200.396,249.600 201.800 C 249.600 203.204,249.420 204.464,249.200 204.600 C 248.980 204.736,248.800 205.827,248.800 207.024 C 248.800 208.221,248.620 209.200,248.400 209.200 C 248.180 209.200,248.000 210.179,248.000 211.376 C 248.000 212.573,247.820 213.664,247.600 213.800 C 247.380 213.936,247.200 215.207,247.200 216.624 C 247.200 218.075,247.025 219.200,246.800 219.200 C 246.578 219.200,246.400 220.267,246.400 221.600 C 246.400 222.920,246.256 224.000,246.081 224.000 C 245.906 224.000,245.836 225.168,245.927 226.595 C 246.051 228.537,245.955 229.242,245.546 229.399 C 245.156 229.549,245.040 230.191,245.142 231.655 C 245.236 233.014,245.113 233.807,244.774 234.016 C 244.427 234.230,244.295 235.174,244.360 236.966 C 244.420 238.628,244.297 239.600,244.028 239.600 C 243.792 239.600,243.600 239.960,243.600 240.400 C 243.600 241.196,243.333 241.200,195.000 241.200 C 162.867 241.200,146.400 241.064,146.400 240.800 C 146.400 240.580,146.580 240.400,146.800 240.400 C 147.029 240.400,147.200 239.200,147.200 237.600 C 147.200 236.000,147.371 234.800,147.600 234.800 C 147.822 234.800,148.000 233.733,148.000 232.400 C 148.000 231.067,148.178 230.000,148.400 230.000 C 148.625 230.000,148.800 228.875,148.800 227.424 C 148.800 226.007,148.980 224.736,149.200 224.600 C 149.420 224.464,149.600 223.373,149.600 222.176 C 149.600 220.979,149.780 220.000,150.000 220.000 C 150.229 220.000,150.400 218.800,150.400 217.200 C 150.400 215.600,150.571 214.400,150.800 214.400 C 151.022 214.400,151.200 213.333,151.200 212.000 C 151.200 210.667,151.378 209.600,151.600 209.600 C 151.829 209.600,152.000 208.392,152.000 206.776 C 152.000 204.996,152.148 204.044,152.400 204.200 C 152.650 204.354,152.800 203.537,152.800 202.024 C 152.800 200.675,152.977 199.600,153.200 199.600 C 153.429 199.600,153.600 198.400,153.600 196.800 C 153.600 195.200,153.771 194.000,154.000 194.000 C 154.220 194.000,154.400 193.021,154.400 191.824 C 154.400 190.627,154.580 189.536,154.800 189.400 C 155.020 189.264,155.200 187.993,155.200 186.576 C 155.200 185.125,155.375 184.000,155.600 184.000 C 155.822 184.000,156.000 182.933,156.000 181.600 C 156.000 180.280,156.146 179.200,156.326 179.200 C 156.505 179.200,156.572 178.107,156.475 176.770 C 156.367 175.273,156.472 174.168,156.750 173.890 C 156.997 173.643,157.200 172.486,157.200 171.320 C 157.200 169.862,157.360 169.200,157.713 169.200 C 158.097 169.200,158.186 168.494,158.068 166.400 C 157.961 164.516,158.055 163.600,158.355 163.600 C 158.632 163.600,158.800 162.696,158.800 161.200 C 158.800 159.867,158.978 158.800,159.200 158.800 C 159.426 158.800,159.600 157.667,159.600 156.200 C 159.600 154.733,159.774 153.600,160.000 153.600 C 160.222 153.600,160.400 152.533,160.400 151.200 C 160.400 149.867,160.578 148.800,160.800 148.800 C 161.020 148.800,161.200 148.440,161.200 148.000 C 161.200 147.204,161.467 147.200,209.800 147.200 C 258.133 147.200,258.400 147.204,258.400 148.000 " stroke="none" fill="#1ca4f3" fill-rule="evenodd"></path><path id="path1" d="M151.660 55.842 C 151.362 56.178,151.236 56.569,151.379 56.712 C 151.699 57.033,152.896 56.313,153.110 55.671 C 153.335 54.996,152.300 55.118,151.660 55.842 M168.800 55.653 C 168.800 56.247,170.372 57.600,171.061 57.600 C 171.829 57.600,171.735 57.299,170.618 56.182 C 169.572 55.135,168.800 54.911,168.800 55.653 M150.477 58.030 C 150.556 58.267,150.791 58.460,151.000 58.460 C 151.209 58.460,151.445 58.267,151.523 58.030 C 151.602 57.794,151.367 57.600,151.000 57.600 C 150.633 57.600,150.398 57.794,150.477 58.030 M274.800 60.512 C 274.800 60.793,274.440 61.283,274.000 61.600 C 273.136 62.223,272.921 63.200,273.647 63.200 C 274.120 63.200,276.383 60.811,276.394 60.300 C 276.397 60.135,276.040 60.000,275.600 60.000 C 275.160 60.000,274.800 60.230,274.800 60.512 M291.828 60.305 C 291.724 60.410,291.900 60.757,292.219 61.076 C 292.727 61.584,292.874 61.584,293.385 61.072 C 293.898 60.559,293.850 60.465,292.994 60.301 C 292.458 60.198,291.933 60.200,291.828 60.305 M173.734 63.200 C 173.734 64.850,173.805 65.525,173.891 64.700 C 173.978 63.875,173.978 62.525,173.891 61.700 C 173.805 60.875,173.734 61.550,173.734 63.200 M294.826 63.176 C 294.048 63.668,294.957 64.800,296.129 64.800 C 296.775 64.800,296.853 64.907,296.480 65.280 C 295.734 66.026,295.908 66.400,297.003 66.400 C 297.964 66.400,297.840 65.333,296.771 64.400 C 296.645 64.290,296.425 63.885,296.283 63.500 C 295.994 62.716,295.667 62.643,294.826 63.176 M172.928 69.200 C 172.928 70.630,173.001 71.215,173.089 70.500 C 173.178 69.785,173.178 68.615,173.089 67.900 C 173.001 67.185,172.928 67.770,172.928 69.200 M296.800 68.400 C 296.800 68.620,297.070 68.800,297.400 68.800 C 297.730 68.800,298.000 68.620,298.000 68.400 C 298.000 68.180,297.730 68.000,297.400 68.000 C 297.070 68.000,296.800 68.180,296.800 68.400 M145.731 81.400 C 145.733 82.940,145.805 83.521,145.892 82.691 C 145.979 81.861,145.977 80.601,145.889 79.891 C 145.800 79.181,145.729 79.860,145.731 81.400 M144.920 86.800 C 144.920 88.010,144.995 88.505,145.087 87.900 C 145.178 87.295,145.178 86.305,145.087 85.700 C 144.995 85.095,144.920 85.590,144.920 86.800 M143.994 91.882 C 143.887 93.246,143.945 94.217,144.123 94.039 C 144.300 93.860,144.388 92.744,144.317 91.557 L 144.189 89.400 143.994 91.882 M336.600 118.800 C 336.208 119.434,336.765 120.000,337.781 120.000 C 338.294 120.000,338.818 120.270,338.945 120.600 C 339.071 120.930,339.408 121.200,339.693 121.200 C 339.979 121.200,340.997 122.010,341.956 123.000 C 342.916 123.990,343.948 124.800,344.250 124.800 C 345.039 124.800,344.928 124.269,344.000 123.600 C 343.560 123.283,343.200 122.703,343.200 122.312 C 343.200 121.875,342.901 121.600,342.427 121.600 C 342.002 121.600,341.540 121.240,341.400 120.800 C 341.260 120.360,340.819 120.000,340.420 120.000 C 340.020 120.000,339.599 119.640,339.484 119.200 C 339.258 118.337,337.074 118.034,336.600 118.800 M55.260 119.580 C 55.432 120.096,55.981 120.188,56.030 119.710 C 56.047 119.551,55.844 119.348,55.580 119.260 C 55.316 119.172,55.172 119.316,55.260 119.580 M52.860 121.180 C 53.032 121.696,53.581 121.788,53.630 121.310 C 53.647 121.151,53.444 120.948,53.180 120.860 C 52.916 120.772,52.772 120.916,52.860 121.180 M51.260 123.580 C 51.348 123.844,51.550 124.046,51.710 124.030 C 52.188 123.981,52.096 123.432,51.580 123.260 C 51.316 123.172,51.172 123.316,51.260 123.580 M51.200 139.712 C 51.200 139.993,51.560 140.483,52.000 140.800 C 52.440 141.117,52.800 141.607,52.800 141.888 C 52.800 142.170,53.120 142.400,53.512 142.400 C 53.903 142.400,54.483 142.760,54.800 143.200 C 55.117 143.640,55.697 144.000,56.088 144.000 C 56.533 144.000,56.800 144.300,56.800 144.800 C 56.800 145.448,57.067 145.600,58.200 145.600 C 59.178 145.600,59.600 145.419,59.600 145.000 C 59.600 144.629,59.224 144.400,58.614 144.400 C 58.025 144.400,57.449 144.065,57.183 143.569 C 56.939 143.112,56.525 142.820,56.264 142.920 C 56.002 143.021,55.341 142.509,54.794 141.783 C 53.366 139.888,51.200 138.639,51.200 139.712 M343.839 139.938 C 343.700 140.161,343.782 140.465,344.020 140.612 C 344.635 140.993,345.032 140.472,344.518 139.958 C 344.231 139.671,344.007 139.664,343.839 139.938 M158.128 166.000 C 158.128 167.430,158.201 168.015,158.289 167.300 C 158.378 166.585,158.378 165.415,158.289 164.700 C 158.201 163.985,158.128 164.570,158.128 166.000 M157.272 171.276 C 157.232 172.528,157.020 173.664,156.800 173.800 C 156.580 173.936,156.432 175.072,156.472 176.324 L 156.544 178.600 156.681 176.600 C 156.756 175.500,157.004 174.231,157.234 173.779 C 157.463 173.328,157.581 172.068,157.497 170.979 L 157.344 169.000 157.272 171.276 M128.394 193.681 C 128.287 194.936,128.346 195.816,128.524 195.637 C 128.703 195.458,128.790 194.431,128.718 193.356 L 128.587 191.400 128.394 193.681 M127.728 198.800 C 127.728 200.230,127.801 200.815,127.889 200.100 C 127.978 199.385,127.978 198.215,127.889 197.500 C 127.801 196.785,127.728 197.370,127.728 198.800 M274.514 225.800 C 274.517 226.900,274.595 227.303,274.687 226.695 C 274.779 226.086,274.777 225.186,274.682 224.695 C 274.587 224.203,274.511 224.700,274.514 225.800 M245.672 226.867 C 245.628 228.246,245.404 229.212,245.100 229.335 C 244.708 229.493,244.711 229.544,245.113 229.568 C 245.850 229.614,246.069 228.770,245.896 226.549 L 245.744 224.600 245.672 226.867 M273.720 230.400 C 273.720 231.610,273.795 232.105,273.887 231.500 C 273.978 230.895,273.978 229.905,273.887 229.300 C 273.795 228.695,273.720 229.190,273.720 230.400 M244.920 232.000 C 244.920 233.210,244.995 233.705,245.087 233.100 C 245.178 232.495,245.178 231.505,245.087 230.900 C 244.995 230.295,244.920 230.790,244.920 232.000 M272.928 235.600 C 272.928 237.030,273.001 237.615,273.089 236.900 C 273.178 236.185,273.178 235.015,273.089 234.300 C 273.001 233.585,272.928 234.170,272.928 235.600 M244.128 237.200 C 244.128 238.630,244.201 239.215,244.289 238.500 C 244.378 237.785,244.378 236.615,244.289 235.900 C 244.201 235.185,244.128 235.770,244.128 237.200 M45.881 245.013 C 45.185 245.969,45.187 246.000,45.931 246.000 C 46.485 246.000,46.700 245.720,46.700 245.000 C 46.700 244.450,46.678 244.006,46.650 244.013 C 46.623 244.019,46.277 244.469,45.881 245.013 M344.667 245.067 C 344.206 245.527,344.375 246.000,345.000 246.000 C 345.330 246.000,345.600 245.730,345.600 245.400 C 345.600 244.775,345.127 244.606,344.667 245.067 M45.867 265.067 C 45.406 265.527,45.575 266.000,46.200 266.000 C 46.530 266.000,46.800 265.730,46.800 265.400 C 46.800 264.775,46.327 264.606,45.867 265.067 M344.678 265.056 C 344.358 265.375,344.719 266.000,345.224 266.000 C 345.431 266.000,345.600 265.730,345.600 265.400 C 345.600 264.781,345.128 264.605,344.678 265.056 M140.920 278.000 C 140.920 279.210,140.995 279.705,141.087 279.100 C 141.178 278.495,141.178 277.505,141.087 276.900 C 140.995 276.295,140.920 276.790,140.920 278.000 M140.131 283.400 C 140.133 284.940,140.205 285.521,140.292 284.691 C 140.379 283.861,140.377 282.601,140.289 281.891 C 140.200 281.181,140.129 281.860,140.131 283.400 M112.124 300.600 C 112.126 301.920,112.201 302.412,112.290 301.693 C 112.379 300.974,112.377 299.894,112.286 299.293 C 112.195 298.692,112.122 299.280,112.124 300.600 M111.328 306.000 C 111.328 307.430,111.401 308.015,111.489 307.300 C 111.578 306.585,111.578 305.415,111.489 304.700 C 111.401 303.985,111.328 304.570,111.328 306.000 M110.394 310.881 C 110.287 312.136,110.346 313.016,110.524 312.837 C 110.703 312.658,110.790 311.631,110.718 310.556 L 110.587 308.600 110.394 310.881 M258.120 331.200 C 258.120 332.410,258.195 332.905,258.287 332.300 C 258.378 331.695,258.378 330.705,258.287 330.100 C 258.195 329.495,258.120 329.990,258.120 331.200 M230.184 334.027 C 230.039 334.261,230.016 334.549,230.133 334.667 C 230.420 334.953,231.200 334.448,231.200 333.976 C 231.200 333.465,230.509 333.499,230.184 334.027 M230.529 336.763 C 230.779 337.333,231.091 337.890,231.221 338.000 C 231.352 338.110,231.575 338.515,231.717 338.900 C 232.006 339.684,232.333 339.757,233.174 339.224 C 233.865 338.787,233.097 337.600,232.124 337.600 C 231.741 337.600,231.626 337.347,231.785 336.849 C 231.965 336.279,231.788 336.053,231.049 335.911 C 230.134 335.737,230.102 335.789,230.529 336.763 M129.600 337.200 C 129.600 337.420,129.870 337.600,130.200 337.600 C 130.530 337.600,130.800 337.420,130.800 337.200 C 130.800 336.980,130.530 336.800,130.200 336.800 C 129.870 336.800,129.600 336.980,129.600 337.200 M110.000 338.184 C 110.000 339.129,112.167 340.973,112.336 340.172 C 112.471 339.534,110.964 337.600,110.330 337.600 C 110.149 337.600,110.000 337.863,110.000 338.184 M128.662 339.131 C 127.897 339.977,127.819 340.400,128.429 340.400 C 128.982 340.400,130.000 339.382,130.000 338.829 C 130.000 338.179,129.401 338.314,128.662 339.131 M252.812 340.587 C 251.663 341.773,251.566 342.012,252.145 342.234 C 252.831 342.497,255.200 340.457,255.200 339.604 C 255.200 338.791,254.123 339.235,252.812 340.587 M235.086 341.048 C 234.950 341.184,235.108 341.565,235.438 341.895 C 236.149 342.606,236.521 342.382,236.167 341.457 C 235.904 340.773,235.510 340.624,235.086 341.048 " stroke="none" fill="#1c8ed9" fill-rule="evenodd"></path></g></svg>