<svg id="svg" xmlns="http://www.w3.org/2000/svg" xmlns:xlink="http://www.w3.org/1999/xlink" width="400" height="400" viewBox="0, 0, 400,400" version="1.1"><g id="svgg"><path id="path0" d="M154.800 53.600 C 154.483 54.040,153.985 54.400,153.694 54.400 C 152.693 54.400,150.400 57.320,150.400 58.595 C 150.400 58.928,150.220 59.200,150.000 59.200 C 149.774 59.200,149.600 60.333,149.600 61.800 C 149.600 63.267,149.426 64.400,149.200 64.400 C 148.978 64.400,148.800 65.467,148.800 66.800 C 148.800 68.133,148.622 69.200,148.400 69.200 C 148.171 69.200,148.000 70.400,148.000 72.000 C 148.000 73.600,147.829 74.800,147.600 74.800 C 147.380 74.800,147.200 75.779,147.200 76.976 C 147.200 78.173,147.020 79.264,146.800 79.400 C 146.580 79.536,146.400 80.771,146.400 82.144 C 146.400 83.517,146.236 84.811,146.035 85.020 C 145.835 85.229,145.565 86.435,145.435 87.700 C 145.306 88.965,145.092 91.035,144.960 92.300 C 144.829 93.565,144.572 94.782,144.390 95.005 C 144.208 95.228,143.930 97.613,143.773 100.305 C 143.616 102.997,143.332 105.200,143.143 105.200 C 142.955 105.200,142.800 106.280,142.800 107.600 C 142.800 108.933,142.622 110.000,142.400 110.000 C 142.174 110.000,142.000 111.133,142.000 112.600 C 142.000 114.067,141.826 115.200,141.600 115.200 C 141.380 115.200,141.200 115.920,141.200 116.800 L 141.200 118.400 99.000 118.400 C 71.133 118.400,56.800 118.536,56.800 118.800 C 56.800 119.020,56.480 119.200,56.088 119.200 C 55.697 119.200,55.117 119.560,54.800 120.000 C 54.483 120.440,53.903 120.800,53.512 120.800 C 53.096 120.800,52.800 121.096,52.800 121.512 C 52.800 121.903,52.440 122.483,52.000 122.800 C 51.560 123.117,51.200 123.697,51.200 124.088 C 51.200 124.480,51.020 124.800,50.800 124.800 C 49.896 124.800,50.312 137.760,51.274 139.562 C 51.755 140.463,52.295 141.200,52.474 141.200 C 52.653 141.200,52.800 141.470,52.800 141.800 C 52.800 142.130,53.120 142.400,53.512 142.400 C 53.903 142.400,54.483 142.760,54.800 143.200 C 55.117 143.640,55.697 144.000,56.088 144.000 C 56.533 144.000,56.800 144.300,56.800 144.800 C 56.800 145.595,57.066 145.600,96.700 145.599 L 136.600 145.599 136.466 148.099 C 136.393 149.475,136.168 150.771,135.966 150.980 C 135.765 151.189,135.600 152.404,135.600 153.680 C 135.600 154.960,135.421 156.000,135.200 156.000 C 134.978 156.000,134.800 157.059,134.800 158.376 C 134.800 159.683,134.620 160.864,134.400 161.000 C 134.180 161.136,134.000 162.306,134.000 163.600 C 134.000 164.894,133.820 166.064,133.600 166.200 C 133.380 166.336,133.200 167.607,133.200 169.024 C 133.200 170.475,133.025 171.600,132.800 171.600 C 132.578 171.600,132.400 172.667,132.400 174.000 C 132.400 175.333,132.222 176.400,132.000 176.400 C 131.775 176.400,131.600 177.525,131.600 178.976 C 131.600 180.393,131.420 181.664,131.200 181.800 C 130.980 181.936,130.800 183.016,130.800 184.200 C 130.800 185.384,130.620 186.464,130.400 186.600 C 130.180 186.736,130.000 188.007,130.000 189.424 C 130.000 190.841,129.836 192.000,129.636 192.000 C 129.435 192.000,129.165 193.080,129.036 194.400 C 128.906 195.720,128.693 197.925,128.562 199.300 C 128.431 200.675,128.177 201.980,127.997 202.200 C 127.817 202.420,127.539 204.715,127.380 207.300 C 127.221 209.885,126.936 212.000,126.746 212.000 C 126.556 212.000,126.400 213.080,126.400 214.400 C 126.400 215.733,126.222 216.800,126.000 216.800 C 125.771 216.800,125.600 218.000,125.600 219.600 C 125.600 221.200,125.429 222.400,125.200 222.400 C 124.978 222.400,124.800 223.467,124.800 224.800 C 124.800 226.133,124.622 227.200,124.400 227.200 C 124.174 227.200,124.000 228.333,124.000 229.800 C 124.000 231.267,123.826 232.400,123.600 232.400 C 123.378 232.400,123.200 233.467,123.200 234.800 C 123.200 236.133,123.022 237.200,122.800 237.200 C 122.571 237.200,122.400 238.400,122.400 240.000 L 122.400 242.800 86.000 242.800 C 62.000 242.800,49.600 242.936,49.600 243.200 C 49.600 243.420,49.253 243.600,48.829 243.600 C 48.404 243.600,47.819 243.835,47.529 244.122 C 47.238 244.410,46.685 244.764,46.300 244.910 C 45.915 245.056,45.600 245.451,45.600 245.787 C 45.600 246.124,45.441 246.400,45.246 246.400 C 43.311 246.400,42.816 262.281,44.700 263.914 C 45.195 264.343,45.600 264.988,45.600 265.347 C 45.600 265.706,45.920 266.000,46.312 266.000 C 46.703 266.000,47.283 266.360,47.600 266.800 C 47.917 267.240,48.497 267.600,48.888 267.600 C 49.280 267.600,49.600 267.780,49.600 268.000 C 49.600 268.264,61.200 268.400,83.600 268.400 L 117.600 268.400 117.600 270.800 C 117.600 272.133,117.422 273.200,117.200 273.200 C 116.975 273.200,116.800 274.325,116.800 275.776 C 116.800 277.193,116.620 278.464,116.400 278.600 C 116.180 278.736,116.000 279.816,116.000 281.000 C 116.000 282.184,115.820 283.264,115.600 283.400 C 115.380 283.536,115.200 284.807,115.200 286.224 C 115.200 287.675,115.025 288.800,114.800 288.800 C 114.578 288.800,114.400 289.867,114.400 291.200 C 114.400 292.533,114.222 293.600,114.000 293.600 C 113.776 293.600,113.600 294.707,113.600 296.120 C 113.600 297.506,113.436 298.811,113.235 299.020 C 112.890 299.380,112.675 300.906,112.156 306.700 C 112.033 308.075,111.783 309.200,111.601 309.200 C 111.267 309.200,111.193 309.769,110.348 318.900 C 110.089 321.705,109.724 324.000,109.538 324.000 C 109.352 324.000,109.200 325.170,109.200 326.600 C 109.200 328.067,109.026 329.200,108.800 329.200 C 108.563 329.200,108.400 330.667,108.400 332.800 C 108.400 334.933,108.563 336.400,108.800 336.400 C 109.020 336.400,109.200 336.608,109.200 336.862 C 109.200 339.043,113.293 341.600,116.784 341.600 C 118.128 341.600,119.200 341.777,119.200 342.000 C 119.200 342.235,120.600 342.400,122.600 342.400 C 124.470 342.400,126.000 342.242,126.000 342.049 C 126.000 341.855,126.535 341.475,127.190 341.204 C 128.751 340.558,129.682 339.672,130.349 338.200 C 130.649 337.540,131.052 336.687,131.247 336.305 C 131.441 335.923,131.600 334.528,131.600 333.205 C 131.600 331.868,131.778 330.800,132.000 330.800 C 132.222 330.800,132.400 329.733,132.400 328.400 C 132.400 327.067,132.578 326.000,132.800 326.000 C 133.026 326.000,133.200 324.867,133.200 323.400 C 133.200 321.933,133.374 320.800,133.600 320.800 C 133.822 320.800,134.000 319.733,134.000 318.400 C 134.000 317.067,134.178 316.000,134.400 316.000 C 134.629 316.000,134.800 314.800,134.800 313.200 C 134.800 311.600,134.971 310.400,135.200 310.400 C 135.420 310.400,135.600 309.421,135.600 308.224 C 135.600 307.027,135.780 305.936,136.000 305.800 C 136.220 305.664,136.400 304.393,136.400 302.976 C 136.400 301.525,136.575 300.400,136.800 300.400 C 137.022 300.400,137.200 299.341,137.200 298.024 C 137.200 296.717,137.380 295.536,137.600 295.400 C 137.820 295.264,138.000 294.094,138.000 292.800 C 138.000 291.506,138.180 290.336,138.400 290.200 C 138.620 290.064,138.800 288.984,138.800 287.800 C 138.800 286.616,138.980 285.536,139.200 285.400 C 139.420 285.264,139.600 284.029,139.600 282.656 C 139.600 281.283,139.764 279.989,139.965 279.780 C 140.165 279.571,140.425 278.410,140.541 277.200 C 140.657 275.990,140.859 274.280,140.989 273.400 C 141.119 272.520,141.321 271.035,141.437 270.100 L 141.649 268.400 191.025 268.400 C 240.133 268.400,240.400 268.404,240.400 269.200 C 240.400 269.640,240.220 270.000,240.000 270.000 C 239.771 270.000,239.600 271.200,239.600 272.800 C 239.600 274.400,239.429 275.600,239.200 275.600 C 238.980 275.600,238.800 276.590,238.800 277.800 C 238.800 279.010,238.620 280.000,238.400 280.000 C 238.178 280.000,238.000 281.059,238.000 282.376 C 238.000 283.683,237.820 284.864,237.600 285.000 C 237.380 285.136,237.200 286.407,237.200 287.824 C 237.200 289.275,237.025 290.400,236.800 290.400 C 236.578 290.400,236.400 291.467,236.400 292.800 C 236.400 294.133,236.222 295.200,236.000 295.200 C 235.774 295.200,235.600 296.333,235.600 297.800 C 235.600 299.267,235.426 300.400,235.200 300.400 C 234.978 300.400,234.800 301.467,234.800 302.800 C 234.800 304.133,234.622 305.200,234.400 305.200 C 234.175 305.200,234.000 306.325,234.000 307.776 C 234.000 309.193,233.820 310.464,233.600 310.600 C 233.380 310.736,233.200 311.791,233.200 312.944 C 233.200 314.097,233.036 315.211,232.835 315.420 C 232.490 315.780,232.275 317.306,231.756 323.100 C 231.633 324.475,231.367 325.600,231.166 325.600 C 230.965 325.600,230.800 326.669,230.800 327.976 C 230.800 329.283,230.620 330.464,230.400 330.600 C 229.864 330.932,229.887 334.683,230.427 335.017 C 230.662 335.162,230.757 335.536,230.637 335.847 C 230.385 336.506,231.895 339.600,232.469 339.600 C 232.990 339.600,234.000 340.637,234.000 341.171 C 234.000 341.407,234.360 341.600,234.800 341.600 C 235.240 341.600,235.600 341.780,235.600 342.000 C 235.600 342.220,236.320 342.400,237.200 342.400 C 238.080 342.400,238.800 342.580,238.800 342.800 C 238.800 343.025,239.925 343.200,241.376 343.200 C 242.793 343.200,244.064 343.380,244.200 343.600 C 244.548 344.162,248.800 344.117,248.800 343.551 C 248.800 343.241,248.985 343.256,249.400 343.600 C 249.815 343.944,250.000 343.959,250.000 343.649 C 250.000 343.402,250.270 343.200,250.600 343.200 C 250.930 343.200,251.200 343.020,251.200 342.800 C 251.200 342.580,251.605 342.400,252.100 342.400 C 252.947 342.400,255.200 340.135,255.200 339.283 C 255.200 339.086,255.560 338.598,256.000 338.200 C 256.603 337.655,256.800 336.968,256.800 335.418 C 256.800 334.286,256.964 333.189,257.165 332.980 C 257.536 332.593,257.622 331.943,258.447 323.300 C 258.704 320.605,259.068 318.400,259.257 318.400 C 259.446 318.400,259.600 317.140,259.600 315.600 C 259.600 314.000,259.771 312.800,260.000 312.800 C 260.222 312.800,260.400 311.733,260.400 310.400 C 260.400 309.067,260.578 308.000,260.800 308.000 C 261.026 308.000,261.200 306.867,261.200 305.400 C 261.200 303.933,261.374 302.800,261.600 302.800 C 261.822 302.800,262.000 301.733,262.000 300.400 C 262.000 299.067,262.178 298.000,262.400 298.000 C 262.622 298.000,262.800 296.941,262.800 295.624 C 262.800 294.317,262.980 293.136,263.200 293.000 C 263.420 292.864,263.600 291.683,263.600 290.376 C 263.600 289.059,263.778 288.000,264.000 288.000 C 264.222 288.000,264.400 286.933,264.400 285.600 C 264.400 284.267,264.578 283.200,264.800 283.200 C 265.029 283.200,265.200 282.000,265.200 280.400 C 265.200 278.800,265.371 277.600,265.600 277.600 C 265.822 277.600,266.000 276.533,266.000 275.200 C 266.000 273.867,266.178 272.800,266.400 272.800 C 266.620 272.800,266.800 271.810,266.800 270.600 L 266.800 268.400 304.200 268.400 C 328.867 268.400,341.600 268.264,341.600 268.000 C 341.600 267.780,341.920 267.600,342.312 267.600 C 342.703 267.600,343.283 267.240,343.600 266.800 C 343.917 266.360,344.497 266.000,344.888 266.000 C 345.304 266.000,345.600 265.704,345.600 265.288 C 345.600 264.897,345.960 264.317,346.400 264.000 C 346.840 263.683,347.200 263.103,347.200 262.712 C 347.200 262.320,347.359 262.000,347.553 262.000 C 347.747 262.000,347.916 261.239,347.929 260.308 C 347.942 259.377,348.143 258.552,348.376 258.475 C 348.922 258.293,348.945 252.800,348.400 252.800 C 348.180 252.800,348.000 251.900,348.000 250.800 C 348.000 249.700,347.820 248.800,347.600 248.800 C 347.380 248.800,347.200 248.480,347.200 248.088 C 347.200 247.697,346.840 247.117,346.400 246.800 C 345.960 246.483,345.600 245.903,345.600 245.512 C 345.600 245.120,345.317 244.800,344.971 244.800 C 344.626 244.800,344.073 244.530,343.743 244.200 C 343.413 243.870,342.796 243.600,342.371 243.600 C 341.947 243.600,341.600 243.420,341.600 243.200 C 341.600 242.937,329.479 242.789,306.100 242.768 C 286.575 242.751,270.825 242.646,271.100 242.535 C 271.413 242.409,271.600 241.530,271.600 240.190 C 271.600 239.012,271.780 237.936,272.000 237.800 C 272.220 237.664,272.400 236.404,272.400 235.000 C 272.400 233.596,272.580 232.336,272.800 232.200 C 273.020 232.064,273.200 231.009,273.200 229.856 C 273.200 228.703,273.364 227.589,273.565 227.380 C 273.936 226.993,274.025 226.330,274.859 217.700 C 275.120 215.005,275.483 212.800,275.667 212.800 C 275.850 212.800,276.000 211.630,276.000 210.200 C 276.000 208.733,276.174 207.600,276.400 207.600 C 276.622 207.600,276.800 206.533,276.800 205.200 C 276.800 203.867,276.978 202.800,277.200 202.800 C 277.429 202.800,277.600 201.600,277.600 200.000 C 277.600 198.400,277.771 197.200,278.000 197.200 C 278.222 197.200,278.400 196.133,278.400 194.800 C 278.400 193.467,278.578 192.400,278.800 192.400 C 279.022 192.400,279.200 191.333,279.200 190.000 C 279.200 188.667,279.378 187.600,279.600 187.600 C 279.826 187.600,280.000 186.467,280.000 185.000 C 280.000 183.533,280.174 182.400,280.400 182.400 C 280.622 182.400,280.800 181.333,280.800 180.000 C 280.800 178.667,280.978 177.600,281.200 177.600 C 281.426 177.600,281.600 176.467,281.600 175.000 C 281.600 173.533,281.774 172.400,282.000 172.400 C 282.222 172.400,282.400 171.333,282.400 170.000 C 282.400 168.667,282.578 167.600,282.800 167.600 C 283.029 167.600,283.200 166.400,283.200 164.800 C 283.200 163.200,283.371 162.000,283.600 162.000 C 283.820 162.000,284.000 161.021,284.000 159.824 C 284.000 158.627,284.180 157.536,284.400 157.400 C 284.620 157.264,284.800 156.083,284.800 154.776 C 284.800 153.459,284.978 152.400,285.200 152.400 C 285.426 152.400,285.600 151.267,285.600 149.800 C 285.600 148.333,285.774 147.200,286.000 147.200 C 286.220 147.200,286.400 146.840,286.400 146.400 C 286.400 145.608,286.667 145.600,313.000 145.600 C 330.467 145.600,339.600 145.463,339.600 145.200 C 339.600 144.980,339.948 144.800,340.373 144.800 C 340.798 144.800,341.260 144.440,341.400 144.000 C 341.540 143.560,342.002 143.200,342.427 143.200 C 342.924 143.200,343.200 142.924,343.200 142.427 C 343.200 142.002,343.560 141.540,344.000 141.400 C 344.440 141.260,344.800 140.798,344.800 140.373 C 344.800 139.948,344.980 139.600,345.200 139.600 C 345.451 139.600,345.600 137.000,345.600 132.600 C 345.600 128.200,345.451 125.600,345.200 125.600 C 344.980 125.600,344.800 125.280,344.800 124.888 C 344.800 124.497,344.440 123.917,344.000 123.600 C 343.560 123.283,343.200 122.703,343.200 122.312 C 343.200 121.899,342.904 121.600,342.496 121.600 C 342.109 121.600,341.568 121.240,341.293 120.800 C 341.018 120.360,340.546 120.000,340.243 120.000 C 339.941 120.000,339.599 119.640,339.484 119.200 C 339.278 118.411,338.938 118.400,314.837 118.400 C 290.074 118.400,288.665 118.320,290.756 117.027 C 290.951 116.907,291.241 114.646,291.400 112.004 C 291.559 109.362,291.849 107.200,292.044 107.200 C 292.240 107.200,292.400 106.030,292.400 104.600 C 292.400 103.133,292.574 102.000,292.800 102.000 C 293.022 102.000,293.200 100.933,293.200 99.600 C 293.200 98.267,293.378 97.200,293.600 97.200 C 293.829 97.200,294.000 96.000,294.000 94.400 C 294.000 92.800,294.171 91.600,294.400 91.600 C 294.620 91.600,294.800 90.610,294.800 89.400 C 294.800 88.190,294.980 87.200,295.200 87.200 C 295.422 87.200,295.600 86.141,295.600 84.824 C 295.600 83.517,295.780 82.336,296.000 82.200 C 296.220 82.064,296.400 80.793,296.400 79.376 C 296.400 77.925,296.575 76.800,296.800 76.800 C 297.020 76.800,297.200 75.821,297.200 74.624 C 297.200 73.427,297.380 72.336,297.600 72.200 C 298.042 71.927,298.158 67.491,297.734 67.067 C 297.588 66.921,297.415 66.309,297.351 65.706 C 297.287 65.104,297.047 64.549,296.817 64.472 C 296.588 64.396,296.400 64.073,296.400 63.754 C 296.400 63.436,296.085 63.056,295.700 62.910 C 294.842 62.585,294.000 61.784,294.000 61.293 C 294.000 60.755,292.134 60.000,290.805 60.000 C 290.168 60.000,289.536 59.820,289.400 59.600 C 289.264 59.380,287.993 59.200,286.576 59.200 C 285.125 59.200,284.000 59.025,284.000 58.800 C 284.000 57.988,278.628 58.328,277.692 59.200 C 277.220 59.640,276.376 60.000,275.817 60.000 C 275.258 60.000,274.800 60.230,274.800 60.512 C 274.800 60.793,274.440 61.283,274.000 61.600 C 273.560 61.917,273.200 62.457,273.200 62.800 C 273.200 63.143,272.840 63.683,272.400 64.000 C 271.759 64.462,271.600 65.035,271.600 66.888 C 271.600 68.163,271.421 69.200,271.200 69.200 C 270.978 69.200,270.800 70.259,270.800 71.576 C 270.800 72.883,270.620 74.064,270.400 74.200 C 270.180 74.336,270.000 75.517,270.000 76.824 C 270.000 78.141,269.822 79.200,269.600 79.200 C 269.378 79.200,269.200 80.259,269.200 81.576 C 269.200 82.883,269.020 84.064,268.800 84.200 C 268.580 84.336,268.400 85.607,268.400 87.024 C 268.400 88.475,268.225 89.600,268.000 89.600 C 267.778 89.600,267.600 90.667,267.600 92.000 C 267.600 93.333,267.422 94.400,267.200 94.400 C 266.974 94.400,266.800 95.533,266.800 97.000 C 266.800 98.467,266.626 99.600,266.400 99.600 C 266.178 99.600,266.000 100.667,266.000 102.000 C 266.000 103.320,265.835 104.400,265.634 104.400 C 265.433 104.400,265.167 105.525,265.044 106.900 C 264.525 112.694,264.310 114.220,263.965 114.580 C 263.764 114.789,263.600 115.734,263.600 116.680 L 263.600 118.400 214.000 118.400 C 162.973 118.400,162.554 118.388,164.800 117.000 C 165.020 116.864,165.200 115.683,165.200 114.376 C 165.200 113.059,165.378 112.000,165.600 112.000 C 165.825 112.000,166.000 110.875,166.000 109.424 C 166.000 108.007,166.180 106.736,166.400 106.600 C 166.620 106.464,166.800 105.373,166.800 104.176 C 166.800 102.979,166.980 102.000,167.200 102.000 C 167.429 102.000,167.600 100.800,167.600 99.200 C 167.600 97.600,167.771 96.400,168.000 96.400 C 168.222 96.400,168.400 95.333,168.400 94.000 C 168.400 92.667,168.578 91.600,168.800 91.600 C 169.026 91.600,169.200 90.467,169.200 89.000 C 169.200 87.533,169.374 86.400,169.600 86.400 C 169.822 86.400,170.000 85.341,170.000 84.024 C 170.000 82.717,170.180 81.536,170.400 81.400 C 170.620 81.264,170.800 79.993,170.800 78.576 C 170.800 77.125,170.975 76.000,171.200 76.000 C 171.420 76.000,171.600 75.021,171.600 73.824 C 171.600 72.627,171.780 71.536,172.000 71.400 C 172.220 71.264,172.400 70.004,172.400 68.600 C 172.400 67.196,172.580 65.936,172.800 65.800 C 174.663 64.649,171.602 55.249,169.346 55.191 C 169.156 55.186,168.550 54.830,168.000 54.400 C 167.254 53.817,166.364 53.616,164.500 53.609 C 163.106 53.604,162.000 53.423,162.000 53.200 C 162.000 52.354,155.435 52.719,154.800 53.600 M259.200 147.600 C 259.200 148.700,259.020 149.600,258.800 149.600 C 258.578 149.600,258.400 150.667,258.400 152.000 C 258.400 153.333,258.222 154.400,258.000 154.400 C 257.771 154.400,257.600 155.600,257.600 157.200 C 257.600 158.800,257.429 160.000,257.200 160.000 C 256.980 160.000,256.800 160.990,256.800 162.200 C 256.800 163.410,256.620 164.400,256.400 164.400 C 256.171 164.400,256.000 165.600,256.000 167.200 C 256.000 168.800,255.829 170.000,255.600 170.000 C 255.378 170.000,255.200 171.067,255.200 172.400 C 255.200 173.733,255.022 174.800,254.800 174.800 C 254.578 174.800,254.400 175.867,254.400 177.200 C 254.400 178.533,254.222 179.600,254.000 179.600 C 253.774 179.600,253.600 180.733,253.600 182.200 C 253.600 183.667,253.426 184.800,253.200 184.800 C 252.978 184.800,252.800 185.867,252.800 187.200 C 252.800 188.533,252.622 189.600,252.400 189.600 C 252.175 189.600,252.000 190.725,252.000 192.176 C 252.000 193.593,251.820 194.864,251.600 195.000 C 251.380 195.136,251.200 196.216,251.200 197.400 C 251.200 198.584,251.020 199.664,250.800 199.800 C 250.580 199.936,250.400 201.207,250.400 202.624 C 250.400 204.075,250.225 205.200,250.000 205.200 C 249.778 205.200,249.600 206.267,249.600 207.600 C 249.600 208.933,249.422 210.000,249.200 210.000 C 248.978 210.000,248.800 211.059,248.800 212.376 C 248.800 213.683,248.620 214.864,248.400 215.000 C 248.180 215.136,248.000 216.317,248.000 217.624 C 248.000 218.941,247.822 220.000,247.600 220.000 C 247.378 220.000,247.200 221.059,247.200 222.376 C 247.200 223.683,247.020 224.864,246.800 225.000 C 246.580 225.136,246.400 226.281,246.400 227.544 C 246.400 228.807,246.236 230.011,246.035 230.220 C 245.690 230.580,245.475 232.106,244.956 237.900 C 244.833 239.275,244.567 240.400,244.366 240.400 C 244.165 240.400,244.000 240.940,244.000 241.600 L 244.000 242.800 194.800 242.800 L 145.600 242.800 145.600 241.200 C 145.600 240.320,145.780 239.600,146.000 239.600 C 146.225 239.600,146.400 238.475,146.400 237.024 C 146.400 235.607,146.580 234.336,146.800 234.200 C 147.020 234.064,147.200 232.883,147.200 231.576 C 147.200 230.259,147.378 229.200,147.600 229.200 C 147.826 229.200,148.000 228.067,148.000 226.600 C 148.000 225.133,148.174 224.000,148.400 224.000 C 148.622 224.000,148.800 222.933,148.800 221.600 C 148.800 220.267,148.978 219.200,149.200 219.200 C 149.429 219.200,149.600 218.000,149.600 216.400 C 149.600 214.800,149.771 213.600,150.000 213.600 C 150.222 213.600,150.400 212.533,150.400 211.200 C 150.400 209.867,150.578 208.800,150.800 208.800 C 151.026 208.800,151.200 207.667,151.200 206.200 C 151.200 204.733,151.374 203.600,151.600 203.600 C 151.822 203.600,152.000 202.541,152.000 201.224 C 152.000 199.917,152.180 198.736,152.400 198.600 C 152.620 198.464,152.800 197.193,152.800 195.776 C 152.800 194.325,152.975 193.200,153.200 193.200 C 153.420 193.200,153.600 192.221,153.600 191.024 C 153.600 189.827,153.780 188.736,154.000 188.600 C 154.220 188.464,154.400 187.193,154.400 185.776 C 154.400 184.325,154.575 183.200,154.800 183.200 C 155.022 183.200,155.200 182.141,155.200 180.824 C 155.200 179.517,155.380 178.336,155.600 178.200 C 155.820 178.064,156.000 176.919,156.000 175.656 C 156.000 174.393,156.164 173.189,156.365 172.980 C 156.705 172.626,156.852 171.596,157.446 165.400 C 157.573 164.080,157.823 162.820,158.003 162.600 C 158.183 162.380,158.461 160.085,158.620 157.500 C 158.779 154.915,159.064 152.800,159.254 152.800 C 159.444 152.800,159.600 151.720,159.600 150.400 C 159.600 149.067,159.778 148.000,160.000 148.000 C 160.220 148.000,160.400 147.460,160.400 146.800 L 160.400 145.600 209.800 145.600 L 259.200 145.600 259.200 147.600 " stroke="none" fill="#040404" fill-rule="evenodd"></path><path id="path1" d="" stroke="none" fill="#080404" fill-rule="evenodd"></path></g></svg>