<svg id="svg" xmlns="http://www.w3.org/2000/svg" xmlns:xlink="http://www.w3.org/1999/xlink" width="400" height="400" viewBox="0, 0, 400,400" version="1.1"><g id="svgg"><path id="path0" d="M189.700 0.270 C 189.205 0.372,188.800 0.623,188.800 0.828 C 188.800 1.033,188.480 1.200,188.088 1.200 C 187.697 1.200,187.117 1.560,186.800 2.000 C 186.483 2.440,185.943 2.800,185.600 2.800 C 185.257 2.800,184.717 3.160,184.400 3.600 C 184.083 4.040,183.591 4.400,183.307 4.400 C 182.785 4.400,171.103 15.946,170.012 17.541 C 169.688 18.013,169.193 18.400,168.912 18.400 C 168.630 18.400,168.400 18.630,168.400 18.912 C 168.400 19.193,168.017 19.688,167.549 20.012 C 165.862 21.177,162.881 24.282,162.728 25.033 C 162.628 25.522,162.303 25.753,161.831 25.670 C 161.307 25.578,161.160 25.718,161.325 26.150 C 161.489 26.577,161.377 26.689,160.950 26.525 C 160.515 26.359,160.377 26.508,160.470 27.046 C 160.565 27.597,160.397 27.765,159.846 27.670 C 159.290 27.574,159.157 27.711,159.341 28.191 C 159.484 28.562,159.425 28.739,159.205 28.603 C 158.845 28.380,154.400 32.480,154.400 33.035 C 154.400 33.173,153.410 34.261,152.200 35.452 C 150.990 36.643,150.000 37.518,150.000 37.398 C 150.000 37.277,149.182 37.997,148.181 38.998 C 147.181 39.998,146.471 40.990,146.602 41.204 C 146.742 41.430,146.554 41.481,146.151 41.326 C 145.629 41.125,145.522 41.219,145.710 41.710 C 145.894 42.190,145.790 42.294,145.310 42.110 C 144.819 41.922,144.725 42.029,144.926 42.551 C 145.078 42.948,145.029 43.141,144.810 43.006 C 144.314 42.699,142.699 44.314,143.006 44.810 C 143.141 45.029,142.948 45.078,142.551 44.926 C 142.029 44.725,141.922 44.819,142.110 45.310 C 142.294 45.790,142.190 45.894,141.710 45.710 C 141.235 45.528,141.126 45.631,141.304 46.093 C 141.448 46.469,141.205 47.024,140.704 47.462 C 140.241 47.868,139.994 47.975,140.155 47.700 C 140.686 46.791,139.994 47.180,138.602 48.572 C 137.733 49.440,137.408 50.015,137.715 50.140 C 138.085 50.290,138.081 50.344,137.700 50.368 C 137.091 50.407,134.000 53.441,134.000 54.000 C 134.000 54.220,133.722 54.400,133.382 54.400 C 133.042 54.400,132.322 54.842,131.782 55.382 C 130.728 56.436,130.485 57.028,131.300 56.559 C 131.575 56.401,131.364 56.750,130.830 57.335 C 129.851 58.410,129.344 58.737,129.800 58.000 C 130.168 57.405,129.627 57.516,128.973 58.170 C 128.659 58.484,128.462 58.979,128.536 59.270 C 128.609 59.562,128.593 59.665,128.501 59.500 C 128.174 58.914,127.567 59.211,127.682 59.900 C 127.763 60.377,127.577 60.563,127.100 60.482 C 126.411 60.367,126.114 60.974,126.700 61.301 C 126.865 61.393,126.762 61.409,126.470 61.336 C 126.179 61.262,125.647 61.496,125.289 61.854 C 124.687 62.456,124.709 62.483,125.577 62.207 C 126.389 61.950,126.442 61.988,125.970 62.494 C 125.670 62.816,125.103 62.995,124.712 62.893 C 124.320 62.790,124.000 62.918,124.000 63.177 C 124.000 63.447,124.213 63.519,124.500 63.347 C 124.840 63.143,124.824 63.263,124.451 63.723 C 123.857 64.456,123.398 64.651,123.800 64.000 C 124.369 63.080,123.430 63.712,121.969 65.233 C 120.331 66.937,119.899 67.691,121.100 66.749 C 121.734 66.251,121.749 66.266,121.251 66.900 C 120.949 67.285,120.443 67.600,120.127 67.600 C 119.811 67.600,119.664 67.780,119.800 68.000 C 119.936 68.220,119.677 68.400,119.224 68.400 C 118.711 68.400,118.395 68.664,118.387 69.100 C 118.379 69.485,118.036 70.205,117.623 70.700 C 116.820 71.662,116.163 71.930,116.641 71.100 C 116.799 70.825,116.450 71.036,115.865 71.570 C 115.279 72.103,114.800 72.626,114.800 72.732 C 114.800 72.837,115.185 72.581,115.657 72.162 C 116.510 71.403,116.511 71.403,115.960 72.300 C 115.656 72.795,115.170 73.200,114.880 73.200 C 114.590 73.200,114.464 73.380,114.600 73.600 C 114.736 73.820,114.672 74.000,114.457 74.000 C 114.242 74.000,113.963 73.775,113.837 73.500 C 113.711 73.225,113.708 73.405,113.831 73.900 C 114.065 74.844,113.433 75.162,113.037 74.300 C 112.911 74.025,112.908 74.205,113.031 74.700 C 113.265 75.644,112.633 75.962,112.237 75.100 C 112.111 74.825,112.108 75.005,112.231 75.500 C 112.465 76.444,111.833 76.762,111.437 75.900 C 111.311 75.625,111.308 75.805,111.431 76.300 C 111.665 77.244,111.033 77.562,110.637 76.700 C 110.511 76.425,110.513 76.623,110.643 77.139 C 110.851 77.966,110.766 78.051,109.939 77.843 C 109.423 77.713,109.225 77.711,109.500 77.837 C 110.362 78.233,110.044 78.865,109.100 78.631 C 108.605 78.508,108.425 78.511,108.700 78.637 C 109.562 79.033,109.244 79.665,108.300 79.431 C 107.805 79.308,107.625 79.311,107.900 79.437 C 108.762 79.833,108.444 80.465,107.500 80.231 C 107.005 80.108,106.825 80.111,107.100 80.237 C 107.864 80.588,107.695 81.281,106.900 81.054 C 106.443 80.923,105.853 81.291,105.200 82.112 C 104.650 82.804,104.425 83.231,104.700 83.061 C 105.771 82.401,105.097 83.258,102.706 85.597 C 101.335 86.939,100.151 87.852,100.075 87.625 C 99.999 87.398,99.489 87.746,98.940 88.398 C 98.392 89.050,98.056 89.767,98.195 89.992 C 98.334 90.216,98.272 90.400,98.057 90.400 C 97.842 90.400,97.563 90.175,97.437 89.900 C 97.311 89.625,97.308 89.805,97.431 90.300 C 97.665 91.244,97.033 91.562,96.637 90.700 C 96.511 90.425,96.508 90.605,96.631 91.100 C 96.865 92.044,96.233 92.362,95.837 91.500 C 95.711 91.225,95.708 91.405,95.831 91.900 C 96.065 92.844,95.433 93.162,95.037 92.300 C 94.911 92.025,94.908 92.205,95.031 92.700 C 95.237 93.531,94.682 93.986,94.299 93.300 C 94.207 93.135,94.189 93.233,94.260 93.519 C 94.428 94.194,91.794 96.828,91.119 96.660 C 90.833 96.589,90.735 96.607,90.900 96.699 C 91.586 97.082,91.131 97.637,90.300 97.431 C 89.805 97.308,89.625 97.311,89.900 97.437 C 90.602 97.759,90.527 98.534,89.820 98.263 C 89.412 98.107,89.314 98.233,89.490 98.690 C 89.674 99.170,89.570 99.274,89.090 99.090 C 88.617 98.908,88.506 99.011,88.681 99.467 C 88.873 99.966,88.728 100.038,87.961 99.820 C 87.323 99.639,87.179 99.672,87.530 99.916 C 88.150 100.347,83.436 105.393,82.787 104.992 C 82.572 104.859,82.523 105.055,82.674 105.449 C 82.875 105.971,82.781 106.078,82.290 105.890 C 81.833 105.714,81.707 105.812,81.863 106.220 C 82.134 106.927,81.359 107.002,81.037 106.300 C 80.911 106.025,80.908 106.205,81.031 106.700 C 81.265 107.644,80.633 107.962,80.237 107.100 C 80.111 106.825,80.108 107.005,80.231 107.500 C 80.437 108.331,79.882 108.786,79.499 108.100 C 79.407 107.935,79.389 108.032,79.459 108.315 C 79.625 108.987,75.387 113.225,74.715 113.059 C 74.432 112.989,74.335 113.007,74.500 113.099 C 75.194 113.487,74.727 114.033,73.900 113.801 C 73.245 113.616,73.154 113.654,73.565 113.937 C 74.240 114.403,73.108 115.838,72.408 115.405 C 72.169 115.257,72.115 115.435,72.274 115.849 C 72.479 116.384,72.384 116.479,71.849 116.274 C 71.452 116.122,71.259 116.171,71.394 116.390 C 71.701 116.887,66.887 121.701,66.390 121.394 C 66.171 121.259,66.122 121.452,66.274 121.849 C 66.479 122.384,66.384 122.479,65.849 122.274 C 65.435 122.115,65.257 122.169,65.405 122.408 C 65.838 123.108,64.403 124.240,63.937 123.565 C 63.654 123.154,63.616 123.245,63.801 123.900 C 64.033 124.727,63.487 125.194,63.099 124.500 C 63.007 124.335,62.989 124.432,63.059 124.715 C 63.225 125.387,58.987 129.625,58.315 129.459 C 58.032 129.389,57.935 129.407,58.100 129.499 C 58.786 129.882,58.331 130.437,57.500 130.231 C 57.005 130.108,56.825 130.111,57.100 130.237 C 57.969 130.636,57.640 131.265,56.700 131.001 C 56.007 130.806,55.937 130.842,56.396 131.157 C 56.877 131.487,52.556 136.003,34.201 154.353 C 21.666 166.886,11.296 176.956,11.157 176.731 C 10.860 176.250,4.400 182.529,4.400 183.299 C 4.400 183.587,4.040 184.083,3.600 184.400 C 3.160 184.717,2.800 185.257,2.800 185.600 C 2.800 185.943,2.440 186.483,2.000 186.800 C 1.560 187.117,1.200 187.682,1.200 188.055 C 1.200 188.428,0.975 188.808,0.700 188.900 C -0.026 189.142,-0.026 210.858,0.700 211.100 C 0.975 211.192,1.200 211.612,1.200 212.033 C 1.200 212.455,1.380 212.800,1.600 212.800 C 1.820 212.800,2.000 213.088,2.000 213.440 C 2.000 213.791,2.540 214.583,3.200 215.200 C 3.860 215.817,4.400 216.523,4.400 216.771 C 4.400 217.609,7.932 220.801,8.583 220.551 C 8.922 220.421,9.200 220.512,9.200 220.754 C 9.200 221.542,10.790 223.047,12.211 223.604 C 12.975 223.904,13.600 224.290,13.600 224.461 C 13.600 224.632,14.500 224.892,15.600 225.038 C 16.700 225.184,17.600 225.460,17.600 225.652 C 17.600 225.843,18.680 226.000,20.000 226.000 C 21.333 226.000,22.400 226.178,22.400 226.400 C 22.400 226.658,26.933 226.800,35.200 226.800 L 48.000 226.800 48.000 302.200 C 48.000 352.200,48.135 377.600,48.400 377.600 C 48.620 377.600,48.800 378.500,48.800 379.600 C 48.800 380.700,48.980 381.600,49.200 381.600 C 49.420 381.600,49.600 382.140,49.600 382.800 C 49.600 383.460,49.780 384.000,50.000 384.000 C 50.220 384.000,50.400 384.540,50.400 385.200 C 50.400 385.860,50.580 386.400,50.800 386.400 C 51.020 386.400,51.200 386.720,51.200 387.112 C 51.200 387.503,51.560 388.083,52.000 388.400 C 52.440 388.717,52.800 389.257,52.800 389.600 C 52.800 389.943,53.195 390.488,53.678 390.812 C 54.161 391.135,55.867 392.705,57.470 394.300 C 59.073 395.895,60.528 397.200,60.704 397.200 C 60.879 397.200,61.283 397.560,61.600 398.000 C 61.917 398.440,62.482 398.800,62.855 398.800 C 63.228 398.800,63.608 399.025,63.700 399.300 C 63.832 399.695,73.114 399.823,107.933 399.910 L 152.000 400.020 152.000 335.010 C 152.000 291.937,152.135 270.000,152.400 270.000 C 152.620 270.000,152.800 269.280,152.800 268.400 C 152.800 267.520,152.980 266.800,153.200 266.800 C 153.420 266.800,153.600 266.440,153.600 266.000 C 153.600 265.560,153.780 265.200,154.000 265.200 C 154.220 265.200,154.400 264.840,154.400 264.400 C 154.400 263.960,154.580 263.600,154.800 263.600 C 155.020 263.600,155.200 263.280,155.200 262.888 C 155.200 262.497,155.560 261.917,156.000 261.600 C 156.440 261.283,156.800 260.793,156.800 260.512 C 156.800 259.846,159.846 256.800,160.512 256.800 C 160.793 256.800,161.283 256.440,161.600 256.000 C 161.917 255.560,162.497 255.200,162.888 255.200 C 163.280 255.200,163.600 255.020,163.600 254.800 C 163.600 254.580,163.960 254.400,164.400 254.400 C 164.840 254.400,165.200 254.220,165.200 254.000 C 165.200 253.780,165.560 253.600,166.000 253.600 C 166.440 253.600,166.800 253.420,166.800 253.200 C 166.800 252.980,167.520 252.800,168.400 252.800 C 169.280 252.800,170.000 252.620,170.000 252.400 C 170.000 252.137,180.267 252.000,200.000 252.000 C 219.733 252.000,230.000 252.137,230.000 252.400 C 230.000 252.620,230.720 252.800,231.600 252.800 C 232.480 252.800,233.200 252.980,233.200 253.200 C 233.200 253.420,233.560 253.600,234.000 253.600 C 234.440 253.600,234.800 253.780,234.800 254.000 C 234.800 254.220,235.160 254.400,235.600 254.400 C 236.040 254.400,236.400 254.580,236.400 254.800 C 236.400 255.020,236.720 255.200,237.112 255.200 C 237.503 255.200,238.083 255.560,238.400 256.000 C 238.717 256.440,239.215 256.800,239.506 256.800 C 239.798 256.800,240.453 257.205,240.963 257.700 C 241.473 258.195,242.274 258.865,242.745 259.188 C 243.215 259.512,243.600 260.084,243.600 260.460 C 243.600 260.835,243.870 261.413,244.200 261.743 C 244.530 262.073,244.800 262.626,244.800 262.971 C 244.800 263.317,244.980 263.600,245.200 263.600 C 245.420 263.600,245.600 263.960,245.600 264.400 C 245.600 264.840,245.780 265.200,246.000 265.200 C 246.220 265.200,246.400 265.560,246.400 266.000 C 246.400 266.440,246.580 266.800,246.800 266.800 C 247.020 266.800,247.200 267.520,247.200 268.400 C 247.200 269.280,247.380 270.000,247.600 270.000 C 247.865 270.000,248.000 291.937,248.000 335.010 L 248.000 400.020 292.067 399.910 C 326.886 399.823,336.168 399.695,336.300 399.300 C 336.392 399.025,336.772 398.800,337.145 398.800 C 337.518 398.800,338.083 398.440,338.400 398.000 C 338.717 397.560,339.257 397.200,339.600 397.200 C 339.943 397.200,340.488 396.803,340.812 396.319 C 341.572 395.179,345.179 391.572,346.319 390.812 C 346.803 390.488,347.200 389.943,347.200 389.600 C 347.200 389.257,347.560 388.717,348.000 388.400 C 348.440 388.083,348.800 387.503,348.800 387.112 C 348.800 386.720,348.980 386.400,349.200 386.400 C 349.420 386.400,349.600 385.860,349.600 385.200 C 349.600 384.540,349.780 384.000,350.000 384.000 C 350.220 384.000,350.400 383.460,350.400 382.800 C 350.400 382.140,350.580 381.600,350.800 381.600 C 351.020 381.600,351.200 380.700,351.200 379.600 C 351.200 378.500,351.380 377.600,351.600 377.600 C 351.865 377.600,352.000 352.200,352.000 302.200 L 352.000 226.800 364.800 226.800 C 373.067 226.800,377.600 226.658,377.600 226.400 C 377.600 226.178,378.667 226.000,380.000 226.000 C 381.320 226.000,382.400 225.843,382.400 225.652 C 382.400 225.460,383.300 225.184,384.400 225.038 C 385.500 224.892,386.400 224.599,386.400 224.386 C 386.400 224.174,386.760 224.000,387.200 224.000 C 387.640 224.000,388.000 223.820,388.000 223.600 C 388.000 223.380,388.278 223.200,388.618 223.200 C 389.570 223.200,391.311 221.267,391.027 220.526 C 390.826 220.002,390.888 219.975,391.370 220.375 C 392.104 220.984,395.812 217.529,395.446 216.577 C 395.325 216.260,395.408 216.000,395.631 216.000 C 396.263 216.000,398.000 214.107,398.000 213.418 C 398.000 213.078,398.180 212.800,398.400 212.800 C 398.620 212.800,398.800 212.455,398.800 212.033 C 398.800 211.612,399.025 211.192,399.300 211.100 C 399.684 210.972,399.800 208.391,399.800 200.000 C 399.800 191.609,399.684 189.028,399.300 188.900 C 399.025 188.808,398.800 188.428,398.800 188.055 C 398.800 187.682,398.440 187.117,398.000 186.800 C 397.560 186.483,397.200 185.943,397.200 185.600 C 397.200 185.257,396.840 184.717,396.400 184.400 C 395.960 184.083,395.600 183.594,395.600 183.313 C 395.600 182.494,389.305 176.301,389.069 176.888 C 388.956 177.169,388.846 176.950,388.825 176.400 C 388.796 175.621,388.705 175.530,388.415 175.990 C 388.123 176.451,383.999 172.542,369.436 157.997 C 355.433 144.012,350.975 139.334,351.415 139.088 C 352.135 138.685,352.319 47.200,351.600 47.200 C 351.380 47.200,351.200 46.390,351.200 45.400 C 351.200 44.410,351.020 43.600,350.800 43.600 C 350.580 43.600,350.400 43.060,350.400 42.400 C 350.400 41.740,350.220 41.200,350.000 41.200 C 349.780 41.200,349.600 40.660,349.600 40.000 C 349.600 39.340,349.420 38.800,349.200 38.800 C 348.980 38.800,348.800 38.480,348.800 38.088 C 348.800 37.697,348.440 37.117,348.000 36.800 C 347.560 36.483,347.200 35.988,347.200 35.701 C 347.200 35.047,343.764 31.570,343.439 31.895 C 343.307 32.026,343.200 31.928,343.200 31.677 C 343.200 30.914,339.971 27.679,338.954 27.424 C 338.429 27.292,338.000 27.008,338.000 26.792 C 338.000 26.577,337.640 26.400,337.200 26.400 C 336.760 26.400,336.400 26.220,336.400 26.000 C 336.400 25.780,335.860 25.600,335.200 25.600 C 334.540 25.600,334.000 25.420,334.000 25.200 C 334.000 24.980,333.460 24.800,332.800 24.800 C 332.140 24.800,331.600 24.620,331.600 24.400 C 331.600 24.180,330.700 24.000,329.600 24.000 C 328.500 24.000,327.600 23.820,327.600 23.600 C 327.600 23.340,322.267 23.200,312.400 23.200 C 302.533 23.200,297.200 23.340,297.200 23.600 C 297.200 23.820,296.210 24.000,295.000 24.000 C 293.790 24.000,292.800 24.180,292.800 24.400 C 292.800 24.620,292.260 24.800,291.600 24.800 C 290.940 24.800,290.400 24.980,290.400 25.200 C 290.400 25.420,290.040 25.600,289.600 25.600 C 289.160 25.600,288.800 25.780,288.800 26.000 C 288.800 26.220,288.440 26.400,288.000 26.400 C 287.560 26.400,287.200 26.577,287.200 26.792 C 287.200 27.008,286.721 27.305,286.135 27.452 C 284.751 27.799,277.799 34.751,277.452 36.135 C 277.305 36.721,277.008 37.200,276.792 37.200 C 276.577 37.200,276.400 37.560,276.400 38.000 C 276.400 38.440,276.220 38.800,276.000 38.800 C 275.780 38.800,275.600 39.160,275.600 39.600 C 275.600 40.040,275.420 40.400,275.200 40.400 C 274.980 40.400,274.800 40.940,274.800 41.600 C 274.800 42.260,274.620 42.800,274.400 42.800 C 274.180 42.800,274.000 43.775,274.000 44.967 C 274.000 46.158,273.828 47.193,273.618 47.267 C 273.399 47.343,273.209 50.413,273.171 54.481 C 273.114 60.495,273.021 61.479,272.553 61.010 C 272.250 60.707,272.062 60.221,272.136 59.930 C 272.209 59.638,272.193 59.535,272.101 59.700 C 271.730 60.364,271.287 59.943,271.472 59.100 C 271.631 58.377,271.585 58.318,271.241 58.800 C 270.872 59.316,270.811 59.299,270.806 58.682 C 270.803 58.287,270.358 57.522,269.818 56.982 C 268.767 55.931,268.161 55.680,268.653 56.500 C 268.860 56.844,268.744 56.830,268.281 56.455 C 267.911 56.155,267.725 55.722,267.866 55.493 C 268.008 55.264,267.936 55.192,267.707 55.334 C 267.478 55.475,267.045 55.289,266.745 54.919 C 266.380 54.468,266.363 54.345,266.695 54.544 C 267.032 54.746,267.115 54.643,266.954 54.223 C 266.823 53.883,266.578 53.690,266.410 53.794 C 265.966 54.068,264.175 52.397,264.333 51.856 C 264.407 51.605,264.333 51.533,264.170 51.697 C 263.777 52.089,262.800 51.256,262.800 50.528 C 262.800 49.735,252.598 39.600,251.799 39.600 C 251.444 39.600,251.264 39.420,251.400 39.200 C 251.536 38.980,251.356 38.800,251.000 38.800 C 250.644 38.800,250.464 38.620,250.600 38.400 C 250.736 38.180,250.702 38.000,250.524 38.000 C 250.107 37.999,248.000 36.192,248.000 35.835 C 248.000 35.357,246.094 33.639,245.842 33.891 C 245.709 34.024,245.600 33.825,245.600 33.448 C 245.600 32.550,243.834 30.802,242.918 30.794 C 242.308 30.789,242.290 30.729,242.800 30.400 C 243.295 30.080,243.256 30.011,242.581 30.006 C 241.548 29.998,238.802 27.227,238.794 26.183 C 238.789 25.531,238.723 25.500,238.400 26.000 C 238.071 26.510,238.011 26.492,238.006 25.882 C 237.998 24.966,236.250 23.200,235.352 23.200 C 234.975 23.200,234.776 23.091,234.909 22.958 C 235.177 22.690,233.428 20.800,232.913 20.800 C 232.735 20.800,232.232 20.318,231.795 19.728 C 231.358 19.138,230.595 18.246,230.100 17.746 C 229.605 17.246,229.200 16.730,229.200 16.600 C 229.200 16.303,227.292 14.379,227.009 14.391 C 225.978 14.436,225.852 14.354,226.400 14.000 C 226.878 13.691,226.797 13.605,226.000 13.575 C 225.450 13.554,225.214 13.450,225.475 13.343 C 225.799 13.212,225.684 12.843,225.115 12.188 C 224.656 11.660,224.122 11.325,223.930 11.443 C 223.738 11.562,223.630 11.501,223.690 11.306 C 223.840 10.825,217.323 4.400,216.685 4.400 C 216.406 4.400,215.917 4.040,215.600 3.600 C 215.283 3.160,214.743 2.800,214.400 2.800 C 214.057 2.800,213.517 2.440,213.200 2.000 C 212.883 1.560,212.318 1.200,211.945 1.200 C 211.572 1.200,211.192 0.975,211.100 0.700 C 210.935 0.202,191.885 -0.180,189.700 0.270 M239.200 26.681 C 239.200 27.138,241.929 29.806,242.157 29.573 C 242.250 29.478,241.623 28.707,240.763 27.859 C 239.903 27.012,239.200 26.482,239.200 26.681 " stroke="none" fill="#fcfcfc" fill-rule="evenodd"></path><path id="path1" d="M231.251 19.098 C 232.144 20.234,232.726 20.800,233.002 20.800 C 233.387 20.800,231.458 18.448,231.051 18.422 C 230.859 18.410,230.949 18.714,231.251 19.098 M238.800 26.766 C 238.800 27.126,241.954 30.198,242.094 29.974 C 242.153 29.878,241.436 29.056,240.501 28.147 C 239.565 27.238,238.800 26.616,238.800 26.766 M248.000 35.784 C 248.000 36.216,250.116 38.018,250.349 37.784 C 250.451 37.683,250.458 37.555,250.367 37.500 C 250.275 37.445,249.705 36.964,249.100 36.430 C 248.495 35.897,248.000 35.606,248.000 35.784 M262.800 50.736 C 262.800 51.114,265.082 53.264,266.000 53.750 C 266.330 53.925,266.030 53.528,265.332 52.868 C 264.635 52.209,264.170 51.563,264.299 51.434 C 264.428 51.305,264.223 51.200,263.843 51.200 C 263.463 51.200,263.264 51.020,263.400 50.800 C 263.536 50.580,263.457 50.400,263.224 50.400 C 262.991 50.400,262.800 50.551,262.800 50.736 M266.400 54.592 C 266.400 54.624,266.929 55.157,267.576 55.777 C 268.626 56.783,268.729 56.813,268.531 56.056 C 268.409 55.590,268.150 55.308,267.955 55.428 C 267.760 55.549,267.600 55.397,267.600 55.090 C 267.600 54.784,267.330 54.533,267.000 54.533 C 266.670 54.533,266.400 54.560,266.400 54.592 M271.489 59.480 C 271.388 59.656,271.732 60.211,272.253 60.714 C 272.774 61.217,273.200 61.469,273.200 61.275 C 273.200 60.711,271.690 59.128,271.489 59.480 M117.300 69.798 C 117.025 70.111,116.800 70.564,116.800 70.807 C 116.800 71.049,116.616 71.133,116.390 70.994 C 116.165 70.855,116.030 70.979,116.090 71.270 C 116.151 71.562,115.975 71.755,115.700 71.700 C 115.425 71.645,115.245 71.825,115.300 72.100 C 115.355 72.375,115.175 72.555,114.900 72.500 C 114.625 72.445,114.400 72.571,114.400 72.779 C 114.400 73.306,105.928 81.823,105.526 81.700 C 105.347 81.645,105.245 81.825,105.300 82.100 C 105.355 82.375,105.162 82.551,104.870 82.490 C 104.579 82.430,104.455 82.565,104.594 82.790 C 104.733 83.016,104.652 83.200,104.413 83.200 C 103.867 83.200,100.641 86.402,100.022 87.558 C 99.768 88.034,99.384 88.314,99.170 88.181 C 98.956 88.049,98.830 88.179,98.890 88.470 C 98.951 88.762,98.762 88.951,98.470 88.890 C 98.173 88.828,98.060 88.973,98.212 89.220 C 98.533 89.739,98.192 90.047,107.611 80.744 C 111.541 76.864,114.645 73.579,114.511 73.444 C 114.377 73.310,114.477 73.200,114.734 73.200 C 115.235 73.200,118.400 70.007,118.400 69.502 C 118.400 69.027,117.848 69.176,117.300 69.798 M93.639 93.864 C 91.350 96.145,89.581 98.115,89.708 98.241 C 89.834 98.368,91.837 96.573,94.157 94.252 C 96.478 91.931,98.247 89.962,98.088 89.875 C 97.930 89.789,95.928 91.584,93.639 93.864 M88.000 99.320 C 88.000 99.694,87.830 100.000,87.623 100.000 C 86.983 100.000,82.378 104.739,82.778 104.986 C 83.402 105.372,88.941 99.581,88.433 99.073 C 88.122 98.762,88.000 98.832,88.000 99.320 M77.238 110.219 C 74.949 112.519,72.924 114.400,72.738 114.400 C 72.552 114.400,72.400 114.670,72.400 115.000 C 72.400 115.970,72.593 115.815,77.404 111.004 C 79.932 108.477,82.000 106.317,82.000 106.204 C 82.000 105.596,81.008 106.432,77.238 110.219 M68.510 118.639 C 67.141 120.028,66.189 121.270,66.396 121.397 C 66.901 121.710,71.772 116.802,71.340 116.416 C 71.153 116.248,69.880 117.249,68.510 118.639 M64.400 122.725 C 64.400 123.232,55.680 131.947,55.426 131.693 C 55.302 131.568,55.200 131.797,55.200 132.200 C 55.200 132.603,55.090 132.823,54.956 132.689 C 54.673 132.406,50.000 137.058,50.000 137.623 C 50.000 137.830,49.719 138.000,49.376 138.000 C 49.033 138.000,48.864 138.180,49.000 138.400 C 49.136 138.620,48.956 138.800,48.600 138.800 C 48.244 138.800,48.009 138.935,48.077 139.100 C 48.232 139.476,39.261 148.328,38.995 148.061 C 38.888 147.954,38.800 148.177,38.800 148.557 C 38.800 148.937,38.620 149.136,38.400 149.000 C 38.180 148.864,38.000 149.044,38.000 149.400 C 38.000 149.756,37.865 149.974,37.700 149.884 C 37.304 149.668,32.390 154.657,32.697 154.963 C 32.827 155.093,32.603 155.200,32.200 155.200 C 31.797 155.200,31.560 155.294,31.675 155.408 C 31.789 155.522,29.772 157.637,27.192 160.108 C 24.612 162.579,22.479 164.836,22.451 165.124 C 22.423 165.412,22.220 165.536,22.000 165.400 C 21.780 165.264,21.600 165.463,21.600 165.843 C 21.600 166.223,21.489 166.422,21.353 166.286 C 20.985 165.919,11.200 175.999,11.200 176.745 C 11.200 177.097,23.440 165.120,38.400 150.129 C 65.946 122.525,66.067 122.400,65.000 122.400 C 64.670 122.400,64.400 122.546,64.400 122.725 M351.257 139.165 C 350.874 139.401,387.514 176.400,388.131 176.400 C 388.279 176.400,388.400 176.233,388.400 176.028 C 388.400 175.344,351.682 138.902,351.257 139.165 " stroke="none" fill="#f4f4f4" fill-rule="evenodd"></path></g></svg>