<svg id="svg" xmlns="http://www.w3.org/2000/svg" xmlns:xlink="http://www.w3.org/1999/xlink" width="400" height="400" viewBox="0, 0, 400,400"><g id="svgg"><path id="path0" d="M191.174 1.082 C 184.899 3.415,179.157 8.912,93.268 94.816 C -6.871 194.972,-0.007 187.236,0.008 199.929 C 0.020 210.740,4.370 218.080,13.455 222.620 L 18.218 225.000 34.109 225.000 L 50.000 225.000 50.000 302.705 C 50.000 391.708,49.503 385.366,57.068 392.932 C 64.247 400.110,63.428 400.000,109.761 400.000 L 149.933 400.000 150.162 334.961 L 150.391 269.922 152.423 265.589 C 155.323 259.406,158.754 255.873,164.699 252.946 L 169.889 250.391 200.000 250.391 L 230.111 250.391 235.301 252.946 C 241.246 255.873,244.677 259.406,247.577 265.589 L 249.609 269.922 249.838 334.981 L 250.067 400.040 291.245 399.825 L 332.422 399.609 336.090 397.803 C 340.771 395.497,345.497 390.771,347.803 386.090 L 349.609 382.422 349.816 303.711 L 350.022 225.000 365.902 225.000 L 381.782 225.000 386.545 222.620 C 395.464 218.163,399.337 211.854,399.848 200.950 C 400.409 189.005,399.651 187.883,372.514 160.483 L 350.000 137.751 350.000 91.170 C 350.000 37.566,350.213 39.350,342.932 32.068 C 336.510 25.647,333.726 25.000,312.500 25.000 C 282.555 25.000,275.000 30.777,275.000 53.675 L 275.000 62.759 245.898 33.917 C 212.345 0.663,212.255 0.594,201.172 0.218 C 196.497 0.059,193.146 0.349,191.174 1.082 " stroke="none" fill="#000000" fill-rule="evenodd"></path></g></svg>