<svg id="svg" xmlns="http://www.w3.org/2000/svg" xmlns:xlink="http://www.w3.org/1999/xlink" width="400" height="400" viewBox="0, 0, 400,400" version="1.1"><g id="svgg"><path id="path0" d="M191.700 0.272 C 190.985 0.370,190.400 0.619,190.400 0.825 C 190.400 1.031,190.040 1.200,189.600 1.200 C 189.160 1.200,188.800 1.380,188.800 1.600 C 188.800 1.820,188.440 2.000,188.000 2.000 C 187.560 2.000,187.200 2.180,187.200 2.400 C 187.200 2.620,186.975 2.800,186.700 2.801 C 186.425 2.801,185.570 3.341,184.800 4.000 C 184.030 4.659,183.273 5.199,183.119 5.199 C 182.536 5.201,114.389 72.614,100.252 87.173 C 98.024 89.469,94.144 93.339,91.632 95.773 C 89.119 98.208,85.249 102.078,83.032 104.373 C 80.814 106.668,77.686 109.818,76.079 111.373 C 63.887 123.175,9.200 178.180,9.200 178.641 C 9.200 178.757,8.300 179.729,7.200 180.800 C 6.100 181.871,5.200 182.895,5.199 183.074 C 5.199 183.253,4.659 184.030,4.000 184.800 C 3.341 185.570,2.801 186.425,2.801 186.700 C 2.800 186.975,2.620 187.200,2.400 187.200 C 2.180 187.200,2.000 187.560,2.000 188.000 C 2.000 188.440,1.820 188.800,1.600 188.800 C 1.380 188.800,1.200 189.145,1.200 189.567 C 1.200 189.988,0.975 190.408,0.700 190.500 C 0.319 190.627,0.200 192.889,0.200 200.000 C 0.200 207.111,0.319 209.373,0.700 209.500 C 0.975 209.592,1.200 210.012,1.200 210.433 C 1.200 210.855,1.380 211.200,1.600 211.200 C 1.820 211.200,2.000 211.560,2.000 212.000 C 2.000 212.440,2.180 212.800,2.400 212.800 C 2.620 212.800,2.800 213.120,2.800 213.512 C 2.800 213.903,3.160 214.483,3.600 214.800 C 4.040 215.117,4.400 215.622,4.400 215.923 C 4.400 216.607,8.722 220.800,9.427 220.800 C 9.712 220.800,10.060 221.160,10.200 221.600 C 10.340 222.040,10.676 222.400,10.947 222.400 C 11.662 222.400,13.593 223.348,13.597 223.700 C 13.599 223.865,13.945 224.000,14.367 224.000 C 14.788 224.000,15.195 224.186,15.271 224.413 C 15.347 224.640,16.982 224.936,18.904 225.072 C 20.827 225.208,22.400 225.472,22.400 225.659 C 22.400 225.847,28.340 226.000,35.600 226.000 L 48.800 226.000 48.800 301.800 C 48.800 352.067,48.935 377.600,49.200 377.600 C 49.420 377.600,49.600 378.500,49.600 379.600 C 49.600 380.700,49.780 381.600,50.000 381.600 C 50.220 381.600,50.400 382.140,50.400 382.800 C 50.400 383.460,50.580 384.000,50.800 384.000 C 51.020 384.000,51.200 384.540,51.200 385.200 C 51.200 385.860,51.380 386.400,51.600 386.400 C 51.820 386.400,52.000 386.720,52.000 387.112 C 52.000 387.503,52.360 388.083,52.800 388.400 C 53.240 388.717,53.600 389.257,53.600 389.600 C 53.600 389.943,53.915 390.450,54.300 390.727 C 54.685 391.004,55.180 391.359,55.400 391.515 C 55.620 391.672,55.992 392.148,56.227 392.573 C 56.461 392.999,56.996 393.539,57.415 393.773 C 57.833 394.008,58.658 394.695,59.248 395.300 C 59.838 395.905,60.479 396.400,60.672 396.400 C 60.865 396.400,61.283 396.760,61.600 397.200 C 61.917 397.640,62.497 398.000,62.888 398.000 C 63.280 398.000,63.600 398.180,63.600 398.400 C 63.600 398.620,64.125 398.800,64.767 398.800 C 65.408 398.800,66.008 399.025,66.100 399.300 C 66.232 399.695,75.194 399.823,108.733 399.911 L 151.200 400.021 151.200 335.011 C 151.200 291.937,151.335 270.000,151.600 270.000 C 151.820 270.000,152.000 269.280,152.000 268.400 C 152.000 267.520,152.180 266.800,152.400 266.800 C 152.620 266.800,152.800 266.440,152.800 266.000 C 152.800 265.560,152.980 265.200,153.200 265.200 C 153.420 265.200,153.600 264.840,153.600 264.400 C 153.600 263.960,153.780 263.600,154.000 263.600 C 154.220 263.600,154.400 263.280,154.400 262.888 C 154.400 262.497,154.760 261.917,155.200 261.600 C 155.640 261.283,156.000 260.802,156.000 260.531 C 156.000 259.889,159.889 256.000,160.531 256.000 C 160.802 256.000,161.283 255.640,161.600 255.200 C 161.917 254.760,162.497 254.400,162.888 254.400 C 163.280 254.400,163.600 254.220,163.600 254.000 C 163.600 253.780,163.960 253.600,164.400 253.600 C 164.840 253.600,165.200 253.420,165.200 253.200 C 165.200 252.980,165.560 252.800,166.000 252.800 C 166.440 252.800,166.800 252.620,166.800 252.400 C 166.800 252.180,167.520 252.000,168.400 252.000 C 169.280 252.000,170.000 251.820,170.000 251.600 C 170.000 251.337,180.267 251.200,200.000 251.200 C 219.733 251.200,230.000 251.337,230.000 251.600 C 230.000 251.820,230.720 252.000,231.600 252.000 C 232.480 252.000,233.200 252.180,233.200 252.400 C 233.200 252.620,233.560 252.800,234.000 252.800 C 234.440 252.800,234.800 252.980,234.800 253.200 C 234.800 253.420,235.160 253.600,235.600 253.600 C 236.040 253.600,236.400 253.780,236.400 254.000 C 236.400 254.220,236.720 254.400,237.112 254.400 C 237.503 254.400,238.083 254.760,238.400 255.200 C 238.717 255.640,239.213 256.000,239.502 256.000 C 239.790 256.000,240.657 256.630,241.427 257.400 C 242.197 258.170,242.997 258.800,243.206 258.800 C 243.414 258.800,243.707 259.295,243.856 259.900 C 244.006 260.505,244.459 261.291,244.864 261.647 C 245.269 262.003,245.600 262.588,245.600 262.947 C 245.600 263.306,245.780 263.600,246.000 263.600 C 246.220 263.600,246.400 263.960,246.400 264.400 C 246.400 264.840,246.580 265.200,246.800 265.200 C 247.020 265.200,247.200 265.560,247.200 266.000 C 247.200 266.440,247.380 266.800,247.600 266.800 C 247.820 266.800,248.000 267.520,248.000 268.400 C 248.000 269.280,248.180 270.000,248.400 270.000 C 248.665 270.000,248.800 291.937,248.800 335.011 L 248.800 400.021 291.267 399.911 C 324.806 399.823,333.768 399.695,333.900 399.300 C 333.992 399.025,334.592 398.800,335.233 398.800 C 335.875 398.800,336.400 398.620,336.400 398.400 C 336.400 398.180,336.720 398.000,337.112 398.000 C 337.503 398.000,338.083 397.640,338.400 397.200 C 338.717 396.760,339.257 396.400,339.600 396.400 C 339.943 396.400,340.450 396.085,340.727 395.700 C 341.004 395.315,341.359 394.820,341.515 394.600 C 341.672 394.380,342.148 394.008,342.573 393.773 C 342.999 393.539,343.539 392.999,343.773 392.573 C 344.008 392.148,344.380 391.672,344.600 391.515 C 344.820 391.359,345.315 391.004,345.700 390.727 C 346.085 390.450,346.400 389.943,346.400 389.600 C 346.400 389.257,346.760 388.717,347.200 388.400 C 347.640 388.083,348.000 387.503,348.000 387.112 C 348.000 386.720,348.180 386.400,348.400 386.400 C 348.620 386.400,348.800 385.860,348.800 385.200 C 348.800 384.540,348.980 384.000,349.200 384.000 C 349.420 384.000,349.600 383.460,349.600 382.800 C 349.600 382.140,349.780 381.600,350.000 381.600 C 350.220 381.600,350.400 380.700,350.400 379.600 C 350.400 378.500,350.580 377.600,350.800 377.600 C 351.065 377.600,351.200 352.067,351.200 301.800 L 351.200 226.000 364.400 226.000 C 371.660 226.000,377.600 225.847,377.600 225.659 C 377.600 225.472,379.173 225.208,381.096 225.072 C 383.018 224.936,384.653 224.640,384.729 224.413 C 384.805 224.186,385.212 224.000,385.633 224.000 C 386.055 224.000,386.400 223.820,386.400 223.600 C 386.400 223.380,386.760 223.200,387.200 223.200 C 387.640 223.200,388.000 223.020,388.000 222.800 C 388.000 222.580,388.267 222.400,388.593 222.400 C 388.919 222.400,389.742 221.905,390.420 221.300 C 393.707 218.371,395.600 216.402,395.600 215.914 C 395.600 215.619,395.960 215.117,396.400 214.800 C 396.840 214.483,397.200 213.903,397.200 213.512 C 397.200 213.120,397.380 212.800,397.600 212.800 C 397.820 212.800,398.000 212.440,398.000 212.000 C 398.000 211.560,398.180 211.200,398.400 211.200 C 398.620 211.200,398.800 210.855,398.800 210.433 C 398.800 210.012,399.025 209.592,399.300 209.500 C 399.681 209.373,399.800 207.111,399.800 200.000 C 399.800 192.889,399.681 190.627,399.300 190.500 C 399.025 190.408,398.800 189.988,398.800 189.567 C 398.800 189.145,398.620 188.800,398.400 188.800 C 398.180 188.800,398.000 188.440,398.000 188.000 C 398.000 187.560,397.820 187.200,397.600 187.200 C 397.380 187.200,397.200 186.975,397.199 186.700 C 397.199 186.425,396.659 185.570,396.000 184.800 C 395.341 184.030,394.801 183.260,394.801 183.089 C 394.800 182.919,394.035 181.994,393.100 181.034 C 392.165 180.075,390.950 178.694,390.400 177.966 C 389.850 177.238,380.805 168.051,370.300 157.549 L 351.200 138.455 351.200 92.827 C 351.200 62.676,351.064 47.200,350.800 47.200 C 350.580 47.200,350.400 46.390,350.400 45.400 C 350.400 44.410,350.220 43.600,350.000 43.600 C 349.780 43.600,349.600 43.060,349.600 42.400 C 349.600 41.740,349.420 41.200,349.200 41.200 C 348.980 41.200,348.800 40.660,348.800 40.000 C 348.800 39.340,348.620 38.800,348.400 38.800 C 348.180 38.800,348.000 38.480,348.000 38.088 C 348.000 37.697,347.640 37.117,347.200 36.800 C 346.760 36.483,346.400 35.975,346.400 35.672 C 346.400 35.369,345.860 34.617,345.200 34.000 C 344.540 33.383,344.000 32.747,344.000 32.586 C 344.000 32.218,342.385 30.800,341.966 30.800 C 341.794 30.800,341.549 30.469,341.420 30.064 C 341.292 29.659,340.695 29.074,340.093 28.764 C 339.492 28.454,338.762 27.975,338.471 27.700 C 338.181 27.425,337.596 27.200,337.171 27.200 C 336.747 27.200,336.400 27.020,336.400 26.800 C 336.400 26.580,335.860 26.400,335.200 26.400 C 334.540 26.400,334.000 26.220,334.000 26.000 C 334.000 25.780,333.460 25.600,332.800 25.600 C 332.140 25.600,331.600 25.420,331.600 25.200 C 331.600 24.980,330.700 24.800,329.600 24.800 C 328.500 24.800,327.600 24.620,327.600 24.400 C 327.600 24.140,322.267 24.000,312.400 24.000 C 302.533 24.000,297.200 24.140,297.200 24.400 C 297.200 24.620,296.210 24.800,295.000 24.800 C 293.790 24.800,292.800 24.980,292.800 25.200 C 292.800 25.420,292.260 25.600,291.600 25.600 C 290.940 25.600,290.400 25.780,290.400 26.000 C 290.400 26.220,290.040 26.400,289.600 26.400 C 289.160 26.400,288.800 26.580,288.800 26.800 C 288.800 27.020,288.453 27.200,288.029 27.200 C 287.604 27.200,286.987 27.470,286.657 27.800 C 286.327 28.130,285.851 28.400,285.600 28.400 C 285.004 28.400,278.400 35.004,278.400 35.600 C 278.400 35.851,278.130 36.327,277.800 36.657 C 277.470 36.987,277.200 37.604,277.200 38.029 C 277.200 38.453,277.020 38.800,276.800 38.800 C 276.580 38.800,276.400 39.160,276.400 39.600 C 276.400 40.040,276.220 40.400,276.000 40.400 C 275.780 40.400,275.600 40.940,275.600 41.600 C 275.600 42.260,275.420 42.800,275.200 42.800 C 274.980 42.800,274.800 43.790,274.800 45.000 C 274.800 46.210,274.620 47.200,274.400 47.200 C 274.148 47.200,274.000 49.822,274.000 54.265 L 274.000 61.330 249.500 36.894 C 236.025 23.455,224.404 11.951,223.675 11.330 C 222.947 10.708,221.195 9.075,219.783 7.700 C 218.370 6.325,217.030 5.200,216.804 5.200 C 216.578 5.200,215.828 4.660,215.137 4.000 C 214.446 3.340,213.638 2.800,213.341 2.800 C 213.043 2.800,212.800 2.620,212.800 2.400 C 212.800 2.180,212.440 2.000,212.000 2.000 C 211.560 2.000,211.200 1.820,211.200 1.600 C 211.200 1.380,210.855 1.200,210.433 1.200 C 210.012 1.200,209.592 0.975,209.500 0.700 C 209.334 0.199,194.782 -0.151,191.700 0.272 " stroke="none" fill="#1ca4f4" fill-rule="evenodd"></path><path id="path1" d="" stroke="none" fill="#20a4f4" fill-rule="evenodd"></path></g></svg>