<svg id="svg" xmlns="http://www.w3.org/2000/svg" xmlns:xlink="http://www.w3.org/1999/xlink" width="400" height="400" viewBox="0, 0, 400,400" version="1.1"><g id="svgg"><path id="path0" d="M335.266 133.950 C 334.832 134.226,334.845 134.332,335.333 134.519 C 335.664 134.646,336.033 134.491,336.154 134.175 C 336.402 133.530,336.064 133.445,335.266 133.950 M249.200 183.213 C 249.200 183.426,249.470 183.600,249.800 183.600 C 250.130 183.600,250.400 183.851,250.400 184.157 C 250.400 184.464,250.670 184.818,251.000 184.945 C 251.330 185.071,251.600 185.001,251.600 184.787 C 251.600 184.574,251.420 184.400,251.200 184.400 C 250.980 184.400,250.845 184.203,250.900 183.962 C 250.955 183.720,250.595 183.366,250.100 183.174 C 249.546 182.960,249.200 182.975,249.200 183.213 M251.988 213.014 C 251.294 213.851,251.873 214.298,252.648 213.524 C 253.022 213.149,253.118 212.796,252.884 212.652 C 252.668 212.518,252.265 212.681,251.988 213.014 M250.000 215.400 C 249.157 216.298,249.136 216.400,249.797 216.400 C 250.202 216.400,250.421 216.288,250.284 216.150 C 250.146 216.013,250.431 215.569,250.917 215.164 C 251.403 214.758,251.606 214.421,251.370 214.413 C 251.133 214.406,250.517 214.850,250.000 215.400 M252.367 282.821 C 251.905 283.106,251.947 283.276,252.602 283.771 C 253.554 284.491,254.000 284.555,254.000 283.971 C 254.000 283.186,252.960 282.454,252.367 282.821 " stroke="none" fill="#fcfcfc" fill-rule="evenodd"></path><path id="path1" d="" stroke="none" fill="#100fcfc" fill-rule="evenodd"></path></g></svg>