<svg id="svg" xmlns="http://www.w3.org/2000/svg" xmlns:xlink="http://www.w3.org/1999/xlink" width="400" height="400" viewBox="0, 0, 400,400" version="1.1"><g id="svgg"><path id="path0" d="M310.000 66.400 C 310.000 66.620,309.100 66.800,308.000 66.800 C 306.900 66.800,306.000 66.980,306.000 67.200 C 306.000 67.420,305.280 67.600,304.400 67.600 C 303.520 67.600,302.800 67.780,302.800 68.000 C 302.800 68.220,302.440 68.400,302.000 68.400 C 301.560 68.400,301.200 68.580,301.200 68.800 C 301.200 69.020,300.840 69.200,300.400 69.200 C 299.960 69.200,299.600 69.380,299.600 69.600 C 299.600 69.820,299.240 70.000,298.800 70.000 C 298.360 70.000,298.000 70.180,298.000 70.400 C 298.000 70.620,297.640 70.800,297.200 70.800 C 296.760 70.800,296.400 70.980,296.400 71.200 C 296.400 71.420,296.040 71.600,295.600 71.600 C 295.057 71.600,294.800 71.867,294.800 72.429 C 294.800 73.574,293.770 74.508,292.833 74.211 C 292.273 74.033,291.989 74.203,291.788 74.838 C 291.371 76.152,288.142 79.200,287.167 79.200 C 286.460 79.200,286.356 79.369,286.561 80.185 C 286.757 80.970,286.563 81.352,285.604 82.060 C 284.942 82.550,284.400 83.237,284.400 83.587 C 284.400 83.937,284.040 84.483,283.600 84.800 C 283.160 85.117,282.800 85.697,282.800 86.088 C 282.800 86.480,282.508 86.800,282.151 86.800 C 281.610 86.800,281.588 86.903,282.017 87.420 C 282.450 87.942,282.405 88.074,281.739 88.248 C 281.121 88.409,280.984 88.712,281.119 89.627 C 281.253 90.540,281.137 90.800,280.596 90.800 C 280.027 90.800,279.991 90.907,280.396 91.395 C 281.013 92.139,280.643 93.200,279.766 93.200 C 279.268 93.200,279.173 93.421,279.379 94.100 C 279.833 95.600,279.822 96.106,279.334 96.279 C 279.077 96.370,278.770 96.119,278.650 95.722 C 278.531 95.325,278.538 95.630,278.666 96.400 C 279.140 99.246,279.253 107.707,278.824 108.136 C 278.591 108.369,278.403 109.109,278.406 109.780 C 278.411 110.701,278.505 110.854,278.789 110.403 C 279.094 109.922,279.264 109.904,279.673 110.313 C 280.075 110.715,280.079 110.982,279.690 111.605 C 278.957 112.778,279.095 113.879,280.004 114.117 C 280.694 114.297,280.751 114.478,280.404 115.390 C 279.890 116.741,279.896 116.821,280.500 116.700 C 280.808 116.638,280.952 116.944,280.875 117.497 C 280.755 118.367,281.722 120.200,282.301 120.200 C 282.458 120.200,282.533 120.519,282.467 120.909 C 282.401 121.299,282.494 121.585,282.673 121.545 C 283.567 121.347,284.365 122.210,284.605 123.631 C 284.783 124.682,285.079 125.200,285.502 125.200 C 285.849 125.200,286.025 125.309,285.892 125.442 C 285.608 125.725,291.852 132.000,292.417 132.000 C 292.628 132.000,292.800 132.244,292.800 132.543 C 292.800 132.859,293.509 133.236,294.495 133.444 C 295.786 133.716,296.321 134.075,296.741 134.950 C 297.151 135.808,297.376 135.963,297.624 135.561 C 297.807 135.265,298.011 135.108,298.078 135.212 C 298.145 135.315,298.405 135.760,298.655 136.200 C 298.972 136.758,299.488 136.982,300.355 136.941 C 301.600 136.882,302.043 137.355,301.100 137.735 C 300.811 137.852,300.906 137.950,301.326 137.968 C 301.726 137.986,302.414 137.807,302.856 137.570 C 303.527 137.211,303.695 137.277,303.876 137.970 C 304.117 138.889,304.838 139.022,306.056 138.370 C 306.727 138.011,306.895 138.077,307.076 138.770 C 307.299 139.621,309.200 140.006,309.200 139.200 C 309.200 138.951,311.459 138.800,315.176 138.800 C 318.729 138.800,321.253 138.962,321.400 139.200 C 321.855 139.937,323.101 139.619,323.360 138.700 C 323.579 137.920,323.679 137.880,324.107 138.403 C 324.797 139.247,326.272 138.933,326.546 137.884 C 326.727 137.194,326.876 137.116,327.267 137.507 C 328.138 138.378,329.101 138.060,329.558 136.749 C 329.926 135.694,330.089 135.576,330.597 135.998 C 331.092 136.408,331.200 136.382,331.200 135.849 C 331.200 135.467,331.529 135.200,332.000 135.200 C 332.440 135.200,332.800 135.020,332.800 134.800 C 332.800 134.580,333.117 134.400,333.504 134.400 C 333.891 134.400,334.432 134.040,334.707 133.600 C 334.982 133.160,335.565 132.800,336.003 132.800 C 336.442 132.800,336.800 132.637,336.800 132.439 C 336.800 131.648,343.986 124.800,344.815 124.800 C 345.550 124.800,345.628 124.639,345.400 123.600 C 345.160 122.509,345.230 122.400,346.168 122.400 C 346.933 122.400,347.200 122.193,347.200 121.600 C 347.200 121.160,347.380 120.800,347.600 120.800 C 347.820 120.800,348.000 120.440,348.000 120.000 C 348.000 119.560,348.180 119.200,348.400 119.200 C 348.620 119.200,348.800 118.840,348.800 118.400 C 348.800 117.960,348.980 117.600,349.200 117.600 C 349.420 117.600,349.600 117.060,349.600 116.400 C 349.600 115.740,349.780 115.200,350.000 115.200 C 350.220 115.200,350.400 114.660,350.400 114.000 C 350.400 113.340,350.580 112.800,350.800 112.800 C 351.020 112.800,351.200 112.080,351.200 111.200 C 351.200 110.320,351.380 109.600,351.600 109.600 C 351.849 109.600,352.000 107.267,352.000 103.400 C 352.000 99.533,351.849 97.200,351.600 97.200 C 351.380 97.200,351.200 96.390,351.200 95.400 C 351.200 94.410,351.020 93.600,350.800 93.600 C 350.580 93.600,350.400 92.880,350.400 92.000 C 350.400 91.120,350.220 90.400,350.000 90.400 C 349.780 90.400,349.600 90.080,349.600 89.688 C 349.600 89.297,349.240 88.717,348.800 88.400 C 348.360 88.083,348.000 87.503,348.000 87.112 C 348.000 86.720,347.820 86.400,347.600 86.400 C 347.380 86.400,347.200 85.952,347.200 85.403 C 347.200 84.840,346.852 84.190,346.400 83.907 C 345.960 83.632,345.600 83.091,345.600 82.704 C 345.600 82.317,345.399 82.000,345.153 82.000 C 344.473 82.000,342.383 79.470,342.592 78.900 C 342.692 78.625,342.538 78.400,342.249 78.400 C 341.960 78.400,341.398 78.040,341.000 77.600 C 340.602 77.160,340.109 76.800,339.905 76.800 C 339.416 76.800,336.800 74.098,336.800 73.593 C 336.800 73.377,336.444 73.200,336.009 73.200 C 335.574 73.200,334.925 72.752,334.565 72.203 C 334.206 71.655,333.785 71.286,333.629 71.382 C 333.473 71.478,333.093 71.207,332.785 70.779 C 332.476 70.350,331.763 70.000,331.200 70.000 C 330.635 70.000,329.918 69.641,329.600 69.200 C 329.261 68.730,328.565 68.400,327.912 68.400 C 327.300 68.400,326.800 68.220,326.800 68.000 C 326.800 67.780,326.350 67.600,325.800 67.600 C 325.250 67.600,324.800 67.420,324.800 67.200 C 324.800 66.980,323.900 66.800,322.800 66.800 C 321.700 66.800,320.800 66.620,320.800 66.400 C 320.800 66.153,318.733 66.000,315.400 66.000 C 312.067 66.000,310.000 66.153,310.000 66.400 M61.600 82.350 C 61.600 82.748,61.268 82.834,60.400 82.660 C 59.678 82.516,59.200 82.587,59.200 82.839 C 59.200 83.387,58.461 84.065,57.100 84.768 C 56.495 85.080,56.000 85.543,56.000 85.798 C 56.000 86.278,54.063 88.276,53.768 88.100 C 53.190 87.755,52.859 88.147,52.925 89.100 C 52.986 89.990,52.752 90.309,51.700 90.772 C 50.919 91.116,50.400 91.635,50.400 92.072 C 50.400 92.472,50.220 92.800,50.000 92.800 C 49.780 92.800,49.600 93.070,49.600 93.400 C 49.600 93.730,49.420 94.000,49.200 94.000 C 48.980 94.000,48.800 94.720,48.800 95.600 C 48.800 96.480,48.620 97.200,48.400 97.200 C 48.158 97.200,48.000 98.933,48.000 101.600 C 48.000 104.267,48.158 106.000,48.400 106.000 C 48.620 106.000,48.800 106.540,48.800 107.200 C 48.800 107.860,48.980 108.400,49.200 108.400 C 49.420 108.400,49.600 108.850,49.600 109.400 C 49.600 109.950,49.780 110.400,50.000 110.400 C 50.220 110.400,50.400 110.748,50.400 111.173 C 50.400 111.598,50.737 112.053,51.149 112.184 C 52.002 112.454,58.000 118.217,58.000 118.766 C 58.000 118.963,58.360 119.031,58.800 118.916 C 59.341 118.774,59.600 118.904,59.600 119.316 C 59.600 119.744,59.858 119.858,60.467 119.698 C 61.156 119.518,61.282 119.609,61.080 120.136 C 60.885 120.644,61.057 120.800,61.813 120.800 C 62.356 120.800,62.800 120.980,62.800 121.200 C 62.800 121.465,93.133 121.600,153.000 121.600 C 212.867 121.600,243.200 121.465,243.200 121.200 C 243.200 120.980,243.644 120.800,244.187 120.800 C 244.860 120.800,245.108 120.625,244.964 120.251 C 244.809 119.846,245.024 119.754,245.783 119.899 C 246.590 120.053,246.760 119.962,246.574 119.477 C 246.394 119.007,246.537 118.911,247.168 119.076 C 247.805 119.242,248.000 119.106,248.000 118.495 C 248.000 118.022,249.183 116.581,250.900 114.961 C 252.495 113.456,253.749 112.004,253.687 111.734 C 253.558 111.170,255.042 110.255,255.563 110.577 C 255.753 110.695,256.000 110.442,256.112 110.015 C 256.224 109.588,256.109 109.154,255.858 109.051 C 255.606 108.948,255.715 108.849,256.100 108.832 C 256.567 108.811,256.800 108.475,256.800 107.824 C 256.800 107.287,256.980 106.736,257.200 106.600 C 257.420 106.464,257.600 105.733,257.600 104.976 C 257.600 104.219,257.780 103.600,258.000 103.600 C 258.220 103.600,258.400 102.700,258.400 101.600 C 258.400 100.500,258.220 99.600,258.000 99.600 C 257.780 99.600,257.600 98.801,257.600 97.824 C 257.600 96.847,257.420 95.936,257.200 95.800 C 256.980 95.664,256.800 95.131,256.800 94.616 C 256.800 93.922,256.469 93.563,255.525 93.234 C 254.542 92.891,254.359 92.681,254.725 92.315 C 255.521 91.519,255.274 90.434,254.238 90.174 C 252.984 89.859,248.250 84.966,248.620 84.368 C 248.812 84.057,248.632 83.999,248.049 84.184 C 247.215 84.449,246.000 83.686,246.000 82.898 C 246.000 82.700,245.431 82.622,244.736 82.724 C 243.775 82.865,243.523 82.777,243.685 82.355 C 243.866 81.883,230.303 81.800,152.749 81.800 C 75.677 81.800,61.600 81.885,61.600 82.350 M313.900 162.289 C 314.615 162.378,315.785 162.378,316.500 162.289 C 317.215 162.201,316.630 162.128,315.200 162.128 C 313.770 162.128,313.185 162.201,313.900 162.289 M308.676 163.455 C 308.896 164.026,308.690 164.074,307.067 163.831 C 305.478 163.593,305.242 163.643,305.446 164.176 C 305.631 164.657,305.407 164.800,304.466 164.800 C 303.796 164.800,303.136 164.980,303.000 165.200 C 302.864 165.420,302.313 165.600,301.776 165.600 C 301.239 165.600,300.800 165.800,300.800 166.045 C 300.800 166.338,300.312 166.397,299.361 166.219 C 298.386 166.036,298.006 166.086,298.184 166.374 C 298.338 166.623,298.104 166.800,297.624 166.800 C 297.158 166.800,296.800 167.061,296.800 167.400 C 296.800 167.730,296.616 168.000,296.390 168.000 C 296.165 168.000,295.802 168.470,295.583 169.043 C 295.253 169.913,295.087 170.004,294.587 169.589 C 293.976 169.082,292.400 170.331,292.400 171.323 C 292.400 172.020,287.457 176.599,286.100 177.160 C 284.673 177.749,284.553 177.989,285.300 178.747 C 285.701 179.153,285.641 179.365,285.000 179.813 C 284.560 180.121,283.973 180.568,283.695 180.807 C 283.417 181.046,283.001 181.124,282.769 180.981 C 282.488 180.807,282.438 181.196,282.619 182.161 C 282.797 183.112,282.738 183.600,282.445 183.600 C 282.200 183.600,282.000 183.960,282.000 184.400 C 282.000 184.840,281.820 185.200,281.600 185.200 C 281.380 185.200,281.200 185.740,281.200 186.400 C 281.200 187.060,281.017 187.600,280.792 187.600 C 280.555 187.600,280.492 188.027,280.642 188.625 C 280.849 189.449,280.733 189.692,280.050 189.871 C 279.116 190.115,278.951 190.791,279.653 191.493 C 280.298 192.138,279.748 193.342,278.948 193.036 C 278.421 192.833,278.364 192.954,278.635 193.694 C 279.003 194.697,279.035 203.684,278.680 206.200 C 278.556 207.080,278.546 207.385,278.658 206.877 C 278.770 206.369,279.073 206.029,279.331 206.120 C 279.812 206.290,279.816 206.588,279.365 208.506 C 279.151 209.415,279.219 209.568,279.749 209.364 C 280.548 209.058,281.097 210.263,280.453 210.907 C 279.790 211.570,279.900 212.013,280.655 211.724 C 281.196 211.516,281.277 211.691,281.124 212.736 C 280.989 213.657,281.095 214.000,281.516 214.000 C 281.896 214.000,282.022 214.273,281.884 214.800 C 281.748 215.320,281.872 215.600,282.237 215.600 C 282.547 215.600,282.800 215.954,282.800 216.386 C 282.800 216.818,283.166 217.368,283.614 217.608 C 284.288 217.968,284.386 218.298,284.184 219.522 C 284.003 220.620,284.049 220.846,284.362 220.400 C 284.709 219.906,284.871 220.030,285.279 221.100 C 285.585 221.901,286.052 222.400,286.495 222.400 C 287.354 222.400,292.198 227.134,292.584 228.350 C 292.795 229.016,293.067 229.148,293.827 228.957 C 294.635 228.755,294.800 228.861,294.800 229.585 C 294.800 230.605,295.675 231.600,296.571 231.600 C 296.917 231.600,297.200 231.780,297.200 232.000 C 297.200 232.220,297.650 232.400,298.200 232.400 C 298.750 232.400,299.200 232.580,299.200 232.800 C 299.200 233.020,299.605 233.203,300.100 233.206 C 300.836 233.211,300.891 233.286,300.400 233.617 C 299.956 233.917,300.217 233.993,301.400 233.911 C 302.514 233.834,302.969 233.952,302.899 234.302 C 302.832 234.637,303.230 234.770,304.099 234.702 C 304.977 234.633,305.367 234.765,305.297 235.108 C 305.225 235.467,305.692 235.584,306.897 235.508 C 307.868 235.446,308.571 235.572,308.533 235.800 C 308.491 236.054,310.944 236.200,315.233 236.200 C 320.617 236.200,322.000 236.091,322.000 235.665 C 322.000 235.262,322.396 235.197,323.600 235.400 C 324.949 235.628,325.200 235.563,325.200 234.985 C 325.200 234.437,325.440 234.348,326.400 234.540 C 327.333 234.727,327.600 234.638,327.600 234.140 C 327.600 233.642,327.867 233.553,328.800 233.740 C 329.670 233.914,330.000 233.828,330.000 233.427 C 330.000 233.068,330.286 232.950,330.817 233.089 C 331.375 233.234,331.597 233.127,331.517 232.751 C 331.443 232.404,331.736 232.212,332.309 232.233 C 332.942 232.256,333.290 231.983,333.452 231.336 C 333.637 230.600,333.878 230.454,334.610 230.638 C 335.359 230.826,335.560 230.692,335.668 229.935 C 335.775 229.179,336.010 229.022,336.900 229.115 C 337.752 229.204,338.000 229.060,338.000 228.477 C 338.000 227.697,342.857 222.400,343.572 222.400 C 343.793 222.400,343.884 222.164,343.773 221.875 C 343.662 221.586,343.893 221.059,344.286 220.703 C 344.988 220.068,345.158 220.000,346.043 220.000 C 346.311 220.000,346.392 219.621,346.246 219.043 C 346.050 218.260,346.189 218.039,347.003 217.835 C 347.646 217.674,348.000 217.303,348.000 216.792 C 348.000 216.357,348.180 216.000,348.400 216.000 C 348.620 216.000,348.800 215.640,348.800 215.200 C 348.800 214.760,348.980 214.400,349.200 214.400 C 349.420 214.400,349.600 213.860,349.600 213.200 C 349.600 212.540,349.780 212.000,350.000 212.000 C 350.220 212.000,350.400 211.460,350.400 210.800 C 350.400 210.140,350.580 209.600,350.800 209.600 C 351.020 209.600,351.200 208.790,351.200 207.800 C 351.200 206.810,351.380 206.000,351.600 206.000 C 351.849 206.000,352.000 203.667,352.000 199.800 C 352.000 195.933,351.849 193.600,351.600 193.600 C 351.380 193.600,351.200 192.700,351.200 191.600 C 351.200 190.500,351.020 189.600,350.800 189.600 C 350.580 189.600,350.400 189.060,350.400 188.400 C 350.400 187.740,350.220 187.200,350.000 187.200 C 349.780 187.200,349.600 186.660,349.600 186.000 C 349.600 185.340,349.420 184.800,349.200 184.800 C 348.980 184.800,348.800 184.440,348.800 184.000 C 348.800 183.560,348.620 183.200,348.400 183.200 C 348.180 183.200,348.000 182.853,348.000 182.428 C 348.000 181.932,347.678 181.610,347.100 181.528 C 346.381 181.426,346.223 181.179,346.315 180.300 C 346.415 179.348,346.288 179.200,345.372 179.200 C 344.450 179.200,344.345 179.074,344.557 178.227 C 344.750 177.459,344.616 177.195,343.919 176.974 C 342.667 176.577,338.000 171.660,338.000 170.738 C 338.000 170.140,337.758 169.995,336.909 170.085 C 336.262 170.153,335.793 169.996,335.759 169.700 C 335.726 169.425,335.678 169.008,335.650 168.773 C 335.621 168.527,335.248 168.458,334.771 168.609 C 333.893 168.888,332.665 167.742,333.095 167.046 C 333.222 166.840,332.861 166.798,332.260 166.949 C 331.485 167.144,331.200 167.062,331.200 166.645 C 331.200 166.272,330.924 166.147,330.400 166.284 C 329.880 166.420,329.600 166.296,329.600 165.931 C 329.600 165.580,329.186 165.374,328.500 165.384 C 327.862 165.393,327.438 165.201,327.491 164.927 C 327.554 164.598,327.136 164.526,326.124 164.690 C 324.852 164.896,324.700 164.837,324.934 164.228 C 325.171 163.610,325.017 163.561,323.601 163.800 C 322.253 164.028,322.000 163.962,322.000 163.389 C 322.000 162.838,321.789 162.765,320.900 163.011 C 319.031 163.528,310.735 163.695,310.265 163.225 C 309.567 162.527,308.386 162.698,308.676 163.455 M62.000 180.530 C 62.000 181.411,61.346 181.706,60.452 181.228 C 59.823 180.891,59.648 180.975,59.457 181.703 C 59.274 182.403,59.124 182.484,58.733 182.093 C 58.141 181.501,57.450 181.434,57.802 182.003 C 58.148 182.563,56.901 183.724,56.229 183.467 C 55.904 183.342,55.593 183.583,55.469 184.057 C 55.354 184.498,54.876 184.960,54.407 185.082 C 53.936 185.205,53.641 185.531,53.748 185.810 C 53.936 186.299,52.458 188.000,51.846 188.000 C 51.314 188.000,50.400 189.120,50.400 189.771 C 50.400 190.117,50.220 190.400,50.000 190.400 C 49.780 190.400,49.600 190.760,49.600 191.200 C 49.600 191.640,49.420 192.000,49.200 192.000 C 48.980 192.000,48.800 192.630,48.800 193.400 C 48.800 194.170,48.620 194.800,48.400 194.800 C 48.156 194.800,48.000 196.667,48.000 199.600 C 48.000 202.533,48.156 204.400,48.400 204.400 C 48.620 204.400,48.800 205.120,48.800 206.000 C 48.800 206.880,48.980 207.600,49.200 207.600 C 49.420 207.600,49.600 207.870,49.600 208.200 C 49.600 208.530,49.780 208.800,50.000 208.800 C 50.220 208.800,50.400 209.084,50.400 209.431 C 50.400 209.779,51.120 210.754,52.000 211.600 C 52.880 212.446,53.600 213.421,53.600 213.769 C 53.600 214.116,53.818 214.355,54.085 214.300 C 54.352 214.245,54.757 214.614,54.985 215.119 C 55.253 215.713,55.648 215.974,56.100 215.857 C 56.484 215.757,56.900 215.838,57.023 216.038 C 57.146 216.237,57.519 216.400,57.852 216.400 C 58.640 216.400,59.718 217.485,59.417 217.973 C 59.275 218.202,59.769 218.257,60.658 218.113 C 61.827 217.923,62.089 217.991,61.918 218.437 C 61.733 218.920,74.611 219.000,152.651 219.000 C 229.015 219.000,243.600 218.913,243.600 218.457 C 243.600 218.078,243.901 217.989,244.589 218.162 C 245.365 218.356,245.529 218.279,245.347 217.805 C 245.186 217.388,245.366 217.200,245.924 217.200 C 246.369 217.200,246.804 216.988,246.891 216.728 C 246.981 216.457,247.346 216.370,247.749 216.525 C 248.152 216.680,248.328 216.992,248.164 217.259 C 247.989 217.541,248.051 217.616,248.321 217.449 C 248.565 217.298,248.658 216.895,248.527 216.554 C 248.232 215.784,252.888 210.965,254.261 210.621 C 254.851 210.472,255.200 210.090,255.200 209.592 C 255.200 209.157,255.346 208.800,255.525 208.800 C 255.704 208.800,256.098 208.170,256.400 207.400 C 256.702 206.630,257.096 206.000,257.275 206.000 C 257.454 206.000,257.600 205.100,257.600 204.000 C 257.600 202.900,257.780 202.000,258.000 202.000 C 258.222 202.000,258.400 200.933,258.400 199.600 C 258.400 198.267,258.222 197.200,258.000 197.200 C 257.780 197.200,257.600 196.390,257.600 195.400 C 257.600 194.410,257.420 193.600,257.200 193.600 C 256.980 193.600,256.800 193.240,256.800 192.800 C 256.800 192.360,256.620 192.000,256.400 192.000 C 256.180 192.000,256.000 191.640,256.000 191.200 C 256.000 190.760,255.820 190.400,255.600 190.400 C 255.380 190.400,255.200 190.043,255.200 189.608 C 255.200 189.082,254.839 188.725,254.130 188.547 C 253.054 188.277,248.923 184.211,248.228 182.739 C 247.956 182.164,247.604 182.013,246.928 182.182 C 246.174 182.372,246.000 182.255,246.000 181.559 C 246.000 180.830,245.907 180.779,245.380 181.217 C 244.856 181.652,244.724 181.597,244.533 180.866 C 244.302 179.984,242.400 179.570,242.400 180.402 C 242.400 180.904,64.223 180.753,62.900 180.249 C 62.205 179.985,62.000 180.049,62.000 180.530 M307.840 261.760 C 308.096 262.426,307.365 262.991,307.004 262.407 C 306.549 261.671,304.482 261.917,304.544 262.700 C 304.601 263.415,304.335 263.468,303.100 262.987 C 302.562 262.777,302.400 262.919,302.400 263.600 C 302.400 264.228,302.226 264.415,301.800 264.243 C 301.470 264.109,300.930 263.891,300.600 263.757 C 300.208 263.599,300.000 263.748,300.000 264.187 C 300.000 264.613,299.744 264.808,299.300 264.720 C 298.901 264.642,298.424 264.929,298.190 265.387 C 297.964 265.830,297.427 266.261,296.996 266.344 C 296.564 266.427,295.937 266.789,295.601 267.147 C 294.643 268.173,293.289 268.809,292.616 268.551 C 292.221 268.399,292.000 268.542,292.000 268.948 C 292.000 269.296,291.506 269.901,290.901 270.291 C 289.153 271.419,285.600 275.122,285.600 275.815 C 285.600 276.196,285.414 276.332,285.132 276.158 C 284.817 275.964,284.748 276.087,284.919 276.534 C 285.089 276.977,284.969 277.200,284.560 277.200 C 284.128 277.200,284.021 277.437,284.200 278.000 C 284.346 278.459,284.272 278.800,284.027 278.800 C 283.792 278.800,283.600 279.083,283.600 279.429 C 283.600 280.160,282.662 281.200,282.002 281.200 C 281.717 281.200,281.649 281.524,281.819 282.061 C 282.039 282.752,281.962 282.871,281.429 282.667 C 280.863 282.449,280.804 282.615,281.028 283.806 C 281.238 284.929,281.164 285.200,280.645 285.200 C 279.885 285.200,279.854 285.381,280.430 286.456 C 280.791 287.131,280.722 287.295,279.994 287.486 C 279.290 287.670,279.176 287.907,279.386 288.756 C 279.894 290.813,279.829 291.402,279.100 291.344 C 278.661 291.310,278.400 291.570,278.400 292.044 C 278.400 292.460,278.594 292.800,278.832 292.800 C 279.278 292.800,279.130 301.541,278.636 304.400 C 278.479 305.310,278.511 305.529,278.728 305.027 C 279.232 303.859,279.688 304.924,279.382 306.555 C 279.163 307.723,279.233 307.915,279.863 307.862 C 280.621 307.798,280.732 308.407,280.200 309.705 C 279.972 310.261,280.058 310.353,280.610 310.141 C 281.205 309.912,281.282 310.061,281.124 311.136 C 280.989 312.057,281.095 312.400,281.516 312.400 C 281.896 312.400,282.022 312.673,281.884 313.200 C 281.743 313.741,281.872 314.000,282.284 314.000 C 282.696 314.000,282.826 314.259,282.684 314.800 C 282.569 315.240,282.651 315.600,282.866 315.600 C 283.682 315.600,284.454 316.800,284.184 317.649 C 284.036 318.117,284.071 318.404,284.262 318.286 C 284.945 317.863,286.085 319.104,285.809 319.971 C 285.600 320.629,285.718 320.800,286.380 320.800 C 287.336 320.800,292.166 325.433,292.584 326.750 C 292.795 327.416,293.067 327.548,293.827 327.357 C 294.677 327.144,294.800 327.249,294.800 328.188 C 294.800 329.175,294.899 329.242,296.000 329.000 C 297.091 328.760,297.200 328.830,297.200 329.768 C 297.200 330.533,297.407 330.800,298.000 330.800 C 298.440 330.800,298.800 330.980,298.800 331.200 C 298.800 331.420,299.160 331.600,299.600 331.600 C 300.040 331.600,300.400 331.780,300.400 332.000 C 300.400 332.220,300.940 332.400,301.600 332.400 C 302.260 332.400,302.800 332.580,302.800 332.800 C 302.800 333.020,303.340 333.200,304.000 333.200 C 304.660 333.200,305.200 333.380,305.200 333.600 C 305.200 333.820,305.920 334.000,306.800 334.000 C 307.680 334.000,308.400 334.180,308.400 334.400 C 308.400 334.651,311.000 334.800,315.400 334.800 C 319.800 334.800,322.400 334.651,322.400 334.400 C 322.400 334.180,322.940 334.000,323.600 334.000 C 324.260 334.000,324.800 333.820,324.800 333.600 C 324.800 333.380,325.250 333.200,325.800 333.200 C 326.350 333.200,326.800 333.020,326.800 332.800 C 326.800 332.580,327.480 332.400,328.312 332.400 C 329.365 332.400,329.998 332.157,330.400 331.600 C 330.717 331.160,331.188 330.800,331.446 330.800 C 331.703 330.800,332.022 330.519,332.154 330.175 C 332.286 329.831,332.590 329.670,332.829 329.818 C 333.068 329.966,333.530 329.707,333.855 329.243 C 334.180 328.780,334.795 328.400,335.223 328.400 C 335.650 328.400,336.000 328.207,336.000 327.971 C 336.000 327.453,337.165 326.232,337.418 326.485 C 337.745 326.812,343.806 320.611,343.658 320.100 C 343.579 319.825,343.714 319.600,343.957 319.600 C 344.201 319.600,344.400 319.263,344.400 318.852 C 344.400 318.440,345.029 317.675,345.797 317.152 C 346.566 316.628,347.196 315.874,347.197 315.476 C 347.199 315.078,347.380 314.864,347.600 315.000 C 347.820 315.136,348.000 314.916,348.000 314.512 C 348.000 314.107,348.360 313.517,348.800 313.200 C 349.270 312.861,349.600 312.165,349.600 311.512 C 349.600 310.900,349.780 310.400,350.000 310.400 C 350.220 310.400,350.400 309.770,350.400 309.000 C 350.400 308.230,350.580 307.600,350.800 307.600 C 351.020 307.600,351.200 307.060,351.200 306.400 C 351.200 305.740,351.380 305.200,351.600 305.200 C 351.851 305.200,352.000 302.600,352.000 298.200 C 352.000 293.800,351.851 291.200,351.600 291.200 C 351.380 291.200,351.200 290.480,351.200 289.600 C 351.200 288.720,351.020 288.000,350.800 288.000 C 350.580 288.000,350.400 287.460,350.400 286.800 C 350.400 286.140,350.220 285.600,350.000 285.600 C 349.780 285.600,349.600 285.060,349.600 284.400 C 349.600 283.740,349.420 283.200,349.200 283.200 C 348.980 283.200,348.800 282.840,348.800 282.400 C 348.800 281.960,348.620 281.600,348.400 281.600 C 348.180 281.600,348.000 281.240,348.000 280.800 C 348.000 280.207,347.733 280.000,346.968 280.000 C 346.030 280.000,345.960 279.891,346.200 278.800 C 346.442 277.699,346.375 277.600,345.388 277.600 C 344.449 277.600,344.344 277.477,344.557 276.627 C 344.748 275.867,344.616 275.595,343.950 275.384 C 342.736 274.999,338.018 270.171,337.553 268.838 C 337.237 267.932,336.976 267.754,336.181 267.906 C 335.642 268.009,335.200 267.905,335.200 267.674 C 335.200 267.444,334.800 267.198,334.310 267.128 C 333.821 267.058,333.211 266.579,332.955 266.065 C 332.673 265.495,332.386 265.300,332.222 265.565 C 331.775 266.288,331.200 266.055,331.200 265.151 C 331.200 264.429,331.107 264.379,330.580 264.817 C 330.056 265.252,329.924 265.196,329.731 264.457 C 329.546 263.752,329.392 263.675,328.931 264.057 C 328.470 264.440,328.316 264.364,328.133 263.666 C 327.897 262.763,327.030 262.504,326.596 263.207 C 326.220 263.815,325.510 263.213,325.778 262.513 C 326.005 261.922,325.231 261.900,323.200 262.440 C 322.822 262.541,322.621 262.341,322.656 261.900 C 322.717 261.129,321.042 260.885,320.600 261.600 C 320.456 261.833,318.196 262.000,315.176 262.000 C 311.992 262.000,310.000 261.846,310.000 261.600 C 310.000 261.380,309.466 261.200,308.813 261.200 C 307.960 261.200,307.686 261.358,307.840 261.760 M64.400 276.000 C 64.400 276.220,63.680 276.400,62.800 276.400 C 61.920 276.400,61.200 276.568,61.200 276.773 C 61.200 276.979,60.705 277.204,60.100 277.273 C 59.312 277.364,58.964 277.656,58.872 278.300 C 58.749 279.166,57.600 279.618,57.600 278.800 C 57.600 277.934,56.799 278.463,56.541 279.500 C 56.209 280.829,52.965 284.000,51.936 284.000 C 51.467 284.000,51.200 284.290,51.200 284.800 C 51.200 285.240,51.020 285.600,50.800 285.600 C 50.580 285.600,50.400 285.960,50.400 286.400 C 50.400 286.840,50.220 287.200,50.000 287.200 C 49.780 287.200,49.600 287.560,49.600 288.000 C 49.600 288.440,49.420 288.800,49.200 288.800 C 48.980 288.800,48.800 289.340,48.800 290.000 C 48.800 290.660,48.620 291.200,48.400 291.200 C 48.157 291.200,48.000 293.000,48.000 295.800 C 48.000 298.600,48.157 300.400,48.400 300.400 C 48.620 300.400,48.800 300.940,48.800 301.600 C 48.800 302.260,48.980 302.800,49.200 302.800 C 49.420 302.800,49.600 303.340,49.600 304.000 C 49.600 305.006,49.758 305.200,50.576 305.200 C 51.620 305.200,52.456 306.048,51.671 306.310 C 50.853 306.582,51.160 307.600,52.060 307.600 C 53.019 307.600,56.965 311.429,57.391 312.772 C 57.537 313.233,57.997 313.600,58.427 313.600 C 58.852 313.600,59.200 313.780,59.200 314.000 C 59.200 314.220,59.470 314.400,59.800 314.400 C 60.130 314.400,60.400 314.580,60.400 314.800 C 60.400 315.020,61.030 315.200,61.800 315.200 C 62.570 315.200,63.200 315.380,63.200 315.600 C 63.200 315.865,93.467 316.000,153.200 316.000 C 212.933 316.000,243.200 315.865,243.200 315.600 C 243.200 315.380,243.740 315.200,244.400 315.200 C 245.060 315.200,245.600 315.020,245.600 314.800 C 245.600 314.580,245.931 314.400,246.336 314.400 C 246.740 314.400,247.270 313.964,247.513 313.431 C 247.826 312.744,248.182 312.523,248.739 312.668 C 249.310 312.817,249.600 312.619,249.806 311.937 C 250.213 310.586,252.417 308.401,253.378 308.394 C 254.053 308.389,254.093 308.319,253.600 308.005 C 252.834 307.517,253.581 306.171,254.569 306.258 C 255.079 306.303,255.127 306.193,254.780 305.775 C 254.205 305.083,254.692 304.273,255.497 304.582 C 256.020 304.782,256.033 304.721,255.582 304.179 C 255.026 303.508,255.750 302.598,256.481 303.050 C 256.656 303.158,256.800 302.787,256.800 302.224 C 256.800 301.661,256.980 301.200,257.200 301.200 C 257.420 301.200,257.600 300.480,257.600 299.600 C 257.600 298.720,257.780 298.000,258.000 298.000 C 258.220 298.000,258.400 297.010,258.400 295.800 C 258.400 294.590,258.220 293.600,258.000 293.600 C 257.780 293.600,257.600 292.880,257.600 292.000 C 257.600 291.120,257.420 290.400,257.200 290.400 C 256.980 290.400,256.800 290.040,256.800 289.600 C 256.800 289.107,256.531 288.798,256.100 288.794 C 255.663 288.790,255.568 288.677,255.845 288.494 C 256.116 288.315,256.167 287.887,255.974 287.400 C 255.799 286.960,255.644 286.836,255.628 287.124 C 255.613 287.412,255.444 287.551,255.254 287.433 C 255.063 287.315,254.987 286.720,255.085 286.110 C 255.214 285.301,255.156 285.153,254.869 285.562 C 254.344 286.313,252.135 284.635,251.762 283.200 C 251.619 282.650,250.789 281.532,249.917 280.716 C 249.046 279.899,248.453 279.037,248.600 278.800 C 248.781 278.508,248.511 278.457,247.768 278.644 C 246.872 278.869,246.713 278.804,246.909 278.293 C 247.048 277.930,246.899 277.570,246.554 277.438 C 246.218 277.309,246.065 277.381,246.203 277.605 C 246.337 277.822,246.257 278.000,246.024 278.000 C 245.791 278.000,245.600 277.820,245.600 277.600 C 245.600 277.380,245.240 277.200,244.800 277.200 C 244.360 277.200,244.000 277.020,244.000 276.800 C 244.000 276.580,243.370 276.400,242.600 276.400 C 241.830 276.400,241.200 276.220,241.200 276.000 C 241.200 275.735,211.467 275.600,152.800 275.600 C 94.133 275.600,64.400 275.735,64.400 276.000 " stroke="none" fill="#040404" fill-rule="evenodd"></path><path id="path1" d="M334.400 71.920 C 334.400 72.441,335.315 73.200,335.942 73.200 C 336.404 73.200,336.375 73.035,335.800 72.400 C 335.056 71.578,334.400 71.353,334.400 71.920 M293.300 72.998 C 292.687 73.695,292.651 74.400,293.229 74.400 C 293.782 74.400,294.800 73.382,294.800 72.829 C 294.800 72.222,293.893 72.324,293.300 72.998 M336.800 73.593 C 336.800 74.098,339.416 76.800,339.905 76.800 C 340.109 76.800,340.602 77.160,341.000 77.600 C 341.781 78.463,342.400 78.641,342.400 78.003 C 342.400 77.423,340.733 75.600,340.203 75.600 C 339.954 75.600,339.232 75.060,338.600 74.400 C 337.425 73.174,336.800 72.893,336.800 73.593 M288.900 76.566 C 287.252 78.210,286.767 79.200,287.611 79.200 C 288.145 79.200,291.600 75.745,291.600 75.211 C 291.600 74.388,290.562 74.909,288.900 76.566 M342.406 79.100 C 342.417 79.611,344.680 82.000,345.153 82.000 C 345.945 82.000,345.633 81.359,344.211 80.064 C 342.798 78.778,342.395 78.563,342.406 79.100 M284.371 82.078 C 281.755 85.176,281.008 86.800,282.200 86.800 C 282.530 86.800,282.800 86.480,282.800 86.088 C 282.800 85.697,283.160 85.117,283.600 84.800 C 284.040 84.483,284.400 83.961,284.400 83.641 C 284.400 83.320,284.985 82.565,285.700 81.962 C 286.635 81.174,286.879 80.742,286.571 80.423 C 286.260 80.104,285.650 80.562,284.371 82.078 M63.698 81.065 C 63.421 81.177,63.297 81.433,63.421 81.634 C 63.800 82.248,242.505 82.114,242.300 81.500 C 242.133 80.999,64.930 80.567,63.698 81.065 M60.267 81.867 C 59.760 82.374,60.003 82.800,60.800 82.800 C 61.244 82.800,61.600 82.533,61.600 82.200 C 61.600 81.591,60.754 81.379,60.267 81.867 M243.880 81.853 C 243.318 82.415,243.624 82.800,244.633 82.800 C 245.282 82.800,245.605 82.614,245.500 82.300 C 245.308 81.722,244.292 81.441,243.880 81.853 M57.400 83.547 C 56.520 84.149,55.485 84.761,55.100 84.908 C 54.715 85.055,54.400 85.436,54.400 85.754 C 54.400 86.073,54.188 86.404,53.928 86.491 C 53.647 86.584,53.570 86.945,53.738 87.384 C 54.049 88.194,56.000 86.826,56.000 85.798 C 56.000 85.543,56.495 85.080,57.100 84.768 C 58.518 84.036,59.299 83.289,59.132 82.824 C 59.059 82.621,58.280 82.946,57.400 83.547 M246.000 82.829 C 246.000 83.382,247.018 84.400,247.571 84.400 C 248.237 84.400,248.077 83.546,247.300 82.957 C 246.442 82.306,246.000 82.262,246.000 82.829 M248.606 84.391 C 248.295 84.893,253.088 90.000,253.870 90.000 C 254.850 90.000,254.412 89.194,252.287 87.091 C 249.361 84.194,248.925 83.874,248.606 84.391 M280.984 87.627 C 280.615 88.222,281.042 88.546,281.808 88.252 C 282.162 88.117,282.339 87.824,282.202 87.603 C 281.878 87.078,281.316 87.089,280.984 87.627 M51.700 89.398 C 50.674 90.564,51.620 91.420,52.720 90.320 C 53.348 89.692,53.336 88.796,52.700 88.815 C 52.425 88.824,51.975 89.086,51.700 89.398 M280.267 89.067 C 279.763 89.570,280.000 90.800,280.600 90.800 C 280.973 90.800,281.200 90.422,281.200 89.800 C 281.200 88.829,280.811 88.523,280.267 89.067 M279.475 91.458 C 278.887 92.047,279.196 93.259,279.900 93.124 C 280.285 93.050,280.600 92.647,280.600 92.228 C 280.600 91.432,279.948 90.986,279.475 91.458 M254.678 92.256 C 254.304 92.629,254.755 93.200,255.424 93.200 C 255.741 93.200,256.000 92.930,256.000 92.600 C 256.000 91.998,255.156 91.778,254.678 92.256 M278.800 95.400 C 278.800 96.388,279.342 96.741,279.778 96.036 C 280.067 95.568,279.624 94.400,279.157 94.400 C 278.961 94.400,278.800 94.850,278.800 95.400 M278.043 97.920 C 277.383 99.153,277.460 107.386,278.137 107.948 C 279.053 108.708,279.200 108.022,279.194 103.033 C 279.187 97.957,278.843 96.425,278.043 97.920 M278.630 110.667 C 278.289 111.554,279.041 112.319,279.653 111.707 C 280.143 111.217,279.859 110.000,279.255 110.000 C 279.052 110.000,278.770 110.300,278.630 110.667 M254.248 110.915 C 253.861 111.199,253.601 111.609,253.672 111.826 C 253.742 112.043,252.495 113.453,250.900 114.959 C 247.911 117.781,247.283 118.896,248.900 118.511 C 249.943 118.262,253.600 114.864,253.600 114.144 C 253.600 113.876,253.842 113.416,254.137 113.120 C 254.695 112.562,255.600 111.020,255.600 110.626 C 255.600 110.244,254.988 110.374,254.248 110.915 M51.200 112.782 C 51.200 113.261,57.166 119.200,57.647 119.200 C 58.505 119.200,57.795 118.205,54.938 115.403 C 51.993 112.515,51.200 111.959,51.200 112.782 M279.206 114.471 C 279.214 115.135,279.894 116.241,280.140 115.988 C 280.685 115.429,280.532 114.215,279.900 114.085 C 279.512 114.005,279.203 114.177,279.206 114.471 M58.400 119.400 C 58.400 119.730,58.670 120.000,59.000 120.000 C 59.330 120.000,59.600 119.730,59.600 119.400 C 59.600 119.070,59.330 118.800,59.000 118.800 C 58.670 118.800,58.400 119.070,58.400 119.400 M60.000 120.233 C 60.000 120.940,60.861 120.817,61.108 120.075 C 61.195 119.814,60.982 119.600,60.633 119.600 C 60.285 119.600,60.000 119.885,60.000 120.233 M283.007 122.075 C 283.159 122.584,283.650 123.360,284.097 123.800 C 284.836 124.526,284.888 124.532,284.656 123.867 C 284.515 123.464,284.400 122.923,284.400 122.664 C 284.400 122.404,284.024 121.958,283.565 121.671 C 282.793 121.189,282.751 121.219,283.007 122.075 M345.271 123.067 C 345.465 124.070,346.400 124.208,346.400 123.233 C 346.400 122.742,346.142 122.400,345.771 122.400 C 345.398 122.400,345.194 122.672,345.271 123.067 M340.429 128.339 C 338.575 130.257,336.985 132.045,336.896 132.313 C 336.806 132.581,336.390 132.800,335.970 132.800 C 335.550 132.800,334.982 133.160,334.707 133.600 C 334.432 134.040,333.891 134.400,333.504 134.400 C 333.117 134.400,332.800 134.580,332.800 134.800 C 332.800 135.020,332.440 135.200,332.000 135.200 C 331.556 135.200,331.200 135.467,331.200 135.800 C 331.200 136.130,331.355 136.400,331.544 136.400 C 332.168 136.400,336.800 133.874,336.800 133.533 C 336.800 133.350,337.086 133.200,337.435 133.200 C 338.058 133.200,341.553 129.720,341.584 129.069 C 341.593 128.886,342.320 128.046,343.200 127.200 C 344.080 126.354,344.800 125.469,344.800 125.231 C 344.800 124.210,343.589 125.072,340.429 128.339 M291.270 131.978 C 292.300 133.283,292.800 133.495,292.800 132.627 C 292.800 132.312,292.440 131.940,292.000 131.800 C 291.560 131.660,291.200 131.378,291.200 131.173 C 291.200 130.968,291.006 130.800,290.770 130.800 C 290.533 130.800,290.758 131.330,291.270 131.978 M294.087 133.990 C 294.365 134.435,294.909 134.800,295.296 134.800 C 295.683 134.800,296.000 134.980,296.000 135.200 C 296.000 135.420,296.180 135.600,296.400 135.600 C 297.802 135.600,296.420 133.859,294.690 133.445 C 293.655 133.198,293.615 133.234,294.087 133.990 M297.600 135.800 C 297.600 136.130,297.780 136.400,298.000 136.400 C 298.220 136.400,298.400 136.130,298.400 135.800 C 298.400 135.470,298.220 135.200,298.000 135.200 C 297.780 135.200,297.600 135.470,297.600 135.800 M329.856 135.878 C 329.378 136.356,329.598 137.200,330.200 137.200 C 330.530 137.200,330.800 136.941,330.800 136.624 C 330.800 135.955,330.229 135.504,329.856 135.878 M302.830 137.582 C 302.198 137.972,302.602 138.800,303.424 138.800 C 304.032 138.800,304.225 137.786,303.681 137.450 C 303.505 137.342,303.122 137.401,302.830 137.582 M326.656 137.478 C 326.178 137.956,326.398 138.800,327.000 138.800 C 327.330 138.800,327.600 138.541,327.600 138.224 C 327.600 137.555,327.029 137.104,326.656 137.478 M306.030 138.382 C 305.398 138.772,305.802 139.600,306.624 139.600 C 307.232 139.600,307.425 138.586,306.881 138.250 C 306.705 138.142,306.322 138.201,306.030 138.382 M323.456 138.278 C 322.978 138.756,323.198 139.600,323.800 139.600 C 324.130 139.600,324.400 139.341,324.400 139.024 C 324.400 138.355,323.829 137.904,323.456 138.278 M309.200 139.600 C 309.200 140.363,309.465 140.400,314.900 140.394 C 320.500 140.388,321.974 140.128,321.428 139.245 C 320.859 138.324,309.200 138.663,309.200 139.600 M310.158 162.468 C 309.623 163.333,310.750 163.600,314.924 163.594 C 319.058 163.588,320.963 163.230,320.313 162.580 C 319.920 162.187,310.397 162.082,310.158 162.468 M307.080 163.053 C 306.518 163.615,306.824 164.000,307.833 164.000 C 308.482 164.000,308.805 163.814,308.700 163.500 C 308.508 162.922,307.492 162.641,307.080 163.053 M322.000 163.371 C 322.000 163.742,322.342 164.000,322.833 164.000 C 323.808 164.000,323.670 163.065,322.667 162.871 C 322.272 162.794,322.000 162.998,322.000 163.371 M303.000 164.092 C 302.340 164.320,301.440 164.646,301.000 164.817 C 300.560 164.988,299.874 165.233,299.475 165.361 C 299.076 165.489,298.861 165.776,298.998 165.997 C 299.321 166.520,300.800 166.522,300.800 166.000 C 300.800 165.780,301.239 165.600,301.776 165.600 C 302.313 165.600,302.864 165.420,303.000 165.200 C 303.136 164.980,303.792 164.800,304.457 164.800 C 305.247 164.800,305.609 164.626,305.500 164.300 C 305.282 163.646,304.481 163.579,303.000 164.092 M325.080 163.853 C 324.518 164.415,324.824 164.800,325.833 164.800 C 326.482 164.800,326.805 164.614,326.700 164.300 C 326.508 163.722,325.492 163.441,325.080 163.853 M327.491 164.642 C 327.056 165.078,327.582 165.600,328.457 165.600 C 328.927 165.600,329.197 165.390,329.100 165.100 C 328.910 164.529,327.894 164.239,327.491 164.642 M329.600 165.767 C 329.600 166.115,329.885 166.400,330.233 166.400 C 330.940 166.400,330.817 165.539,330.075 165.292 C 329.814 165.205,329.600 165.418,329.600 165.767 M331.200 166.600 C 331.200 166.967,331.394 167.202,331.630 167.123 C 331.867 167.044,332.060 166.809,332.060 166.600 C 332.060 166.391,331.867 166.156,331.630 166.077 C 331.394 165.998,331.200 166.233,331.200 166.600 M295.632 167.449 C 294.294 168.130,293.876 168.999,294.599 169.599 C 295.083 170.001,295.254 169.910,295.568 169.085 C 295.777 168.535,296.167 168.011,296.434 167.922 C 296.701 167.833,296.848 167.579,296.760 167.358 C 296.658 167.102,296.250 167.135,295.632 167.449 M333.257 167.942 C 333.873 168.929,334.800 169.084,334.800 168.200 C 334.800 167.870,334.635 167.600,334.433 167.600 C 334.231 167.600,333.763 167.484,333.393 167.342 C 332.798 167.114,332.782 167.182,333.257 167.942 M335.817 169.572 C 335.691 169.777,335.770 170.058,335.993 170.196 C 336.471 170.491,337.200 170.117,337.200 169.576 C 337.200 169.090,336.117 169.087,335.817 169.572 M288.900 173.424 C 286.496 175.887,285.932 176.800,286.812 176.800 C 287.384 176.800,292.400 171.829,292.400 171.262 C 292.400 170.282,291.305 170.958,288.900 173.424 M338.000 171.154 C 338.000 171.669,343.061 176.800,343.569 176.800 C 344.430 176.800,343.956 175.973,341.800 173.711 C 340.590 172.442,339.600 171.267,339.600 171.102 C 339.600 170.936,339.240 170.800,338.800 170.800 C 338.360 170.800,338.000 170.959,338.000 171.154 M344.656 177.878 C 344.178 178.356,344.398 179.200,345.000 179.200 C 345.330 179.200,345.600 178.941,345.600 178.624 C 345.600 177.955,345.029 177.504,344.656 177.878 M283.924 178.895 C 283.126 179.522,282.579 181.200,283.173 181.200 C 283.408 181.200,283.600 181.049,283.600 180.864 C 283.600 180.680,284.064 180.317,284.631 180.058 C 285.199 179.800,285.592 179.377,285.506 179.119 C 285.272 178.417,284.646 178.328,283.924 178.895 M63.372 179.645 C 63.221 179.889,63.346 180.247,63.649 180.439 C 65.007 181.299,242.400 180.864,242.400 180.000 C 242.400 179.049,63.959 178.695,63.372 179.645 M60.172 180.445 C 59.872 180.931,60.758 181.664,61.400 181.460 C 61.620 181.391,61.858 181.034,61.929 180.667 C 62.078 179.901,60.622 179.717,60.172 180.445 M244.471 180.621 C 244.652 181.490,245.361 181.543,245.524 180.700 C 245.608 180.262,245.412 180.000,245.000 180.000 C 244.616 180.000,244.395 180.259,244.471 180.621 M346.200 180.400 C 345.908 180.872,346.287 181.600,346.824 181.600 C 347.031 181.600,347.200 181.240,347.200 180.800 C 347.200 179.956,346.618 179.724,346.200 180.400 M58.471 181.421 C 58.652 182.290,59.361 182.343,59.524 181.500 C 59.608 181.062,59.412 180.800,59.000 180.800 C 58.616 180.800,58.395 181.059,58.471 181.421 M246.000 181.608 C 246.000 182.253,246.187 182.368,246.928 182.182 C 247.604 182.013,247.956 182.164,248.228 182.739 C 248.840 184.036,253.125 188.400,253.787 188.400 C 254.673 188.400,254.540 187.307,253.554 186.496 C 253.089 186.113,251.980 185.035,251.089 184.100 C 250.199 183.165,249.269 182.400,249.024 182.400 C 248.779 182.400,248.270 182.040,247.893 181.600 C 247.007 180.566,246.000 180.570,246.000 181.608 M56.700 182.171 C 55.924 182.744,55.762 183.600,56.429 183.600 C 56.664 183.600,57.139 183.318,57.483 182.974 C 58.297 182.160,57.634 181.481,56.700 182.171 M281.409 183.039 C 280.162 186.025,279.060 189.594,279.309 189.842 C 279.933 190.467,280.881 189.576,280.635 188.596 C 280.491 188.023,280.558 187.600,280.792 187.600 C 281.017 187.600,281.200 187.060,281.200 186.400 C 281.200 185.740,281.380 185.200,281.600 185.200 C 281.820 185.200,282.000 184.840,282.000 184.400 C 282.000 183.960,282.180 183.600,282.400 183.600 C 282.913 183.600,282.923 182.124,282.412 181.807 C 282.199 181.676,281.748 182.230,281.409 183.039 M54.100 183.798 C 53.452 184.535,53.461 185.200,54.120 185.200 C 54.789 185.200,55.600 184.389,55.600 183.720 C 55.600 183.036,54.731 183.081,54.100 183.798 M52.186 186.814 C 51.396 187.639,51.235 188.000,51.655 188.000 C 52.431 188.000,54.180 186.158,53.691 185.856 C 53.488 185.731,52.811 186.162,52.186 186.814 M278.684 192.000 C 278.441 192.929,279.078 193.482,279.688 192.872 C 280.149 192.411,279.839 191.200,279.259 191.200 C 279.058 191.200,278.799 191.560,278.684 192.000 M278.078 194.482 C 277.459 195.101,277.430 203.335,278.043 204.480 C 278.835 205.961,279.188 204.458,279.188 199.600 C 279.188 194.802,278.933 193.627,278.078 194.482 M278.800 207.000 C 278.800 207.550,278.961 208.000,279.157 208.000 C 279.624 208.000,280.067 206.832,279.778 206.364 C 279.342 205.659,278.800 206.012,278.800 207.000 M279.334 209.827 C 279.001 210.696,279.847 211.513,280.453 210.907 C 280.965 210.395,280.648 209.200,280.000 209.200 C 279.766 209.200,279.467 209.482,279.334 209.827 M250.888 213.311 C 249.520 214.692,248.400 216.025,248.400 216.273 C 248.400 216.528,248.051 216.634,247.600 216.516 C 247.153 216.399,246.800 216.504,246.800 216.753 C 246.800 216.999,246.440 217.200,246.000 217.200 C 245.560 217.200,245.200 217.369,245.200 217.576 C 245.200 218.372,246.004 218.384,247.386 217.608 C 248.177 217.163,249.063 216.800,249.355 216.800 C 250.037 216.800,254.400 212.094,254.400 211.358 C 254.400 210.251,253.332 210.845,250.888 213.311 M280.152 212.181 C 280.029 212.500,280.046 212.950,280.188 213.181 C 280.654 213.935,281.200 213.621,281.200 212.600 C 281.200 211.516,280.513 211.241,280.152 212.181 M53.845 214.327 C 53.721 214.528,53.975 215.015,54.409 215.409 C 55.075 216.011,55.200 216.027,55.200 215.511 C 55.200 214.743,54.153 213.828,53.845 214.327 M280.892 214.475 C 281.139 215.217,282.000 215.340,282.000 214.633 C 282.000 214.285,281.715 214.000,281.367 214.000 C 281.018 214.000,280.805 214.214,280.892 214.475 M56.297 215.836 C 55.888 216.245,56.938 217.600,57.663 217.600 C 58.032 217.600,58.416 217.825,58.517 218.100 C 58.658 218.486,58.815 218.492,59.204 218.126 C 59.782 217.582,58.895 216.400,57.909 216.400 C 57.607 216.400,57.177 216.217,56.953 215.993 C 56.730 215.770,56.434 215.699,56.297 215.836 M281.600 216.008 C 281.600 216.784,283.630 219.629,284.014 219.391 C 284.662 218.991,284.445 218.052,283.600 217.600 C 283.160 217.365,282.800 216.818,282.800 216.386 C 282.800 215.954,282.530 215.600,282.200 215.600 C 281.870 215.600,281.600 215.784,281.600 216.008 M60.100 218.500 C 60.192 218.775,60.597 219.000,61.000 219.000 C 61.403 219.000,61.808 218.775,61.900 218.500 C 62.006 218.183,61.676 218.000,61.000 218.000 C 60.324 218.000,59.994 218.183,60.100 218.500 M243.600 218.600 C 243.600 218.930,243.870 219.200,244.200 219.200 C 244.530 219.200,244.800 218.930,244.800 218.600 C 244.800 218.270,244.530 218.000,244.200 218.000 C 243.870 218.000,243.600 218.270,243.600 218.600 M346.092 218.475 C 346.339 219.217,347.200 219.340,347.200 218.633 C 347.200 218.285,346.915 218.000,346.567 218.000 C 346.218 218.000,346.005 218.214,346.092 218.475 M63.300 219.300 C 63.575 220.125,242.400 220.226,242.400 219.401 C 242.400 218.868,232.232 218.800,152.767 218.800 C 81.238 218.800,63.167 218.901,63.300 219.300 M284.413 220.451 C 284.406 220.809,284.670 221.326,285.000 221.600 C 285.769 222.238,285.777 221.587,285.013 220.576 C 284.519 219.924,284.423 219.904,284.413 220.451 M344.183 220.819 C 343.652 221.406,343.577 221.737,343.904 222.064 C 344.377 222.537,345.600 221.663,345.600 220.852 C 345.600 220.051,344.893 220.034,344.183 220.819 M286.400 222.886 C 286.400 223.451,291.440 228.400,292.014 228.400 C 292.881 228.400,292.267 227.452,289.807 224.993 C 287.265 222.450,286.400 221.915,286.400 222.886 M340.500 225.090 C 339.125 226.540,338.000 227.877,338.000 228.063 C 338.000 228.930,339.521 228.208,340.600 226.828 C 341.260 225.984,342.294 224.957,342.899 224.547 C 344.014 223.789,344.414 222.377,343.500 222.427 C 343.225 222.443,341.875 223.641,340.500 225.090 M293.600 229.400 C 293.600 229.730,293.870 230.000,294.200 230.000 C 294.530 230.000,294.800 229.730,294.800 229.400 C 294.800 229.070,294.530 228.800,294.200 228.800 C 293.870 228.800,293.600 229.070,293.600 229.400 M335.875 229.058 C 335.353 229.580,335.602 230.000,336.433 230.000 C 336.899 230.000,337.197 229.790,337.108 229.525 C 336.913 228.940,336.246 228.688,335.875 229.058 M333.600 230.967 C 333.600 231.315,333.885 231.600,334.233 231.600 C 334.940 231.600,334.817 230.739,334.075 230.492 C 333.814 230.405,333.600 230.618,333.600 230.967 M331.398 232.403 C 331.095 232.894,332.195 233.374,332.787 233.008 C 333.021 232.863,333.109 232.577,332.983 232.372 C 332.678 231.878,331.711 231.897,331.398 232.403 M301.398 234.003 C 301.095 234.494,302.195 234.974,302.787 234.608 C 303.021 234.463,303.109 234.177,302.983 233.972 C 302.678 233.478,301.711 233.497,301.398 234.003 M327.600 234.229 C 327.600 234.602,327.872 234.806,328.267 234.729 C 329.270 234.535,329.408 233.600,328.433 233.600 C 327.942 233.600,327.600 233.858,327.600 234.229 M303.798 234.803 C 303.495 235.294,304.595 235.774,305.187 235.408 C 305.421 235.263,305.509 234.977,305.383 234.772 C 305.078 234.278,304.111 234.297,303.798 234.803 M325.200 235.029 C 325.200 235.402,325.472 235.606,325.867 235.529 C 326.870 235.335,327.008 234.400,326.033 234.400 C 325.542 234.400,325.200 234.658,325.200 235.029 M306.889 235.666 C 307.095 236.286,308.352 236.390,308.500 235.800 C 308.555 235.580,308.175 235.340,307.655 235.266 C 307.008 235.175,306.767 235.300,306.889 235.666 M322.000 235.800 C 322.000 236.133,322.356 236.400,322.800 236.400 C 323.244 236.400,323.600 236.133,323.600 235.800 C 323.600 235.467,323.244 235.200,322.800 235.200 C 322.356 235.200,322.000 235.467,322.000 235.800 M310.000 236.600 C 310.000 237.139,310.720 237.208,315.300 237.112 C 322.266 236.965,322.196 236.238,315.201 236.088 C 310.711 235.992,310.000 236.062,310.000 236.600 M310.000 261.200 C 310.000 262.135,320.062 262.471,320.628 261.555 C 321.160 260.695,319.752 260.412,314.900 260.406 C 310.265 260.400,310.000 260.443,310.000 261.200 M307.000 261.600 C 306.840 261.858,306.890 262.250,307.110 262.470 C 307.376 262.736,307.606 262.713,307.800 262.400 C 307.960 262.142,307.910 261.750,307.690 261.530 C 307.424 261.264,307.194 261.287,307.000 261.600 M322.590 261.615 C 322.207 262.235,322.886 262.842,323.522 262.448 C 323.935 262.193,323.921 262.033,323.455 261.645 C 323.024 261.288,322.798 261.280,322.590 261.615 M303.409 262.383 C 302.637 262.667,302.639 262.686,303.485 263.138 C 304.105 263.470,304.428 263.478,304.621 263.166 C 305.024 262.514,304.309 262.051,303.409 262.383 M325.800 262.400 C 325.640 262.658,325.690 263.050,325.910 263.270 C 326.176 263.536,326.406 263.513,326.600 263.200 C 326.760 262.942,326.710 262.550,326.490 262.330 C 326.224 262.064,325.994 262.087,325.800 262.400 M300.846 263.163 C 300.402 263.445,300.456 263.602,301.120 263.957 C 302.253 264.563,302.400 264.522,302.400 263.600 C 302.400 262.755,301.770 262.578,300.846 263.163 M328.071 263.421 C 328.252 264.290,328.961 264.343,329.124 263.500 C 329.208 263.062,329.012 262.800,328.600 262.800 C 328.216 262.800,327.995 263.059,328.071 263.421 M299.067 263.867 C 298.606 264.327,298.775 264.800,299.400 264.800 C 299.730 264.800,300.000 264.530,300.000 264.200 C 300.000 263.575,299.527 263.406,299.067 263.867 M329.671 264.221 C 329.852 265.090,330.561 265.143,330.724 264.300 C 330.808 263.862,330.612 263.600,330.200 263.600 C 329.816 263.600,329.595 263.859,329.671 264.221 M297.006 264.924 C 296.569 265.186,295.974 265.715,295.683 266.100 C 295.393 266.485,294.882 266.800,294.549 266.800 C 293.849 266.800,292.800 267.743,292.800 268.371 C 292.800 269.126,294.441 268.392,295.643 267.100 C 296.001 266.715,296.552 266.400,296.867 266.400 C 297.582 266.400,298.400 265.610,298.400 264.920 C 298.400 264.292,298.057 264.293,297.006 264.924 M331.200 265.233 C 331.200 266.208,332.135 266.070,332.329 265.067 C 332.406 264.672,332.202 264.400,331.829 264.400 C 331.458 264.400,331.200 264.742,331.200 265.233 M332.800 265.720 C 332.800 266.462,333.638 267.200,334.480 267.200 C 334.876 267.200,335.200 267.380,335.200 267.600 C 335.200 267.820,335.560 268.000,336.000 268.000 C 337.086 268.000,337.013 267.261,335.884 266.832 C 335.380 266.640,334.727 266.195,334.435 265.842 C 333.794 265.070,332.800 264.996,332.800 265.720 M290.297 269.836 C 288.924 271.249,288.488 272.233,289.674 271.240 C 289.963 270.998,290.631 270.471,291.157 270.070 C 291.683 269.669,292.037 269.110,291.943 268.829 C 291.834 268.503,291.235 268.869,290.297 269.836 M337.600 268.980 C 337.600 269.643,342.943 275.200,343.581 275.200 C 344.345 275.200,344.016 274.390,342.700 273.030 C 341.985 272.292,340.723 270.948,339.895 270.044 C 338.327 268.331,337.600 267.994,337.600 268.980 M344.400 277.000 C 344.400 277.330,344.670 277.600,345.000 277.600 C 345.330 277.600,345.600 277.330,345.600 277.000 C 345.600 276.670,345.330 276.400,345.000 276.400 C 344.670 276.400,344.400 276.670,344.400 277.000 M57.867 277.867 C 57.379 278.354,57.591 279.200,58.200 279.200 C 58.533 279.200,58.800 278.844,58.800 278.400 C 58.800 277.603,58.374 277.360,57.867 277.867 M246.800 278.400 C 246.800 278.620,247.070 278.800,247.400 278.800 C 247.730 278.800,248.000 278.620,248.000 278.400 C 248.000 278.180,247.730 278.000,247.400 278.000 C 247.070 278.000,246.800 278.180,246.800 278.400 M282.655 279.500 C 282.129 280.325,281.855 281.059,282.046 281.132 C 282.546 281.323,283.600 280.168,283.600 279.429 C 283.600 279.083,283.780 278.800,284.000 278.800 C 284.220 278.800,284.400 278.620,284.400 278.400 C 284.400 277.544,283.568 278.069,282.655 279.500 M346.256 278.678 C 345.778 279.156,345.998 280.000,346.600 280.000 C 346.930 280.000,347.200 279.741,347.200 279.424 C 347.200 278.755,346.629 278.304,346.256 278.678 M248.409 279.100 C 248.414 279.265,249.134 280.019,250.009 280.776 C 250.884 281.533,251.600 282.469,251.600 282.856 C 251.600 283.554,253.886 285.995,254.543 285.998 C 255.511 286.003,254.039 283.530,251.754 281.311 C 249.364 278.991,248.386 278.345,248.409 279.100 M53.700 281.020 C 52.137 282.639,51.515 284.000,52.336 284.000 C 52.965 284.000,56.400 280.483,56.400 279.840 C 56.400 278.769,55.486 279.169,53.700 281.020 M280.242 283.835 C 279.859 284.834,279.955 285.200,280.600 285.200 C 280.930 285.200,281.200 284.851,281.200 284.424 C 281.200 283.418,280.554 283.021,280.242 283.835 M279.464 286.177 C 279.062 287.226,279.144 287.600,279.776 287.600 C 280.638 287.600,280.840 287.007,280.252 286.203 C 279.761 285.532,279.712 285.530,279.464 286.177 M278.660 290.093 C 278.377 291.174,279.003 291.957,279.640 291.320 C 280.104 290.856,279.776 289.200,279.220 289.200 C 279.040 289.200,278.788 289.602,278.660 290.093 M277.867 293.067 C 277.402 293.531,277.571 301.999,278.063 302.917 C 278.828 304.346,279.140 302.820,279.172 297.500 C 279.199 292.924,278.929 292.005,277.867 293.067 M255.630 303.182 C 255.097 303.511,255.353 304.400,255.981 304.400 C 256.437 304.400,256.838 303.271,256.463 303.039 C 256.298 302.937,255.922 303.001,255.630 303.182 M254.578 304.835 C 254.166 305.502,255.093 306.267,255.645 305.715 C 256.107 305.253,255.818 304.400,255.200 304.400 C 255.006 304.400,254.726 304.596,254.578 304.835 M278.800 305.376 C 278.800 305.939,278.980 306.400,279.200 306.400 C 279.420 306.400,279.600 306.051,279.600 305.624 C 279.600 305.197,279.420 304.736,279.200 304.600 C 278.973 304.460,278.800 304.796,278.800 305.376 M50.400 305.776 C 50.400 306.093,50.544 306.442,50.719 306.550 C 51.231 306.866,52.129 306.133,51.828 305.645 C 51.431 305.003,50.400 305.098,50.400 305.776 M253.680 306.480 C 253.032 307.128,253.072 308.000,253.751 308.000 C 254.489 308.000,255.333 306.940,255.011 306.418 C 254.673 305.871,254.270 305.890,253.680 306.480 M52.000 308.009 C 52.000 308.541,56.259 312.800,56.791 312.800 C 57.629 312.800,57.141 311.958,55.060 309.809 C 53.027 307.710,52.000 307.106,52.000 308.009 M279.347 308.194 C 278.989 309.128,279.906 309.994,280.410 309.197 C 280.617 308.868,280.734 308.431,280.668 308.225 C 280.453 307.542,279.605 307.522,279.347 308.194 M251.278 309.719 C 250.000 311.038,249.635 312.000,250.413 312.000 C 250.641 312.000,251.451 311.376,252.213 310.613 C 252.976 309.851,253.600 309.041,253.600 308.813 C 253.600 308.005,252.538 308.419,251.278 309.719 M280.152 310.581 C 280.029 310.900,280.046 311.350,280.188 311.581 C 280.654 312.335,281.200 312.021,281.200 311.000 C 281.200 309.916,280.513 309.641,280.152 310.581 M247.856 312.678 C 247.405 313.128,247.581 313.600,248.200 313.600 C 248.530 313.600,248.800 313.431,248.800 313.224 C 248.800 312.719,248.175 312.358,247.856 312.678 M280.892 312.875 C 281.139 313.617,282.000 313.740,282.000 313.033 C 282.000 312.685,281.715 312.400,281.367 312.400 C 281.018 312.400,280.805 312.614,280.892 312.875 M281.692 314.475 C 281.939 315.217,282.800 315.340,282.800 314.633 C 282.800 314.285,282.515 314.000,282.167 314.000 C 281.818 314.000,281.605 314.214,281.692 314.475 M61.800 315.600 C 61.936 315.820,62.307 316.000,62.624 316.000 C 62.941 316.000,63.200 315.820,63.200 315.600 C 63.200 315.380,62.829 315.200,62.376 315.200 C 61.923 315.200,61.664 315.380,61.800 315.600 M243.200 315.600 C 243.200 315.820,243.459 316.000,243.776 316.000 C 244.093 316.000,244.464 315.820,244.600 315.600 C 244.736 315.380,244.477 315.200,244.024 315.200 C 243.571 315.200,243.200 315.380,243.200 315.600 M282.400 315.938 C 282.400 316.325,283.728 317.600,284.131 317.600 C 284.599 317.600,284.422 316.765,283.829 316.171 C 283.198 315.541,282.400 315.410,282.400 315.938 M65.000 316.400 C 65.164 316.665,94.996 316.800,153.200 316.800 C 211.404 316.800,241.236 316.665,241.400 316.400 C 241.565 316.134,212.063 316.000,153.200 316.000 C 94.337 316.000,64.835 316.134,65.000 316.400 M345.500 317.329 C 344.895 317.825,344.400 318.538,344.400 318.915 C 344.400 319.292,344.201 319.600,343.957 319.600 C 343.714 319.600,343.579 319.825,343.658 320.100 C 343.806 320.611,337.745 326.812,337.418 326.485 C 337.165 326.232,336.000 327.453,336.000 327.971 C 336.000 328.690,336.977 328.449,337.507 327.600 C 337.782 327.160,338.246 326.800,338.539 326.800 C 339.199 326.800,344.000 322.050,344.000 321.398 C 344.000 321.137,344.360 320.598,344.800 320.200 C 345.240 319.802,345.600 319.262,345.600 319.000 C 345.600 318.738,345.960 318.198,346.400 317.800 C 348.013 316.340,347.217 315.924,345.500 317.329 M284.400 318.171 C 284.400 318.914,285.278 320.399,285.599 320.200 C 286.243 319.802,286.063 319.032,285.200 318.493 C 284.760 318.218,284.400 318.073,284.400 318.171 M286.400 321.600 C 286.400 322.040,286.535 322.402,286.700 322.405 C 286.865 322.408,288.031 323.398,289.292 324.605 C 291.509 326.729,292.400 327.241,292.400 326.393 C 292.400 326.169,291.233 324.819,289.807 323.393 C 287.067 320.652,286.400 320.301,286.400 321.600 M293.600 327.800 C 293.600 328.130,293.870 328.400,294.200 328.400 C 294.530 328.400,294.800 328.130,294.800 327.800 C 294.800 327.470,294.530 327.200,294.200 327.200 C 293.870 327.200,293.600 327.470,293.600 327.800 M333.992 329.010 C 333.168 330.003,333.945 330.232,334.900 329.278 C 335.605 328.572,335.652 328.400,335.138 328.400 C 334.786 328.400,334.270 328.674,333.992 329.010 M295.878 329.056 C 295.504 329.429,295.955 330.000,296.624 330.000 C 296.941 330.000,297.200 329.730,297.200 329.400 C 297.200 328.798,296.356 328.578,295.878 329.056 M332.256 329.878 C 331.805 330.328,331.981 330.800,332.600 330.800 C 332.930 330.800,333.200 330.631,333.200 330.424 C 333.200 329.919,332.575 329.558,332.256 329.878 " stroke="none" fill="#080404" fill-rule="evenodd"></path></g></svg>