<svg id="svg" xmlns="http://www.w3.org/2000/svg" xmlns:xlink="http://www.w3.org/1999/xlink" width="400" height="400" viewBox="0, 0, 400,400" version="1.1"><g id="svgg"><path id="path0" d="M310.000 65.600 C 310.000 65.820,309.100 66.000,308.000 66.000 C 306.900 66.000,306.000 66.180,306.000 66.400 C 306.000 66.620,305.280 66.800,304.400 66.800 C 303.520 66.800,302.800 66.980,302.800 67.200 C 302.800 67.420,302.440 67.600,302.000 67.600 C 301.560 67.600,301.200 67.780,301.200 68.000 C 301.200 68.220,300.840 68.400,300.400 68.400 C 299.960 68.400,299.600 68.580,299.600 68.800 C 299.600 69.020,299.240 69.200,298.800 69.200 C 298.360 69.200,298.000 69.380,298.000 69.600 C 298.000 69.820,297.640 70.000,297.200 70.000 C 296.760 70.000,296.400 70.180,296.400 70.400 C 296.400 70.620,296.106 70.800,295.747 70.800 C 295.090 70.800,293.600 72.230,293.600 72.861 C 293.600 73.048,293.326 73.200,292.991 73.200 C 292.657 73.200,291.410 74.145,290.221 75.300 C 289.033 76.455,287.512 77.850,286.842 78.400 C 286.172 78.950,285.619 79.643,285.612 79.940 C 285.605 80.236,285.070 80.974,284.422 81.580 C 283.613 82.335,283.310 82.934,283.455 83.488 C 283.617 84.108,283.426 84.357,282.633 84.556 C 281.957 84.726,281.600 85.089,281.600 85.608 C 281.600 86.043,281.420 86.400,281.200 86.400 C 280.980 86.400,280.800 86.760,280.800 87.200 C 280.800 87.640,280.620 88.000,280.400 88.000 C 280.180 88.000,280.000 88.540,280.000 89.200 C 280.000 89.860,279.820 90.400,279.600 90.400 C 279.380 90.400,279.200 90.940,279.200 91.600 C 279.200 92.260,279.020 92.800,278.800 92.800 C 278.580 92.800,278.400 93.419,278.400 94.176 C 278.400 94.933,278.220 95.664,278.000 95.800 C 277.757 95.950,277.600 98.871,277.600 103.224 C 277.600 107.741,277.748 110.400,278.000 110.400 C 278.220 110.400,278.400 111.300,278.400 112.400 C 278.400 113.500,278.580 114.400,278.800 114.400 C 279.020 114.400,279.200 114.940,279.200 115.600 C 279.200 116.260,279.380 116.800,279.600 116.800 C 279.820 116.800,280.000 117.160,280.000 117.600 C 280.000 118.040,280.180 118.400,280.400 118.400 C 280.620 118.400,280.800 118.760,280.800 119.200 C 280.800 119.640,280.980 120.000,281.200 120.000 C 281.420 120.000,281.600 120.320,281.600 120.712 C 281.600 121.103,281.960 121.683,282.400 122.000 C 282.840 122.317,283.200 122.897,283.200 123.288 C 283.200 123.680,283.380 124.000,283.600 124.000 C 283.820 124.000,284.000 124.182,284.000 124.404 C 284.000 124.932,293.068 134.000,293.596 134.000 C 293.818 134.000,294.000 134.180,294.000 134.400 C 294.000 134.620,294.320 134.800,294.712 134.800 C 295.103 134.800,295.683 135.160,296.000 135.600 C 296.317 136.040,296.897 136.400,297.288 136.400 C 297.680 136.400,298.000 136.580,298.000 136.800 C 298.000 137.020,298.360 137.200,298.800 137.200 C 299.240 137.200,299.600 137.380,299.600 137.600 C 299.600 137.820,299.960 138.000,300.400 138.000 C 300.840 138.000,301.200 138.180,301.200 138.400 C 301.200 138.620,301.740 138.800,302.400 138.800 C 303.060 138.800,303.600 138.980,303.600 139.200 C 303.600 139.420,304.320 139.600,305.200 139.600 C 306.080 139.600,306.800 139.780,306.800 140.000 C 306.800 140.254,309.859 140.400,315.176 140.400 C 320.329 140.400,323.648 140.246,323.800 140.000 C 323.936 139.780,324.667 139.600,325.424 139.600 C 326.181 139.600,326.800 139.420,326.800 139.200 C 326.800 138.980,327.300 138.800,327.912 138.800 C 328.565 138.800,329.261 138.470,329.600 138.000 C 329.917 137.560,330.497 137.200,330.888 137.200 C 331.280 137.200,331.600 137.020,331.600 136.800 C 331.600 136.580,331.960 136.400,332.400 136.400 C 332.840 136.400,333.200 136.220,333.200 136.000 C 333.200 135.780,333.483 135.600,333.829 135.600 C 334.472 135.600,335.866 134.441,335.718 134.029 C 335.673 133.903,335.988 133.856,336.418 133.925 C 336.963 134.012,337.200 133.820,337.200 133.291 C 337.200 132.873,338.194 131.647,339.409 130.566 C 340.624 129.485,342.526 127.745,343.636 126.700 C 344.745 125.655,345.821 124.800,346.027 124.800 C 346.232 124.800,346.400 124.480,346.400 124.088 C 346.400 123.697,346.760 123.117,347.200 122.800 C 347.640 122.483,348.000 121.903,348.000 121.512 C 348.000 121.120,348.180 120.800,348.400 120.800 C 348.620 120.800,348.800 120.440,348.800 120.000 C 348.800 119.560,348.980 119.200,349.200 119.200 C 349.420 119.200,349.600 118.840,349.600 118.400 C 349.600 117.960,349.780 117.600,350.000 117.600 C 350.220 117.600,350.400 117.060,350.400 116.400 C 350.400 115.740,350.580 115.200,350.800 115.200 C 351.020 115.200,351.200 114.660,351.200 114.000 C 351.200 113.340,351.380 112.800,351.600 112.800 C 351.820 112.800,352.000 112.080,352.000 111.200 C 352.000 110.320,352.180 109.600,352.400 109.600 C 352.649 109.600,352.800 107.267,352.800 103.400 C 352.800 99.533,352.649 97.200,352.400 97.200 C 352.180 97.200,352.000 96.390,352.000 95.400 C 352.000 94.410,351.820 93.600,351.600 93.600 C 351.380 93.600,351.200 92.880,351.200 92.000 C 351.200 91.120,351.020 90.400,350.800 90.400 C 350.580 90.400,350.400 90.080,350.400 89.688 C 350.400 89.297,350.040 88.717,349.600 88.400 C 349.160 88.083,348.800 87.503,348.800 87.112 C 348.800 86.720,348.620 86.400,348.400 86.400 C 348.180 86.400,348.000 86.040,348.000 85.600 C 348.000 85.160,347.820 84.800,347.600 84.800 C 347.380 84.800,347.200 84.440,347.200 84.000 C 347.200 83.560,347.020 83.200,346.800 83.200 C 346.580 83.200,346.400 82.916,346.400 82.569 C 346.400 82.221,345.680 81.246,344.800 80.400 C 343.920 79.554,343.200 78.591,343.200 78.258 C 343.200 77.926,342.849 77.543,342.420 77.406 C 341.992 77.270,341.530 76.808,341.394 76.380 C 341.257 75.951,340.874 75.600,340.542 75.600 C 340.209 75.600,339.246 74.880,338.400 74.000 C 337.554 73.120,336.618 72.400,336.320 72.400 C 336.021 72.400,335.517 72.040,335.200 71.600 C 334.883 71.160,334.343 70.800,334.000 70.800 C 333.657 70.800,333.117 70.440,332.800 70.000 C 332.482 69.559,331.765 69.200,331.200 69.200 C 330.635 69.200,329.918 68.841,329.600 68.400 C 329.261 67.930,328.565 67.600,327.912 67.600 C 327.300 67.600,326.800 67.420,326.800 67.200 C 326.800 66.980,326.350 66.800,325.800 66.800 C 325.250 66.800,324.800 66.620,324.800 66.400 C 324.800 66.180,323.900 66.000,322.800 66.000 C 321.700 66.000,320.800 65.820,320.800 65.600 C 320.800 65.353,318.733 65.200,315.400 65.200 C 312.067 65.200,310.000 65.353,310.000 65.600 M61.200 81.200 C 61.200 81.420,60.790 81.600,60.288 81.600 C 59.787 81.600,59.117 81.960,58.800 82.400 C 58.483 82.840,57.985 83.200,57.694 83.200 C 56.944 83.200,55.309 84.926,55.504 85.511 C 55.593 85.780,55.401 86.000,55.076 86.000 C 54.350 86.000,52.000 88.140,52.000 88.800 C 52.000 89.063,51.460 89.783,50.800 90.400 C 50.140 91.017,49.600 91.809,49.600 92.160 C 49.600 92.512,49.420 92.800,49.200 92.800 C 48.980 92.800,48.800 93.070,48.800 93.400 C 48.800 93.730,48.620 94.000,48.400 94.000 C 48.180 94.000,48.000 94.720,48.000 95.600 C 48.000 96.480,47.820 97.200,47.600 97.200 C 47.358 97.200,47.200 98.933,47.200 101.600 C 47.200 104.267,47.358 106.000,47.600 106.000 C 47.820 106.000,48.000 106.540,48.000 107.200 C 48.000 107.860,48.180 108.400,48.400 108.400 C 48.620 108.400,48.800 108.850,48.800 109.400 C 48.800 109.950,48.980 110.400,49.200 110.400 C 49.420 110.400,49.600 110.672,49.600 111.005 C 49.600 111.793,57.807 120.000,58.595 120.000 C 58.928 120.000,59.200 120.180,59.200 120.400 C 59.200 120.620,59.470 120.800,59.800 120.800 C 60.130 120.800,60.400 120.980,60.400 121.200 C 60.400 121.420,60.940 121.600,61.600 121.600 C 62.260 121.600,62.800 121.780,62.800 122.000 C 62.800 122.265,93.133 122.400,153.000 122.400 C 212.867 122.400,243.200 122.265,243.200 122.000 C 243.200 121.780,243.560 121.600,244.000 121.600 C 244.440 121.600,244.800 121.420,244.800 121.200 C 244.800 120.980,245.160 120.800,245.600 120.800 C 246.040 120.800,246.400 120.620,246.400 120.400 C 246.400 120.180,246.683 120.000,247.029 120.000 C 247.836 120.000,248.801 119.033,248.994 118.031 C 249.158 117.180,252.243 114.200,252.959 114.200 C 253.581 114.200,255.200 112.543,255.200 111.906 C 255.200 111.615,255.560 111.117,256.000 110.800 C 256.440 110.483,256.800 109.903,256.800 109.512 C 256.800 109.120,256.980 108.800,257.200 108.800 C 257.420 108.800,257.600 108.386,257.600 107.880 C 257.600 107.374,257.825 106.735,258.099 106.461 C 258.763 105.797,258.731 96.571,258.063 95.903 C 257.808 95.648,257.600 95.066,257.600 94.608 C 257.600 94.151,257.240 93.517,256.800 93.200 C 256.360 92.883,256.000 92.211,256.000 91.707 C 256.000 90.712,248.841 83.200,247.893 83.200 C 247.609 83.200,247.117 82.840,246.800 82.400 C 246.461 81.930,245.765 81.600,245.112 81.600 C 244.500 81.600,244.000 81.420,244.000 81.200 C 244.000 80.935,213.267 80.800,152.600 80.800 C 91.933 80.800,61.200 80.935,61.200 81.200 M308.400 162.400 C 308.400 162.620,307.680 162.800,306.800 162.800 C 305.920 162.800,305.200 162.980,305.200 163.200 C 305.200 163.420,304.660 163.600,304.000 163.600 C 303.340 163.600,302.800 163.780,302.800 164.000 C 302.800 164.220,302.260 164.400,301.600 164.400 C 300.940 164.400,300.400 164.580,300.400 164.800 C 300.400 165.020,299.860 165.200,299.200 165.200 C 298.540 165.200,298.000 165.380,298.000 165.600 C 298.000 165.820,297.722 166.000,297.382 166.000 C 296.522 166.000,294.902 167.705,295.125 168.375 C 295.251 168.754,295.100 168.847,294.642 168.672 C 294.156 168.485,292.733 169.659,289.384 173.008 C 286.858 175.534,284.607 177.600,284.381 177.600 C 284.155 177.600,284.022 178.089,284.085 178.686 C 284.170 179.491,284.001 179.812,283.428 179.929 C 282.290 180.161,281.600 181.008,281.600 182.171 C 281.600 182.737,281.420 183.200,281.200 183.200 C 280.980 183.200,280.800 183.560,280.800 184.000 C 280.800 184.440,280.620 184.800,280.400 184.800 C 280.180 184.800,280.000 185.340,280.000 186.000 C 280.000 186.660,279.820 187.200,279.600 187.200 C 279.380 187.200,279.200 187.740,279.200 188.400 C 279.200 189.060,279.020 189.600,278.800 189.600 C 278.580 189.600,278.400 190.320,278.400 191.200 C 278.400 192.080,278.220 192.800,278.000 192.800 C 277.749 192.800,277.600 195.325,277.600 199.576 C 277.600 203.663,277.759 206.451,278.000 206.600 C 278.220 206.736,278.400 207.467,278.400 208.224 C 278.400 208.981,278.580 209.600,278.800 209.600 C 279.020 209.600,279.200 210.140,279.200 210.800 C 279.200 211.460,279.380 212.000,279.600 212.000 C 279.820 212.000,280.000 212.540,280.000 213.200 C 280.000 213.860,280.180 214.400,280.400 214.400 C 280.620 214.400,280.800 214.760,280.800 215.200 C 280.800 215.640,280.980 216.000,281.200 216.000 C 281.420 216.000,281.600 216.283,281.600 216.629 C 281.600 217.249,282.728 218.636,283.171 218.561 C 283.297 218.540,283.344 218.855,283.275 219.261 C 283.206 219.668,283.341 220.000,283.575 220.000 C 283.809 220.000,284.010 220.315,284.022 220.700 C 284.034 221.085,284.940 222.210,286.036 223.200 C 287.132 224.190,289.189 226.125,290.607 227.500 C 292.025 228.875,293.296 230.000,293.432 230.000 C 293.568 230.000,294.183 230.540,294.800 231.200 C 295.417 231.860,296.209 232.400,296.560 232.400 C 296.912 232.400,297.200 232.580,297.200 232.800 C 297.200 233.020,297.560 233.200,298.000 233.200 C 298.440 233.200,298.800 233.380,298.800 233.600 C 298.800 233.820,299.160 234.000,299.600 234.000 C 300.040 234.000,300.400 234.180,300.400 234.400 C 300.400 234.620,300.940 234.800,301.600 234.800 C 302.260 234.800,302.800 234.980,302.800 235.200 C 302.800 235.420,303.340 235.600,304.000 235.600 C 304.660 235.600,305.200 235.780,305.200 236.000 C 305.200 236.220,305.920 236.400,306.800 236.400 C 307.680 236.400,308.400 236.580,308.400 236.800 C 308.400 237.051,311.000 237.200,315.400 237.200 C 319.800 237.200,322.400 237.051,322.400 236.800 C 322.400 236.580,323.030 236.400,323.800 236.400 C 324.570 236.400,325.200 236.220,325.200 236.000 C 325.200 235.780,325.740 235.600,326.400 235.600 C 327.060 235.600,327.600 235.420,327.600 235.200 C 327.600 234.980,328.140 234.800,328.800 234.800 C 329.460 234.800,330.000 234.620,330.000 234.400 C 330.000 234.180,330.360 234.000,330.800 234.000 C 331.240 234.000,331.600 233.820,331.600 233.600 C 331.600 233.380,331.920 233.200,332.312 233.200 C 332.703 233.200,333.283 232.840,333.600 232.400 C 333.917 231.960,334.457 231.600,334.800 231.600 C 335.143 231.600,335.683 231.240,336.000 230.800 C 336.317 230.360,336.819 230.000,337.114 230.000 C 337.410 230.000,338.543 229.055,339.633 227.900 C 342.215 225.161,342.005 225.372,343.500 224.038 C 344.215 223.401,344.800 222.663,344.800 222.400 C 344.800 222.137,345.340 221.417,346.000 220.800 C 346.660 220.183,347.200 219.431,347.200 219.128 C 347.200 218.825,347.560 218.317,348.000 218.000 C 348.440 217.683,348.800 217.103,348.800 216.712 C 348.800 216.320,348.980 216.000,349.200 216.000 C 349.420 216.000,349.600 215.640,349.600 215.200 C 349.600 214.760,349.780 214.400,350.000 214.400 C 350.220 214.400,350.400 213.860,350.400 213.200 C 350.400 212.540,350.580 212.000,350.800 212.000 C 351.020 212.000,351.200 211.460,351.200 210.800 C 351.200 210.140,351.380 209.600,351.600 209.600 C 351.820 209.600,352.000 208.790,352.000 207.800 C 352.000 206.810,352.180 206.000,352.400 206.000 C 352.649 206.000,352.800 203.667,352.800 199.800 C 352.800 195.933,352.649 193.600,352.400 193.600 C 352.180 193.600,352.000 192.700,352.000 191.600 C 352.000 190.500,351.820 189.600,351.600 189.600 C 351.380 189.600,351.200 189.060,351.200 188.400 C 351.200 187.740,351.020 187.200,350.800 187.200 C 350.580 187.200,350.400 186.660,350.400 186.000 C 350.400 185.340,350.220 184.800,350.000 184.800 C 349.780 184.800,349.600 184.440,349.600 184.000 C 349.600 183.560,349.420 183.200,349.200 183.200 C 348.980 183.200,348.800 182.880,348.800 182.488 C 348.800 182.097,348.440 181.517,348.000 181.200 C 347.560 180.883,347.200 180.343,347.200 180.000 C 347.200 179.657,346.840 179.117,346.400 178.800 C 345.960 178.483,345.600 178.079,345.600 177.903 C 345.600 177.727,344.655 176.603,343.500 175.405 C 342.345 174.207,340.590 172.331,339.600 171.235 C 338.610 170.140,337.525 169.234,337.188 169.222 C 336.852 169.210,336.317 168.840,336.000 168.400 C 335.683 167.960,335.143 167.600,334.800 167.600 C 334.457 167.600,333.917 167.240,333.600 166.800 C 333.283 166.360,332.703 166.000,332.312 166.000 C 331.920 166.000,331.600 165.820,331.600 165.600 C 331.600 165.380,331.240 165.200,330.800 165.200 C 330.360 165.200,330.000 165.020,330.000 164.800 C 330.000 164.580,329.460 164.400,328.800 164.400 C 328.140 164.400,327.600 164.220,327.600 164.000 C 327.600 163.780,327.060 163.600,326.400 163.600 C 325.740 163.600,325.200 163.420,325.200 163.200 C 325.200 162.980,324.570 162.800,323.800 162.800 C 323.030 162.800,322.400 162.620,322.400 162.400 C 322.400 162.149,319.800 162.000,315.400 162.000 C 311.000 162.000,308.400 162.149,308.400 162.400 M61.200 179.600 C 61.200 179.820,60.750 180.000,60.200 180.000 C 59.650 180.000,59.200 180.180,59.200 180.400 C 59.200 180.620,58.880 180.800,58.488 180.800 C 58.097 180.800,57.517 181.160,57.200 181.600 C 56.883 182.040,56.387 182.400,56.098 182.400 C 55.461 182.400,52.800 184.996,52.800 185.618 C 52.800 185.863,52.080 186.754,51.200 187.600 C 50.320 188.446,49.600 189.421,49.600 189.769 C 49.600 190.116,49.420 190.400,49.200 190.400 C 48.980 190.400,48.800 190.760,48.800 191.200 C 48.800 191.640,48.620 192.000,48.400 192.000 C 48.180 192.000,48.000 192.630,48.000 193.400 C 48.000 194.170,47.820 194.800,47.600 194.800 C 47.356 194.800,47.200 196.667,47.200 199.600 C 47.200 202.533,47.356 204.400,47.600 204.400 C 47.820 204.400,48.000 205.120,48.000 206.000 C 48.000 206.880,48.180 207.600,48.400 207.600 C 48.620 207.600,48.800 207.870,48.800 208.200 C 48.800 208.530,48.980 208.800,49.200 208.800 C 49.420 208.800,49.600 209.084,49.600 209.431 C 49.600 209.779,50.320 210.754,51.200 211.600 C 52.080 212.446,52.800 213.337,52.800 213.582 C 52.800 214.250,55.483 216.800,56.187 216.800 C 56.524 216.800,56.800 216.980,56.800 217.200 C 56.800 217.420,57.120 217.600,57.512 217.600 C 57.903 217.600,58.483 217.960,58.800 218.400 C 59.117 218.840,59.787 219.200,60.288 219.200 C 60.790 219.200,61.200 219.380,61.200 219.600 C 61.200 219.865,91.933 220.000,152.600 220.000 C 213.267 220.000,244.000 219.865,244.000 219.600 C 244.000 219.380,244.360 219.200,244.800 219.200 C 245.240 219.200,245.600 219.020,245.600 218.800 C 245.600 218.580,245.960 218.400,246.400 218.400 C 246.840 218.400,247.200 218.220,247.200 218.000 C 247.200 217.780,247.548 217.600,247.973 217.600 C 248.418 217.600,248.865 217.227,249.025 216.721 C 249.358 215.673,253.501 211.367,253.845 211.712 C 254.196 212.063,256.000 210.143,256.000 209.418 C 256.000 209.078,256.136 208.800,256.302 208.800 C 256.469 208.800,256.859 208.215,257.170 207.500 C 257.481 206.785,257.918 206.079,258.141 205.931 C 258.761 205.520,258.711 193.904,258.089 193.696 C 257.820 193.607,257.600 193.188,257.600 192.767 C 257.600 192.345,257.420 192.000,257.200 192.000 C 256.980 192.000,256.800 191.640,256.800 191.200 C 256.800 190.760,256.620 190.400,256.400 190.400 C 256.180 190.400,256.000 190.122,256.000 189.782 C 256.000 189.076,254.201 187.133,253.861 187.472 C 253.739 187.595,253.330 187.387,252.954 187.011 C 252.378 186.435,252.359 186.271,252.835 185.970 C 253.292 185.680,253.266 185.611,252.700 185.606 C 252.315 185.603,252.000 185.420,252.000 185.200 C 252.000 184.980,251.865 184.840,251.700 184.889 C 251.171 185.046,249.165 183.504,249.315 183.056 C 249.507 182.478,247.799 180.800,247.018 180.800 C 246.678 180.800,246.400 180.620,246.400 180.400 C 246.400 180.180,246.040 180.000,245.600 180.000 C 245.160 180.000,244.800 179.820,244.800 179.600 C 244.800 179.334,213.933 179.200,153.000 179.200 C 92.067 179.200,61.200 179.334,61.200 179.600 M307.600 260.800 C 307.600 261.020,306.880 261.200,306.000 261.200 C 305.120 261.200,304.400 261.380,304.400 261.600 C 304.400 261.820,303.860 262.000,303.200 262.000 C 302.540 262.000,302.000 262.180,302.000 262.400 C 302.000 262.620,301.460 262.800,300.800 262.800 C 300.140 262.800,299.600 262.980,299.600 263.200 C 299.600 263.420,299.280 263.600,298.888 263.600 C 298.497 263.600,297.917 263.960,297.600 264.400 C 297.283 264.840,296.743 265.200,296.400 265.200 C 296.057 265.200,295.517 265.560,295.200 266.000 C 294.883 266.440,294.393 266.800,294.112 266.800 C 293.830 266.800,293.600 266.980,293.600 267.200 C 293.600 267.420,293.328 267.600,292.995 267.600 C 292.259 267.600,284.800 274.979,284.800 275.707 C 284.800 275.991,284.440 276.483,284.000 276.800 C 283.560 277.117,283.200 277.607,283.200 277.888 C 283.200 278.170,283.020 278.400,282.800 278.400 C 282.580 278.400,282.400 278.720,282.400 279.112 C 282.400 279.503,282.040 280.083,281.600 280.400 C 281.160 280.717,280.800 281.297,280.800 281.688 C 280.800 282.080,280.620 282.400,280.400 282.400 C 280.180 282.400,280.000 282.940,280.000 283.600 C 280.000 284.260,279.820 284.800,279.600 284.800 C 279.380 284.800,279.200 285.340,279.200 286.000 C 279.200 286.660,279.020 287.200,278.800 287.200 C 278.580 287.200,278.400 288.100,278.400 289.200 C 278.400 290.300,278.220 291.200,278.000 291.200 C 277.749 291.200,277.600 293.800,277.600 298.200 C 277.600 302.600,277.749 305.200,278.000 305.200 C 278.220 305.200,278.400 305.819,278.400 306.576 C 278.400 307.333,278.580 308.064,278.800 308.200 C 279.020 308.336,279.200 308.887,279.200 309.424 C 279.200 309.961,279.380 310.400,279.600 310.400 C 279.820 310.400,280.000 310.940,280.000 311.600 C 280.000 312.260,280.180 312.800,280.400 312.800 C 280.620 312.800,280.800 313.160,280.800 313.600 C 280.800 314.040,280.980 314.400,281.200 314.400 C 281.420 314.400,281.600 314.720,281.600 315.112 C 281.600 315.503,281.960 316.083,282.400 316.400 C 282.840 316.717,283.200 317.257,283.200 317.600 C 283.200 317.943,283.560 318.483,284.000 318.800 C 284.440 319.117,284.800 319.617,284.800 319.910 C 284.800 320.204,285.925 321.512,287.300 322.817 C 288.675 324.122,290.561 325.912,291.491 326.795 C 292.421 327.678,293.326 328.400,293.502 328.400 C 293.679 328.400,294.083 328.760,294.400 329.200 C 294.717 329.640,295.257 330.000,295.600 330.000 C 295.943 330.000,296.483 330.360,296.800 330.800 C 297.117 331.240,297.697 331.600,298.088 331.600 C 298.480 331.600,298.800 331.780,298.800 332.000 C 298.800 332.220,299.160 332.400,299.600 332.400 C 300.040 332.400,300.400 332.580,300.400 332.800 C 300.400 333.020,300.940 333.200,301.600 333.200 C 302.260 333.200,302.800 333.380,302.800 333.600 C 302.800 333.820,303.340 334.000,304.000 334.000 C 304.660 334.000,305.200 334.180,305.200 334.400 C 305.200 334.620,305.920 334.800,306.800 334.800 C 307.680 334.800,308.400 334.980,308.400 335.200 C 308.400 335.451,311.000 335.600,315.400 335.600 C 319.800 335.600,322.400 335.451,322.400 335.200 C 322.400 334.980,322.940 334.800,323.600 334.800 C 324.260 334.800,324.800 334.620,324.800 334.400 C 324.800 334.180,325.250 334.000,325.800 334.000 C 326.350 334.000,326.800 333.820,326.800 333.600 C 326.800 333.380,327.480 333.200,328.312 333.200 C 329.365 333.200,329.998 332.957,330.400 332.400 C 330.717 331.960,331.297 331.600,331.688 331.600 C 332.080 331.600,332.400 331.420,332.400 331.200 C 332.400 330.980,332.720 330.800,333.112 330.800 C 333.503 330.800,334.083 330.440,334.400 330.000 C 334.717 329.560,335.257 329.200,335.600 329.200 C 335.943 329.200,336.483 328.840,336.800 328.400 C 337.117 327.960,337.613 327.600,337.903 327.600 C 338.638 327.600,344.800 321.355,344.800 320.610 C 344.800 320.274,344.980 320.000,345.200 320.000 C 345.420 320.000,345.600 319.712,345.600 319.360 C 345.600 319.009,346.140 318.217,346.800 317.600 C 347.460 316.983,348.000 316.191,348.000 315.840 C 348.000 315.488,348.180 315.200,348.400 315.200 C 348.620 315.200,348.800 314.880,348.800 314.488 C 348.800 314.097,349.160 313.517,349.600 313.200 C 350.070 312.861,350.400 312.165,350.400 311.512 C 350.400 310.900,350.580 310.400,350.800 310.400 C 351.020 310.400,351.200 309.770,351.200 309.000 C 351.200 308.230,351.380 307.600,351.600 307.600 C 351.820 307.600,352.000 307.060,352.000 306.400 C 352.000 305.740,352.180 305.200,352.400 305.200 C 352.651 305.200,352.800 302.600,352.800 298.200 C 352.800 293.800,352.651 291.200,352.400 291.200 C 352.180 291.200,352.000 290.480,352.000 289.600 C 352.000 288.720,351.820 288.000,351.600 288.000 C 351.380 288.000,351.200 287.460,351.200 286.800 C 351.200 286.140,351.020 285.600,350.800 285.600 C 350.580 285.600,350.400 285.060,350.400 284.400 C 350.400 283.740,350.220 283.200,350.000 283.200 C 349.780 283.200,349.600 282.840,349.600 282.400 C 349.600 281.960,349.420 281.600,349.200 281.600 C 348.980 281.600,348.800 281.280,348.800 280.888 C 348.800 280.497,348.440 279.917,348.000 279.600 C 347.560 279.283,347.200 278.715,347.200 278.339 C 347.200 277.962,346.840 277.540,346.400 277.400 C 345.960 277.260,345.600 276.884,345.600 276.564 C 345.600 276.244,344.655 275.024,343.500 273.852 C 342.345 272.680,341.147 271.351,340.838 270.897 C 340.529 270.444,340.034 270.166,339.738 270.279 C 339.435 270.396,339.200 270.224,339.200 269.885 C 339.200 269.064,337.028 266.800,336.240 266.800 C 335.888 266.800,335.600 266.600,335.600 266.357 C 335.600 266.089,335.221 266.008,334.643 266.154 C 333.860 266.350,333.639 266.211,333.435 265.397 C 333.274 264.754,332.903 264.400,332.392 264.400 C 331.957 264.400,331.600 264.220,331.600 264.000 C 331.600 263.780,331.240 263.600,330.800 263.600 C 330.360 263.600,330.000 263.420,330.000 263.200 C 330.000 262.980,329.640 262.800,329.200 262.800 C 328.760 262.800,328.400 262.620,328.400 262.400 C 328.400 262.180,327.860 262.000,327.200 262.000 C 326.540 262.000,326.000 261.820,326.000 261.600 C 326.000 261.380,325.381 261.200,324.624 261.200 C 323.867 261.200,323.136 261.020,323.000 260.800 C 322.849 260.556,319.796 260.400,315.176 260.400 C 310.392 260.400,307.600 260.547,307.600 260.800 M64.400 275.200 C 64.400 275.420,63.680 275.600,62.800 275.600 C 61.920 275.600,61.200 275.780,61.200 276.000 C 61.200 276.220,60.750 276.400,60.200 276.400 C 59.650 276.400,59.200 276.577,59.200 276.792 C 59.200 277.008,58.721 277.305,58.134 277.452 C 56.896 277.763,50.400 284.097,50.400 284.994 C 50.400 285.327,50.220 285.600,50.000 285.600 C 49.780 285.600,49.600 285.960,49.600 286.400 C 49.600 286.840,49.420 287.200,49.200 287.200 C 48.980 287.200,48.800 287.560,48.800 288.000 C 48.800 288.440,48.620 288.800,48.400 288.800 C 48.180 288.800,48.000 289.340,48.000 290.000 C 48.000 290.660,47.820 291.200,47.600 291.200 C 47.357 291.200,47.200 293.000,47.200 295.800 C 47.200 298.600,47.357 300.400,47.600 300.400 C 47.820 300.400,48.000 300.940,48.000 301.600 C 48.000 302.260,48.180 302.800,48.400 302.800 C 48.620 302.800,48.800 303.300,48.800 303.912 C 48.800 304.565,49.130 305.261,49.600 305.600 C 50.040 305.917,50.400 306.457,50.400 306.800 C 50.400 307.143,50.788 307.688,51.262 308.012 C 51.736 308.335,53.443 309.905,55.056 311.500 C 56.668 313.095,58.260 314.400,58.594 314.400 C 58.927 314.400,59.200 314.580,59.200 314.800 C 59.200 315.020,59.470 315.200,59.800 315.200 C 60.130 315.200,60.400 315.380,60.400 315.600 C 60.400 315.820,60.940 316.000,61.600 316.000 C 62.260 316.000,62.800 316.180,62.800 316.400 C 62.800 316.665,93.133 316.800,153.000 316.800 C 212.867 316.800,243.200 316.665,243.200 316.400 C 243.200 316.180,243.740 316.000,244.400 316.000 C 245.060 316.000,245.600 315.820,245.600 315.600 C 245.600 315.380,245.920 315.200,246.312 315.200 C 246.703 315.200,247.283 314.840,247.600 314.400 C 247.917 313.960,248.410 313.600,248.696 313.600 C 249.251 313.600,254.400 308.631,254.400 308.096 C 254.400 307.920,254.760 307.517,255.200 307.200 C 255.640 306.883,256.000 306.303,256.000 305.912 C 256.000 305.520,256.180 305.200,256.400 305.200 C 256.620 305.200,256.800 304.840,256.800 304.400 C 256.800 303.960,256.980 303.600,257.200 303.600 C 257.420 303.600,257.600 303.075,257.600 302.433 C 257.600 301.792,257.819 301.194,258.086 301.105 C 258.774 300.875,258.774 290.725,258.086 290.495 C 257.819 290.406,257.600 289.988,257.600 289.567 C 257.600 289.145,257.420 288.800,257.200 288.800 C 256.980 288.800,256.800 288.440,256.800 288.000 C 256.800 287.560,256.620 287.200,256.400 287.200 C 256.180 287.200,256.000 286.917,256.000 286.571 C 256.000 285.755,255.030 284.798,254.000 284.600 C 252.686 284.347,251.829 283.288,252.391 282.611 C 253.096 281.762,248.982 277.745,247.033 277.380 C 246.245 277.232,245.600 276.951,245.600 276.755 C 245.600 276.560,245.240 276.400,244.800 276.400 C 244.360 276.400,244.000 276.220,244.000 276.000 C 244.000 275.780,243.370 275.600,242.600 275.600 C 241.830 275.600,241.200 275.420,241.200 275.200 C 241.200 274.935,211.467 274.800,152.800 274.800 C 94.133 274.800,64.400 274.935,64.400 275.200 " stroke="none" fill="#1ca4f4" fill-rule="evenodd"></path><path id="path1" d="M282.800 83.800 C 282.392 84.291,282.420 84.400,282.951 84.400 C 283.308 84.400,283.600 84.130,283.600 83.800 C 283.600 83.470,283.532 83.200,283.449 83.200 C 283.366 83.200,283.074 83.470,282.800 83.800 M54.656 85.078 C 54.205 85.528,54.381 86.000,55.000 86.000 C 55.330 86.000,55.600 85.831,55.600 85.624 C 55.600 85.119,54.975 84.758,54.656 85.078 M250.677 115.862 C 249.317 117.171,248.878 117.838,249.179 118.139 C 249.658 118.618,253.720 114.918,253.358 114.333 C 253.004 113.759,252.653 113.958,250.677 115.862 M339.232 130.648 C 337.172 132.591,336.796 133.215,337.700 133.182 C 338.303 133.160,341.789 129.256,341.481 128.947 C 341.361 128.828,340.349 129.593,339.232 130.648 M283.384 179.227 C 283.239 179.461,283.216 179.749,283.333 179.867 C 283.620 180.153,284.400 179.648,284.400 179.176 C 284.400 178.665,283.709 178.699,283.384 179.227 M249.200 183.125 C 249.200 183.303,249.740 183.849,250.400 184.337 C 251.815 185.383,252.005 184.920,250.674 183.670 C 249.708 182.762,249.200 182.574,249.200 183.125 M252.400 186.229 C 252.400 186.525,253.475 187.600,253.771 187.600 C 254.289 187.600,253.952 186.467,253.367 186.243 C 252.581 185.941,252.400 185.938,252.400 186.229 M251.300 213.789 C 249.331 215.823,248.758 216.800,249.532 216.800 C 249.989 216.800,254.000 212.489,254.000 211.998 C 254.000 211.228,253.380 211.639,251.300 213.789 M252.187 282.821 C 251.811 283.430,253.638 284.922,254.142 284.418 C 254.408 284.152,254.296 283.748,253.809 283.209 C 252.987 282.302,252.570 282.202,252.187 282.821 " stroke="none" fill="#20a4f4" fill-rule="evenodd"></path></g></svg>