<svg id="svg" xmlns="http://www.w3.org/2000/svg" xmlns:xlink="http://www.w3.org/1999/xlink" width="400" height="400" viewBox="0, 0, 400,400" version="1.1"><g id="svgg"><path id="path0" d="M72.000 19.200 C 72.000 19.438,70.476 19.600,68.229 19.600 C 65.410 19.600,64.306 19.752,63.857 20.200 C 63.498 20.560,62.519 20.800,61.416 20.800 C 60.148 20.800,59.503 20.987,59.345 21.400 C 59.204 21.767,58.597 22.000,57.781 22.000 C 57.047 22.000,56.336 22.180,56.200 22.400 C 56.064 22.620,55.508 22.800,54.964 22.800 C 54.420 22.800,53.871 23.070,53.745 23.400 C 53.618 23.730,53.103 24.000,52.600 24.000 C 52.097 24.000,51.582 24.270,51.455 24.600 C 51.329 24.930,50.895 25.200,50.492 25.200 C 49.397 25.200,47.607 26.130,47.603 26.700 C 47.601 26.988,47.092 27.200,46.400 27.200 C 45.600 27.200,45.200 27.400,45.200 27.800 C 45.200 28.130,44.872 28.400,44.472 28.400 C 43.638 28.400,41.200 30.439,41.200 31.136 C 41.200 31.391,40.866 31.600,40.458 31.600 C 40.051 31.600,39.231 32.050,38.638 32.600 C 38.044 33.150,37.388 33.600,37.179 33.600 C 36.971 33.600,36.800 33.870,36.800 34.200 C 36.800 34.530,36.607 34.800,36.371 34.800 C 35.818 34.800,34.800 35.818,34.800 36.371 C 34.800 36.607,34.530 36.800,34.200 36.800 C 33.870 36.800,33.600 36.971,33.600 37.179 C 33.600 37.388,33.150 38.044,32.600 38.638 C 32.050 39.231,31.600 40.051,31.600 40.458 C 31.600 40.866,31.422 41.200,31.205 41.200 C 30.596 41.200,29.200 42.515,29.200 43.089 C 29.200 43.370,29.020 43.600,28.800 43.600 C 28.580 43.600,28.400 43.941,28.400 44.357 C 28.400 44.774,28.130 45.218,27.800 45.345 C 27.470 45.471,27.200 46.031,27.200 46.587 C 27.200 47.221,26.975 47.600,26.600 47.600 C 26.270 47.600,26.000 47.870,26.000 48.200 C 26.000 48.530,25.820 48.800,25.600 48.800 C 25.380 48.800,25.200 49.228,25.200 49.751 C 25.200 50.274,24.930 50.926,24.600 51.200 C 24.270 51.474,24.000 52.107,24.000 52.606 C 24.000 53.106,23.730 53.618,23.400 53.745 C 23.070 53.871,22.800 54.431,22.800 54.987 C 22.800 55.544,22.620 56.000,22.400 56.000 C 22.180 56.000,22.000 56.701,22.000 57.557 C 22.000 58.572,21.791 59.195,21.400 59.345 C 20.987 59.503,20.800 60.148,20.800 61.416 C 20.800 62.519,20.560 63.498,20.200 63.857 C 19.757 64.300,19.600 65.385,19.600 68.005 C 19.600 69.956,19.420 71.664,19.200 71.800 C 18.645 72.143,18.645 327.857,19.200 328.200 C 19.420 328.336,19.600 330.022,19.600 331.947 C 19.600 334.405,19.775 335.678,20.187 336.224 C 20.510 336.651,20.780 337.771,20.787 338.713 C 20.796 339.857,20.999 340.501,21.400 340.655 C 21.791 340.805,22.000 341.428,22.000 342.443 C 22.000 343.299,22.180 344.000,22.400 344.000 C 22.620 344.000,22.800 344.456,22.800 345.013 C 22.800 345.569,23.070 346.129,23.400 346.255 C 23.730 346.382,24.000 346.894,24.000 347.394 C 24.000 347.893,24.270 348.526,24.600 348.800 C 24.930 349.074,25.200 349.726,25.200 350.249 C 25.200 350.772,25.380 351.200,25.600 351.200 C 25.820 351.200,26.000 351.476,26.000 351.813 C 26.000 352.149,26.270 352.529,26.600 352.655 C 26.930 352.782,27.200 353.316,27.200 353.843 C 27.200 354.427,27.434 354.800,27.800 354.800 C 28.133 354.800,28.400 355.156,28.400 355.600 C 28.400 356.040,28.580 356.400,28.800 356.400 C 29.020 356.400,29.200 356.676,29.200 357.013 C 29.200 357.349,29.470 357.729,29.800 357.855 C 30.130 357.982,30.400 358.336,30.400 358.643 C 30.400 358.949,30.670 359.200,31.000 359.200 C 31.330 359.200,31.600 359.444,31.600 359.742 C 31.600 360.039,32.050 360.769,32.600 361.362 C 33.150 361.956,33.600 362.612,33.600 362.821 C 33.600 363.029,33.870 363.200,34.200 363.200 C 34.530 363.200,34.800 363.386,34.800 363.613 C 34.800 364.005,37.034 366.400,37.400 366.400 C 37.495 366.400,38.125 366.940,38.800 367.600 C 39.475 368.260,40.198 368.800,40.407 368.800 C 40.615 368.800,41.423 369.419,42.203 370.176 C 42.982 370.933,43.975 371.665,44.410 371.803 C 44.844 371.941,45.200 372.222,45.200 372.427 C 45.200 372.632,45.740 372.800,46.400 372.800 C 47.200 372.800,47.600 373.000,47.600 373.400 C 47.600 373.730,47.870 374.000,48.200 374.000 C 48.530 374.000,48.800 374.180,48.800 374.400 C 48.800 374.620,49.321 374.800,49.957 374.800 C 50.617 374.800,51.213 375.058,51.345 375.400 C 51.471 375.730,52.011 376.000,52.545 376.000 C 53.078 376.000,53.618 376.270,53.745 376.600 C 53.871 376.930,54.431 377.200,54.987 377.200 C 55.544 377.200,56.000 377.380,56.000 377.600 C 56.000 377.820,56.698 378.000,57.551 378.000 C 58.442 378.000,59.314 378.255,59.600 378.600 C 59.900 378.962,60.776 379.200,61.806 379.200 C 62.956 379.200,63.590 379.396,63.745 379.800 C 63.928 380.278,64.790 380.400,67.987 380.400 C 70.396 380.400,72.000 380.560,72.000 380.800 C 72.000 381.066,114.933 381.200,200.000 381.200 C 285.067 381.200,328.000 381.066,328.000 380.800 C 328.000 380.560,329.584 380.400,331.951 380.400 C 334.975 380.400,336.019 380.259,336.400 379.800 C 336.705 379.433,337.582 379.200,338.662 379.200 C 339.860 379.200,340.499 379.008,340.655 378.600 C 340.805 378.209,341.428 378.000,342.443 378.000 C 343.299 378.000,344.000 377.820,344.000 377.600 C 344.000 377.380,344.540 377.200,345.200 377.200 C 346.000 377.200,346.400 377.000,346.400 376.600 C 346.400 376.235,346.772 376.000,347.351 376.000 C 347.874 376.000,348.526 375.730,348.800 375.400 C 349.074 375.070,349.726 374.800,350.249 374.800 C 350.772 374.800,351.200 374.620,351.200 374.400 C 351.200 374.180,351.476 374.000,351.813 374.000 C 352.149 374.000,352.529 373.730,352.655 373.400 C 352.782 373.070,353.316 372.800,353.843 372.800 C 354.369 372.800,354.800 372.649,354.800 372.464 C 354.800 372.280,355.518 371.785,356.395 371.364 C 357.273 370.944,357.993 370.375,357.995 370.100 C 357.998 369.825,358.179 369.600,358.397 369.600 C 358.780 369.600,360.150 368.553,361.669 367.100 C 362.071 366.715,362.504 366.400,362.632 366.400 C 362.934 366.400,366.400 362.934,366.400 362.632 C 366.400 362.504,366.715 362.071,367.100 361.669 C 368.553 360.150,369.600 358.780,369.600 358.397 C 369.600 358.179,369.825 357.998,370.100 357.995 C 370.375 357.993,370.944 357.273,371.364 356.395 C 371.785 355.518,372.280 354.800,372.464 354.800 C 372.649 354.800,372.800 354.369,372.800 353.843 C 372.800 353.316,373.070 352.782,373.400 352.655 C 373.730 352.529,374.000 352.227,374.000 351.984 C 374.000 351.741,374.270 351.273,374.600 350.943 C 374.930 350.613,375.200 350.006,375.200 349.595 C 375.200 349.184,375.380 348.736,375.600 348.600 C 375.820 348.464,376.000 347.913,376.000 347.376 C 376.000 346.775,376.231 346.400,376.600 346.400 C 377.000 346.400,377.200 346.000,377.200 345.200 C 377.200 344.540,377.380 344.000,377.600 344.000 C 377.820 344.000,378.000 343.299,378.000 342.443 C 378.000 341.428,378.209 340.805,378.600 340.655 C 379.008 340.499,379.200 339.860,379.200 338.662 C 379.200 337.582,379.433 336.705,379.800 336.400 C 380.259 336.019,380.400 334.975,380.400 331.951 C 380.400 329.584,380.560 328.000,380.800 328.000 C 381.066 328.000,381.200 285.067,381.200 200.000 C 381.200 114.933,381.066 72.000,380.800 72.000 C 380.560 72.000,380.400 70.396,380.400 67.987 C 380.400 64.790,380.278 63.928,379.800 63.745 C 379.379 63.583,379.200 62.927,379.200 61.545 C 379.200 60.163,379.021 59.506,378.600 59.345 C 378.209 59.195,378.000 58.572,378.000 57.557 C 378.000 56.701,377.820 56.000,377.600 56.000 C 377.380 56.000,377.200 55.544,377.200 54.987 C 377.200 54.431,376.930 53.871,376.600 53.745 C 376.270 53.618,376.000 53.094,376.000 52.581 C 376.000 52.067,375.820 51.536,375.600 51.400 C 375.380 51.264,375.200 50.816,375.200 50.405 C 375.200 49.994,374.930 49.387,374.600 49.057 C 374.270 48.727,374.000 48.264,374.000 48.029 C 374.000 47.793,373.730 47.600,373.400 47.600 C 373.000 47.600,372.800 47.200,372.800 46.400 C 372.800 45.740,372.632 45.200,372.427 45.200 C 372.222 45.200,371.941 44.844,371.803 44.410 C 371.665 43.975,370.933 42.982,370.176 42.203 C 369.419 41.423,368.800 40.615,368.800 40.407 C 368.800 40.198,368.260 39.475,367.600 38.800 C 366.940 38.125,366.400 37.495,366.400 37.400 C 366.400 37.034,364.005 34.800,363.613 34.800 C 363.386 34.800,363.200 34.530,363.200 34.200 C 363.200 33.870,363.011 33.600,362.781 33.600 C 362.550 33.600,361.945 33.150,361.435 32.600 C 360.925 32.050,360.214 31.600,359.854 31.600 C 359.494 31.600,359.200 31.330,359.200 31.000 C 359.200 30.670,359.029 30.400,358.821 30.400 C 358.612 30.400,357.956 29.950,357.362 29.400 C 356.769 28.850,355.949 28.400,355.542 28.400 C 355.134 28.400,354.800 28.130,354.800 27.800 C 354.800 27.470,354.449 27.200,354.021 27.200 C 353.592 27.200,352.756 26.750,352.162 26.200 C 351.569 25.650,350.737 25.200,350.313 25.200 C 349.889 25.200,349.273 24.930,348.943 24.600 C 348.613 24.270,347.925 24.000,347.414 24.000 C 346.903 24.000,346.382 23.730,346.255 23.400 C 346.129 23.070,345.569 22.800,345.013 22.800 C 344.456 22.800,344.000 22.620,344.000 22.400 C 344.000 22.180,343.299 22.000,342.443 22.000 C 341.428 22.000,340.805 21.791,340.655 21.400 C 340.501 20.999,339.857 20.796,338.713 20.787 C 337.771 20.780,336.651 20.510,336.224 20.187 C 335.670 19.769,334.378 19.600,331.724 19.600 C 329.508 19.600,328.000 19.438,328.000 19.200 C 328.000 18.934,285.067 18.800,200.000 18.800 C 114.933 18.800,72.000 18.934,72.000 19.200 M327.200 37.200 C 327.200 37.428,328.384 37.600,329.951 37.600 C 331.908 37.600,332.846 37.773,333.200 38.200 C 333.486 38.545,334.358 38.800,335.249 38.800 C 336.361 38.800,336.800 38.970,336.800 39.400 C 336.800 39.800,337.200 40.000,338.000 40.000 C 338.660 40.000,339.200 40.180,339.200 40.400 C 339.200 40.620,339.631 40.800,340.157 40.800 C 340.684 40.800,341.218 41.070,341.345 41.400 C 341.471 41.730,341.921 42.000,342.345 42.000 C 342.768 42.000,343.218 42.270,343.345 42.600 C 343.471 42.930,343.941 43.200,344.387 43.200 C 344.834 43.200,345.200 43.380,345.200 43.600 C 345.200 43.820,345.470 44.000,345.800 44.000 C 346.130 44.000,346.400 44.270,346.400 44.600 C 346.400 44.973,346.778 45.200,347.400 45.200 C 348.022 45.200,348.400 45.427,348.400 45.800 C 348.400 46.130,348.593 46.400,348.829 46.400 C 349.382 46.400,350.400 47.418,350.400 47.971 C 350.400 48.207,350.670 48.400,351.000 48.400 C 351.330 48.400,351.600 48.670,351.600 49.000 C 351.600 49.330,351.793 49.600,352.029 49.600 C 352.562 49.600,353.600 50.610,353.600 51.129 C 353.600 51.341,353.870 51.618,354.200 51.745 C 354.530 51.871,354.800 52.341,354.800 52.787 C 354.800 53.243,355.064 53.600,355.400 53.600 C 355.730 53.600,356.000 53.870,356.000 54.200 C 356.000 54.530,356.160 54.800,356.357 54.800 C 356.553 54.800,356.826 55.250,356.964 55.800 C 357.102 56.350,357.392 56.800,357.608 56.800 C 357.823 56.800,358.000 57.166,358.000 57.613 C 358.000 58.059,358.270 58.529,358.600 58.655 C 358.930 58.782,359.200 59.306,359.200 59.819 C 359.200 60.333,359.380 60.864,359.600 61.000 C 359.820 61.136,360.000 61.602,360.000 62.036 C 360.000 62.470,360.270 62.929,360.600 63.055 C 360.988 63.204,361.200 63.824,361.200 64.814 C 361.200 65.655,361.470 66.613,361.800 66.943 C 362.212 67.354,362.400 68.368,362.400 70.171 C 362.400 71.657,362.574 72.800,362.800 72.800 C 363.044 72.800,363.200 74.667,363.200 77.600 L 363.200 82.400 200.000 82.400 L 36.800 82.400 36.800 77.600 C 36.800 74.667,36.956 72.800,37.200 72.800 C 37.426 72.800,37.600 71.657,37.600 70.171 C 37.600 68.368,37.788 67.354,38.200 66.943 C 38.530 66.613,38.800 65.636,38.800 64.771 C 38.800 63.641,38.968 63.200,39.400 63.200 C 39.769 63.200,40.000 62.825,40.000 62.224 C 40.000 61.687,40.180 61.136,40.400 61.000 C 40.620 60.864,40.800 60.333,40.800 59.819 C 40.800 59.306,41.070 58.782,41.400 58.655 C 41.730 58.529,42.000 58.079,42.000 57.655 C 42.000 57.232,42.270 56.782,42.600 56.655 C 42.930 56.529,43.200 56.059,43.200 55.613 C 43.200 55.166,43.380 54.800,43.600 54.800 C 43.820 54.800,44.000 54.530,44.000 54.200 C 44.000 53.870,44.270 53.600,44.600 53.600 C 44.973 53.600,45.200 53.222,45.200 52.600 C 45.200 51.978,45.427 51.600,45.800 51.600 C 46.130 51.600,46.400 51.407,46.400 51.171 C 46.400 50.618,47.418 49.600,47.971 49.600 C 48.207 49.600,48.400 49.330,48.400 49.000 C 48.400 48.670,48.670 48.400,49.000 48.400 C 49.330 48.400,49.600 48.207,49.600 47.971 C 49.600 47.418,50.618 46.400,51.171 46.400 C 51.407 46.400,51.600 46.130,51.600 45.800 C 51.600 45.427,51.978 45.200,52.600 45.200 C 53.222 45.200,53.600 44.973,53.600 44.600 C 53.600 44.270,53.870 44.000,54.200 44.000 C 54.530 44.000,54.800 43.820,54.800 43.600 C 54.800 43.380,55.166 43.200,55.613 43.200 C 56.059 43.200,56.529 42.930,56.655 42.600 C 56.782 42.270,57.232 42.000,57.655 42.000 C 58.079 42.000,58.529 41.730,58.655 41.400 C 58.782 41.070,59.306 40.800,59.819 40.800 C 60.333 40.800,60.864 40.620,61.000 40.400 C 61.136 40.180,61.687 40.000,62.224 40.000 C 62.825 40.000,63.200 39.769,63.200 39.400 C 63.200 38.968,63.641 38.800,64.771 38.800 C 65.636 38.800,66.613 38.530,66.943 38.200 C 67.354 37.788,68.368 37.600,70.171 37.600 C 71.657 37.600,72.800 37.426,72.800 37.200 C 72.800 36.934,115.467 36.800,200.000 36.800 C 284.533 36.800,327.200 36.934,327.200 37.200 M82.600 51.200 C 82.464 51.420,81.643 51.600,80.776 51.600 C 79.642 51.600,79.200 51.768,79.200 52.200 C 79.200 52.536,78.843 52.800,78.390 52.800 C 77.894 52.800,77.433 53.188,77.200 53.800 C 76.991 54.350,76.680 54.801,76.510 54.803 C 75.296 54.815,74.671 62.089,75.711 64.094 C 76.348 65.321,77.406 66.400,77.971 66.400 C 78.207 66.400,78.400 66.604,78.400 66.853 C 78.400 68.660,88.123 69.837,88.700 68.100 C 88.792 67.825,89.122 67.600,89.433 67.600 C 89.745 67.600,90.000 67.373,90.000 67.095 C 90.000 66.817,90.450 66.252,91.000 65.839 C 91.572 65.409,92.000 64.684,92.000 64.144 C 92.000 63.572,92.236 63.200,92.600 63.200 C 93.080 63.200,93.200 62.599,93.200 60.187 C 93.200 57.879,93.060 57.121,92.600 56.945 C 92.270 56.818,92.000 56.284,92.000 55.757 C 92.000 55.209,91.764 54.800,91.447 54.800 C 91.142 54.800,90.796 54.427,90.676 53.970 C 90.557 53.514,90.086 53.043,89.630 52.924 C 89.173 52.804,88.800 52.458,88.800 52.153 C 88.800 51.774,88.296 51.600,87.200 51.600 C 86.320 51.600,85.600 51.420,85.600 51.200 C 85.600 50.980,84.981 50.800,84.224 50.800 C 83.467 50.800,82.736 50.980,82.600 51.200 M111.200 52.200 C 111.200 52.530,111.007 52.800,110.771 52.800 C 110.218 52.800,109.200 53.818,109.200 54.371 C 109.200 54.607,108.930 54.800,108.600 54.800 C 108.234 54.800,108.000 55.173,108.000 55.757 C 108.000 56.284,107.730 56.818,107.400 56.945 C 106.945 57.119,106.800 57.858,106.800 60.000 C 106.800 62.142,106.945 62.881,107.400 63.055 C 107.730 63.182,108.000 63.691,108.000 64.187 C 108.000 64.682,108.450 65.426,109.000 65.839 C 109.550 66.252,110.000 66.817,110.000 67.095 C 110.000 67.373,110.255 67.600,110.567 67.600 C 110.878 67.600,111.208 67.825,111.300 68.100 C 111.575 68.927,119.697 69.046,120.508 68.235 C 120.857 67.886,121.336 67.600,121.571 67.600 C 121.807 67.600,122.000 67.373,122.000 67.095 C 122.000 66.817,122.450 66.252,123.000 65.839 C 123.550 65.426,124.000 64.762,124.000 64.364 C 124.000 63.966,124.290 63.477,124.645 63.279 C 125.457 62.825,125.321 56.374,124.494 56.098 C 124.222 56.007,124.000 55.678,124.000 55.367 C 124.000 55.055,123.816 54.800,123.590 54.800 C 123.365 54.800,123.009 54.350,122.800 53.800 C 122.567 53.188,122.106 52.800,121.610 52.800 C 121.157 52.800,120.800 52.536,120.800 52.200 C 120.800 51.700,120.000 51.600,116.000 51.600 C 112.000 51.600,111.200 51.700,111.200 52.200 M143.200 52.200 C 143.200 52.530,143.007 52.800,142.771 52.800 C 142.218 52.800,141.200 53.818,141.200 54.371 C 141.200 54.607,140.930 54.800,140.600 54.800 C 140.234 54.800,140.000 55.173,140.000 55.757 C 140.000 56.284,139.730 56.818,139.400 56.945 C 138.945 57.119,138.800 57.858,138.800 60.000 C 138.800 62.142,138.945 62.881,139.400 63.055 C 139.730 63.182,140.000 63.691,140.000 64.187 C 140.000 64.682,140.450 65.426,141.000 65.839 C 141.550 66.252,142.000 66.817,142.000 67.095 C 142.000 67.373,142.255 67.600,142.567 67.600 C 142.878 67.600,143.208 67.825,143.300 68.100 C 143.863 69.793,153.543 68.664,153.587 66.900 C 153.594 66.625,153.809 66.400,154.064 66.400 C 155.755 66.400,156.800 63.928,156.800 59.928 C 156.800 57.576,156.640 56.000,156.400 56.000 C 156.180 56.000,156.000 55.813,156.000 55.584 C 156.000 54.802,154.251 52.800,153.568 52.800 C 153.192 52.800,152.782 52.530,152.655 52.200 C 152.469 51.715,151.544 51.600,147.813 51.600 C 143.979 51.600,143.200 51.701,143.200 52.200 M363.200 213.800 C 363.200 289.133,363.066 327.200,362.800 327.200 C 362.574 327.200,362.400 328.343,362.400 329.829 C 362.400 331.632,362.212 332.646,361.800 333.057 C 361.470 333.387,361.200 334.345,361.200 335.186 C 361.200 336.176,360.988 336.796,360.600 336.945 C 360.270 337.071,360.000 337.631,360.000 338.187 C 360.000 338.744,359.820 339.200,359.600 339.200 C 359.380 339.200,359.200 339.650,359.200 340.200 C 359.200 340.750,359.032 341.200,358.827 341.200 C 358.622 341.200,358.328 341.597,358.174 342.081 C 358.020 342.566,357.648 343.209,357.347 343.510 C 357.046 343.811,356.800 344.314,356.800 344.629 C 356.800 344.943,356.620 345.200,356.400 345.200 C 356.180 345.200,356.000 345.470,356.000 345.800 C 356.000 346.130,355.730 346.400,355.400 346.400 C 355.064 346.400,354.800 346.757,354.800 347.213 C 354.800 347.659,354.530 348.129,354.200 348.255 C 353.870 348.382,353.600 348.642,353.600 348.834 C 353.600 349.314,349.276 353.600,348.791 353.600 C 348.576 353.600,348.400 353.784,348.400 354.010 C 348.400 354.235,347.950 354.591,347.400 354.800 C 346.850 355.009,346.400 355.365,346.400 355.590 C 346.400 355.816,346.130 356.000,345.800 356.000 C 345.470 356.000,345.200 356.160,345.200 356.357 C 345.200 356.553,344.750 356.826,344.200 356.964 C 343.650 357.102,343.200 357.392,343.200 357.608 C 343.200 357.823,342.834 358.000,342.387 358.000 C 341.941 358.000,341.471 358.270,341.345 358.600 C 341.218 358.930,340.684 359.200,340.157 359.200 C 339.631 359.200,339.200 359.380,339.200 359.600 C 339.200 359.820,338.744 360.000,338.187 360.000 C 337.631 360.000,337.071 360.270,336.945 360.600 C 336.796 360.988,336.176 361.200,335.186 361.200 C 334.345 361.200,333.387 361.470,333.057 361.800 C 332.646 362.212,331.632 362.400,329.829 362.400 C 328.343 362.400,327.200 362.574,327.200 362.800 C 327.200 363.066,284.533 363.200,200.000 363.200 C 115.467 363.200,72.800 363.066,72.800 362.800 C 72.800 362.574,71.657 362.400,70.171 362.400 C 68.368 362.400,67.354 362.212,66.943 361.800 C 66.613 361.470,65.655 361.200,64.814 361.200 C 63.824 361.200,63.204 360.988,63.055 360.600 C 62.929 360.270,62.470 360.000,62.036 360.000 C 61.602 360.000,61.136 359.820,61.000 359.600 C 60.864 359.380,60.333 359.200,59.819 359.200 C 59.306 359.200,58.782 358.930,58.655 358.600 C 58.529 358.270,58.059 358.000,57.613 358.000 C 57.166 358.000,56.800 357.823,56.800 357.608 C 56.800 357.392,56.350 357.102,55.800 356.964 C 55.250 356.826,54.800 356.553,54.800 356.357 C 54.800 356.160,54.530 356.000,54.200 356.000 C 53.870 356.000,53.600 355.730,53.600 355.400 C 53.600 355.064,53.243 354.800,52.787 354.800 C 52.341 354.800,51.871 354.530,51.745 354.200 C 51.618 353.870,51.341 353.600,51.129 353.600 C 50.610 353.600,49.600 352.562,49.600 352.029 C 49.600 351.793,49.330 351.600,49.000 351.600 C 48.670 351.600,48.400 351.330,48.400 351.000 C 48.400 350.670,48.207 350.400,47.971 350.400 C 47.438 350.400,46.400 349.390,46.400 348.871 C 46.400 348.659,46.130 348.382,45.800 348.255 C 45.470 348.129,45.200 347.659,45.200 347.213 C 45.200 346.757,44.936 346.400,44.600 346.400 C 44.270 346.400,44.000 346.130,44.000 345.800 C 44.000 345.470,43.820 345.200,43.600 345.200 C 43.380 345.200,43.200 344.834,43.200 344.387 C 43.200 343.941,42.930 343.471,42.600 343.345 C 42.270 343.218,42.000 342.768,42.000 342.345 C 42.000 341.921,41.730 341.471,41.400 341.345 C 41.070 341.218,40.800 340.684,40.800 340.157 C 40.800 339.631,40.620 339.200,40.400 339.200 C 40.180 339.200,40.000 338.660,40.000 338.000 C 40.000 337.200,39.800 336.800,39.400 336.800 C 38.968 336.800,38.800 336.359,38.800 335.229 C 38.800 334.364,38.530 333.387,38.200 333.057 C 37.788 332.646,37.600 331.632,37.600 329.829 C 37.600 328.343,37.426 327.200,37.200 327.200 C 36.934 327.200,36.800 289.133,36.800 213.800 L 36.800 100.400 200.000 100.400 L 363.200 100.400 363.200 213.800 M83.600 183.000 C 83.282 183.383,82.397 183.600,81.151 183.600 C 79.794 183.600,79.200 183.762,79.200 184.132 C 79.200 184.425,78.750 184.906,78.200 185.200 C 77.650 185.494,77.200 185.975,77.200 186.268 C 77.200 186.560,76.975 186.801,76.700 186.803 C 75.825 186.809,75.200 188.871,75.200 191.751 C 75.200 194.785,75.856 197.200,76.680 197.200 C 76.966 197.200,77.200 197.470,77.200 197.800 C 77.200 198.130,77.470 198.400,77.800 198.400 C 78.130 198.400,78.400 198.593,78.400 198.829 C 78.400 200.464,73.944 200.400,187.971 200.400 C 259.990 200.400,296.400 200.266,296.400 200.000 C 296.400 199.780,296.715 199.597,297.100 199.593 C 297.964 199.585,299.600 197.917,299.600 197.044 C 299.600 196.690,299.780 196.400,300.000 196.400 C 300.532 196.400,300.532 188.129,300.000 187.800 C 299.780 187.664,299.600 187.243,299.600 186.865 C 299.600 186.177,298.296 184.800,297.644 184.800 C 297.454 184.800,297.074 184.530,296.800 184.200 C 296.511 183.852,295.639 183.600,294.722 183.600 C 293.852 183.600,292.874 183.331,292.543 183.000 C 292.013 182.470,279.863 182.400,188.020 182.400 C 96.133 182.400,84.040 182.469,83.600 183.000 M80.976 223.387 C 80.549 223.710,79.795 223.980,79.300 223.987 C 78.772 223.995,78.400 224.248,78.400 224.600 C 78.400 224.930,78.222 225.200,78.005 225.200 C 77.223 225.200,76.000 226.596,76.000 227.489 C 76.000 227.990,75.820 228.400,75.600 228.400 C 75.363 228.400,75.200 229.867,75.200 232.000 C 75.200 234.133,75.363 235.600,75.600 235.600 C 75.820 235.600,76.000 236.050,76.000 236.600 C 76.000 237.222,76.227 237.600,76.600 237.600 C 76.930 237.600,77.200 237.870,77.200 238.200 C 77.200 238.530,77.470 238.800,77.800 238.800 C 78.130 238.800,78.400 239.070,78.400 239.400 C 78.400 239.773,78.778 240.000,79.400 240.000 C 79.950 240.000,80.400 240.180,80.400 240.400 C 80.400 240.665,105.792 240.800,155.776 240.800 C 205.596 240.800,231.237 240.664,231.400 240.400 C 231.536 240.180,232.087 240.000,232.624 240.000 C 233.225 240.000,233.600 239.769,233.600 239.400 C 233.600 239.070,233.780 238.800,234.000 238.800 C 234.220 238.800,234.400 238.530,234.400 238.200 C 234.400 237.870,234.596 237.600,234.836 237.600 C 237.358 237.600,237.516 226.071,234.995 226.010 C 234.772 226.004,234.252 225.550,233.839 225.000 C 233.426 224.450,232.682 224.000,232.187 224.000 C 231.691 224.000,231.182 223.730,231.055 223.400 C 230.710 222.499,82.167 222.486,80.976 223.387 M79.500 263.903 C 78.895 264.278,78.400 264.814,78.400 265.093 C 78.400 265.372,78.222 265.600,78.005 265.600 C 77.223 265.600,76.000 266.996,76.000 267.889 C 76.000 268.390,75.820 268.800,75.600 268.800 C 75.012 268.800,75.102 274.925,75.707 276.054 C 76.849 278.185,77.733 279.200,78.446 279.200 C 78.861 279.200,79.200 279.470,79.200 279.800 C 79.200 280.200,79.600 280.400,80.400 280.400 C 81.060 280.400,81.600 280.580,81.600 280.800 C 81.600 281.065,111.925 281.200,171.776 281.200 C 231.463 281.200,262.036 281.065,262.200 280.800 C 262.336 280.580,262.982 280.400,263.636 280.400 C 264.324 280.400,264.922 280.147,265.055 279.800 C 265.182 279.470,265.536 279.200,265.843 279.200 C 266.149 279.200,266.400 278.930,266.400 278.600 C 266.400 278.270,266.670 278.000,267.000 278.000 C 267.336 278.000,267.600 277.643,267.600 277.187 C 267.600 276.741,267.870 276.271,268.200 276.145 C 268.678 275.961,268.800 275.104,268.800 271.945 C 268.800 268.785,268.678 267.928,268.200 267.745 C 267.870 267.618,267.600 267.224,267.600 266.870 C 267.600 266.148,265.746 264.400,264.981 264.400 C 264.708 264.400,264.382 264.130,264.255 263.800 C 263.878 262.816,81.089 262.918,79.500 263.903 " stroke="none" fill="#040404" fill-rule="evenodd"></path><path id="path1" d="" stroke="none" fill="#080404" fill-rule="evenodd"></path></g></svg>