<svg id="svg" xmlns="http://www.w3.org/2000/svg" xmlns:xlink="http://www.w3.org/1999/xlink" width="400" height="400" viewBox="0, 0, 400,400" version="1.1"><g id="svgg"><path id="path0" d="M53.600 23.367 C 53.600 23.678,53.375 24.035,53.100 24.160 C 52.825 24.284,52.958 24.342,53.395 24.288 C 54.211 24.188,54.803 22.800,54.029 22.800 C 53.793 22.800,53.600 23.055,53.600 23.367 M345.675 23.495 C 345.749 23.878,346.167 24.235,346.605 24.288 C 347.042 24.342,347.175 24.284,346.900 24.160 C 346.625 24.035,346.400 23.678,346.400 23.367 C 346.400 23.055,346.207 22.800,345.971 22.800 C 345.735 22.800,345.602 23.113,345.675 23.495 M51.272 24.834 C 50.812 25.570,50.836 25.652,51.471 25.529 C 51.867 25.453,52.251 25.078,52.325 24.695 C 52.508 23.741,51.904 23.821,51.272 24.834 M43.467 28.667 C 42.850 29.283,43.233 30.051,44.096 29.928 C 45.228 29.766,45.586 28.400,44.496 28.400 C 44.077 28.400,43.613 28.520,43.467 28.667 M354.944 28.998 C 355.085 29.365,355.200 29.741,355.200 29.833 C 355.200 29.925,355.573 30.000,356.029 30.000 C 357.207 30.000,356.862 28.638,355.640 28.465 C 354.889 28.358,354.742 28.471,354.944 28.998 M38.638 32.600 C 38.044 33.150,37.388 33.600,37.179 33.600 C 36.971 33.600,36.800 34.050,36.800 34.600 C 36.800 35.400,37.000 35.600,37.800 35.600 C 38.350 35.600,38.800 35.411,38.800 35.181 C 38.800 34.950,39.250 34.345,39.800 33.835 C 40.881 32.834,41.134 31.600,40.258 31.600 C 39.961 31.600,39.231 32.050,38.638 32.600 M359.200 32.104 C 359.200 32.381,359.650 33.093,360.200 33.687 C 360.750 34.280,361.200 34.953,361.200 35.183 C 361.200 35.412,361.650 35.600,362.200 35.600 C 363.000 35.600,363.200 35.400,363.200 34.600 C 363.200 34.050,363.011 33.600,362.781 33.600 C 362.550 33.600,361.945 33.150,361.435 32.600 C 360.452 31.539,359.200 31.262,359.200 32.104 M33.600 37.179 C 33.600 37.388,33.150 38.044,32.600 38.638 C 32.050 39.231,31.600 39.961,31.600 40.258 C 31.600 41.134,32.834 40.881,33.835 39.800 C 34.345 39.250,34.950 38.800,35.181 38.800 C 35.411 38.800,35.600 38.350,35.600 37.800 C 35.600 37.000,35.400 36.800,34.600 36.800 C 34.050 36.800,33.600 36.971,33.600 37.179 M364.400 37.460 C 364.400 38.383,366.990 40.800,367.980 40.800 C 369.113 40.800,369.007 40.239,367.600 38.800 C 366.940 38.125,366.400 37.399,366.400 37.186 C 366.400 36.974,365.950 36.800,365.400 36.800 C 364.738 36.800,364.400 37.023,364.400 37.460 M28.900 43.465 C 28.625 43.576,28.400 44.025,28.400 44.463 C 28.400 45.581,29.763 45.254,29.928 44.096 C 30.055 43.204,29.853 43.080,28.900 43.465 M370.072 44.100 C 370.154 44.678,370.522 45.046,371.100 45.128 C 372.108 45.271,372.184 45.091,371.586 43.974 C 370.998 42.875,369.911 42.965,370.072 44.100 M51.232 45.700 C 51.253 46.301,51.339 46.401,51.492 46.000 C 51.617 45.670,51.918 45.268,52.160 45.106 C 52.431 44.925,52.332 44.810,51.900 44.806 C 51.430 44.802,51.210 45.095,51.232 45.700 M347.900 45.040 C 348.175 45.165,348.400 45.522,348.400 45.833 C 348.400 46.145,348.593 46.400,348.829 46.400 C 349.603 46.400,349.011 45.012,348.195 44.912 C 347.758 44.858,347.625 44.916,347.900 45.040 M353.600 51.104 C 353.600 51.271,353.952 51.627,354.381 51.896 C 355.197 52.405,355.863 51.950,355.400 51.200 C 355.113 50.735,353.600 50.654,353.600 51.104 M44.806 51.900 C 44.810 52.332,44.925 52.431,45.106 52.160 C 45.268 51.918,45.670 51.617,46.000 51.492 C 46.401 51.339,46.301 51.253,45.700 51.232 C 45.095 51.210,44.802 51.430,44.806 51.900 M24.000 53.133 C 24.000 53.390,23.730 53.600,23.400 53.600 C 23.070 53.600,22.800 53.780,22.800 54.000 C 22.800 54.220,23.076 54.400,23.413 54.400 C 24.065 54.400,24.667 53.333,24.249 52.916 C 24.112 52.779,24.000 52.877,24.000 53.133 M77.216 53.758 C 77.016 54.285,76.615 54.800,76.326 54.903 C 76.037 55.006,75.934 55.234,76.098 55.410 C 76.568 55.914,79.200 54.302,79.200 53.509 C 79.200 52.421,77.650 52.616,77.216 53.758 M89.200 53.413 C 89.200 54.057,90.265 54.669,90.674 54.259 C 90.959 53.974,90.055 52.800,89.551 52.800 C 89.358 52.800,89.200 53.076,89.200 53.413 M109.660 53.442 C 109.362 53.778,109.220 54.153,109.342 54.276 C 109.739 54.672,110.800 54.044,110.800 53.413 C 110.800 52.641,110.357 52.652,109.660 53.442 M120.800 53.373 C 120.800 53.976,122.814 55.600,123.562 55.600 C 123.803 55.600,124.000 55.420,124.000 55.200 C 124.000 54.980,123.816 54.800,123.590 54.800 C 123.365 54.800,123.009 54.350,122.800 53.800 C 122.389 52.720,120.800 52.380,120.800 53.373 M152.800 53.511 C 152.800 54.414,154.165 55.600,155.205 55.600 C 156.208 55.600,156.200 55.438,155.125 53.984 C 154.151 52.667,152.800 52.392,152.800 53.511 M375.710 53.731 C 375.902 54.307,377.200 54.607,377.200 54.076 C 377.200 53.866,376.830 53.596,376.377 53.478 C 375.854 53.341,375.611 53.433,375.710 53.731 M295.600 184.400 C 295.600 184.933,295.867 185.200,296.400 185.200 C 297.307 185.200,297.425 184.785,296.720 184.080 C 296.015 183.375,295.600 183.493,295.600 184.400 M77.829 185.409 C 77.405 185.729,77.172 186.106,77.312 186.245 C 77.733 186.666,78.800 186.068,78.800 185.413 C 78.800 184.675,78.798 184.675,77.829 185.409 M298.993 187.211 C 298.663 187.745,299.340 188.558,299.937 188.345 C 300.189 188.255,300.141 187.925,299.810 187.476 C 299.441 186.975,299.189 186.893,298.993 187.211 M299.467 195.867 C 299.320 196.013,299.200 196.386,299.200 196.695 C 299.200 197.161,299.303 197.154,299.800 196.657 C 300.130 196.327,300.400 195.954,300.400 195.829 C 300.400 195.515,299.793 195.540,299.467 195.867 M77.675 198.248 C 78.047 198.358,78.442 198.753,78.552 199.125 C 78.699 199.614,78.732 199.581,78.672 199.005 C 78.625 198.538,78.262 198.175,77.795 198.128 C 77.219 198.068,77.186 198.101,77.675 198.248 M295.784 199.627 C 295.328 200.364,295.932 200.525,296.610 199.848 C 297.169 199.288,297.175 199.200,296.652 199.200 C 296.319 199.200,295.929 199.392,295.784 199.627 M231.067 239.467 C 230.397 240.136,230.796 240.809,231.574 240.323 C 232.000 240.057,232.259 239.696,232.151 239.520 C 231.910 239.130,231.427 239.107,231.067 239.467 M264.400 265.044 C 264.400 265.917,266.036 267.585,266.900 267.593 C 267.948 267.603,267.750 266.354,266.538 265.313 C 265.296 264.246,264.400 264.133,264.400 265.044 M76.000 268.167 C 76.000 268.478,75.775 268.824,75.500 268.935 C 75.201 269.056,75.282 269.150,75.700 269.168 C 76.144 269.188,76.400 268.907,76.400 268.400 C 76.400 267.960,76.310 267.600,76.200 267.600 C 76.090 267.600,76.000 267.855,76.000 268.167 M267.311 275.649 C 267.064 275.896,266.952 276.332,267.062 276.618 C 267.247 277.099,268.800 276.010,268.800 275.400 C 268.800 275.025,267.761 275.199,267.311 275.649 M76.000 276.616 C 76.000 277.263,77.856 279.200,78.475 279.200 C 79.545 279.200,79.376 277.808,78.214 277.046 C 77.259 276.420,76.000 276.176,76.000 276.616 M22.800 345.971 C 22.800 346.207,23.055 346.400,23.367 346.400 C 23.678 346.400,24.035 346.625,24.160 346.900 C 24.284 347.175,24.342 347.042,24.288 346.605 C 24.188 345.789,22.800 345.197,22.800 345.971 M375.738 346.217 C 375.608 346.557,375.613 346.947,375.751 347.084 C 375.888 347.221,376.000 347.123,376.000 346.867 C 376.000 346.610,376.270 346.400,376.600 346.400 C 376.930 346.400,377.200 346.220,377.200 346.000 C 377.200 345.360,375.998 345.539,375.738 346.217 M44.800 348.397 C 44.800 348.933,45.066 349.200,45.600 349.200 C 46.040 349.200,46.400 349.063,46.400 348.896 C 46.400 348.729,46.040 348.368,45.600 348.093 C 44.900 347.655,44.800 347.693,44.800 348.397 M354.300 348.171 C 353.915 348.455,353.600 348.803,353.600 348.944 C 353.600 349.378,355.136 349.227,355.422 348.765 C 355.865 348.047,355.052 347.616,354.300 348.171 M50.800 354.376 C 50.800 355.251,51.402 355.770,51.992 355.405 C 52.239 355.253,52.203 354.873,51.896 354.381 C 51.273 353.384,50.800 353.382,50.800 354.376 M348.104 354.381 C 347.797 354.873,347.761 355.253,348.008 355.405 C 348.598 355.770,349.200 355.251,349.200 354.376 C 349.200 353.382,348.727 353.384,348.104 354.381 M370.267 355.067 C 370.120 355.213,370.000 355.663,370.000 356.067 C 370.000 356.900,370.805 357.035,371.520 356.320 C 372.235 355.605,372.100 354.800,371.267 354.800 C 370.863 354.800,370.413 354.920,370.267 355.067 M28.400 355.800 C 28.400 356.130,28.475 356.400,28.567 356.400 C 28.659 356.400,29.019 356.509,29.367 356.643 C 29.821 356.817,30.000 356.647,30.000 356.043 C 30.000 355.467,29.747 355.200,29.200 355.200 C 28.756 355.200,28.400 355.467,28.400 355.800 M31.600 359.742 C 31.600 360.039,32.050 360.769,32.600 361.362 C 33.150 361.956,33.600 362.612,33.600 362.821 C 33.600 363.029,34.050 363.200,34.600 363.200 C 36.077 363.200,35.866 362.067,34.100 360.525 C 32.509 359.136,31.600 358.851,31.600 359.742 M366.945 359.800 C 366.818 360.130,366.556 360.400,366.362 360.400 C 365.695 360.400,364.400 361.779,364.400 362.489 C 364.400 362.981,364.708 363.200,365.400 363.200 C 365.950 363.200,366.400 363.031,366.400 362.825 C 366.400 362.618,366.940 361.858,367.600 361.136 C 368.260 360.413,368.800 359.682,368.800 359.511 C 368.800 358.939,367.178 359.192,366.945 359.800 M37.067 364.667 C 36.658 365.075,36.750 366.400,37.186 366.400 C 37.399 366.400,38.125 366.940,38.800 367.600 C 41.093 369.842,41.663 368.406,39.475 365.900 C 38.193 364.432,37.603 364.130,37.067 364.667 M360.505 365.900 C 358.352 368.423,358.829 369.707,361.136 367.600 C 361.858 366.940,362.618 366.400,362.825 366.400 C 363.031 366.400,363.200 365.950,363.200 365.400 C 363.200 363.912,362.012 364.133,360.505 365.900 M43.376 370.439 C 43.203 370.718,43.388 371.148,43.815 371.461 C 44.876 372.236,45.274 372.128,45.128 371.104 C 44.987 370.114,43.845 369.680,43.376 370.439 M355.200 371.000 C 355.200 372.124,355.664 372.287,356.385 371.418 C 356.942 370.747,356.620 370.000,355.776 370.000 C 355.428 370.000,355.200 370.396,355.200 371.000 M51.181 375.164 C 51.722 376.176,52.511 376.273,52.325 375.305 C 52.251 374.922,51.863 374.546,51.462 374.469 C 50.838 374.349,50.798 374.449,51.181 375.164 M53.478 376.377 C 53.596 376.830,53.866 377.200,54.076 377.200 C 54.607 377.200,54.307 375.902,53.731 375.710 C 53.433 375.611,53.341 375.854,53.478 376.377 M345.867 375.867 C 345.458 376.276,345.550 377.200,346.000 377.200 C 346.220 377.200,346.400 376.945,346.400 376.633 C 346.400 376.322,346.625 375.976,346.900 375.865 C 347.226 375.733,347.180 375.652,346.767 375.632 C 346.418 375.614,346.013 375.720,345.867 375.867 " stroke="none" fill="#fcfcfc" fill-rule="evenodd"></path><path id="path1" d="" stroke="none" fill="#100fcfc" fill-rule="evenodd"></path></g></svg>